%FSLAX44Y44*%
%MOMM*%
G71*
G01*
G75*
G04 Layer_Color=32896*
%ADD10R,2.0320X2.0320*%
%ADD11R,1.0000X0.8000*%
%ADD12R,0.8000X1.0000*%
%ADD13R,1.2700X1.2700*%
%ADD14R,1.0000X0.7000*%
%ADD15R,1.8000X0.4000*%
%ADD16C,0.2000*%
%ADD17C,0.4000*%
%ADD18C,0.3000*%
%ADD19C,1.2000*%
%ADD20R,1.2000X1.2000*%
%ADD21C,3.0000*%
%ADD22R,1.6000X1.6000*%
%ADD23C,0.8000*%
%ADD24C,0.1000*%
%ADD25C,0.1524*%
%ADD26R,0.2500X0.2500*%
%ADD27R,2.2320X2.2320*%
%ADD28R,1.2000X1.0000*%
%ADD29R,1.0000X1.2000*%
%ADD30R,1.4700X1.4700*%
%ADD31R,1.2000X0.9000*%
%ADD32R,2.0000X0.6000*%
%ADD33C,1.4000*%
%ADD34R,1.4000X1.4000*%
%ADD35C,3.2000*%
%ADD36R,1.8000X1.8000*%
G36*
X238077Y153440D02*
Y152340D01*
X233833D01*
Y150000D01*
X232635D01*
Y152340D01*
X231310D01*
Y153440D01*
X232635D01*
Y159755D01*
X233608D01*
X238077Y153440D01*
D02*
G37*
G36*
X458456Y114610D02*
X457329Y114455D01*
X457230Y114610D01*
X457103Y114737D01*
X456990Y114864D01*
X456878Y114962D01*
X456765Y115033D01*
X456680Y115103D01*
X456624Y115131D01*
X456610Y115145D01*
X456426Y115230D01*
X456243Y115301D01*
X456074Y115343D01*
X455905Y115385D01*
X455764Y115399D01*
X455651Y115413D01*
X455383D01*
X455214Y115385D01*
X454918Y115315D01*
X454664Y115216D01*
X454439Y115117D01*
X454269Y115004D01*
X454143Y114906D01*
X454072Y114835D01*
X454044Y114821D01*
Y114807D01*
X453847Y114567D01*
X453706Y114314D01*
X453607Y114046D01*
X453536Y113778D01*
X453494Y113553D01*
X453480Y113454D01*
Y113369D01*
X453466Y113299D01*
Y113242D01*
Y113214D01*
Y113200D01*
Y113003D01*
X453494Y112819D01*
X453565Y112467D01*
X453663Y112171D01*
X453762Y111931D01*
X453875Y111734D01*
X453974Y111579D01*
X454016Y111537D01*
X454044Y111494D01*
X454058Y111480D01*
X454072Y111466D01*
X454185Y111353D01*
X454298Y111255D01*
X454552Y111086D01*
X454791Y110973D01*
X455031Y110902D01*
X455228Y110846D01*
X455397Y110832D01*
X455454Y110818D01*
X455538D01*
X455806Y110832D01*
X456046Y110888D01*
X456257Y110959D01*
X456426Y111043D01*
X456581Y111128D01*
X456694Y111198D01*
X456751Y111255D01*
X456779Y111269D01*
X456948Y111466D01*
X457089Y111678D01*
X457202Y111917D01*
X457286Y112129D01*
X457343Y112340D01*
X457385Y112495D01*
X457399Y112566D01*
X457413Y112608D01*
Y112636D01*
Y112650D01*
X458668Y112552D01*
X458640Y112326D01*
X458597Y112115D01*
X458470Y111720D01*
X458315Y111382D01*
X458231Y111226D01*
X458146Y111100D01*
X458076Y110973D01*
X457991Y110860D01*
X457921Y110775D01*
X457850Y110705D01*
X457794Y110648D01*
X457766Y110592D01*
X457737Y110578D01*
X457723Y110564D01*
X457554Y110437D01*
X457385Y110324D01*
X457202Y110226D01*
X457018Y110141D01*
X456666Y110014D01*
X456314Y109930D01*
X456158Y109887D01*
X456003Y109873D01*
X455877Y109859D01*
X455764Y109845D01*
X455665Y109831D01*
X455538D01*
X455242Y109845D01*
X454960Y109887D01*
X454692Y109944D01*
X454453Y110014D01*
X454227Y110113D01*
X454016Y110211D01*
X453818Y110310D01*
X453649Y110423D01*
X453494Y110536D01*
X453353Y110634D01*
X453240Y110747D01*
X453142Y110832D01*
X453071Y110902D01*
X453015Y110959D01*
X452987Y111001D01*
X452973Y111015D01*
X452832Y111198D01*
X452719Y111396D01*
X452606Y111579D01*
X452522Y111776D01*
X452380Y112157D01*
X452296Y112523D01*
X452268Y112678D01*
X452240Y112833D01*
X452225Y112960D01*
X452211Y113073D01*
X452197Y113172D01*
Y113242D01*
Y113285D01*
Y113299D01*
X452211Y113553D01*
X452240Y113792D01*
X452282Y114032D01*
X452338Y114243D01*
X452409Y114441D01*
X452479Y114638D01*
X452564Y114807D01*
X452634Y114962D01*
X452719Y115103D01*
X452803Y115230D01*
X452874Y115329D01*
X452944Y115427D01*
X453001Y115498D01*
X453043Y115540D01*
X453071Y115568D01*
X453085Y115582D01*
X453255Y115737D01*
X453424Y115878D01*
X453607Y115991D01*
X453790Y116090D01*
X453974Y116189D01*
X454157Y116259D01*
X454495Y116358D01*
X454650Y116400D01*
X454791Y116428D01*
X454918Y116442D01*
X455031Y116456D01*
X455115Y116470D01*
X455425D01*
X455595Y116442D01*
X455933Y116372D01*
X456243Y116273D01*
X456525Y116160D01*
X456751Y116048D01*
X456849Y115991D01*
X456934Y115949D01*
X457004Y115907D01*
X457047Y115878D01*
X457075Y115864D01*
X457089Y115850D01*
X456567Y118486D01*
X452663D01*
Y119628D01*
X457512D01*
X458456Y114610D01*
D02*
G37*
G36*
X247000Y150000D02*
X245703D01*
Y154328D01*
X244040D01*
X243885Y154314D01*
X243772D01*
X243673Y154300D01*
X243603Y154285D01*
X243546D01*
X243518Y154271D01*
X243504D01*
X243278Y154201D01*
X243180Y154159D01*
X243095Y154116D01*
X243011Y154074D01*
X242954Y154046D01*
X242926Y154032D01*
X242912Y154018D01*
X242799Y153933D01*
X242686Y153834D01*
X242475Y153623D01*
X242376Y153524D01*
X242306Y153440D01*
X242263Y153383D01*
X242249Y153369D01*
X242108Y153172D01*
X241953Y152960D01*
X241798Y152735D01*
X241643Y152523D01*
X241516Y152326D01*
X241418Y152171D01*
X241375Y152115D01*
X241347Y152072D01*
X241319Y152044D01*
Y152030D01*
X240036Y150000D01*
X238429D01*
X240107Y152650D01*
X240304Y152932D01*
X240487Y153186D01*
X240670Y153397D01*
X240826Y153595D01*
X240966Y153736D01*
X241079Y153848D01*
X241150Y153919D01*
X241178Y153947D01*
X241291Y154032D01*
X241418Y154130D01*
X241671Y154285D01*
X241784Y154342D01*
X241869Y154398D01*
X241925Y154426D01*
X241953Y154441D01*
X241700Y154483D01*
X241460Y154525D01*
X241248Y154596D01*
X241037Y154652D01*
X240854Y154722D01*
X240685Y154807D01*
X240529Y154878D01*
X240389Y154948D01*
X240276Y155033D01*
X240163Y155103D01*
X240078Y155160D01*
X240008Y155216D01*
X239951Y155258D01*
X239909Y155301D01*
X239895Y155315D01*
X239881Y155329D01*
X239768Y155470D01*
X239655Y155611D01*
X239486Y155907D01*
X239373Y156203D01*
X239289Y156485D01*
X239233Y156724D01*
X239218Y156823D01*
Y156922D01*
X239204Y156992D01*
Y157049D01*
Y157077D01*
Y157091D01*
X239218Y157387D01*
X239261Y157655D01*
X239331Y157908D01*
X239402Y158120D01*
X239486Y158303D01*
X239543Y158444D01*
X239599Y158529D01*
X239613Y158543D01*
Y158557D01*
X239782Y158782D01*
X239951Y158980D01*
X240135Y159149D01*
X240304Y159276D01*
X240459Y159375D01*
X240586Y159431D01*
X240670Y159473D01*
X240685Y159487D01*
X240699D01*
X240826Y159530D01*
X240981Y159572D01*
X241291Y159642D01*
X241629Y159685D01*
X241939Y159727D01*
X242235Y159741D01*
X242362D01*
X242475Y159755D01*
X247000D01*
Y150000D01*
D02*
G37*
G36*
X235018Y80769D02*
X235398Y80699D01*
X235722Y80586D01*
X236004Y80473D01*
X236131Y80403D01*
X236230Y80346D01*
X236329Y80290D01*
X236399Y80233D01*
X236455Y80191D01*
X236498Y80163D01*
X236526Y80149D01*
X236540Y80135D01*
X236808Y79867D01*
X237019Y79571D01*
X237188Y79261D01*
X237329Y78951D01*
X237414Y78683D01*
X237456Y78570D01*
X237484Y78471D01*
X237499Y78387D01*
X237513Y78330D01*
X237527Y78288D01*
Y78274D01*
X236329Y78063D01*
X236272Y78373D01*
X236188Y78641D01*
X236089Y78866D01*
X235990Y79049D01*
X235892Y79190D01*
X235807Y79289D01*
X235751Y79359D01*
X235737Y79374D01*
X235553Y79515D01*
X235356Y79627D01*
X235173Y79698D01*
X234989Y79754D01*
X234820Y79782D01*
X234693Y79811D01*
X234580D01*
X234327Y79797D01*
X234101Y79740D01*
X233904Y79670D01*
X233735Y79599D01*
X233608Y79515D01*
X233509Y79444D01*
X233439Y79388D01*
X233425Y79374D01*
X233270Y79205D01*
X233157Y79021D01*
X233086Y78838D01*
X233030Y78669D01*
X233002Y78514D01*
X232973Y78401D01*
Y78316D01*
Y78302D01*
Y78288D01*
Y78133D01*
X233002Y77992D01*
X233072Y77752D01*
X233171Y77541D01*
X233284Y77358D01*
X233396Y77231D01*
X233495Y77132D01*
X233566Y77076D01*
X233580Y77062D01*
X233594D01*
X233833Y76935D01*
X234059Y76836D01*
X234299Y76766D01*
X234510Y76723D01*
X234693Y76695D01*
X234848Y76667D01*
X235032D01*
X235088Y76681D01*
X235159D01*
X235299Y75624D01*
X235116Y75666D01*
X234947Y75694D01*
X234806Y75722D01*
X234679Y75737D01*
X234580Y75751D01*
X234454D01*
X234158Y75722D01*
X233890Y75666D01*
X233650Y75581D01*
X233453Y75483D01*
X233298Y75384D01*
X233185Y75300D01*
X233114Y75243D01*
X233086Y75215D01*
X232903Y75004D01*
X232762Y74778D01*
X232663Y74552D01*
X232607Y74327D01*
X232565Y74144D01*
X232551Y73989D01*
X232537Y73932D01*
Y73890D01*
Y73862D01*
Y73848D01*
X232565Y73538D01*
X232635Y73256D01*
X232720Y73016D01*
X232833Y72804D01*
X232945Y72635D01*
X233030Y72508D01*
X233100Y72424D01*
X233129Y72396D01*
X233354Y72198D01*
X233594Y72057D01*
X233833Y71959D01*
X234059Y71888D01*
X234256Y71846D01*
X234411Y71832D01*
X234468Y71818D01*
X234552D01*
X234806Y71832D01*
X235046Y71888D01*
X235257Y71959D01*
X235426Y72043D01*
X235567Y72114D01*
X235680Y72184D01*
X235737Y72241D01*
X235765Y72255D01*
X235934Y72452D01*
X236075Y72678D01*
X236202Y72917D01*
X236300Y73171D01*
X236371Y73382D01*
X236399Y73481D01*
X236413Y73566D01*
X236427Y73636D01*
X236441Y73692D01*
X236455Y73721D01*
Y73735D01*
X237654Y73580D01*
X237626Y73354D01*
X237583Y73143D01*
X237456Y72748D01*
X237301Y72410D01*
X237217Y72269D01*
X237132Y72128D01*
X237048Y72001D01*
X236963Y71902D01*
X236892Y71803D01*
X236822Y71733D01*
X236780Y71677D01*
X236737Y71634D01*
X236709Y71606D01*
X236695Y71592D01*
X236526Y71465D01*
X236357Y71338D01*
X236188Y71240D01*
X236004Y71155D01*
X235652Y71014D01*
X235314Y70929D01*
X235159Y70901D01*
X235018Y70873D01*
X234891Y70859D01*
X234778Y70845D01*
X234693Y70831D01*
X234566D01*
X234299Y70845D01*
X234059Y70873D01*
X233819Y70915D01*
X233594Y70972D01*
X233382Y71042D01*
X233199Y71113D01*
X233016Y71197D01*
X232861Y71282D01*
X232706Y71352D01*
X232579Y71437D01*
X232466Y71508D01*
X232381Y71578D01*
X232311Y71634D01*
X232255Y71677D01*
X232226Y71705D01*
X232212Y71719D01*
X232043Y71888D01*
X231902Y72071D01*
X231775Y72255D01*
X231663Y72438D01*
X231578Y72607D01*
X231493Y72790D01*
X231381Y73129D01*
X231352Y73284D01*
X231324Y73425D01*
X231296Y73552D01*
X231282Y73664D01*
X231268Y73749D01*
Y73819D01*
Y73862D01*
Y73876D01*
X231282Y74214D01*
X231338Y74524D01*
X231423Y74792D01*
X231507Y75018D01*
X231592Y75201D01*
X231677Y75342D01*
X231733Y75427D01*
X231747Y75455D01*
X231944Y75666D01*
X232156Y75849D01*
X232381Y75990D01*
X232607Y76103D01*
X232804Y76188D01*
X232959Y76244D01*
X233016Y76258D01*
X233058Y76272D01*
X233086Y76286D01*
X233100D01*
X232861Y76413D01*
X232663Y76540D01*
X232494Y76681D01*
X232353Y76808D01*
X232240Y76921D01*
X232156Y77019D01*
X232114Y77076D01*
X232099Y77104D01*
X231987Y77301D01*
X231902Y77499D01*
X231832Y77696D01*
X231789Y77879D01*
X231761Y78034D01*
X231747Y78147D01*
Y78232D01*
Y78260D01*
X231761Y78500D01*
X231803Y78739D01*
X231860Y78951D01*
X231930Y79134D01*
X232001Y79289D01*
X232057Y79416D01*
X232099Y79486D01*
X232114Y79515D01*
X232255Y79726D01*
X232424Y79909D01*
X232593Y80064D01*
X232762Y80205D01*
X232903Y80304D01*
X233030Y80389D01*
X233114Y80431D01*
X233129Y80445D01*
X233143D01*
X233396Y80558D01*
X233650Y80642D01*
X233904Y80713D01*
X234129Y80755D01*
X234313Y80783D01*
X234468Y80797D01*
X234820D01*
X235018Y80769D01*
D02*
G37*
G36*
X247000Y71000D02*
X245703D01*
Y75328D01*
X244040D01*
X243885Y75314D01*
X243772D01*
X243673Y75300D01*
X243603Y75286D01*
X243546D01*
X243518Y75271D01*
X243504D01*
X243278Y75201D01*
X243180Y75159D01*
X243095Y75116D01*
X243011Y75074D01*
X242954Y75046D01*
X242926Y75032D01*
X242912Y75018D01*
X242799Y74933D01*
X242686Y74834D01*
X242475Y74623D01*
X242376Y74524D01*
X242306Y74440D01*
X242263Y74383D01*
X242249Y74369D01*
X242108Y74172D01*
X241953Y73960D01*
X241798Y73735D01*
X241643Y73523D01*
X241516Y73326D01*
X241418Y73171D01*
X241375Y73115D01*
X241347Y73072D01*
X241319Y73044D01*
Y73030D01*
X240036Y71000D01*
X238429D01*
X240107Y73650D01*
X240304Y73932D01*
X240487Y74186D01*
X240670Y74397D01*
X240826Y74595D01*
X240966Y74736D01*
X241079Y74848D01*
X241150Y74919D01*
X241178Y74947D01*
X241291Y75032D01*
X241418Y75130D01*
X241671Y75286D01*
X241784Y75342D01*
X241869Y75398D01*
X241925Y75427D01*
X241953Y75441D01*
X241700Y75483D01*
X241460Y75525D01*
X241248Y75596D01*
X241037Y75652D01*
X240854Y75722D01*
X240685Y75807D01*
X240529Y75878D01*
X240389Y75948D01*
X240276Y76033D01*
X240163Y76103D01*
X240078Y76160D01*
X240008Y76216D01*
X239951Y76258D01*
X239909Y76301D01*
X239895Y76315D01*
X239881Y76329D01*
X239768Y76470D01*
X239655Y76611D01*
X239486Y76907D01*
X239373Y77203D01*
X239289Y77485D01*
X239233Y77724D01*
X239218Y77823D01*
Y77922D01*
X239204Y77992D01*
Y78049D01*
Y78077D01*
Y78091D01*
X239218Y78387D01*
X239261Y78655D01*
X239331Y78908D01*
X239402Y79120D01*
X239486Y79303D01*
X239543Y79444D01*
X239599Y79529D01*
X239613Y79543D01*
Y79557D01*
X239782Y79782D01*
X239951Y79980D01*
X240135Y80149D01*
X240304Y80276D01*
X240459Y80374D01*
X240586Y80431D01*
X240670Y80473D01*
X240685Y80487D01*
X240699D01*
X240826Y80530D01*
X240981Y80572D01*
X241291Y80642D01*
X241629Y80685D01*
X241939Y80727D01*
X242235Y80741D01*
X242362D01*
X242475Y80755D01*
X247000D01*
Y71000D01*
D02*
G37*
G36*
X468000Y110000D02*
X466703D01*
Y114328D01*
X465040D01*
X464885Y114314D01*
X464772D01*
X464673Y114300D01*
X464603Y114285D01*
X464546D01*
X464518Y114271D01*
X464504D01*
X464278Y114201D01*
X464180Y114159D01*
X464095Y114116D01*
X464011Y114074D01*
X463954Y114046D01*
X463926Y114032D01*
X463912Y114018D01*
X463799Y113933D01*
X463686Y113834D01*
X463475Y113623D01*
X463376Y113524D01*
X463306Y113440D01*
X463263Y113383D01*
X463249Y113369D01*
X463108Y113172D01*
X462953Y112960D01*
X462798Y112735D01*
X462643Y112523D01*
X462516Y112326D01*
X462418Y112171D01*
X462375Y112115D01*
X462347Y112072D01*
X462319Y112044D01*
Y112030D01*
X461036Y110000D01*
X459429D01*
X461107Y112650D01*
X461304Y112932D01*
X461487Y113186D01*
X461670Y113397D01*
X461825Y113595D01*
X461967Y113736D01*
X462079Y113848D01*
X462150Y113919D01*
X462178Y113947D01*
X462291Y114032D01*
X462418Y114130D01*
X462671Y114285D01*
X462784Y114342D01*
X462869Y114398D01*
X462925Y114426D01*
X462953Y114441D01*
X462700Y114483D01*
X462460Y114525D01*
X462248Y114596D01*
X462037Y114652D01*
X461854Y114722D01*
X461684Y114807D01*
X461530Y114878D01*
X461389Y114948D01*
X461276Y115033D01*
X461163Y115103D01*
X461078Y115160D01*
X461008Y115216D01*
X460951Y115258D01*
X460909Y115301D01*
X460895Y115315D01*
X460881Y115329D01*
X460768Y115470D01*
X460656Y115611D01*
X460486Y115907D01*
X460373Y116203D01*
X460289Y116485D01*
X460233Y116724D01*
X460219Y116823D01*
Y116922D01*
X460204Y116992D01*
Y117049D01*
Y117077D01*
Y117091D01*
X460219Y117387D01*
X460261Y117655D01*
X460331Y117908D01*
X460402Y118120D01*
X460486Y118303D01*
X460543Y118444D01*
X460599Y118529D01*
X460613Y118543D01*
Y118557D01*
X460782Y118782D01*
X460951Y118980D01*
X461135Y119149D01*
X461304Y119276D01*
X461459Y119375D01*
X461586Y119431D01*
X461670Y119473D01*
X461684Y119487D01*
X461699D01*
X461825Y119530D01*
X461981Y119572D01*
X462291Y119642D01*
X462629Y119685D01*
X462939Y119727D01*
X463235Y119741D01*
X463362D01*
X463475Y119755D01*
X468000D01*
Y110000D01*
D02*
G37*
G36*
X58727Y221540D02*
X58628Y221329D01*
X58530Y221117D01*
X58431Y220920D01*
X58346Y220751D01*
X58276Y220610D01*
X58219Y220525D01*
X58205Y220511D01*
Y220497D01*
X58050Y220243D01*
X57895Y220018D01*
X57754Y219820D01*
X57627Y219665D01*
X57529Y219524D01*
X57444Y219440D01*
X57388Y219369D01*
X57373Y219355D01*
X65000D01*
Y218157D01*
X55203D01*
Y218932D01*
X55442Y219073D01*
X55668Y219228D01*
X55893Y219411D01*
X56091Y219580D01*
X56260Y219750D01*
X56401Y219877D01*
X56443Y219933D01*
X56485Y219975D01*
X56500Y219989D01*
X56514Y220003D01*
X56753Y220299D01*
X56979Y220595D01*
X57176Y220877D01*
X57331Y221159D01*
X57472Y221399D01*
X57529Y221498D01*
X57571Y221582D01*
X57613Y221653D01*
X57627Y221709D01*
X57656Y221737D01*
Y221751D01*
X58811D01*
X58727Y221540D01*
D02*
G37*
G36*
Y213956D02*
X58628Y213744D01*
X58530Y213533D01*
X58431Y213336D01*
X58346Y213166D01*
X58276Y213025D01*
X58219Y212941D01*
X58205Y212927D01*
Y212913D01*
X58050Y212659D01*
X57895Y212433D01*
X57754Y212236D01*
X57627Y212081D01*
X57529Y211940D01*
X57444Y211855D01*
X57388Y211785D01*
X57373Y211771D01*
X65000D01*
Y210573D01*
X55203D01*
Y211348D01*
X55442Y211489D01*
X55668Y211644D01*
X55893Y211827D01*
X56091Y211996D01*
X56260Y212166D01*
X56401Y212292D01*
X56443Y212349D01*
X56485Y212391D01*
X56500Y212405D01*
X56514Y212419D01*
X56753Y212715D01*
X56979Y213011D01*
X57176Y213293D01*
X57331Y213575D01*
X57472Y213815D01*
X57529Y213913D01*
X57571Y213998D01*
X57613Y214069D01*
X57627Y214125D01*
X57656Y214153D01*
Y214167D01*
X58811D01*
X58727Y213956D01*
D02*
G37*
G36*
X65000Y230703D02*
X60672D01*
Y229209D01*
Y229040D01*
X60686Y228885D01*
Y228772D01*
X60700Y228673D01*
X60715Y228603D01*
Y228546D01*
X60729Y228518D01*
Y228504D01*
X60799Y228278D01*
X60841Y228180D01*
X60884Y228095D01*
X60926Y228011D01*
X60954Y227954D01*
X60968Y227926D01*
X60982Y227912D01*
X61067Y227799D01*
X61166Y227686D01*
X61377Y227475D01*
X61476Y227376D01*
X61560Y227306D01*
X61617Y227263D01*
X61631Y227249D01*
X61828Y227108D01*
X62040Y226953D01*
X62265Y226798D01*
X62477Y226643D01*
X62674Y226516D01*
X62829Y226418D01*
X62885Y226375D01*
X62928Y226347D01*
X62956Y226319D01*
X62970D01*
X65000Y225036D01*
Y223429D01*
X62350Y225107D01*
X62068Y225304D01*
X61814Y225487D01*
X61603Y225670D01*
X61405Y225826D01*
X61264Y225966D01*
X61151Y226079D01*
X61081Y226150D01*
X61053Y226178D01*
X60968Y226291D01*
X60870Y226418D01*
X60715Y226671D01*
X60658Y226784D01*
X60602Y226869D01*
X60574Y226925D01*
X60559Y226953D01*
X60517Y226700D01*
X60475Y226460D01*
X60404Y226248D01*
X60348Y226037D01*
X60278Y225854D01*
X60193Y225685D01*
X60122Y225529D01*
X60052Y225389D01*
X59967Y225276D01*
X59897Y225163D01*
X59840Y225078D01*
X59784Y225008D01*
X59742Y224951D01*
X59700Y224909D01*
X59685Y224895D01*
X59671Y224881D01*
X59530Y224768D01*
X59389Y224655D01*
X59093Y224486D01*
X58797Y224373D01*
X58515Y224289D01*
X58276Y224233D01*
X58177Y224218D01*
X58078D01*
X58008Y224204D01*
X57909D01*
X57613Y224218D01*
X57345Y224261D01*
X57092Y224331D01*
X56880Y224402D01*
X56697Y224486D01*
X56556Y224543D01*
X56471Y224599D01*
X56457Y224613D01*
X56443D01*
X56218Y224782D01*
X56020Y224951D01*
X55851Y225135D01*
X55724Y225304D01*
X55626Y225459D01*
X55569Y225586D01*
X55527Y225670D01*
X55513Y225685D01*
Y225699D01*
X55470Y225826D01*
X55428Y225981D01*
X55358Y226291D01*
X55315Y226629D01*
X55273Y226939D01*
X55259Y227235D01*
Y227362D01*
X55245Y227475D01*
Y227559D01*
Y227630D01*
Y227672D01*
Y227686D01*
Y232000D01*
X65000D01*
Y230703D01*
D02*
G37*
G36*
X403000Y117703D02*
X398672D01*
Y116209D01*
Y116040D01*
X398686Y115885D01*
Y115772D01*
X398700Y115673D01*
X398714Y115603D01*
Y115546D01*
X398729Y115518D01*
Y115504D01*
X398799Y115278D01*
X398841Y115180D01*
X398884Y115095D01*
X398926Y115010D01*
X398954Y114954D01*
X398968Y114926D01*
X398982Y114912D01*
X399067Y114799D01*
X399166Y114686D01*
X399377Y114475D01*
X399476Y114376D01*
X399560Y114306D01*
X399617Y114263D01*
X399631Y114249D01*
X399828Y114108D01*
X400040Y113953D01*
X400265Y113798D01*
X400477Y113643D01*
X400674Y113516D01*
X400829Y113418D01*
X400886Y113375D01*
X400928Y113347D01*
X400956Y113319D01*
X400970D01*
X403000Y112036D01*
Y110429D01*
X400350Y112107D01*
X400068Y112304D01*
X399814Y112487D01*
X399603Y112670D01*
X399405Y112825D01*
X399264Y112966D01*
X399151Y113079D01*
X399081Y113150D01*
X399053Y113178D01*
X398968Y113291D01*
X398870Y113418D01*
X398714Y113671D01*
X398658Y113784D01*
X398602Y113869D01*
X398573Y113925D01*
X398559Y113953D01*
X398517Y113700D01*
X398475Y113460D01*
X398404Y113248D01*
X398348Y113037D01*
X398278Y112854D01*
X398193Y112684D01*
X398122Y112529D01*
X398052Y112388D01*
X397967Y112276D01*
X397897Y112163D01*
X397840Y112078D01*
X397784Y112008D01*
X397742Y111952D01*
X397700Y111909D01*
X397685Y111895D01*
X397671Y111881D01*
X397530Y111768D01*
X397389Y111656D01*
X397093Y111486D01*
X396797Y111374D01*
X396515Y111289D01*
X396276Y111233D01*
X396177Y111218D01*
X396078D01*
X396008Y111204D01*
X395909D01*
X395613Y111218D01*
X395345Y111261D01*
X395092Y111331D01*
X394880Y111402D01*
X394697Y111486D01*
X394556Y111543D01*
X394471Y111599D01*
X394457Y111613D01*
X394443D01*
X394218Y111782D01*
X394020Y111952D01*
X393851Y112135D01*
X393724Y112304D01*
X393625Y112459D01*
X393569Y112586D01*
X393527Y112670D01*
X393513Y112684D01*
Y112699D01*
X393470Y112825D01*
X393428Y112981D01*
X393358Y113291D01*
X393315Y113629D01*
X393273Y113939D01*
X393259Y114235D01*
Y114362D01*
X393245Y114475D01*
Y114559D01*
Y114630D01*
Y114672D01*
Y114686D01*
Y119000D01*
X403000D01*
Y117703D01*
D02*
G37*
G36*
X398898Y109710D02*
X399321Y109682D01*
X399715Y109640D01*
X400082Y109569D01*
X400406Y109499D01*
X400702Y109428D01*
X400970Y109344D01*
X401210Y109245D01*
X401407Y109160D01*
X401590Y109076D01*
X401731Y109005D01*
X401858Y108921D01*
X401957Y108864D01*
X402013Y108822D01*
X402056Y108794D01*
X402070Y108780D01*
X402267Y108596D01*
X402436Y108399D01*
X402577Y108202D01*
X402704Y108004D01*
X402817Y107793D01*
X402901Y107596D01*
X402972Y107398D01*
X403028Y107201D01*
X403070Y107032D01*
X403113Y106862D01*
X403141Y106721D01*
X403155Y106595D01*
Y106482D01*
X403169Y106411D01*
Y106355D01*
Y106341D01*
X403155Y106017D01*
X403099Y105721D01*
X403042Y105453D01*
X402958Y105213D01*
X402887Y105030D01*
X402817Y104889D01*
X402803Y104832D01*
X402775Y104790D01*
X402760Y104776D01*
Y104762D01*
X402591Y104522D01*
X402394Y104297D01*
X402197Y104114D01*
X401999Y103959D01*
X401816Y103832D01*
X401675Y103747D01*
X401618Y103719D01*
X401576Y103691D01*
X401562Y103677D01*
X401548D01*
X401252Y103536D01*
X400942Y103437D01*
X400660Y103366D01*
X400392Y103324D01*
X400167Y103282D01*
X400082D01*
X399997Y103268D01*
X399842D01*
X399589Y103282D01*
X399349Y103310D01*
X399109Y103352D01*
X398898Y103395D01*
X398700Y103465D01*
X398503Y103536D01*
X398334Y103606D01*
X398179Y103691D01*
X398038Y103775D01*
X397911Y103846D01*
X397812Y103916D01*
X397714Y103987D01*
X397643Y104029D01*
X397601Y104071D01*
X397573Y104100D01*
X397559Y104114D01*
X397403Y104269D01*
X397262Y104438D01*
X397150Y104621D01*
X397051Y104790D01*
X396952Y104959D01*
X396882Y105128D01*
X396783Y105453D01*
X396741Y105594D01*
X396713Y105735D01*
X396699Y105848D01*
X396685Y105960D01*
X396670Y106045D01*
Y106101D01*
Y106144D01*
Y106158D01*
X396685Y106411D01*
X396727Y106651D01*
X396769Y106877D01*
X396825Y107074D01*
X396896Y107243D01*
X396938Y107370D01*
X396981Y107455D01*
X396995Y107469D01*
Y107483D01*
X397136Y107708D01*
X397291Y107906D01*
X397446Y108089D01*
X397615Y108230D01*
X397756Y108357D01*
X397869Y108455D01*
X397953Y108512D01*
X397967Y108526D01*
X397714D01*
X397460Y108512D01*
X397234Y108498D01*
X397009Y108469D01*
X396811Y108455D01*
X396628Y108427D01*
X396459Y108399D01*
X396304Y108357D01*
X396163Y108329D01*
X396050Y108300D01*
X395951Y108272D01*
X395867Y108258D01*
X395811Y108230D01*
X395768Y108216D01*
X395740Y108202D01*
X395726D01*
X395444Y108061D01*
X395190Y107920D01*
X394993Y107765D01*
X394824Y107624D01*
X394683Y107497D01*
X394584Y107398D01*
X394528Y107328D01*
X394514Y107299D01*
X394401Y107130D01*
X394330Y106961D01*
X394274Y106792D01*
X394232Y106623D01*
X394203Y106496D01*
X394189Y106383D01*
Y106313D01*
Y106285D01*
X394218Y106031D01*
X394274Y105791D01*
X394358Y105594D01*
X394443Y105410D01*
X394542Y105269D01*
X394626Y105171D01*
X394683Y105114D01*
X394711Y105086D01*
X394838Y104988D01*
X394993Y104889D01*
X395162Y104804D01*
X395331Y104748D01*
X395486Y104691D01*
X395613Y104649D01*
X395698Y104635D01*
X395712Y104621D01*
X395726D01*
X395627Y103423D01*
X395233Y103507D01*
X394880Y103634D01*
X394570Y103775D01*
X394316Y103930D01*
X394119Y104085D01*
X394034Y104142D01*
X393964Y104212D01*
X393922Y104255D01*
X393879Y104297D01*
X393865Y104311D01*
X393851Y104325D01*
X393738Y104466D01*
X393640Y104621D01*
X393470Y104931D01*
X393358Y105241D01*
X393287Y105537D01*
X393231Y105805D01*
X393217Y105918D01*
Y106017D01*
X393203Y106101D01*
Y106158D01*
Y106200D01*
Y106214D01*
X393217Y106496D01*
X393245Y106764D01*
X393301Y107017D01*
X393372Y107257D01*
X393470Y107469D01*
X393555Y107680D01*
X393668Y107863D01*
X393767Y108033D01*
X393865Y108174D01*
X393978Y108315D01*
X394062Y108427D01*
X394147Y108512D01*
X394232Y108582D01*
X394288Y108639D01*
X394316Y108667D01*
X394330Y108681D01*
X394584Y108864D01*
X394880Y109019D01*
X395190Y109160D01*
X395514Y109287D01*
X395853Y109386D01*
X396191Y109470D01*
X396544Y109541D01*
X396868Y109597D01*
X397192Y109640D01*
X397488Y109668D01*
X397756Y109696D01*
X397981Y109710D01*
X398179D01*
X398320Y109724D01*
X398447D01*
X398898Y109710D01*
D02*
G37*
G36*
X151000Y248366D02*
X149844D01*
Y253174D01*
X149604Y253004D01*
X149506Y252920D01*
X149407Y252849D01*
X149323Y252779D01*
X149266Y252722D01*
X149224Y252680D01*
X149210Y252666D01*
X149139Y252596D01*
X149069Y252511D01*
X148885Y252314D01*
X148674Y252088D01*
X148462Y251848D01*
X148279Y251623D01*
X148195Y251524D01*
X148110Y251440D01*
X148054Y251369D01*
X148011Y251313D01*
X147983Y251285D01*
X147969Y251270D01*
X147772Y251045D01*
X147589Y250819D01*
X147405Y250622D01*
X147250Y250439D01*
X147095Y250270D01*
X146954Y250129D01*
X146827Y249988D01*
X146714Y249875D01*
X146602Y249762D01*
X146517Y249678D01*
X146447Y249607D01*
X146376Y249536D01*
X146292Y249466D01*
X146263Y249438D01*
X146024Y249240D01*
X145812Y249071D01*
X145601Y248930D01*
X145432Y248818D01*
X145277Y248733D01*
X145164Y248677D01*
X145093Y248648D01*
X145065Y248634D01*
X144854Y248550D01*
X144642Y248493D01*
X144445Y248437D01*
X144276Y248409D01*
X144121Y248395D01*
X144008Y248381D01*
X143909D01*
X143698Y248395D01*
X143500Y248423D01*
X143303Y248451D01*
X143134Y248507D01*
X142795Y248648D01*
X142528Y248789D01*
X142401Y248874D01*
X142302Y248944D01*
X142204Y249015D01*
X142133Y249085D01*
X142077Y249142D01*
X142020Y249170D01*
X142006Y249198D01*
X141992Y249212D01*
X141851Y249367D01*
X141724Y249536D01*
X141625Y249720D01*
X141541Y249903D01*
X141400Y250270D01*
X141301Y250636D01*
X141273Y250791D01*
X141245Y250946D01*
X141231Y251087D01*
X141217Y251200D01*
X141203Y251299D01*
Y251383D01*
Y251425D01*
Y251440D01*
X141217Y251693D01*
X141231Y251933D01*
X141273Y252159D01*
X141315Y252370D01*
X141372Y252567D01*
X141428Y252751D01*
X141499Y252920D01*
X141569Y253075D01*
X141640Y253216D01*
X141710Y253329D01*
X141767Y253427D01*
X141823Y253512D01*
X141865Y253582D01*
X141907Y253625D01*
X141922Y253653D01*
X141936Y253667D01*
X142077Y253808D01*
X142232Y253935D01*
X142401Y254062D01*
X142570Y254160D01*
X142908Y254329D01*
X143247Y254442D01*
X143402Y254485D01*
X143557Y254527D01*
X143684Y254555D01*
X143796Y254583D01*
X143895Y254597D01*
X143966D01*
X144008Y254611D01*
X144022D01*
X144149Y253385D01*
X143825Y253357D01*
X143543Y253300D01*
X143289Y253216D01*
X143092Y253117D01*
X142922Y253032D01*
X142810Y252948D01*
X142739Y252892D01*
X142711Y252863D01*
X142542Y252652D01*
X142415Y252426D01*
X142316Y252187D01*
X142260Y251975D01*
X142218Y251778D01*
X142204Y251609D01*
X142189Y251552D01*
Y251510D01*
Y251482D01*
Y251468D01*
X142204Y251172D01*
X142260Y250904D01*
X142344Y250678D01*
X142429Y250481D01*
X142528Y250326D01*
X142598Y250227D01*
X142655Y250157D01*
X142683Y250129D01*
X142880Y249959D01*
X143077Y249832D01*
X143275Y249734D01*
X143472Y249678D01*
X143627Y249635D01*
X143768Y249621D01*
X143853Y249607D01*
X143881D01*
X144135Y249635D01*
X144403Y249692D01*
X144642Y249790D01*
X144868Y249889D01*
X145051Y250002D01*
X145206Y250100D01*
X145262Y250129D01*
X145305Y250157D01*
X145319Y250185D01*
X145333D01*
X145488Y250298D01*
X145643Y250439D01*
X145812Y250594D01*
X145982Y250763D01*
X146320Y251115D01*
X146658Y251468D01*
X146813Y251651D01*
X146954Y251806D01*
X147081Y251961D01*
X147194Y252088D01*
X147278Y252187D01*
X147349Y252271D01*
X147391Y252328D01*
X147405Y252342D01*
X147701Y252694D01*
X147983Y253018D01*
X148237Y253286D01*
X148448Y253498D01*
X148632Y253681D01*
X148759Y253808D01*
X148843Y253878D01*
X148857Y253907D01*
X148871D01*
X149111Y254104D01*
X149337Y254259D01*
X149562Y254400D01*
X149760Y254513D01*
X149929Y254597D01*
X150056Y254654D01*
X150140Y254682D01*
X150154Y254696D01*
X150168D01*
X150323Y254752D01*
X150464Y254781D01*
X150605Y254809D01*
X150732Y254823D01*
X150845Y254837D01*
X151000D01*
Y248366D01*
D02*
G37*
G36*
X100000Y262703D02*
X95672D01*
Y261209D01*
Y261040D01*
X95686Y260885D01*
Y260772D01*
X95700Y260673D01*
X95715Y260603D01*
Y260546D01*
X95729Y260518D01*
Y260504D01*
X95799Y260278D01*
X95841Y260180D01*
X95884Y260095D01*
X95926Y260011D01*
X95954Y259954D01*
X95968Y259926D01*
X95982Y259912D01*
X96067Y259799D01*
X96166Y259686D01*
X96377Y259475D01*
X96476Y259376D01*
X96560Y259306D01*
X96617Y259263D01*
X96631Y259249D01*
X96828Y259108D01*
X97040Y258953D01*
X97265Y258798D01*
X97477Y258643D01*
X97674Y258516D01*
X97829Y258418D01*
X97886Y258375D01*
X97928Y258347D01*
X97956Y258319D01*
X97970D01*
X100000Y257036D01*
Y255429D01*
X97350Y257107D01*
X97068Y257304D01*
X96814Y257487D01*
X96603Y257670D01*
X96405Y257826D01*
X96264Y257966D01*
X96152Y258079D01*
X96081Y258150D01*
X96053Y258178D01*
X95968Y258291D01*
X95870Y258418D01*
X95715Y258671D01*
X95658Y258784D01*
X95602Y258869D01*
X95574Y258925D01*
X95559Y258953D01*
X95517Y258699D01*
X95475Y258460D01*
X95404Y258248D01*
X95348Y258037D01*
X95278Y257854D01*
X95193Y257684D01*
X95122Y257530D01*
X95052Y257388D01*
X94967Y257276D01*
X94897Y257163D01*
X94840Y257078D01*
X94784Y257008D01*
X94742Y256952D01*
X94699Y256909D01*
X94685Y256895D01*
X94671Y256881D01*
X94530Y256768D01*
X94389Y256656D01*
X94093Y256486D01*
X93797Y256374D01*
X93515Y256289D01*
X93276Y256233D01*
X93177Y256218D01*
X93078D01*
X93008Y256204D01*
X92909D01*
X92613Y256218D01*
X92345Y256261D01*
X92092Y256331D01*
X91880Y256402D01*
X91697Y256486D01*
X91556Y256543D01*
X91471Y256599D01*
X91457Y256613D01*
X91443D01*
X91218Y256782D01*
X91020Y256952D01*
X90851Y257135D01*
X90724Y257304D01*
X90625Y257459D01*
X90569Y257586D01*
X90527Y257670D01*
X90513Y257684D01*
Y257699D01*
X90470Y257826D01*
X90428Y257981D01*
X90358Y258291D01*
X90315Y258629D01*
X90273Y258939D01*
X90259Y259235D01*
Y259362D01*
X90245Y259475D01*
Y259559D01*
Y259630D01*
Y259672D01*
Y259686D01*
Y264000D01*
X100000D01*
Y262703D01*
D02*
G37*
G36*
X93727Y253540D02*
X93628Y253329D01*
X93530Y253117D01*
X93431Y252920D01*
X93346Y252751D01*
X93276Y252610D01*
X93219Y252525D01*
X93205Y252511D01*
Y252497D01*
X93050Y252243D01*
X92895Y252018D01*
X92754Y251820D01*
X92627Y251665D01*
X92529Y251524D01*
X92444Y251440D01*
X92388Y251369D01*
X92374Y251355D01*
X100000D01*
Y250157D01*
X90203D01*
Y250932D01*
X90442Y251073D01*
X90668Y251228D01*
X90893Y251411D01*
X91091Y251581D01*
X91260Y251750D01*
X91401Y251877D01*
X91443Y251933D01*
X91485Y251975D01*
X91500Y251989D01*
X91514Y252003D01*
X91753Y252299D01*
X91979Y252596D01*
X92176Y252878D01*
X92331Y253159D01*
X92472Y253399D01*
X92529Y253498D01*
X92571Y253582D01*
X92613Y253653D01*
X92627Y253709D01*
X92655Y253737D01*
Y253752D01*
X93811D01*
X93727Y253540D01*
D02*
G37*
G36*
X228000Y209972D02*
X226844D01*
Y214779D01*
X226604Y214610D01*
X226506Y214525D01*
X226407Y214455D01*
X226322Y214384D01*
X226266Y214328D01*
X226224Y214285D01*
X226210Y214271D01*
X226139Y214201D01*
X226069Y214116D01*
X225886Y213919D01*
X225674Y213693D01*
X225462Y213454D01*
X225279Y213228D01*
X225195Y213129D01*
X225110Y213045D01*
X225054Y212974D01*
X225011Y212918D01*
X224983Y212890D01*
X224969Y212876D01*
X224772Y212650D01*
X224589Y212425D01*
X224405Y212227D01*
X224250Y212044D01*
X224095Y211875D01*
X223954Y211734D01*
X223827Y211593D01*
X223715Y211480D01*
X223602Y211367D01*
X223517Y211283D01*
X223447Y211212D01*
X223376Y211142D01*
X223292Y211071D01*
X223263Y211043D01*
X223024Y210846D01*
X222812Y210677D01*
X222601Y210536D01*
X222432Y210423D01*
X222277Y210338D01*
X222164Y210282D01*
X222093Y210254D01*
X222065Y210240D01*
X221854Y210155D01*
X221642Y210099D01*
X221445Y210042D01*
X221276Y210014D01*
X221121Y210000D01*
X221008Y209986D01*
X220909D01*
X220698Y210000D01*
X220500Y210028D01*
X220303Y210056D01*
X220134Y210113D01*
X219795Y210254D01*
X219528Y210395D01*
X219401Y210479D01*
X219302Y210550D01*
X219203Y210620D01*
X219133Y210691D01*
X219077Y210747D01*
X219020Y210775D01*
X219006Y210803D01*
X218992Y210818D01*
X218851Y210973D01*
X218724Y211142D01*
X218626Y211325D01*
X218541Y211508D01*
X218400Y211875D01*
X218301Y212241D01*
X218273Y212396D01*
X218245Y212551D01*
X218231Y212692D01*
X218217Y212805D01*
X218203Y212904D01*
Y212988D01*
Y213031D01*
Y213045D01*
X218217Y213299D01*
X218231Y213538D01*
X218273Y213764D01*
X218315Y213975D01*
X218372Y214173D01*
X218428Y214356D01*
X218499Y214525D01*
X218569Y214680D01*
X218640Y214821D01*
X218710Y214934D01*
X218766Y215033D01*
X218823Y215117D01*
X218865Y215188D01*
X218907Y215230D01*
X218922Y215258D01*
X218936Y215272D01*
X219077Y215413D01*
X219232Y215540D01*
X219401Y215667D01*
X219570Y215766D01*
X219908Y215935D01*
X220247Y216047D01*
X220402Y216090D01*
X220557Y216132D01*
X220684Y216160D01*
X220796Y216189D01*
X220895Y216203D01*
X220966D01*
X221008Y216217D01*
X221022D01*
X221149Y214990D01*
X220825Y214962D01*
X220543Y214906D01*
X220289Y214821D01*
X220092Y214722D01*
X219922Y214638D01*
X219810Y214553D01*
X219739Y214497D01*
X219711Y214469D01*
X219542Y214257D01*
X219415Y214032D01*
X219316Y213792D01*
X219260Y213580D01*
X219218Y213383D01*
X219203Y213214D01*
X219189Y213158D01*
Y213115D01*
Y213087D01*
Y213073D01*
X219203Y212777D01*
X219260Y212509D01*
X219344Y212284D01*
X219429Y212086D01*
X219528Y211931D01*
X219598Y211833D01*
X219655Y211762D01*
X219683Y211734D01*
X219880Y211565D01*
X220077Y211438D01*
X220275Y211339D01*
X220472Y211283D01*
X220627Y211240D01*
X220768Y211226D01*
X220853Y211212D01*
X220881D01*
X221135Y211240D01*
X221403Y211297D01*
X221642Y211395D01*
X221868Y211494D01*
X222051Y211607D01*
X222206Y211706D01*
X222262Y211734D01*
X222305Y211762D01*
X222319Y211790D01*
X222333D01*
X222488Y211903D01*
X222643Y212044D01*
X222812Y212199D01*
X222981Y212368D01*
X223320Y212721D01*
X223658Y213073D01*
X223813Y213256D01*
X223954Y213411D01*
X224081Y213566D01*
X224194Y213693D01*
X224278Y213792D01*
X224349Y213877D01*
X224391Y213933D01*
X224405Y213947D01*
X224701Y214300D01*
X224983Y214624D01*
X225237Y214892D01*
X225448Y215103D01*
X225632Y215286D01*
X225759Y215413D01*
X225843Y215484D01*
X225857Y215512D01*
X225871D01*
X226111Y215709D01*
X226337Y215864D01*
X226562Y216005D01*
X226759Y216118D01*
X226929Y216203D01*
X227055Y216259D01*
X227140Y216287D01*
X227154Y216301D01*
X227168D01*
X227323Y216358D01*
X227464Y216386D01*
X227605Y216414D01*
X227732Y216428D01*
X227845Y216442D01*
X228000D01*
Y209972D01*
D02*
G37*
G36*
X417559Y118972D02*
X418053Y118915D01*
X418490Y118845D01*
X418701Y118788D01*
X418885Y118746D01*
X419054Y118704D01*
X419209Y118648D01*
X419350Y118605D01*
X419463Y118577D01*
X419547Y118535D01*
X419618Y118521D01*
X419660Y118492D01*
X419674D01*
X420097Y118281D01*
X420477Y118041D01*
X420802Y117788D01*
X420929Y117661D01*
X421055Y117548D01*
X421168Y117435D01*
X421267Y117322D01*
X421352Y117224D01*
X421408Y117139D01*
X421464Y117083D01*
X421507Y117026D01*
X421521Y116998D01*
X421535Y116984D01*
X421648Y116787D01*
X421746Y116589D01*
X421901Y116166D01*
X422014Y115744D01*
X422085Y115335D01*
X422113Y115137D01*
X422141Y114968D01*
X422155Y114813D01*
Y114686D01*
X422169Y114573D01*
Y114489D01*
Y114433D01*
Y114418D01*
X422155Y114136D01*
X422127Y113869D01*
X422099Y113615D01*
X422042Y113375D01*
X421972Y113150D01*
X421901Y112938D01*
X421831Y112741D01*
X421746Y112558D01*
X421676Y112403D01*
X421605Y112247D01*
X421535Y112135D01*
X421464Y112022D01*
X421408Y111952D01*
X421380Y111881D01*
X421352Y111853D01*
X421337Y111839D01*
X421168Y111641D01*
X420999Y111472D01*
X420802Y111317D01*
X420604Y111162D01*
X420210Y110908D01*
X419815Y110711D01*
X419632Y110626D01*
X419463Y110556D01*
X419308Y110499D01*
X419181Y110457D01*
X419068Y110415D01*
X418983Y110387D01*
X418927Y110373D01*
X418913D01*
X418588Y111670D01*
X418814Y111726D01*
X419025Y111796D01*
X419223Y111867D01*
X419406Y111937D01*
X419575Y112022D01*
X419716Y112107D01*
X419857Y112205D01*
X419984Y112290D01*
X420097Y112360D01*
X420182Y112445D01*
X420266Y112515D01*
X420336Y112572D01*
X420379Y112628D01*
X420421Y112670D01*
X420435Y112684D01*
X420449Y112699D01*
X420562Y112840D01*
X420647Y112995D01*
X420802Y113305D01*
X420914Y113601D01*
X420985Y113897D01*
X421041Y114151D01*
X421055Y114249D01*
Y114348D01*
X421070Y114433D01*
Y114489D01*
Y114517D01*
Y114531D01*
X421055Y114855D01*
X420999Y115166D01*
X420929Y115448D01*
X420844Y115701D01*
X420760Y115899D01*
X420717Y115983D01*
X420689Y116054D01*
X420661Y116110D01*
X420633Y116152D01*
X420619Y116181D01*
Y116195D01*
X420421Y116462D01*
X420210Y116688D01*
X419970Y116885D01*
X419744Y117041D01*
X419547Y117167D01*
X419378Y117252D01*
X419308Y117280D01*
X419265Y117308D01*
X419237Y117322D01*
X419223D01*
X418856Y117435D01*
X418490Y117520D01*
X418123Y117590D01*
X417785Y117633D01*
X417630Y117647D01*
X417489Y117661D01*
X417362D01*
X417263Y117675D01*
X417052D01*
X416685Y117661D01*
X416347Y117633D01*
X416037Y117576D01*
X415755Y117520D01*
X415515Y117478D01*
X415417Y117449D01*
X415332Y117421D01*
X415262Y117407D01*
X415219Y117393D01*
X415191Y117379D01*
X415177D01*
X414853Y117238D01*
X414557Y117083D01*
X414317Y116914D01*
X414106Y116730D01*
X413937Y116575D01*
X413824Y116448D01*
X413753Y116350D01*
X413725Y116336D01*
Y116322D01*
X413542Y116025D01*
X413401Y115701D01*
X413302Y115391D01*
X413246Y115095D01*
X413204Y114827D01*
X413189Y114714D01*
Y114616D01*
X413175Y114545D01*
Y114489D01*
Y114447D01*
Y114433D01*
X413189Y114080D01*
X413246Y113756D01*
X413330Y113488D01*
X413415Y113248D01*
X413514Y113065D01*
X413584Y112924D01*
X413641Y112840D01*
X413669Y112811D01*
X413880Y112586D01*
X414120Y112374D01*
X414374Y112205D01*
X414627Y112064D01*
X414853Y111952D01*
X414966Y111909D01*
X415050Y111881D01*
X415121Y111853D01*
X415177Y111825D01*
X415205Y111811D01*
X415219D01*
X414923Y110542D01*
X414670Y110626D01*
X414444Y110711D01*
X414232Y110824D01*
X414021Y110922D01*
X413838Y111035D01*
X413669Y111162D01*
X413499Y111275D01*
X413358Y111388D01*
X413246Y111500D01*
X413133Y111599D01*
X413034Y111698D01*
X412964Y111768D01*
X412893Y111839D01*
X412851Y111895D01*
X412837Y111923D01*
X412823Y111937D01*
X412696Y112135D01*
X412569Y112332D01*
X412470Y112529D01*
X412386Y112741D01*
X412259Y113164D01*
X412174Y113545D01*
X412132Y113728D01*
X412118Y113883D01*
X412104Y114038D01*
X412090Y114165D01*
X412076Y114263D01*
Y114334D01*
Y114390D01*
Y114404D01*
X412104Y114870D01*
X412174Y115321D01*
X412259Y115715D01*
X412315Y115899D01*
X412372Y116068D01*
X412428Y116223D01*
X412485Y116364D01*
X412527Y116477D01*
X412569Y116589D01*
X412611Y116660D01*
X412640Y116716D01*
X412654Y116759D01*
X412668Y116773D01*
X412907Y117153D01*
X413189Y117478D01*
X413471Y117760D01*
X413753Y117999D01*
X414007Y118182D01*
X414120Y118253D01*
X414218Y118309D01*
X414289Y118366D01*
X414345Y118394D01*
X414388Y118408D01*
X414402Y118422D01*
X414839Y118619D01*
X415290Y118760D01*
X415741Y118859D01*
X416150Y118930D01*
X416333Y118958D01*
X416516Y118972D01*
X416657Y118986D01*
X416798D01*
X416897Y119000D01*
X417052D01*
X417559Y118972D01*
D02*
G37*
G36*
X419646Y109231D02*
X419857Y109188D01*
X420252Y109062D01*
X420590Y108906D01*
X420731Y108822D01*
X420872Y108737D01*
X420999Y108653D01*
X421098Y108568D01*
X421197Y108498D01*
X421267Y108427D01*
X421323Y108385D01*
X421366Y108343D01*
X421394Y108315D01*
X421408Y108300D01*
X421535Y108131D01*
X421662Y107962D01*
X421760Y107793D01*
X421845Y107610D01*
X421986Y107257D01*
X422071Y106919D01*
X422099Y106764D01*
X422127Y106623D01*
X422141Y106496D01*
X422155Y106383D01*
X422169Y106299D01*
Y106228D01*
Y106186D01*
Y106172D01*
X422155Y105904D01*
X422127Y105664D01*
X422085Y105425D01*
X422028Y105199D01*
X421958Y104988D01*
X421887Y104804D01*
X421803Y104621D01*
X421718Y104466D01*
X421648Y104311D01*
X421563Y104184D01*
X421493Y104071D01*
X421422Y103987D01*
X421366Y103916D01*
X421323Y103860D01*
X421295Y103832D01*
X421281Y103818D01*
X421112Y103648D01*
X420929Y103507D01*
X420745Y103380D01*
X420562Y103268D01*
X420393Y103183D01*
X420210Y103099D01*
X419871Y102986D01*
X419716Y102958D01*
X419575Y102929D01*
X419448Y102901D01*
X419336Y102887D01*
X419251Y102873D01*
X419124D01*
X418786Y102887D01*
X418476Y102943D01*
X418208Y103028D01*
X417982Y103113D01*
X417799Y103197D01*
X417658Y103282D01*
X417574Y103338D01*
X417545Y103352D01*
X417334Y103550D01*
X417151Y103761D01*
X417010Y103987D01*
X416897Y104212D01*
X416812Y104410D01*
X416756Y104565D01*
X416742Y104621D01*
X416728Y104663D01*
X416714Y104691D01*
Y104706D01*
X416587Y104466D01*
X416460Y104269D01*
X416319Y104100D01*
X416192Y103959D01*
X416079Y103846D01*
X415981Y103761D01*
X415924Y103719D01*
X415896Y103705D01*
X415699Y103592D01*
X415501Y103507D01*
X415304Y103437D01*
X415121Y103395D01*
X414966Y103366D01*
X414853Y103352D01*
X414740D01*
X414500Y103366D01*
X414261Y103409D01*
X414049Y103465D01*
X413866Y103536D01*
X413711Y103606D01*
X413584Y103663D01*
X413514Y103705D01*
X413485Y103719D01*
X413274Y103860D01*
X413091Y104029D01*
X412936Y104198D01*
X412795Y104367D01*
X412696Y104508D01*
X412611Y104635D01*
X412569Y104720D01*
X412555Y104734D01*
Y104748D01*
X412442Y105002D01*
X412358Y105255D01*
X412287Y105509D01*
X412245Y105735D01*
X412217Y105918D01*
X412203Y106073D01*
Y106129D01*
Y106172D01*
Y106200D01*
Y106214D01*
Y106426D01*
X412231Y106623D01*
X412301Y107003D01*
X412414Y107328D01*
X412527Y107610D01*
X412597Y107737D01*
X412654Y107835D01*
X412710Y107934D01*
X412766Y108004D01*
X412809Y108061D01*
X412837Y108103D01*
X412851Y108131D01*
X412865Y108145D01*
X413133Y108413D01*
X413429Y108625D01*
X413739Y108794D01*
X414049Y108935D01*
X414317Y109019D01*
X414430Y109062D01*
X414529Y109090D01*
X414613Y109104D01*
X414670Y109118D01*
X414712Y109132D01*
X414726D01*
X414937Y107934D01*
X414627Y107878D01*
X414359Y107793D01*
X414134Y107694D01*
X413951Y107596D01*
X413810Y107497D01*
X413711Y107412D01*
X413641Y107356D01*
X413626Y107342D01*
X413485Y107158D01*
X413373Y106961D01*
X413302Y106778D01*
X413246Y106595D01*
X413218Y106426D01*
X413189Y106299D01*
Y106214D01*
Y106200D01*
Y106186D01*
X413204Y105932D01*
X413260Y105707D01*
X413330Y105509D01*
X413401Y105340D01*
X413485Y105213D01*
X413556Y105114D01*
X413612Y105044D01*
X413626Y105030D01*
X413796Y104875D01*
X413979Y104762D01*
X414162Y104691D01*
X414331Y104635D01*
X414486Y104607D01*
X414599Y104579D01*
X414867D01*
X415008Y104607D01*
X415247Y104677D01*
X415459Y104776D01*
X415642Y104889D01*
X415769Y105002D01*
X415868Y105100D01*
X415924Y105171D01*
X415938Y105185D01*
Y105199D01*
X416065Y105439D01*
X416164Y105664D01*
X416234Y105904D01*
X416277Y106115D01*
X416305Y106299D01*
X416333Y106454D01*
Y106510D01*
Y106552D01*
Y106566D01*
Y106580D01*
Y106637D01*
X416319Y106693D01*
Y106750D01*
Y106764D01*
X417376Y106905D01*
X417334Y106721D01*
X417306Y106552D01*
X417277Y106411D01*
X417263Y106285D01*
X417249Y106186D01*
Y106115D01*
Y106073D01*
Y106059D01*
X417277Y105763D01*
X417334Y105495D01*
X417419Y105255D01*
X417517Y105058D01*
X417616Y104903D01*
X417700Y104790D01*
X417757Y104720D01*
X417785Y104691D01*
X417996Y104508D01*
X418222Y104367D01*
X418448Y104269D01*
X418673Y104212D01*
X418856Y104170D01*
X419011Y104156D01*
X419068Y104142D01*
X419152D01*
X419463Y104170D01*
X419744Y104240D01*
X419984Y104325D01*
X420196Y104438D01*
X420365Y104551D01*
X420492Y104635D01*
X420576Y104706D01*
X420604Y104734D01*
X420802Y104959D01*
X420943Y105199D01*
X421041Y105439D01*
X421112Y105664D01*
X421154Y105862D01*
X421168Y106017D01*
X421182Y106073D01*
Y106115D01*
Y106144D01*
Y106158D01*
X421168Y106411D01*
X421112Y106651D01*
X421041Y106862D01*
X420957Y107032D01*
X420886Y107173D01*
X420816Y107285D01*
X420760Y107342D01*
X420745Y107370D01*
X420548Y107539D01*
X420322Y107680D01*
X420083Y107807D01*
X419829Y107906D01*
X419618Y107976D01*
X419519Y108004D01*
X419434Y108018D01*
X419364Y108033D01*
X419308Y108047D01*
X419279Y108061D01*
X419265D01*
X419420Y109259D01*
X419646Y109231D01*
D02*
G37*
G36*
X98678Y203558D02*
X98833Y203332D01*
X99017Y203107D01*
X99186Y202909D01*
X99355Y202740D01*
X99482Y202599D01*
X99538Y202557D01*
X99580Y202515D01*
X99595Y202500D01*
X99609Y202486D01*
X99905Y202247D01*
X100201Y202021D01*
X100483Y201824D01*
X100765Y201669D01*
X101004Y201528D01*
X101103Y201471D01*
X101188Y201429D01*
X101258Y201387D01*
X101314Y201373D01*
X101343Y201345D01*
X101357D01*
Y200189D01*
X101145Y200273D01*
X100934Y200372D01*
X100722Y200471D01*
X100525Y200569D01*
X100356Y200654D01*
X100215Y200724D01*
X100130Y200781D01*
X100116Y200795D01*
X100102D01*
X99848Y200950D01*
X99623Y201105D01*
X99425Y201246D01*
X99270Y201373D01*
X99129Y201471D01*
X99045Y201556D01*
X98974Y201612D01*
X98960Y201626D01*
Y194000D01*
X97762D01*
Y203797D01*
X98537D01*
X98678Y203558D01*
D02*
G37*
G36*
X151000Y262703D02*
X146672D01*
Y261209D01*
Y261040D01*
X146686Y260885D01*
Y260772D01*
X146700Y260673D01*
X146714Y260603D01*
Y260546D01*
X146729Y260518D01*
Y260504D01*
X146799Y260278D01*
X146841Y260180D01*
X146884Y260095D01*
X146926Y260011D01*
X146954Y259954D01*
X146968Y259926D01*
X146982Y259912D01*
X147067Y259799D01*
X147166Y259686D01*
X147377Y259475D01*
X147476Y259376D01*
X147560Y259306D01*
X147617Y259263D01*
X147631Y259249D01*
X147828Y259108D01*
X148040Y258953D01*
X148265Y258798D01*
X148477Y258643D01*
X148674Y258516D01*
X148829Y258418D01*
X148885Y258375D01*
X148928Y258347D01*
X148956Y258319D01*
X148970D01*
X151000Y257036D01*
Y255429D01*
X148350Y257107D01*
X148068Y257304D01*
X147814Y257487D01*
X147603Y257670D01*
X147405Y257826D01*
X147264Y257966D01*
X147151Y258079D01*
X147081Y258150D01*
X147053Y258178D01*
X146968Y258291D01*
X146870Y258418D01*
X146714Y258671D01*
X146658Y258784D01*
X146602Y258869D01*
X146573Y258925D01*
X146559Y258953D01*
X146517Y258699D01*
X146475Y258460D01*
X146404Y258248D01*
X146348Y258037D01*
X146278Y257854D01*
X146193Y257684D01*
X146122Y257530D01*
X146052Y257388D01*
X145967Y257276D01*
X145897Y257163D01*
X145841Y257078D01*
X145784Y257008D01*
X145742Y256952D01*
X145700Y256909D01*
X145685Y256895D01*
X145671Y256881D01*
X145530Y256768D01*
X145389Y256656D01*
X145093Y256486D01*
X144797Y256374D01*
X144515Y256289D01*
X144276Y256233D01*
X144177Y256218D01*
X144078D01*
X144008Y256204D01*
X143909D01*
X143613Y256218D01*
X143345Y256261D01*
X143092Y256331D01*
X142880Y256402D01*
X142697Y256486D01*
X142556Y256543D01*
X142471Y256599D01*
X142457Y256613D01*
X142443D01*
X142218Y256782D01*
X142020Y256952D01*
X141851Y257135D01*
X141724Y257304D01*
X141625Y257459D01*
X141569Y257586D01*
X141527Y257670D01*
X141513Y257684D01*
Y257699D01*
X141470Y257826D01*
X141428Y257981D01*
X141358Y258291D01*
X141315Y258629D01*
X141273Y258939D01*
X141259Y259235D01*
Y259362D01*
X141245Y259475D01*
Y259559D01*
Y259630D01*
Y259672D01*
Y259686D01*
Y264000D01*
X151000D01*
Y262703D01*
D02*
G37*
G36*
X107870Y203896D02*
X108321Y203826D01*
X108715Y203741D01*
X108899Y203685D01*
X109068Y203628D01*
X109223Y203572D01*
X109364Y203515D01*
X109477Y203473D01*
X109589Y203431D01*
X109660Y203389D01*
X109716Y203360D01*
X109759Y203346D01*
X109773Y203332D01*
X110153Y203093D01*
X110478Y202811D01*
X110759Y202529D01*
X110999Y202247D01*
X111182Y201993D01*
X111253Y201880D01*
X111309Y201782D01*
X111366Y201711D01*
X111394Y201655D01*
X111408Y201612D01*
X111422Y201598D01*
X111619Y201161D01*
X111760Y200710D01*
X111859Y200259D01*
X111930Y199850D01*
X111958Y199667D01*
X111972Y199484D01*
X111986Y199343D01*
Y199202D01*
X112000Y199103D01*
Y199018D01*
Y198962D01*
Y198948D01*
X111972Y198440D01*
X111915Y197947D01*
X111845Y197510D01*
X111789Y197299D01*
X111746Y197115D01*
X111704Y196946D01*
X111648Y196791D01*
X111605Y196650D01*
X111577Y196537D01*
X111535Y196453D01*
X111521Y196382D01*
X111493Y196340D01*
Y196326D01*
X111281Y195903D01*
X111041Y195522D01*
X110788Y195198D01*
X110661Y195071D01*
X110548Y194944D01*
X110435Y194832D01*
X110323Y194733D01*
X110224Y194648D01*
X110139Y194592D01*
X110083Y194536D01*
X110026Y194493D01*
X109998Y194479D01*
X109984Y194465D01*
X109787Y194352D01*
X109589Y194254D01*
X109166Y194099D01*
X108744Y193986D01*
X108335Y193915D01*
X108137Y193887D01*
X107968Y193859D01*
X107813Y193845D01*
X107686D01*
X107573Y193831D01*
X107418D01*
X107136Y193845D01*
X106869Y193873D01*
X106615Y193901D01*
X106375Y193958D01*
X106150Y194028D01*
X105938Y194099D01*
X105741Y194169D01*
X105558Y194254D01*
X105403Y194324D01*
X105247Y194395D01*
X105135Y194465D01*
X105022Y194536D01*
X104951Y194592D01*
X104881Y194620D01*
X104853Y194648D01*
X104839Y194663D01*
X104641Y194832D01*
X104472Y195001D01*
X104317Y195198D01*
X104162Y195396D01*
X103908Y195790D01*
X103711Y196185D01*
X103626Y196368D01*
X103556Y196537D01*
X103499Y196693D01*
X103457Y196819D01*
X103415Y196932D01*
X103387Y197017D01*
X103373Y197073D01*
Y197087D01*
X104670Y197411D01*
X104726Y197186D01*
X104796Y196975D01*
X104867Y196777D01*
X104937Y196594D01*
X105022Y196425D01*
X105107Y196284D01*
X105205Y196143D01*
X105290Y196016D01*
X105360Y195903D01*
X105445Y195819D01*
X105515Y195734D01*
X105572Y195663D01*
X105628Y195621D01*
X105670Y195579D01*
X105684Y195565D01*
X105699Y195551D01*
X105840Y195438D01*
X105995Y195353D01*
X106305Y195198D01*
X106601Y195086D01*
X106897Y195015D01*
X107151Y194959D01*
X107249Y194944D01*
X107348D01*
X107433Y194930D01*
X107531D01*
X107856Y194944D01*
X108166Y195001D01*
X108448Y195071D01*
X108701Y195156D01*
X108899Y195240D01*
X108983Y195283D01*
X109054Y195311D01*
X109110Y195339D01*
X109152Y195367D01*
X109181Y195382D01*
X109195D01*
X109462Y195579D01*
X109688Y195790D01*
X109886Y196030D01*
X110041Y196255D01*
X110167Y196453D01*
X110252Y196622D01*
X110280Y196693D01*
X110308Y196735D01*
X110323Y196763D01*
Y196777D01*
X110435Y197144D01*
X110520Y197510D01*
X110590Y197877D01*
X110633Y198215D01*
X110647Y198370D01*
X110661Y198511D01*
Y198638D01*
X110675Y198737D01*
Y198821D01*
Y198892D01*
Y198934D01*
Y198948D01*
X110661Y199315D01*
X110633Y199653D01*
X110576Y199963D01*
X110520Y200245D01*
X110478Y200485D01*
X110449Y200583D01*
X110421Y200668D01*
X110407Y200738D01*
X110393Y200781D01*
X110379Y200809D01*
Y200823D01*
X110238Y201147D01*
X110083Y201443D01*
X109914Y201683D01*
X109730Y201894D01*
X109575Y202064D01*
X109448Y202176D01*
X109350Y202247D01*
X109336Y202275D01*
X109322D01*
X109025Y202458D01*
X108701Y202599D01*
X108391Y202698D01*
X108095Y202754D01*
X107827Y202796D01*
X107715Y202811D01*
X107616D01*
X107545Y202825D01*
X107433D01*
X107080Y202811D01*
X106756Y202754D01*
X106488Y202670D01*
X106248Y202585D01*
X106065Y202486D01*
X105924Y202416D01*
X105840Y202360D01*
X105811Y202331D01*
X105586Y202120D01*
X105374Y201880D01*
X105205Y201626D01*
X105064Y201373D01*
X104951Y201147D01*
X104909Y201034D01*
X104881Y200950D01*
X104853Y200879D01*
X104825Y200823D01*
X104810Y200795D01*
Y200781D01*
X103542Y201077D01*
X103626Y201330D01*
X103711Y201556D01*
X103824Y201767D01*
X103922Y201979D01*
X104035Y202162D01*
X104162Y202331D01*
X104275Y202500D01*
X104388Y202642D01*
X104500Y202754D01*
X104599Y202867D01*
X104698Y202966D01*
X104768Y203036D01*
X104839Y203107D01*
X104895Y203149D01*
X104923Y203163D01*
X104937Y203177D01*
X105135Y203304D01*
X105332Y203431D01*
X105529Y203530D01*
X105741Y203614D01*
X106164Y203741D01*
X106545Y203826D01*
X106728Y203868D01*
X106883Y203882D01*
X107038Y203896D01*
X107165Y203910D01*
X107263Y203924D01*
X107404D01*
X107870Y203896D01*
D02*
G37*
G36*
X223559Y225972D02*
X224053Y225915D01*
X224490Y225845D01*
X224701Y225789D01*
X224885Y225746D01*
X225054Y225704D01*
X225209Y225648D01*
X225350Y225605D01*
X225462Y225577D01*
X225547Y225535D01*
X225618Y225521D01*
X225660Y225492D01*
X225674D01*
X226097Y225281D01*
X226478Y225041D01*
X226802Y224788D01*
X226929Y224661D01*
X227055Y224548D01*
X227168Y224435D01*
X227267Y224322D01*
X227351Y224224D01*
X227408Y224139D01*
X227464Y224083D01*
X227507Y224026D01*
X227521Y223998D01*
X227535Y223984D01*
X227648Y223787D01*
X227746Y223589D01*
X227901Y223167D01*
X228014Y222744D01*
X228085Y222335D01*
X228113Y222137D01*
X228141Y221968D01*
X228155Y221813D01*
Y221686D01*
X228169Y221574D01*
Y221489D01*
Y221433D01*
Y221418D01*
X228155Y221136D01*
X228127Y220869D01*
X228099Y220615D01*
X228042Y220375D01*
X227972Y220150D01*
X227901Y219938D01*
X227831Y219741D01*
X227746Y219558D01*
X227676Y219403D01*
X227605Y219247D01*
X227535Y219135D01*
X227464Y219022D01*
X227408Y218951D01*
X227380Y218881D01*
X227351Y218853D01*
X227337Y218839D01*
X227168Y218641D01*
X226999Y218472D01*
X226802Y218317D01*
X226604Y218162D01*
X226210Y217908D01*
X225815Y217711D01*
X225632Y217626D01*
X225462Y217556D01*
X225308Y217500D01*
X225181Y217457D01*
X225068Y217415D01*
X224983Y217387D01*
X224927Y217373D01*
X224913D01*
X224589Y218670D01*
X224814Y218726D01*
X225026Y218796D01*
X225223Y218867D01*
X225406Y218937D01*
X225575Y219022D01*
X225716Y219107D01*
X225857Y219205D01*
X225984Y219290D01*
X226097Y219360D01*
X226182Y219445D01*
X226266Y219515D01*
X226337Y219572D01*
X226379Y219628D01*
X226421Y219671D01*
X226435Y219685D01*
X226449Y219699D01*
X226562Y219840D01*
X226647Y219995D01*
X226802Y220305D01*
X226915Y220601D01*
X226985Y220897D01*
X227041Y221151D01*
X227055Y221249D01*
Y221348D01*
X227070Y221433D01*
Y221489D01*
Y221517D01*
Y221531D01*
X227055Y221856D01*
X226999Y222166D01*
X226929Y222448D01*
X226844Y222701D01*
X226759Y222899D01*
X226717Y222983D01*
X226689Y223054D01*
X226661Y223110D01*
X226633Y223152D01*
X226618Y223181D01*
Y223195D01*
X226421Y223463D01*
X226210Y223688D01*
X225970Y223885D01*
X225744Y224041D01*
X225547Y224167D01*
X225378Y224252D01*
X225308Y224280D01*
X225265Y224308D01*
X225237Y224322D01*
X225223D01*
X224856Y224435D01*
X224490Y224520D01*
X224123Y224590D01*
X223785Y224633D01*
X223630Y224647D01*
X223489Y224661D01*
X223362D01*
X223263Y224675D01*
X223052D01*
X222685Y224661D01*
X222347Y224633D01*
X222037Y224576D01*
X221755Y224520D01*
X221515Y224478D01*
X221417Y224449D01*
X221332Y224421D01*
X221262Y224407D01*
X221219Y224393D01*
X221191Y224379D01*
X221177D01*
X220853Y224238D01*
X220557Y224083D01*
X220317Y223914D01*
X220106Y223730D01*
X219937Y223575D01*
X219824Y223448D01*
X219753Y223350D01*
X219725Y223336D01*
Y223322D01*
X219542Y223025D01*
X219401Y222701D01*
X219302Y222391D01*
X219246Y222095D01*
X219203Y221827D01*
X219189Y221714D01*
Y221616D01*
X219175Y221545D01*
Y221489D01*
Y221447D01*
Y221433D01*
X219189Y221080D01*
X219246Y220756D01*
X219330Y220488D01*
X219415Y220248D01*
X219514Y220065D01*
X219584Y219924D01*
X219641Y219840D01*
X219669Y219811D01*
X219880Y219586D01*
X220120Y219374D01*
X220373Y219205D01*
X220627Y219064D01*
X220853Y218951D01*
X220966Y218909D01*
X221050Y218881D01*
X221121Y218853D01*
X221177Y218825D01*
X221205Y218811D01*
X221219D01*
X220923Y217542D01*
X220670Y217626D01*
X220444Y217711D01*
X220233Y217824D01*
X220021Y217922D01*
X219838Y218035D01*
X219669Y218162D01*
X219499Y218275D01*
X219359Y218388D01*
X219246Y218500D01*
X219133Y218599D01*
X219034Y218698D01*
X218964Y218768D01*
X218893Y218839D01*
X218851Y218895D01*
X218837Y218923D01*
X218823Y218937D01*
X218696Y219135D01*
X218569Y219332D01*
X218470Y219529D01*
X218386Y219741D01*
X218259Y220164D01*
X218174Y220544D01*
X218132Y220728D01*
X218118Y220883D01*
X218104Y221038D01*
X218090Y221165D01*
X218076Y221263D01*
Y221334D01*
Y221390D01*
Y221404D01*
X218104Y221870D01*
X218174Y222321D01*
X218259Y222715D01*
X218315Y222899D01*
X218372Y223068D01*
X218428Y223223D01*
X218484Y223364D01*
X218527Y223477D01*
X218569Y223589D01*
X218611Y223660D01*
X218640Y223716D01*
X218654Y223759D01*
X218668Y223773D01*
X218907Y224153D01*
X219189Y224478D01*
X219471Y224760D01*
X219753Y224999D01*
X220007Y225182D01*
X220120Y225253D01*
X220219Y225309D01*
X220289Y225366D01*
X220345Y225394D01*
X220388Y225408D01*
X220402Y225422D01*
X220839Y225619D01*
X221290Y225760D01*
X221741Y225859D01*
X222150Y225930D01*
X222333Y225958D01*
X222516Y225972D01*
X222657Y225986D01*
X222798D01*
X222897Y226000D01*
X223052D01*
X223559Y225972D01*
D02*
G37*
%LPC*%
G36*
X59559Y230703D02*
X56330D01*
Y227630D01*
X56344Y227249D01*
X56401Y226925D01*
X56471Y226643D01*
X56556Y226432D01*
X56641Y226248D01*
X56711Y226136D01*
X56767Y226065D01*
X56781Y226037D01*
X56965Y225868D01*
X57148Y225741D01*
X57345Y225656D01*
X57515Y225586D01*
X57684Y225558D01*
X57811Y225544D01*
X57895Y225529D01*
X57923D01*
X58092Y225544D01*
X58262Y225572D01*
X58403Y225614D01*
X58530Y225656D01*
X58642Y225713D01*
X58727Y225755D01*
X58783Y225783D01*
X58797Y225797D01*
X58938Y225896D01*
X59065Y226023D01*
X59164Y226150D01*
X59248Y226277D01*
X59305Y226389D01*
X59347Y226474D01*
X59375Y226530D01*
X59389Y226559D01*
X59446Y226756D01*
X59488Y226982D01*
X59516Y227207D01*
X59530Y227433D01*
X59545Y227630D01*
X59559Y227799D01*
Y227855D01*
Y227898D01*
Y227926D01*
Y227940D01*
Y230703D01*
D02*
G37*
G36*
X399941Y108343D02*
X399842D01*
X399504Y108315D01*
X399208Y108258D01*
X398940Y108159D01*
X398729Y108061D01*
X398545Y107962D01*
X398419Y107863D01*
X398348Y107807D01*
X398320Y107779D01*
X398122Y107553D01*
X397981Y107328D01*
X397869Y107088D01*
X397798Y106877D01*
X397756Y106679D01*
X397742Y106538D01*
X397728Y106482D01*
Y106440D01*
Y106411D01*
Y106397D01*
X397756Y106101D01*
X397826Y105833D01*
X397911Y105608D01*
X398024Y105410D01*
X398136Y105255D01*
X398221Y105143D01*
X398292Y105072D01*
X398320Y105044D01*
X398559Y104861D01*
X398813Y104720D01*
X399081Y104621D01*
X399335Y104565D01*
X399560Y104522D01*
X399659Y104508D01*
X399744D01*
X399814Y104494D01*
X399913D01*
X400293Y104522D01*
X400618Y104579D01*
X400900Y104663D01*
X401139Y104762D01*
X401323Y104875D01*
X401463Y104959D01*
X401548Y105016D01*
X401562Y105044D01*
X401576D01*
X401689Y105143D01*
X401774Y105255D01*
X401929Y105481D01*
X402027Y105707D01*
X402112Y105904D01*
X402154Y106087D01*
X402168Y106228D01*
X402182Y106285D01*
Y106327D01*
Y106341D01*
Y106355D01*
X402168Y106552D01*
X402140Y106736D01*
X402084Y106905D01*
X402027Y107046D01*
X401985Y107173D01*
X401929Y107271D01*
X401900Y107328D01*
X401886Y107356D01*
X401759Y107525D01*
X401633Y107666D01*
X401478Y107793D01*
X401351Y107892D01*
X401224Y107976D01*
X401125Y108033D01*
X401055Y108075D01*
X401026Y108089D01*
X400815Y108174D01*
X400603Y108230D01*
X400406Y108286D01*
X400223Y108315D01*
X400068Y108329D01*
X399941Y108343D01*
D02*
G37*
G36*
X245703Y158670D02*
X242630D01*
X242249Y158656D01*
X241925Y158599D01*
X241643Y158529D01*
X241432Y158444D01*
X241248Y158359D01*
X241136Y158289D01*
X241065Y158233D01*
X241037Y158219D01*
X240868Y158035D01*
X240741Y157852D01*
X240656Y157655D01*
X240586Y157486D01*
X240558Y157316D01*
X240544Y157190D01*
X240529Y157105D01*
Y157091D01*
Y157077D01*
X240544Y156908D01*
X240572Y156738D01*
X240614Y156597D01*
X240656Y156470D01*
X240713Y156358D01*
X240755Y156273D01*
X240783Y156217D01*
X240797Y156203D01*
X240896Y156062D01*
X241023Y155935D01*
X241150Y155836D01*
X241277Y155752D01*
X241389Y155695D01*
X241474Y155653D01*
X241530Y155625D01*
X241558Y155611D01*
X241756Y155554D01*
X241982Y155512D01*
X242207Y155484D01*
X242433Y155470D01*
X242630Y155456D01*
X242799Y155441D01*
X245703D01*
Y158670D01*
D02*
G37*
G36*
X145559Y262703D02*
X142330D01*
Y259630D01*
X142344Y259249D01*
X142401Y258925D01*
X142471Y258643D01*
X142556Y258432D01*
X142640Y258248D01*
X142711Y258136D01*
X142767Y258065D01*
X142781Y258037D01*
X142965Y257868D01*
X143148Y257741D01*
X143345Y257656D01*
X143514Y257586D01*
X143684Y257558D01*
X143811Y257544D01*
X143895Y257530D01*
X143923D01*
X144093Y257544D01*
X144262Y257572D01*
X144403Y257614D01*
X144529Y257656D01*
X144642Y257713D01*
X144727Y257755D01*
X144783Y257783D01*
X144797Y257797D01*
X144938Y257896D01*
X145065Y258023D01*
X145164Y258150D01*
X145248Y258277D01*
X145305Y258389D01*
X145347Y258474D01*
X145375Y258530D01*
X145389Y258559D01*
X145446Y258756D01*
X145488Y258981D01*
X145516Y259207D01*
X145530Y259433D01*
X145545Y259630D01*
X145559Y259799D01*
Y259855D01*
Y259898D01*
Y259926D01*
Y259940D01*
Y262703D01*
D02*
G37*
G36*
X245703Y79670D02*
X242630D01*
X242249Y79656D01*
X241925Y79599D01*
X241643Y79529D01*
X241432Y79444D01*
X241248Y79359D01*
X241136Y79289D01*
X241065Y79233D01*
X241037Y79219D01*
X240868Y79035D01*
X240741Y78852D01*
X240656Y78655D01*
X240586Y78485D01*
X240558Y78316D01*
X240544Y78190D01*
X240529Y78105D01*
Y78091D01*
Y78077D01*
X240544Y77908D01*
X240572Y77738D01*
X240614Y77597D01*
X240656Y77470D01*
X240713Y77358D01*
X240755Y77273D01*
X240783Y77217D01*
X240797Y77203D01*
X240896Y77062D01*
X241023Y76935D01*
X241150Y76836D01*
X241277Y76752D01*
X241389Y76695D01*
X241474Y76653D01*
X241530Y76625D01*
X241558Y76611D01*
X241756Y76554D01*
X241982Y76512D01*
X242207Y76484D01*
X242433Y76470D01*
X242630Y76455D01*
X242799Y76441D01*
X245703D01*
Y79670D01*
D02*
G37*
G36*
X233833Y157810D02*
Y153440D01*
X236907D01*
X233833Y157810D01*
D02*
G37*
G36*
X397559Y117703D02*
X394330D01*
Y114630D01*
X394344Y114249D01*
X394401Y113925D01*
X394471Y113643D01*
X394556Y113432D01*
X394641Y113248D01*
X394711Y113136D01*
X394767Y113065D01*
X394781Y113037D01*
X394965Y112868D01*
X395148Y112741D01*
X395345Y112656D01*
X395514Y112586D01*
X395684Y112558D01*
X395811Y112544D01*
X395895Y112529D01*
X395923D01*
X396092Y112544D01*
X396262Y112572D01*
X396403Y112614D01*
X396530Y112656D01*
X396642Y112713D01*
X396727Y112755D01*
X396783Y112783D01*
X396797Y112797D01*
X396938Y112896D01*
X397065Y113023D01*
X397164Y113150D01*
X397248Y113277D01*
X397305Y113389D01*
X397347Y113474D01*
X397375Y113530D01*
X397389Y113559D01*
X397446Y113756D01*
X397488Y113982D01*
X397516Y114207D01*
X397530Y114433D01*
X397545Y114630D01*
X397559Y114799D01*
Y114855D01*
Y114898D01*
Y114926D01*
Y114940D01*
Y117703D01*
D02*
G37*
G36*
X466703Y118670D02*
X463630D01*
X463249Y118656D01*
X462925Y118599D01*
X462643Y118529D01*
X462432Y118444D01*
X462248Y118359D01*
X462136Y118289D01*
X462065Y118233D01*
X462037Y118219D01*
X461868Y118035D01*
X461741Y117852D01*
X461656Y117655D01*
X461586Y117486D01*
X461558Y117316D01*
X461544Y117190D01*
X461530Y117105D01*
Y117091D01*
Y117077D01*
X461544Y116908D01*
X461572Y116738D01*
X461614Y116597D01*
X461656Y116470D01*
X461713Y116358D01*
X461755Y116273D01*
X461783Y116217D01*
X461797Y116203D01*
X461896Y116062D01*
X462023Y115935D01*
X462150Y115836D01*
X462277Y115752D01*
X462389Y115695D01*
X462474Y115653D01*
X462530Y115625D01*
X462559Y115611D01*
X462756Y115554D01*
X462981Y115512D01*
X463207Y115484D01*
X463433Y115470D01*
X463630Y115456D01*
X463799Y115442D01*
X466703D01*
Y118670D01*
D02*
G37*
G36*
X94559Y262703D02*
X91330D01*
Y259630D01*
X91344Y259249D01*
X91401Y258925D01*
X91471Y258643D01*
X91556Y258432D01*
X91641Y258248D01*
X91711Y258136D01*
X91767Y258065D01*
X91782Y258037D01*
X91965Y257868D01*
X92148Y257741D01*
X92345Y257656D01*
X92514Y257586D01*
X92684Y257558D01*
X92810Y257544D01*
X92895Y257530D01*
X92923D01*
X93092Y257544D01*
X93262Y257572D01*
X93403Y257614D01*
X93530Y257656D01*
X93642Y257713D01*
X93727Y257755D01*
X93783Y257783D01*
X93797Y257797D01*
X93938Y257896D01*
X94065Y258023D01*
X94164Y258150D01*
X94248Y258277D01*
X94305Y258389D01*
X94347Y258474D01*
X94375Y258530D01*
X94389Y258559D01*
X94446Y258756D01*
X94488Y258981D01*
X94516Y259207D01*
X94530Y259433D01*
X94544Y259630D01*
X94559Y259799D01*
Y259855D01*
Y259898D01*
Y259926D01*
Y259940D01*
Y262703D01*
D02*
G37*
%LPD*%
D24*
X72000Y235000D02*
X88000D01*
X72000D02*
Y265000D01*
X88000D01*
Y235000D02*
Y265000D01*
X123000Y235000D02*
X139000D01*
X123000D02*
Y265000D01*
X139000D01*
Y235000D02*
Y265000D01*
X37000Y233000D02*
X53000D01*
Y203000D02*
Y233000D01*
X37000Y203000D02*
X53000D01*
X37000D02*
Y233000D01*
X83000Y175000D02*
X113000D01*
Y191000D01*
X83000D02*
X113000D01*
X83000Y175000D02*
Y191000D01*
X218000Y132000D02*
Y148000D01*
X248000D01*
Y132000D02*
Y148000D01*
X218000Y132000D02*
X248000D01*
X246000Y197000D02*
Y227000D01*
X230000D02*
X246000D01*
X230000Y197000D02*
Y227000D01*
Y197000D02*
X246000D01*
X218000Y52000D02*
Y68000D01*
X248000D01*
Y52000D02*
Y68000D01*
X218000Y52000D02*
X248000D01*
X388000Y97000D02*
X404000D01*
Y67000D02*
Y97000D01*
X388000Y67000D02*
X404000D01*
X388000D02*
Y97000D01*
X423000Y67000D02*
Y97000D01*
X407000D02*
X423000D01*
X407000Y67000D02*
Y97000D01*
Y67000D02*
X423000D01*
X470000Y92000D02*
Y108000D01*
X440000Y92000D02*
X470000D01*
X440000D02*
Y108000D01*
X470000D01*
M02*
