M48
;Layer_Color=9474304
;FILE_FORMAT=4:4
METRIC,LZ
;TYPE=PLATED
T1F00S00C0.3000
T2F00S00C0.7000
T3F00S00C1.0000
;TYPE=NON_PLATED
T4F00S00C3.2000
%
T01
X0003Y00065
X000755Y000727
Y000937
X00155Y00055
X00145Y00035
X0018
X0019
X00225Y00075
X0024
X00305
X00282Y000514
Y00026
X00396Y0006
X00415Y0009
X00442Y00125
Y001504
X00282Y001022
X00205Y0011
X00225Y00155
X0024Y0017
X00182Y00165
X0017Y0018
X00155Y00175
X00145
X0016Y0019
X001305Y001297
X001065Y001467
X001055Y001077
X0009Y0021
Y00222
X00045Y0021
X0004Y00165
X00015Y0015
T02
X0026Y0004
Y0006
Y0008
X0048
Y0006
Y0004
Y001
Y0012
Y0014
Y0016
Y0018
Y002
Y0022
X0026
Y002
Y0018
Y0016
Y0014
Y0012
Y001
T03
X0008Y0003
X001054
Y0028
X001308
X001562
X0008
X0002Y002608
Y002354
Y0021
Y001846
T04
X0003Y0003
X0024Y0027
M30
