%FSLAX44Y44*%
%MOMM*%
G71*
G01*
G75*
G04 Layer_Color=8388736*
%ADD10C,0.2000*%
%ADD11C,0.3000*%
%ADD12R,1.6000X1.6000*%
%ADD13C,2.5000*%
%ADD14R,1.2000X1.2000*%
%ADD15C,1.2000*%
%ADD16R,1.6000X1.6000*%
%ADD17C,0.8000*%
%ADD18R,1.0000X0.8500*%
%ADD19R,1.0000X0.8500*%
%ADD20R,1.3000X1.3000*%
%ADD21R,1.2700X1.2700*%
%ADD22R,1.8000X0.4000*%
%ADD23R,1.3000X1.3000*%
%ADD24C,0.1000*%
%ADD25C,0.5000*%
%ADD26R,1.8000X1.8000*%
%ADD27C,2.7000*%
%ADD28R,1.4000X1.4000*%
%ADD29C,1.4000*%
%ADD30R,1.8000X1.8000*%
%ADD31C,1.0000*%
D26*
X38000Y225000D02*
D03*
Y275800D02*
D03*
D27*
Y75000D02*
D03*
Y25000D02*
D03*
Y175000D02*
D03*
Y125000D02*
D03*
D28*
X309000Y206000D02*
D03*
D29*
Y186000D02*
D03*
Y166000D02*
D03*
Y146000D02*
D03*
Y126000D02*
D03*
Y106000D02*
D03*
Y86000D02*
D03*
Y66000D02*
D03*
Y46000D02*
D03*
Y26000D02*
D03*
X529000D02*
D03*
Y46000D02*
D03*
Y66000D02*
D03*
Y86000D02*
D03*
Y106000D02*
D03*
Y126000D02*
D03*
Y146000D02*
D03*
Y166000D02*
D03*
Y186000D02*
D03*
Y206000D02*
D03*
D30*
X155000Y178000D02*
D03*
Y203400D02*
D03*
X180000Y254000D02*
D03*
X129200D02*
D03*
X268000Y73200D02*
D03*
Y124000D02*
D03*
D31*
X197000Y229000D02*
D03*
M02*
