%FSLAX44Y44*%
%MOMM*%
G71*
G01*
G75*
G04 Layer_Color=8388736*
%ADD10R,2.0320X2.0320*%
%ADD11R,1.0000X0.8000*%
%ADD12R,0.8000X1.0000*%
%ADD13R,1.2700X1.2700*%
%ADD14R,1.0000X0.7000*%
%ADD15R,1.8000X0.4000*%
%ADD16C,0.2000*%
%ADD17C,0.4000*%
%ADD18C,0.3000*%
%ADD19C,1.2000*%
%ADD20R,1.2000X1.2000*%
%ADD21C,3.0000*%
%ADD22R,1.6000X1.6000*%
%ADD23C,0.8000*%
%ADD24C,0.1000*%
%ADD25C,0.1524*%
%ADD26R,0.2500X0.2500*%
%ADD27R,2.2320X2.2320*%
%ADD28R,1.2000X1.0000*%
%ADD29R,1.0000X1.2000*%
%ADD30R,1.4700X1.4700*%
%ADD31R,1.2000X0.9000*%
%ADD32R,2.0000X0.6000*%
%ADD33C,1.4000*%
%ADD34R,1.4000X1.4000*%
%ADD35C,3.2000*%
%ADD36R,1.8000X1.8000*%
D27*
X459800Y153000D02*
D03*
Y127600D02*
D03*
Y102200D02*
D03*
Y76800D02*
D03*
Y51400D02*
D03*
Y26000D02*
D03*
X282000D02*
D03*
Y51400D02*
D03*
Y76800D02*
D03*
Y102200D02*
D03*
Y127600D02*
D03*
Y153000D02*
D03*
D28*
X75500Y113700D02*
D03*
Y129700D02*
D03*
D29*
X90500Y146700D02*
D03*
X74500D02*
D03*
X90500Y93700D02*
D03*
X106500D02*
D03*
Y146700D02*
D03*
X122500D02*
D03*
X62000Y92000D02*
D03*
X46000D02*
D03*
X62000Y73000D02*
D03*
X46000D02*
D03*
D30*
X113836Y72700D02*
D03*
X92500D02*
D03*
D31*
X118500Y110700D02*
D03*
Y120200D02*
D03*
Y129800D02*
D03*
X92600D02*
D03*
Y110700D02*
D03*
Y120200D02*
D03*
D32*
X68600Y178000D02*
D03*
Y184500D02*
D03*
Y191000D02*
D03*
Y197500D02*
D03*
Y204000D02*
D03*
Y210500D02*
D03*
Y217000D02*
D03*
Y223500D02*
D03*
Y230000D02*
D03*
Y236500D02*
D03*
X128000D02*
D03*
Y230000D02*
D03*
Y223500D02*
D03*
Y217000D02*
D03*
Y210500D02*
D03*
Y204000D02*
D03*
Y197500D02*
D03*
Y191000D02*
D03*
Y184500D02*
D03*
Y178000D02*
D03*
D33*
X480000Y220000D02*
D03*
Y200000D02*
D03*
Y180000D02*
D03*
Y160000D02*
D03*
Y140000D02*
D03*
Y120000D02*
D03*
Y100000D02*
D03*
Y80000D02*
D03*
Y60000D02*
D03*
Y40000D02*
D03*
X260000D02*
D03*
Y60000D02*
D03*
Y80000D02*
D03*
Y100000D02*
D03*
Y120000D02*
D03*
Y140000D02*
D03*
Y160000D02*
D03*
Y180000D02*
D03*
Y200000D02*
D03*
D34*
Y220000D02*
D03*
D35*
X240000Y270000D02*
D03*
X30000Y30000D02*
D03*
D36*
X80000D02*
D03*
X105400D02*
D03*
X80000Y280000D02*
D03*
X105400D02*
D03*
X156200D02*
D03*
X130800D02*
D03*
X20000Y260800D02*
D03*
Y235400D02*
D03*
Y210000D02*
D03*
Y184600D02*
D03*
M02*
