%FSLAX44Y44*%
%MOMM*%
G71*
G01*
G75*
G04 Layer_Color=16711935*
%ADD10C,0.2000*%
%ADD11C,0.3000*%
%ADD12R,1.6000X1.6000*%
%ADD13C,2.5000*%
%ADD14R,1.2000X1.2000*%
%ADD15C,1.2000*%
%ADD16R,1.6000X1.6000*%
%ADD17C,0.8000*%
%ADD18R,1.0000X0.8500*%
%ADD19R,1.0000X0.8500*%
%ADD20R,1.3000X1.3000*%
%ADD21R,1.2700X1.2700*%
%ADD22R,1.8000X0.4000*%
%ADD23R,1.3000X1.3000*%
%ADD24C,0.1000*%
%ADD25C,0.5000*%
%ADD26R,1.8000X1.8000*%
%ADD27C,2.7000*%
%ADD28R,1.4000X1.4000*%
%ADD29C,1.4000*%
%ADD30R,1.8000X1.8000*%
%ADD31C,1.0000*%
%ADD32R,1.2000X1.0500*%
%ADD33R,1.2000X1.0500*%
%ADD34R,1.5000X1.5000*%
%ADD35R,1.4700X1.4700*%
%ADD36R,2.0000X0.6000*%
%ADD37R,1.5000X1.5000*%
D26*
X38000Y225000D02*
D03*
Y275800D02*
D03*
D27*
Y75000D02*
D03*
Y25000D02*
D03*
Y175000D02*
D03*
Y125000D02*
D03*
D28*
X309000Y206000D02*
D03*
D29*
Y186000D02*
D03*
Y166000D02*
D03*
Y146000D02*
D03*
Y126000D02*
D03*
Y106000D02*
D03*
Y86000D02*
D03*
Y66000D02*
D03*
Y46000D02*
D03*
Y26000D02*
D03*
X529000D02*
D03*
Y46000D02*
D03*
Y66000D02*
D03*
Y86000D02*
D03*
Y106000D02*
D03*
Y126000D02*
D03*
Y146000D02*
D03*
Y166000D02*
D03*
Y186000D02*
D03*
Y206000D02*
D03*
D30*
X155000Y178000D02*
D03*
Y203400D02*
D03*
X180000Y254000D02*
D03*
X129200D02*
D03*
X268000Y73200D02*
D03*
Y124000D02*
D03*
D31*
X197000Y229000D02*
D03*
D32*
X114000Y184500D02*
D03*
X90000Y175000D02*
D03*
X114000Y84500D02*
D03*
X90000Y75000D02*
D03*
D33*
X114000Y165500D02*
D03*
Y65500D02*
D03*
D34*
X146000Y113000D02*
D03*
X168000D02*
D03*
X146000Y144000D02*
D03*
X168000D02*
D03*
X358000Y126000D02*
D03*
X336000D02*
D03*
X504000Y86000D02*
D03*
X482000D02*
D03*
X358000Y46000D02*
D03*
X336000D02*
D03*
X257000Y254000D02*
D03*
X235000D02*
D03*
D35*
X287664Y238000D02*
D03*
X309000D02*
D03*
X235664Y220000D02*
D03*
X257000D02*
D03*
D36*
Y204000D02*
D03*
Y197500D02*
D03*
Y191000D02*
D03*
Y184500D02*
D03*
Y178000D02*
D03*
Y171500D02*
D03*
Y165000D02*
D03*
Y158500D02*
D03*
Y152000D02*
D03*
Y145500D02*
D03*
X197600D02*
D03*
Y152000D02*
D03*
Y158500D02*
D03*
Y165000D02*
D03*
Y171500D02*
D03*
Y178000D02*
D03*
Y184500D02*
D03*
Y191000D02*
D03*
Y197500D02*
D03*
Y204000D02*
D03*
D37*
X238000Y102000D02*
D03*
Y124000D02*
D03*
M02*
