%FSLAX44Y44*%
%MOMM*%
G71*
G01*
G75*
G04 Layer_Color=32896*
%ADD10C,0.2000*%
%ADD11C,0.3000*%
%ADD12R,1.6000X1.6000*%
%ADD13C,2.5000*%
%ADD14R,1.2000X1.2000*%
%ADD15C,1.2000*%
%ADD16R,1.6000X1.6000*%
%ADD17C,0.8000*%
%ADD18R,1.0000X0.8500*%
%ADD19R,1.0000X0.8500*%
%ADD20R,1.3000X1.3000*%
%ADD21R,1.2700X1.2700*%
%ADD22R,1.8000X0.4000*%
%ADD23R,1.3000X1.3000*%
%ADD24C,0.1000*%
%ADD25C,0.5000*%
%ADD26R,1.8000X1.8000*%
%ADD27C,2.7000*%
%ADD28R,1.4000X1.4000*%
%ADD29C,1.4000*%
%ADD30R,1.8000X1.8000*%
%ADD31C,1.0000*%
%ADD32R,1.2000X1.0500*%
%ADD33R,1.2000X1.0500*%
%ADD34R,1.5000X1.5000*%
%ADD35R,1.4700X1.4700*%
%ADD36R,2.0000X0.6000*%
%ADD37R,1.5000X1.5000*%
%ADD38C,0.2500*%
%ADD39C,0.2540*%
%ADD40C,0.1524*%
G36*
X359591Y147050D02*
Y145950D01*
X355347D01*
Y143610D01*
X354149D01*
Y145950D01*
X352824D01*
Y147050D01*
X354149D01*
Y153365D01*
X355122D01*
X359591Y147050D01*
D02*
G37*
G36*
X261896Y246599D02*
X262347Y246529D01*
X262742Y246444D01*
X262925Y246388D01*
X263094Y246331D01*
X263249Y246275D01*
X263390Y246218D01*
X263503Y246176D01*
X263616Y246134D01*
X263686Y246092D01*
X263743Y246063D01*
X263785Y246049D01*
X263799Y246035D01*
X264180Y245796D01*
X264504Y245514D01*
X264786Y245232D01*
X265026Y244950D01*
X265209Y244696D01*
X265279Y244583D01*
X265336Y244485D01*
X265392Y244414D01*
X265420Y244358D01*
X265434Y244315D01*
X265448Y244301D01*
X265646Y243864D01*
X265787Y243413D01*
X265885Y242962D01*
X265956Y242553D01*
X265984Y242370D01*
X265998Y242187D01*
X266012Y242046D01*
Y241905D01*
X266026Y241806D01*
Y241721D01*
Y241665D01*
Y241651D01*
X265998Y241144D01*
X265942Y240650D01*
X265871Y240213D01*
X265815Y240002D01*
X265815Y240000D01*
X265843D01*
Y230203D01*
X265068D01*
X264927Y230442D01*
X264772Y230668D01*
X264589Y230893D01*
X264419Y231091D01*
X264250Y231260D01*
X264123Y231401D01*
X264067Y231443D01*
X264025Y231485D01*
X264011Y231500D01*
X263997Y231514D01*
X263701Y231753D01*
X263405Y231979D01*
X263123Y232176D01*
X262841Y232331D01*
X262601Y232472D01*
X262502Y232529D01*
X262418Y232571D01*
X262347Y232613D01*
X262291Y232627D01*
X262263Y232656D01*
X262248D01*
Y233811D01*
X262460Y233727D01*
X262671Y233628D01*
X262883Y233529D01*
X263080Y233431D01*
X263249Y233346D01*
X263390Y233276D01*
X263475Y233219D01*
X263489Y233205D01*
X263503D01*
X263757Y233050D01*
X263983Y232895D01*
X264180Y232754D01*
X264335Y232627D01*
X264476Y232529D01*
X264560Y232444D01*
X264631Y232388D01*
X264645Y232374D01*
Y237727D01*
X264574Y237647D01*
X264462Y237535D01*
X264349Y237436D01*
X264250Y237351D01*
X264166Y237295D01*
X264109Y237239D01*
X264053Y237196D01*
X264025Y237182D01*
X264011Y237168D01*
X263813Y237055D01*
X263616Y236957D01*
X263193Y236802D01*
X262770Y236689D01*
X262361Y236618D01*
X262164Y236590D01*
X261995Y236562D01*
X261840Y236548D01*
X261713D01*
X261600Y236534D01*
X261445D01*
X261163Y236548D01*
X260895Y236576D01*
X260641Y236604D01*
X260402Y236661D01*
X260176Y236731D01*
X259965Y236802D01*
X259767Y236872D01*
X259584Y236957D01*
X259429Y237027D01*
X259274Y237098D01*
X259161Y237168D01*
X259048Y237239D01*
X258978Y237295D01*
X258907Y237323D01*
X258888Y237342D01*
X258696Y237068D01*
X258513Y236814D01*
X258330Y236603D01*
X258174Y236405D01*
X258034Y236264D01*
X257921Y236152D01*
X257850Y236081D01*
X257822Y236053D01*
X257709Y235968D01*
X257582Y235870D01*
X257329Y235714D01*
X257216Y235658D01*
X257131Y235602D01*
X257075Y235574D01*
X257047Y235559D01*
X257300Y235517D01*
X257540Y235475D01*
X257752Y235404D01*
X257963Y235348D01*
X258146Y235278D01*
X258316Y235193D01*
X258470Y235122D01*
X258612Y235052D01*
X258724Y234967D01*
X258837Y234897D01*
X258922Y234841D01*
X258992Y234784D01*
X259049Y234742D01*
X259091Y234699D01*
X259105Y234685D01*
X259119Y234671D01*
X259232Y234530D01*
X259345Y234389D01*
X259514Y234093D01*
X259627Y233797D01*
X259711Y233515D01*
X259767Y233276D01*
X259781Y233177D01*
Y233078D01*
X259796Y233008D01*
Y232952D01*
Y232923D01*
Y232909D01*
X259781Y232613D01*
X259739Y232345D01*
X259669Y232092D01*
X259598Y231880D01*
X259514Y231697D01*
X259457Y231556D01*
X259401Y231471D01*
X259387Y231457D01*
Y231443D01*
X259218Y231218D01*
X259049Y231020D01*
X258865Y230851D01*
X258696Y230724D01*
X258541Y230625D01*
X258414Y230569D01*
X258330Y230527D01*
X258316Y230513D01*
X258301D01*
X258174Y230470D01*
X258019Y230428D01*
X257709Y230358D01*
X257371Y230315D01*
X257061Y230273D01*
X256765Y230259D01*
X256638D01*
X256525Y230245D01*
X252000D01*
Y236703D01*
X251788D01*
Y246500D01*
X252564D01*
X252705Y246261D01*
X252860Y246035D01*
X253043Y245810D01*
X253212Y245612D01*
X253381Y245443D01*
X253508Y245302D01*
X253565Y245260D01*
X253607Y245218D01*
X253621Y245203D01*
X253635Y245189D01*
X253931Y244950D01*
X254227Y244724D01*
X254509Y244527D01*
X254791Y244372D01*
X255031Y244231D01*
X255129Y244174D01*
X255214Y244132D01*
X255285Y244090D01*
X255341Y244076D01*
X255369Y244048D01*
X255383D01*
Y242892D01*
X255172Y242976D01*
X254960Y243075D01*
X254749Y243174D01*
X254551Y243272D01*
X254382Y243357D01*
X254241Y243427D01*
X254157Y243484D01*
X254143Y243498D01*
X254128D01*
X253875Y243653D01*
X253649Y243808D01*
X253452Y243949D01*
X253297Y244076D01*
X253156Y244174D01*
X253071Y244259D01*
X253001Y244315D01*
X252987Y244329D01*
Y240000D01*
X253297D01*
Y235672D01*
X254960D01*
X255115Y235686D01*
X255228D01*
X255327Y235700D01*
X255397Y235714D01*
X255454D01*
X255482Y235729D01*
X255496D01*
X255722Y235799D01*
X255820Y235841D01*
X255905Y235884D01*
X255989Y235926D01*
X256046Y235954D01*
X256074Y235968D01*
X256088Y235982D01*
X256201Y236067D01*
X256314Y236166D01*
X256525Y236377D01*
X256624Y236476D01*
X256694Y236560D01*
X256737Y236617D01*
X256751Y236631D01*
X256892Y236828D01*
X257047Y237040D01*
X257202Y237265D01*
X257357Y237477D01*
X257484Y237674D01*
X257582Y237829D01*
X257625Y237885D01*
X257653Y237928D01*
X257681Y237956D01*
Y237970D01*
X257974Y238433D01*
X257935Y238493D01*
X257737Y238888D01*
X257653Y239071D01*
X257582Y239240D01*
X257526Y239396D01*
X257484Y239522D01*
X257441Y239635D01*
X257413Y239720D01*
X257399Y239776D01*
Y239790D01*
X258696Y240114D01*
X258752Y239889D01*
X258801Y239742D01*
X258964Y240000D01*
X260571D01*
X259564Y238409D01*
X259598Y238367D01*
X259655Y238324D01*
X259697Y238282D01*
X259711Y238268D01*
X259725Y238254D01*
X259866Y238141D01*
X260021Y238056D01*
X260331Y237901D01*
X260627Y237789D01*
X260923Y237718D01*
X261177Y237662D01*
X261276Y237647D01*
X261374D01*
X261459Y237633D01*
X261558D01*
X261882Y237647D01*
X262192Y237704D01*
X262474Y237774D01*
X262728Y237859D01*
X262925Y237943D01*
X263010Y237986D01*
X263080Y238014D01*
X263137Y238042D01*
X263179Y238070D01*
X263207Y238085D01*
X263221D01*
X263489Y238282D01*
X263715Y238493D01*
X263912Y238733D01*
X264067Y238958D01*
X264194Y239156D01*
X264278Y239325D01*
X264307Y239396D01*
X264335Y239438D01*
X264349Y239466D01*
Y239480D01*
X264462Y239847D01*
X264546Y240213D01*
X264617Y240580D01*
X264659Y240918D01*
X264673Y241073D01*
X264687Y241214D01*
Y241341D01*
X264701Y241440D01*
Y241524D01*
Y241595D01*
Y241637D01*
Y241651D01*
X264687Y242018D01*
X264659Y242356D01*
X264603Y242666D01*
X264546Y242948D01*
X264504Y243188D01*
X264476Y243286D01*
X264447Y243371D01*
X264433Y243441D01*
X264419Y243484D01*
X264405Y243512D01*
Y243526D01*
X264264Y243850D01*
X264109Y244146D01*
X263940Y244386D01*
X263757Y244597D01*
X263602Y244767D01*
X263475Y244879D01*
X263376Y244950D01*
X263362Y244978D01*
X263348D01*
X263052Y245161D01*
X262728Y245302D01*
X262418Y245401D01*
X262122Y245457D01*
X261854Y245499D01*
X261741Y245514D01*
X261642D01*
X261572Y245528D01*
X261459D01*
X261106Y245514D01*
X260782Y245457D01*
X260515Y245373D01*
X260275Y245288D01*
X260092Y245189D01*
X259951Y245119D01*
X259866Y245063D01*
X259838Y245034D01*
X259612Y244823D01*
X259401Y244583D01*
X259232Y244329D01*
X259091Y244076D01*
X258978Y243850D01*
X258936Y243737D01*
X258907Y243653D01*
X258879Y243582D01*
X258851Y243526D01*
X258837Y243498D01*
Y243484D01*
X257568Y243780D01*
X257653Y244033D01*
X257737Y244259D01*
X257850Y244471D01*
X257949Y244682D01*
X258062Y244865D01*
X258188Y245034D01*
X258301Y245203D01*
X258414Y245345D01*
X258527Y245457D01*
X258626Y245570D01*
X258724Y245669D01*
X258795Y245739D01*
X258865Y245810D01*
X258922Y245852D01*
X258950Y245866D01*
X258964Y245880D01*
X259161Y246007D01*
X259359Y246134D01*
X259556Y246233D01*
X259767Y246317D01*
X260190Y246444D01*
X260571Y246529D01*
X260754Y246571D01*
X260909Y246585D01*
X261064Y246599D01*
X261191Y246613D01*
X261290Y246627D01*
X261431D01*
X261896Y246599D01*
D02*
G37*
G36*
X305471Y264631D02*
X305710Y264617D01*
X305936Y264575D01*
X306147Y264533D01*
X306345Y264476D01*
X306528Y264420D01*
X306697Y264349D01*
X306852Y264279D01*
X306993Y264208D01*
X307106Y264138D01*
X307204Y264081D01*
X307289Y264025D01*
X307360Y263983D01*
X307402Y263941D01*
X307430Y263927D01*
X307444Y263912D01*
X307585Y263771D01*
X307712Y263616D01*
X307839Y263447D01*
X307938Y263278D01*
X308107Y262940D01*
X308220Y262601D01*
X308262Y262446D01*
X308304Y262291D01*
X308332Y262164D01*
X308361Y262052D01*
X308375Y261953D01*
Y261882D01*
X308389Y261840D01*
Y261826D01*
X307162Y261699D01*
X307134Y262023D01*
X307078Y262305D01*
X306993Y262559D01*
X306894Y262756D01*
X306810Y262926D01*
X306725Y263038D01*
X306669Y263109D01*
X306641Y263137D01*
X306429Y263306D01*
X306204Y263433D01*
X305964Y263532D01*
X305753Y263588D01*
X305555Y263630D01*
X305386Y263645D01*
X305330Y263659D01*
X305245D01*
X304949Y263645D01*
X304681Y263588D01*
X304456Y263504D01*
X304258Y263419D01*
X304103Y263320D01*
X304004Y263250D01*
X303934Y263193D01*
X303906Y263165D01*
X303737Y262968D01*
X303610Y262771D01*
X303511Y262573D01*
X303455Y262376D01*
X303412Y262221D01*
X303398Y262080D01*
X303384Y261995D01*
Y261981D01*
Y261967D01*
X303412Y261713D01*
X303469Y261445D01*
X303568Y261206D01*
X303666Y260980D01*
X303779Y260797D01*
X303878Y260642D01*
X303906Y260585D01*
X303934Y260543D01*
X303962Y260529D01*
Y260515D01*
X304075Y260360D01*
X304216Y260205D01*
X304371Y260036D01*
X304540Y259867D01*
X304893Y259528D01*
X305245Y259190D01*
X305428Y259035D01*
X305583Y258894D01*
X305739Y258767D01*
X305865Y258654D01*
X305964Y258570D01*
X306049Y258499D01*
X306105Y258457D01*
X306119Y258443D01*
X306472Y258147D01*
X306796Y257865D01*
X307064Y257611D01*
X307275Y257400D01*
X307458Y257216D01*
X307585Y257089D01*
X307656Y257005D01*
X307684Y256991D01*
Y256977D01*
X307881Y256737D01*
X308036Y256511D01*
X308177Y256286D01*
X308290Y256089D01*
X308375Y255919D01*
X308431Y255793D01*
X308459Y255708D01*
X308473Y255694D01*
Y255680D01*
X308530Y255525D01*
X308558Y255384D01*
X308586Y255243D01*
X308600Y255116D01*
X308614Y255003D01*
Y254918D01*
Y254862D01*
Y254848D01*
X302144D01*
Y256004D01*
X306951D01*
X306782Y256244D01*
X306697Y256342D01*
X306627Y256441D01*
X306556Y256525D01*
X306500Y256582D01*
X306457Y256624D01*
X306443Y256638D01*
X306373Y256709D01*
X306288Y256779D01*
X306091Y256963D01*
X305865Y257174D01*
X305626Y257386D01*
X305400Y257569D01*
X305301Y257653D01*
X305217Y257738D01*
X305146Y257794D01*
X305090Y257837D01*
X305062Y257865D01*
X305048Y257879D01*
X304822Y258076D01*
X304597Y258260D01*
X304399Y258443D01*
X304216Y258598D01*
X304047Y258753D01*
X303906Y258894D01*
X303765Y259021D01*
X303652Y259133D01*
X303539Y259246D01*
X303455Y259331D01*
X303384Y259401D01*
X303314Y259472D01*
X303243Y259556D01*
X303215Y259585D01*
X303018Y259824D01*
X302849Y260036D01*
X302708Y260247D01*
X302595Y260416D01*
X302510Y260571D01*
X302454Y260684D01*
X302426Y260755D01*
X302412Y260783D01*
X302327Y260994D01*
X302271Y261206D01*
X302214Y261403D01*
X302186Y261572D01*
X302172Y261727D01*
X302158Y261840D01*
Y261911D01*
Y261939D01*
X302172Y262150D01*
X302200Y262348D01*
X302228Y262545D01*
X302285Y262714D01*
X302426Y263053D01*
X302567Y263320D01*
X302651Y263447D01*
X302722Y263546D01*
X302792Y263645D01*
X302863Y263715D01*
X302919Y263771D01*
X302947Y263828D01*
X302975Y263842D01*
X302990Y263856D01*
X303145Y263997D01*
X303314Y264124D01*
X303497Y264223D01*
X303680Y264307D01*
X304047Y264448D01*
X304413Y264547D01*
X304568Y264575D01*
X304723Y264603D01*
X304864Y264617D01*
X304977Y264631D01*
X305076Y264645D01*
X305217D01*
X305471Y264631D01*
D02*
G37*
G36*
X200005Y259783D02*
X200245Y259769D01*
X200470Y259727D01*
X200682Y259685D01*
X200879Y259628D01*
X201063Y259572D01*
X201232Y259501D01*
X201387Y259431D01*
X201528Y259360D01*
X201640Y259290D01*
X201739Y259233D01*
X201824Y259177D01*
X201894Y259135D01*
X201936Y259093D01*
X201965Y259079D01*
X201979Y259064D01*
X202120Y258923D01*
X202247Y258768D01*
X202374Y258599D01*
X202472Y258430D01*
X202641Y258092D01*
X202754Y257753D01*
X202796Y257598D01*
X202839Y257443D01*
X202867Y257316D01*
X202895Y257204D01*
X202909Y257105D01*
Y257034D01*
X202923Y256992D01*
Y256978D01*
X201697Y256851D01*
X201669Y257175D01*
X201612Y257457D01*
X201528Y257711D01*
X201429Y257908D01*
X201344Y258078D01*
X201260Y258190D01*
X201203Y258261D01*
X201175Y258289D01*
X200964Y258458D01*
X200738Y258585D01*
X200499Y258684D01*
X200287Y258740D01*
X200090Y258782D01*
X199921Y258797D01*
X199864Y258811D01*
X199780D01*
X199484Y258797D01*
X199216Y258740D01*
X198990Y258656D01*
X198793Y258571D01*
X198638Y258472D01*
X198539Y258402D01*
X198469Y258345D01*
X198440Y258317D01*
X198271Y258120D01*
X198144Y257922D01*
X198046Y257725D01*
X197989Y257528D01*
X197947Y257373D01*
X197933Y257232D01*
X197919Y257147D01*
Y257133D01*
Y257119D01*
X197947Y256865D01*
X198003Y256597D01*
X198102Y256358D01*
X198201Y256132D01*
X198314Y255949D01*
X198412Y255794D01*
X198440Y255737D01*
X198469Y255695D01*
X198497Y255681D01*
Y255667D01*
X198610Y255512D01*
X198751Y255357D01*
X198906Y255188D01*
X199075Y255019D01*
X199427Y254680D01*
X199780Y254342D01*
X199963Y254187D01*
X200118Y254046D01*
X200273Y253919D01*
X200400Y253806D01*
X200499Y253722D01*
X200583Y253651D01*
X200640Y253609D01*
X200654Y253595D01*
X201006Y253299D01*
X201330Y253017D01*
X201598Y252763D01*
X201810Y252552D01*
X201993Y252368D01*
X202120Y252241D01*
X202190Y252157D01*
X202218Y252143D01*
Y252129D01*
X202416Y251889D01*
X202571Y251663D01*
X202712Y251438D01*
X202825Y251241D01*
X202909Y251071D01*
X202966Y250944D01*
X202994Y250860D01*
X203008Y250846D01*
Y250832D01*
X203064Y250677D01*
X203092Y250536D01*
X203121Y250395D01*
X203135Y250268D01*
X203149Y250155D01*
Y250070D01*
Y250014D01*
Y250000D01*
X196678D01*
Y251156D01*
X201485D01*
X201316Y251396D01*
X201232Y251494D01*
X201161Y251593D01*
X201091Y251678D01*
X201034Y251734D01*
X200992Y251776D01*
X200978Y251790D01*
X200907Y251861D01*
X200823Y251931D01*
X200625Y252115D01*
X200400Y252326D01*
X200160Y252537D01*
X199935Y252721D01*
X199836Y252805D01*
X199751Y252890D01*
X199681Y252946D01*
X199625Y252989D01*
X199596Y253017D01*
X199582Y253031D01*
X199357Y253228D01*
X199131Y253412D01*
X198934Y253595D01*
X198751Y253750D01*
X198581Y253905D01*
X198440Y254046D01*
X198300Y254173D01*
X198187Y254286D01*
X198074Y254398D01*
X197989Y254483D01*
X197919Y254553D01*
X197848Y254624D01*
X197778Y254708D01*
X197750Y254737D01*
X197552Y254976D01*
X197383Y255188D01*
X197242Y255399D01*
X197129Y255568D01*
X197045Y255723D01*
X196989Y255836D01*
X196960Y255907D01*
X196946Y255935D01*
X196862Y256146D01*
X196805Y256358D01*
X196749Y256555D01*
X196721Y256724D01*
X196707Y256879D01*
X196692Y256992D01*
Y257063D01*
Y257091D01*
X196707Y257302D01*
X196735Y257500D01*
X196763Y257697D01*
X196819Y257866D01*
X196960Y258204D01*
X197101Y258472D01*
X197186Y258599D01*
X197256Y258698D01*
X197327Y258797D01*
X197397Y258867D01*
X197454Y258923D01*
X197482Y258980D01*
X197510Y258994D01*
X197524Y259008D01*
X197679Y259149D01*
X197848Y259276D01*
X198032Y259375D01*
X198215Y259459D01*
X198581Y259600D01*
X198948Y259699D01*
X199103Y259727D01*
X199258Y259755D01*
X199399Y259769D01*
X199512Y259783D01*
X199611Y259797D01*
X199751D01*
X200005Y259783D01*
D02*
G37*
G36*
X314042Y264744D02*
X314493Y264674D01*
X314887Y264589D01*
X315071Y264533D01*
X315240Y264476D01*
X315395Y264420D01*
X315536Y264363D01*
X315649Y264321D01*
X315761Y264279D01*
X315832Y264237D01*
X315888Y264208D01*
X315931Y264194D01*
X315945Y264180D01*
X316325Y263941D01*
X316649Y263659D01*
X316931Y263377D01*
X317171Y263095D01*
X317354Y262841D01*
X317425Y262728D01*
X317481Y262630D01*
X317538Y262559D01*
X317566Y262503D01*
X317580Y262460D01*
X317594Y262446D01*
X317791Y262009D01*
X317932Y261558D01*
X318031Y261107D01*
X318102Y260698D01*
X318130Y260515D01*
X318144Y260332D01*
X318158Y260191D01*
Y260050D01*
X318172Y259951D01*
Y259867D01*
Y259810D01*
Y259796D01*
X318144Y259289D01*
X318087Y258795D01*
X318017Y258358D01*
X317961Y258147D01*
X317918Y257963D01*
X317876Y257794D01*
X317820Y257639D01*
X317777Y257498D01*
X317749Y257386D01*
X317707Y257301D01*
X317693Y257230D01*
X317665Y257188D01*
Y257174D01*
X317453Y256751D01*
X317213Y256371D01*
X316960Y256046D01*
X316833Y255919D01*
X316720Y255793D01*
X316607Y255680D01*
X316495Y255581D01*
X316396Y255497D01*
X316311Y255440D01*
X316255Y255384D01*
X316198Y255341D01*
X316170Y255327D01*
X316156Y255313D01*
X315959Y255200D01*
X315761Y255102D01*
X315338Y254947D01*
X314916Y254834D01*
X314507Y254763D01*
X314309Y254735D01*
X314140Y254707D01*
X313985Y254693D01*
X313858D01*
X313745Y254679D01*
X313591D01*
X313309Y254693D01*
X313041Y254721D01*
X312787Y254749D01*
X312547Y254806D01*
X312322Y254876D01*
X312110Y254947D01*
X311913Y255017D01*
X311730Y255102D01*
X311575Y255172D01*
X311420Y255243D01*
X311307Y255313D01*
X311194Y255384D01*
X311124Y255440D01*
X311053Y255468D01*
X311025Y255497D01*
X311011Y255511D01*
X310813Y255680D01*
X310644Y255849D01*
X310489Y256046D01*
X310334Y256244D01*
X310080Y256638D01*
X309883Y257033D01*
X309798Y257216D01*
X309728Y257386D01*
X309671Y257540D01*
X309629Y257667D01*
X309587Y257780D01*
X309559Y257865D01*
X309545Y257921D01*
Y257935D01*
X310842Y258260D01*
X310898Y258034D01*
X310968Y257822D01*
X311039Y257625D01*
X311109Y257442D01*
X311194Y257273D01*
X311279Y257132D01*
X311377Y256991D01*
X311462Y256864D01*
X311532Y256751D01*
X311617Y256667D01*
X311687Y256582D01*
X311744Y256511D01*
X311800Y256469D01*
X311842Y256427D01*
X311857Y256413D01*
X311871Y256399D01*
X312012Y256286D01*
X312167Y256201D01*
X312477Y256046D01*
X312773Y255933D01*
X313069Y255863D01*
X313323Y255807D01*
X313421Y255793D01*
X313520D01*
X313605Y255778D01*
X313703D01*
X314028Y255793D01*
X314338Y255849D01*
X314620Y255919D01*
X314873Y256004D01*
X315071Y256089D01*
X315155Y256131D01*
X315226Y256159D01*
X315282Y256187D01*
X315324Y256215D01*
X315353Y256229D01*
X315367D01*
X315634Y256427D01*
X315860Y256638D01*
X316057Y256878D01*
X316213Y257104D01*
X316339Y257301D01*
X316424Y257470D01*
X316452Y257540D01*
X316480Y257583D01*
X316495Y257611D01*
Y257625D01*
X316607Y257992D01*
X316692Y258358D01*
X316762Y258725D01*
X316805Y259063D01*
X316819Y259218D01*
X316833Y259359D01*
Y259486D01*
X316847Y259585D01*
Y259669D01*
Y259740D01*
Y259782D01*
Y259796D01*
X316833Y260163D01*
X316805Y260501D01*
X316748Y260811D01*
X316692Y261093D01*
X316649Y261333D01*
X316621Y261431D01*
X316593Y261516D01*
X316579Y261586D01*
X316565Y261629D01*
X316551Y261657D01*
Y261671D01*
X316410Y261995D01*
X316255Y262291D01*
X316086Y262531D01*
X315902Y262742D01*
X315747Y262911D01*
X315620Y263024D01*
X315522Y263095D01*
X315508Y263123D01*
X315494D01*
X315198Y263306D01*
X314873Y263447D01*
X314563Y263546D01*
X314267Y263602D01*
X313999Y263645D01*
X313887Y263659D01*
X313788D01*
X313717Y263673D01*
X313605D01*
X313252Y263659D01*
X312928Y263602D01*
X312660Y263518D01*
X312420Y263433D01*
X312237Y263334D01*
X312096Y263264D01*
X312012Y263207D01*
X311983Y263179D01*
X311758Y262968D01*
X311546Y262728D01*
X311377Y262474D01*
X311236Y262221D01*
X311124Y261995D01*
X311081Y261882D01*
X311053Y261798D01*
X311025Y261727D01*
X310997Y261671D01*
X310982Y261643D01*
Y261629D01*
X309714Y261925D01*
X309798Y262178D01*
X309883Y262404D01*
X309996Y262616D01*
X310094Y262827D01*
X310207Y263010D01*
X310334Y263179D01*
X310447Y263349D01*
X310560Y263489D01*
X310672Y263602D01*
X310771Y263715D01*
X310870Y263814D01*
X310940Y263884D01*
X311011Y263955D01*
X311067Y263997D01*
X311095Y264011D01*
X311109Y264025D01*
X311307Y264152D01*
X311504Y264279D01*
X311702Y264378D01*
X311913Y264462D01*
X312336Y264589D01*
X312717Y264674D01*
X312900Y264716D01*
X313055Y264730D01*
X313210Y264744D01*
X313337Y264758D01*
X313435Y264772D01*
X313576D01*
X314042Y264744D01*
D02*
G37*
G36*
X132000Y140000D02*
X130703D01*
Y144328D01*
X129040D01*
X128885Y144314D01*
X128772D01*
X128673Y144300D01*
X128603Y144285D01*
X128546D01*
X128518Y144271D01*
X128504D01*
X128278Y144201D01*
X128180Y144159D01*
X128095Y144116D01*
X128011Y144074D01*
X127954Y144046D01*
X127926Y144032D01*
X127912Y144018D01*
X127799Y143933D01*
X127686Y143834D01*
X127475Y143623D01*
X127376Y143524D01*
X127306Y143440D01*
X127263Y143383D01*
X127249Y143369D01*
X127108Y143172D01*
X126953Y142960D01*
X126798Y142735D01*
X126643Y142523D01*
X126516Y142326D01*
X126418Y142171D01*
X126375Y142114D01*
X126347Y142072D01*
X126319Y142044D01*
Y142030D01*
X125036Y140000D01*
X123429D01*
X125107Y142650D01*
X125304Y142932D01*
X125487Y143186D01*
X125670Y143397D01*
X125826Y143595D01*
X125967Y143736D01*
X126079Y143848D01*
X126150Y143919D01*
X126178Y143947D01*
X126291Y144032D01*
X126418Y144130D01*
X126671Y144285D01*
X126784Y144342D01*
X126869Y144398D01*
X126925Y144426D01*
X126953Y144441D01*
X126699Y144483D01*
X126460Y144525D01*
X126248Y144596D01*
X126037Y144652D01*
X125854Y144722D01*
X125684Y144807D01*
X125529Y144878D01*
X125388Y144948D01*
X125276Y145033D01*
X125163Y145103D01*
X125078Y145160D01*
X125008Y145216D01*
X124951Y145258D01*
X124909Y145301D01*
X124895Y145315D01*
X124881Y145329D01*
X124768Y145470D01*
X124656Y145611D01*
X124486Y145907D01*
X124374Y146203D01*
X124289Y146485D01*
X124233Y146724D01*
X124218Y146823D01*
Y146922D01*
X124204Y146992D01*
Y147049D01*
Y147077D01*
Y147091D01*
X124218Y147387D01*
X124261Y147655D01*
X124331Y147908D01*
X124402Y148120D01*
X124486Y148303D01*
X124543Y148444D01*
X124599Y148529D01*
X124613Y148543D01*
Y148557D01*
X124782Y148782D01*
X124951Y148980D01*
X125135Y149149D01*
X125304Y149276D01*
X125459Y149375D01*
X125586Y149431D01*
X125670Y149473D01*
X125684Y149487D01*
X125699D01*
X125826Y149530D01*
X125981Y149572D01*
X126291Y149642D01*
X126629Y149685D01*
X126939Y149727D01*
X127235Y149741D01*
X127362D01*
X127475Y149755D01*
X132000D01*
Y140000D01*
D02*
G37*
G36*
X131000Y114000D02*
X129703D01*
Y118328D01*
X128040D01*
X127885Y118314D01*
X127772D01*
X127673Y118300D01*
X127603Y118286D01*
X127546D01*
X127518Y118271D01*
X127504D01*
X127278Y118201D01*
X127180Y118159D01*
X127095Y118116D01*
X127010Y118074D01*
X126954Y118046D01*
X126926Y118032D01*
X126912Y118018D01*
X126799Y117933D01*
X126686Y117834D01*
X126475Y117623D01*
X126376Y117524D01*
X126306Y117440D01*
X126263Y117383D01*
X126249Y117369D01*
X126108Y117172D01*
X125953Y116960D01*
X125798Y116735D01*
X125643Y116523D01*
X125516Y116326D01*
X125418Y116171D01*
X125375Y116115D01*
X125347Y116072D01*
X125319Y116044D01*
Y116030D01*
X124036Y114000D01*
X122429D01*
X124107Y116650D01*
X124304Y116932D01*
X124487Y117186D01*
X124670Y117397D01*
X124825Y117595D01*
X124966Y117736D01*
X125079Y117849D01*
X125150Y117919D01*
X125178Y117947D01*
X125291Y118032D01*
X125418Y118130D01*
X125671Y118286D01*
X125784Y118342D01*
X125869Y118398D01*
X125925Y118427D01*
X125953Y118441D01*
X125700Y118483D01*
X125460Y118525D01*
X125248Y118596D01*
X125037Y118652D01*
X124854Y118722D01*
X124684Y118807D01*
X124529Y118878D01*
X124389Y118948D01*
X124276Y119033D01*
X124163Y119103D01*
X124078Y119159D01*
X124008Y119216D01*
X123952Y119258D01*
X123909Y119300D01*
X123895Y119315D01*
X123881Y119329D01*
X123768Y119470D01*
X123656Y119611D01*
X123486Y119907D01*
X123373Y120203D01*
X123289Y120485D01*
X123232Y120724D01*
X123218Y120823D01*
Y120922D01*
X123204Y120992D01*
Y121048D01*
Y121077D01*
Y121091D01*
X123218Y121387D01*
X123261Y121655D01*
X123331Y121908D01*
X123402Y122120D01*
X123486Y122303D01*
X123543Y122444D01*
X123599Y122529D01*
X123613Y122543D01*
Y122557D01*
X123782Y122782D01*
X123952Y122980D01*
X124135Y123149D01*
X124304Y123276D01*
X124459Y123375D01*
X124586Y123431D01*
X124670Y123473D01*
X124684Y123487D01*
X124699D01*
X124825Y123530D01*
X124981Y123572D01*
X125291Y123642D01*
X125629Y123685D01*
X125939Y123727D01*
X126235Y123741D01*
X126362D01*
X126475Y123755D01*
X131000D01*
Y114000D01*
D02*
G37*
G36*
X514406Y103908D02*
X513109D01*
Y108236D01*
X511446D01*
X511291Y108222D01*
X511178D01*
X511079Y108208D01*
X511009Y108194D01*
X510952D01*
X510924Y108179D01*
X510910D01*
X510684Y108109D01*
X510586Y108067D01*
X510501Y108024D01*
X510417Y107982D01*
X510360Y107954D01*
X510332Y107940D01*
X510318Y107926D01*
X510205Y107841D01*
X510092Y107742D01*
X509881Y107531D01*
X509782Y107432D01*
X509712Y107348D01*
X509669Y107291D01*
X509655Y107277D01*
X509514Y107080D01*
X509359Y106868D01*
X509204Y106643D01*
X509049Y106431D01*
X508922Y106234D01*
X508824Y106079D01*
X508781Y106023D01*
X508753Y105980D01*
X508725Y105952D01*
Y105938D01*
X507442Y103908D01*
X505835D01*
X507513Y106558D01*
X507710Y106840D01*
X507893Y107094D01*
X508077Y107305D01*
X508232Y107503D01*
X508372Y107644D01*
X508485Y107757D01*
X508556Y107827D01*
X508584Y107855D01*
X508697Y107940D01*
X508824Y108038D01*
X509077Y108194D01*
X509190Y108250D01*
X509275Y108306D01*
X509331Y108335D01*
X509359Y108349D01*
X509105Y108391D01*
X508866Y108433D01*
X508654Y108504D01*
X508443Y108560D01*
X508260Y108631D01*
X508091Y108715D01*
X507935Y108786D01*
X507794Y108856D01*
X507682Y108941D01*
X507569Y109011D01*
X507484Y109067D01*
X507414Y109124D01*
X507357Y109166D01*
X507315Y109208D01*
X507301Y109223D01*
X507287Y109237D01*
X507174Y109378D01*
X507062Y109519D01*
X506892Y109815D01*
X506780Y110111D01*
X506695Y110393D01*
X506639Y110632D01*
X506624Y110731D01*
Y110830D01*
X506610Y110900D01*
Y110956D01*
Y110985D01*
Y110999D01*
X506624Y111295D01*
X506667Y111563D01*
X506737Y111816D01*
X506808Y112028D01*
X506892Y112211D01*
X506949Y112352D01*
X507005Y112437D01*
X507019Y112451D01*
Y112465D01*
X507188Y112690D01*
X507357Y112888D01*
X507541Y113057D01*
X507710Y113184D01*
X507865Y113282D01*
X507992Y113339D01*
X508077Y113381D01*
X508091Y113395D01*
X508105D01*
X508232Y113438D01*
X508387Y113480D01*
X508697Y113550D01*
X509035Y113593D01*
X509345Y113635D01*
X509641Y113649D01*
X509768D01*
X509881Y113663D01*
X514406D01*
Y103908D01*
D02*
G37*
G36*
X121583Y122472D02*
X116804D01*
X117143Y122064D01*
X117467Y121627D01*
X117749Y121204D01*
X118017Y120795D01*
X118129Y120611D01*
X118228Y120442D01*
X118327Y120287D01*
X118397Y120160D01*
X118454Y120048D01*
X118496Y119977D01*
X118524Y119921D01*
X118538Y119907D01*
X118820Y119343D01*
X119074Y118779D01*
X119285Y118243D01*
X119370Y118004D01*
X119454Y117764D01*
X119539Y117552D01*
X119595Y117355D01*
X119652Y117186D01*
X119694Y117045D01*
X119736Y116918D01*
X119765Y116833D01*
X119779Y116777D01*
Y116763D01*
X119920Y116185D01*
X119976Y115903D01*
X120018Y115649D01*
X120061Y115410D01*
X120103Y115170D01*
X120131Y114973D01*
X120159Y114775D01*
X120174Y114606D01*
X120188Y114451D01*
X120202Y114310D01*
Y114197D01*
X120216Y114113D01*
Y114056D01*
Y114014D01*
Y114000D01*
X118989D01*
X118947Y114536D01*
X118877Y115029D01*
X118806Y115480D01*
X118764Y115692D01*
X118722Y115889D01*
X118693Y116058D01*
X118651Y116213D01*
X118623Y116354D01*
X118595Y116467D01*
X118566Y116552D01*
X118552Y116622D01*
X118538Y116664D01*
Y116678D01*
X118327Y117327D01*
X118101Y117933D01*
X117989Y118229D01*
X117876Y118511D01*
X117749Y118765D01*
X117636Y119018D01*
X117537Y119244D01*
X117439Y119441D01*
X117354Y119611D01*
X117284Y119766D01*
X117213Y119893D01*
X117171Y119977D01*
X117143Y120034D01*
X117128Y120048D01*
X116959Y120344D01*
X116790Y120640D01*
X116621Y120907D01*
X116452Y121161D01*
X116297Y121387D01*
X116142Y121612D01*
X115987Y121810D01*
X115860Y121979D01*
X115733Y122148D01*
X115620Y122289D01*
X115507Y122402D01*
X115423Y122500D01*
X115366Y122585D01*
X115310Y122641D01*
X115282Y122670D01*
X115268Y122684D01*
Y123628D01*
X121583D01*
Y122472D01*
D02*
G37*
G36*
X504862Y108518D02*
X503735Y108363D01*
X503636Y108518D01*
X503509Y108645D01*
X503396Y108771D01*
X503284Y108870D01*
X503171Y108941D01*
X503086Y109011D01*
X503030Y109039D01*
X503016Y109053D01*
X502832Y109138D01*
X502649Y109208D01*
X502480Y109251D01*
X502311Y109293D01*
X502170Y109307D01*
X502057Y109321D01*
X501789D01*
X501620Y109293D01*
X501324Y109223D01*
X501070Y109124D01*
X500845Y109025D01*
X500676Y108912D01*
X500549Y108814D01*
X500478Y108743D01*
X500450Y108729D01*
Y108715D01*
X500253Y108475D01*
X500112Y108222D01*
X500013Y107954D01*
X499943Y107686D01*
X499900Y107460D01*
X499886Y107362D01*
Y107277D01*
X499872Y107207D01*
Y107150D01*
Y107122D01*
Y107108D01*
Y106911D01*
X499900Y106727D01*
X499971Y106375D01*
X500069Y106079D01*
X500168Y105839D01*
X500281Y105642D01*
X500379Y105487D01*
X500422Y105445D01*
X500450Y105402D01*
X500464Y105388D01*
X500478Y105374D01*
X500591Y105261D01*
X500704Y105163D01*
X500957Y104993D01*
X501197Y104881D01*
X501437Y104810D01*
X501634Y104754D01*
X501803Y104740D01*
X501860Y104726D01*
X501944D01*
X502212Y104740D01*
X502452Y104796D01*
X502663Y104867D01*
X502832Y104951D01*
X502987Y105036D01*
X503100Y105106D01*
X503157Y105163D01*
X503185Y105177D01*
X503354Y105374D01*
X503495Y105585D01*
X503608Y105825D01*
X503692Y106037D01*
X503749Y106248D01*
X503791Y106403D01*
X503805Y106474D01*
X503819Y106516D01*
Y106544D01*
Y106558D01*
X505074Y106460D01*
X505046Y106234D01*
X505003Y106023D01*
X504876Y105628D01*
X504721Y105289D01*
X504637Y105134D01*
X504552Y105008D01*
X504482Y104881D01*
X504397Y104768D01*
X504327Y104683D01*
X504256Y104613D01*
X504200Y104557D01*
X504172Y104500D01*
X504143Y104486D01*
X504129Y104472D01*
X503960Y104345D01*
X503791Y104232D01*
X503608Y104134D01*
X503424Y104049D01*
X503072Y103922D01*
X502720Y103837D01*
X502565Y103795D01*
X502410Y103781D01*
X502283Y103767D01*
X502170Y103753D01*
X502071Y103739D01*
X501944D01*
X501648Y103753D01*
X501366Y103795D01*
X501098Y103852D01*
X500859Y103922D01*
X500633Y104021D01*
X500422Y104120D01*
X500224Y104218D01*
X500055Y104331D01*
X499900Y104444D01*
X499759Y104542D01*
X499646Y104655D01*
X499548Y104740D01*
X499477Y104810D01*
X499421Y104867D01*
X499393Y104909D01*
X499379Y104923D01*
X499238Y105106D01*
X499125Y105304D01*
X499012Y105487D01*
X498927Y105684D01*
X498787Y106065D01*
X498702Y106431D01*
X498674Y106586D01*
X498646Y106742D01*
X498632Y106868D01*
X498617Y106981D01*
X498603Y107080D01*
Y107150D01*
Y107193D01*
Y107207D01*
X498617Y107460D01*
X498646Y107700D01*
X498688Y107940D01*
X498744Y108151D01*
X498815Y108349D01*
X498885Y108546D01*
X498970Y108715D01*
X499040Y108870D01*
X499125Y109011D01*
X499209Y109138D01*
X499280Y109237D01*
X499350Y109335D01*
X499407Y109406D01*
X499449Y109448D01*
X499477Y109476D01*
X499491Y109490D01*
X499660Y109646D01*
X499830Y109786D01*
X500013Y109899D01*
X500196Y109998D01*
X500379Y110097D01*
X500563Y110167D01*
X500901Y110266D01*
X501056Y110308D01*
X501197Y110336D01*
X501324Y110350D01*
X501437Y110364D01*
X501521Y110379D01*
X501832D01*
X502001Y110350D01*
X502339Y110280D01*
X502649Y110181D01*
X502931Y110068D01*
X503157Y109956D01*
X503255Y109899D01*
X503340Y109857D01*
X503410Y109815D01*
X503453Y109786D01*
X503481Y109772D01*
X503495Y109758D01*
X502973Y112394D01*
X499068D01*
Y113536D01*
X503918D01*
X504862Y108518D01*
D02*
G37*
G36*
X119496Y149783D02*
X119764Y149755D01*
X120017Y149699D01*
X120257Y149628D01*
X120469Y149530D01*
X120680Y149445D01*
X120863Y149332D01*
X121032Y149234D01*
X121173Y149135D01*
X121314Y149022D01*
X121427Y148938D01*
X121512Y148853D01*
X121582Y148768D01*
X121639Y148712D01*
X121667Y148684D01*
X121681Y148670D01*
X121864Y148416D01*
X122019Y148120D01*
X122160Y147810D01*
X122287Y147486D01*
X122386Y147147D01*
X122470Y146809D01*
X122541Y146456D01*
X122597Y146132D01*
X122640Y145808D01*
X122668Y145512D01*
X122696Y145244D01*
X122710Y145019D01*
Y144821D01*
X122724Y144680D01*
Y144624D01*
Y144581D01*
Y144567D01*
Y144553D01*
X122710Y144102D01*
X122682Y143679D01*
X122640Y143285D01*
X122569Y142918D01*
X122499Y142594D01*
X122428Y142298D01*
X122344Y142030D01*
X122245Y141790D01*
X122160Y141593D01*
X122076Y141410D01*
X122005Y141269D01*
X121921Y141142D01*
X121864Y141043D01*
X121822Y140987D01*
X121794Y140944D01*
X121780Y140930D01*
X121596Y140733D01*
X121399Y140564D01*
X121202Y140423D01*
X121004Y140296D01*
X120793Y140183D01*
X120596Y140099D01*
X120398Y140028D01*
X120201Y139972D01*
X120032Y139930D01*
X119862Y139887D01*
X119721Y139859D01*
X119595Y139845D01*
X119482D01*
X119411Y139831D01*
X119341D01*
X119017Y139845D01*
X118721Y139901D01*
X118453Y139958D01*
X118213Y140042D01*
X118030Y140113D01*
X117889Y140183D01*
X117832Y140197D01*
X117790Y140226D01*
X117776Y140240D01*
X117762D01*
X117522Y140409D01*
X117297Y140606D01*
X117114Y140803D01*
X116959Y141001D01*
X116832Y141184D01*
X116747Y141325D01*
X116719Y141382D01*
X116691Y141424D01*
X116677Y141438D01*
Y141452D01*
X116536Y141748D01*
X116437Y142058D01*
X116366Y142340D01*
X116324Y142608D01*
X116282Y142833D01*
Y142918D01*
X116268Y143003D01*
Y143073D01*
Y143115D01*
Y143144D01*
Y143158D01*
X116282Y143412D01*
X116310Y143651D01*
X116352Y143891D01*
X116395Y144102D01*
X116465Y144300D01*
X116536Y144497D01*
X116606Y144666D01*
X116691Y144821D01*
X116775Y144962D01*
X116846Y145089D01*
X116916Y145188D01*
X116987Y145286D01*
X117029Y145357D01*
X117071Y145399D01*
X117100Y145427D01*
X117114Y145441D01*
X117269Y145597D01*
X117438Y145737D01*
X117621Y145850D01*
X117790Y145949D01*
X117959Y146048D01*
X118128Y146118D01*
X118453Y146217D01*
X118594Y146259D01*
X118735Y146287D01*
X118848Y146301D01*
X118960Y146315D01*
X119045Y146330D01*
X119158D01*
X119411Y146315D01*
X119651Y146273D01*
X119877Y146231D01*
X120074Y146174D01*
X120243Y146104D01*
X120370Y146062D01*
X120455Y146019D01*
X120469Y146005D01*
X120483D01*
X120708Y145864D01*
X120906Y145709D01*
X121089Y145554D01*
X121230Y145385D01*
X121357Y145244D01*
X121455Y145131D01*
X121512Y145047D01*
X121526Y145033D01*
Y145286D01*
X121512Y145540D01*
X121498Y145766D01*
X121469Y145991D01*
X121455Y146189D01*
X121427Y146372D01*
X121399Y146541D01*
X121357Y146696D01*
X121329Y146837D01*
X121300Y146950D01*
X121272Y147049D01*
X121258Y147133D01*
X121230Y147190D01*
X121216Y147232D01*
X121202Y147260D01*
Y147274D01*
X121061Y147556D01*
X120920Y147810D01*
X120765Y148007D01*
X120624Y148176D01*
X120497Y148317D01*
X120398Y148416D01*
X120328Y148472D01*
X120300Y148486D01*
X120130Y148599D01*
X119961Y148670D01*
X119792Y148726D01*
X119623Y148768D01*
X119496Y148797D01*
X119383Y148811D01*
X119284D01*
X119031Y148782D01*
X118791Y148726D01*
X118594Y148642D01*
X118411Y148557D01*
X118270Y148458D01*
X118171Y148374D01*
X118114Y148317D01*
X118086Y148289D01*
X117988Y148162D01*
X117889Y148007D01*
X117804Y147838D01*
X117748Y147669D01*
X117691Y147514D01*
X117649Y147387D01*
X117635Y147302D01*
X117621Y147288D01*
Y147274D01*
X116423Y147373D01*
X116507Y147767D01*
X116634Y148120D01*
X116775Y148430D01*
X116930Y148684D01*
X117085Y148881D01*
X117142Y148966D01*
X117212Y149036D01*
X117254Y149079D01*
X117297Y149121D01*
X117311Y149135D01*
X117325Y149149D01*
X117466Y149262D01*
X117621Y149360D01*
X117931Y149530D01*
X118241Y149642D01*
X118537Y149713D01*
X118805Y149769D01*
X118918Y149783D01*
X119017D01*
X119101Y149797D01*
X119214D01*
X119496Y149783D01*
D02*
G37*
G36*
X205898Y253031D02*
Y252735D01*
X205926Y252481D01*
X205940Y252270D01*
X205968Y252101D01*
X205996Y251974D01*
X206010Y251875D01*
X206039Y251819D01*
Y251804D01*
X206095Y251663D01*
X206166Y251551D01*
X206250Y251452D01*
X206321Y251353D01*
X206405Y251297D01*
X206462Y251241D01*
X206504Y251212D01*
X206518Y251198D01*
X206659Y251128D01*
X206800Y251071D01*
X206941Y251043D01*
X207068Y251015D01*
X207195Y251001D01*
X207279Y250987D01*
X207364D01*
X207589Y251001D01*
X207801Y251057D01*
X207970Y251114D01*
X208125Y251198D01*
X208238Y251269D01*
X208322Y251339D01*
X208379Y251381D01*
X208393Y251396D01*
X208463Y251480D01*
X208520Y251579D01*
X208604Y251804D01*
X208689Y252058D01*
X208731Y252312D01*
X208773Y252552D01*
Y252650D01*
X208788Y252735D01*
X208802Y252819D01*
Y252876D01*
Y252904D01*
Y252918D01*
X209972Y252749D01*
Y252481D01*
X209958Y252241D01*
X209915Y252002D01*
X209887Y251790D01*
X209831Y251593D01*
X209774Y251424D01*
X209718Y251255D01*
X209662Y251114D01*
X209591Y250987D01*
X209535Y250874D01*
X209478Y250775D01*
X209422Y250705D01*
X209380Y250648D01*
X209352Y250592D01*
X209337Y250578D01*
X209323Y250564D01*
X209182Y250437D01*
X209041Y250324D01*
X208886Y250226D01*
X208717Y250141D01*
X208393Y250014D01*
X208083Y249930D01*
X207787Y249873D01*
X207674Y249859D01*
X207561Y249845D01*
X207477Y249831D01*
X207350D01*
X207040Y249845D01*
X206758Y249887D01*
X206504Y249944D01*
X206278Y250014D01*
X206095Y250070D01*
X205968Y250127D01*
X205884Y250169D01*
X205856Y250183D01*
X205630Y250324D01*
X205433Y250493D01*
X205278Y250663D01*
X205137Y250818D01*
X205038Y250973D01*
X204967Y251085D01*
X204925Y251170D01*
X204911Y251184D01*
Y251198D01*
X204812Y251480D01*
X204728Y251776D01*
X204671Y252101D01*
X204643Y252411D01*
X204615Y252678D01*
Y252791D01*
X204601Y252904D01*
Y252989D01*
Y253045D01*
Y253087D01*
Y253101D01*
Y259755D01*
X205898D01*
Y253031D01*
D02*
G37*
G36*
X262000Y106703D02*
X257672D01*
Y105209D01*
Y105040D01*
X257686Y104885D01*
Y104772D01*
X257700Y104673D01*
X257715Y104603D01*
Y104546D01*
X257729Y104518D01*
Y104504D01*
X257799Y104278D01*
X257841Y104180D01*
X257884Y104095D01*
X257926Y104011D01*
X257954Y103954D01*
X257968Y103926D01*
X257982Y103912D01*
X258067Y103799D01*
X258166Y103686D01*
X258377Y103475D01*
X258476Y103376D01*
X258560Y103306D01*
X258617Y103263D01*
X258631Y103249D01*
X258828Y103108D01*
X259040Y102953D01*
X259265Y102798D01*
X259477Y102643D01*
X259674Y102516D01*
X259829Y102418D01*
X259886Y102375D01*
X259928Y102347D01*
X259956Y102319D01*
X259970D01*
X262000Y101036D01*
Y99429D01*
X259350Y101107D01*
X259068Y101304D01*
X258814Y101487D01*
X258603Y101671D01*
X258405Y101826D01*
X258264Y101966D01*
X258151Y102079D01*
X258081Y102150D01*
X258053Y102178D01*
X257968Y102291D01*
X257870Y102418D01*
X257715Y102671D01*
X257658Y102784D01*
X257602Y102869D01*
X257574Y102925D01*
X257560Y102953D01*
X257517Y102699D01*
X257475Y102460D01*
X257404Y102248D01*
X257348Y102037D01*
X257278Y101854D01*
X257193Y101685D01*
X257122Y101530D01*
X257052Y101389D01*
X256967Y101276D01*
X256897Y101163D01*
X256840Y101078D01*
X256784Y101008D01*
X256742Y100951D01*
X256700Y100909D01*
X256685Y100895D01*
X256671Y100881D01*
X256530Y100768D01*
X256389Y100655D01*
X256093Y100486D01*
X255797Y100373D01*
X255515Y100289D01*
X255276Y100233D01*
X255177Y100218D01*
X255078D01*
X255008Y100204D01*
X254909D01*
X254613Y100218D01*
X254345Y100261D01*
X254092Y100331D01*
X253880Y100402D01*
X253697Y100486D01*
X253556Y100543D01*
X253471Y100599D01*
X253457Y100613D01*
X253443D01*
X253218Y100782D01*
X253020Y100951D01*
X252851Y101135D01*
X252724Y101304D01*
X252626Y101459D01*
X252569Y101586D01*
X252527Y101671D01*
X252513Y101685D01*
Y101699D01*
X252470Y101826D01*
X252428Y101981D01*
X252358Y102291D01*
X252315Y102629D01*
X252273Y102939D01*
X252259Y103235D01*
Y103362D01*
X252245Y103475D01*
Y103560D01*
Y103630D01*
Y103672D01*
Y103686D01*
Y108000D01*
X262000D01*
Y106703D01*
D02*
G37*
G36*
X293898Y71431D02*
Y71135D01*
X293926Y70881D01*
X293940Y70670D01*
X293968Y70500D01*
X293996Y70374D01*
X294011Y70275D01*
X294039Y70219D01*
Y70204D01*
X294095Y70064D01*
X294166Y69951D01*
X294250Y69852D01*
X294321Y69753D01*
X294405Y69697D01*
X294462Y69641D01*
X294504Y69612D01*
X294518Y69598D01*
X294659Y69528D01*
X294800Y69471D01*
X294941Y69443D01*
X295068Y69415D01*
X295195Y69401D01*
X295279Y69387D01*
X295364D01*
X295589Y69401D01*
X295801Y69457D01*
X295970Y69514D01*
X296125Y69598D01*
X296238Y69669D01*
X296322Y69739D01*
X296379Y69781D01*
X296393Y69796D01*
X296463Y69880D01*
X296520Y69979D01*
X296604Y70204D01*
X296689Y70458D01*
X296731Y70712D01*
X296773Y70952D01*
Y71050D01*
X296788Y71135D01*
X296802Y71219D01*
Y71276D01*
Y71304D01*
Y71318D01*
X297972Y71149D01*
Y70881D01*
X297958Y70641D01*
X297915Y70402D01*
X297887Y70190D01*
X297831Y69993D01*
X297774Y69824D01*
X297718Y69655D01*
X297662Y69514D01*
X297591Y69387D01*
X297535Y69274D01*
X297478Y69175D01*
X297422Y69105D01*
X297380Y69049D01*
X297351Y68992D01*
X297337Y68978D01*
X297323Y68964D01*
X297182Y68837D01*
X297041Y68724D01*
X296886Y68626D01*
X296717Y68541D01*
X296393Y68414D01*
X296083Y68330D01*
X295787Y68273D01*
X295674Y68259D01*
X295561Y68245D01*
X295477Y68231D01*
X295350D01*
X295040Y68245D01*
X294758Y68287D01*
X294504Y68344D01*
X294278Y68414D01*
X294095Y68471D01*
X293968Y68527D01*
X293884Y68569D01*
X293855Y68583D01*
X293630Y68724D01*
X293433Y68893D01*
X293277Y69063D01*
X293137Y69218D01*
X293038Y69373D01*
X292967Y69486D01*
X292925Y69570D01*
X292911Y69584D01*
Y69598D01*
X292812Y69880D01*
X292728Y70176D01*
X292671Y70500D01*
X292643Y70811D01*
X292615Y71078D01*
Y71191D01*
X292601Y71304D01*
Y71389D01*
Y71445D01*
Y71487D01*
Y71501D01*
Y78155D01*
X293898D01*
Y71431D01*
D02*
G37*
G36*
X262000Y92366D02*
X260844D01*
Y97174D01*
X260604Y97004D01*
X260506Y96920D01*
X260407Y96849D01*
X260322Y96779D01*
X260266Y96722D01*
X260224Y96680D01*
X260210Y96666D01*
X260139Y96595D01*
X260069Y96511D01*
X259886Y96314D01*
X259674Y96088D01*
X259463Y95848D01*
X259279Y95623D01*
X259195Y95524D01*
X259110Y95440D01*
X259054Y95369D01*
X259011Y95313D01*
X258983Y95285D01*
X258969Y95270D01*
X258772Y95045D01*
X258589Y94819D01*
X258405Y94622D01*
X258250Y94439D01*
X258095Y94270D01*
X257954Y94129D01*
X257827Y93988D01*
X257715Y93875D01*
X257602Y93762D01*
X257517Y93678D01*
X257447Y93607D01*
X257376Y93537D01*
X257292Y93466D01*
X257263Y93438D01*
X257024Y93240D01*
X256812Y93071D01*
X256601Y92930D01*
X256432Y92817D01*
X256277Y92733D01*
X256164Y92677D01*
X256093Y92648D01*
X256065Y92634D01*
X255854Y92550D01*
X255642Y92493D01*
X255445Y92437D01*
X255276Y92409D01*
X255121Y92395D01*
X255008Y92381D01*
X254909D01*
X254698Y92395D01*
X254500Y92423D01*
X254303Y92451D01*
X254134Y92507D01*
X253796Y92648D01*
X253528Y92789D01*
X253401Y92874D01*
X253302Y92944D01*
X253204Y93015D01*
X253133Y93085D01*
X253077Y93142D01*
X253020Y93170D01*
X253006Y93198D01*
X252992Y93212D01*
X252851Y93367D01*
X252724Y93537D01*
X252626Y93720D01*
X252541Y93903D01*
X252400Y94270D01*
X252301Y94636D01*
X252273Y94791D01*
X252245Y94946D01*
X252231Y95087D01*
X252217Y95200D01*
X252203Y95299D01*
Y95383D01*
Y95426D01*
Y95440D01*
X252217Y95693D01*
X252231Y95933D01*
X252273Y96159D01*
X252315Y96370D01*
X252372Y96567D01*
X252428Y96751D01*
X252499Y96920D01*
X252569Y97075D01*
X252640Y97216D01*
X252710Y97329D01*
X252766Y97427D01*
X252823Y97512D01*
X252865Y97582D01*
X252907Y97625D01*
X252922Y97653D01*
X252936Y97667D01*
X253077Y97808D01*
X253232Y97935D01*
X253401Y98062D01*
X253570Y98160D01*
X253908Y98329D01*
X254247Y98442D01*
X254402Y98484D01*
X254557Y98527D01*
X254684Y98555D01*
X254796Y98583D01*
X254895Y98597D01*
X254966D01*
X255008Y98611D01*
X255022D01*
X255149Y97385D01*
X254825Y97357D01*
X254543Y97300D01*
X254289Y97216D01*
X254092Y97117D01*
X253922Y97032D01*
X253810Y96948D01*
X253739Y96892D01*
X253711Y96863D01*
X253542Y96652D01*
X253415Y96426D01*
X253316Y96187D01*
X253260Y95975D01*
X253218Y95778D01*
X253204Y95609D01*
X253189Y95552D01*
Y95510D01*
Y95482D01*
Y95468D01*
X253204Y95172D01*
X253260Y94904D01*
X253344Y94678D01*
X253429Y94481D01*
X253528Y94326D01*
X253598Y94227D01*
X253655Y94157D01*
X253683Y94129D01*
X253880Y93959D01*
X254077Y93833D01*
X254275Y93734D01*
X254472Y93678D01*
X254627Y93635D01*
X254768Y93621D01*
X254853Y93607D01*
X254881D01*
X255135Y93635D01*
X255403Y93692D01*
X255642Y93790D01*
X255868Y93889D01*
X256051Y94002D01*
X256206Y94100D01*
X256262Y94129D01*
X256305Y94157D01*
X256319Y94185D01*
X256333D01*
X256488Y94298D01*
X256643Y94439D01*
X256812Y94594D01*
X256982Y94763D01*
X257320Y95115D01*
X257658Y95468D01*
X257813Y95651D01*
X257954Y95806D01*
X258081Y95961D01*
X258194Y96088D01*
X258278Y96187D01*
X258349Y96271D01*
X258391Y96328D01*
X258405Y96342D01*
X258701Y96694D01*
X258983Y97018D01*
X259237Y97286D01*
X259449Y97498D01*
X259632Y97681D01*
X259759Y97808D01*
X259843Y97878D01*
X259857Y97907D01*
X259871D01*
X260111Y98104D01*
X260337Y98259D01*
X260562Y98400D01*
X260760Y98513D01*
X260929Y98597D01*
X261056Y98654D01*
X261140Y98682D01*
X261154Y98696D01*
X261168D01*
X261323Y98752D01*
X261464Y98781D01*
X261605Y98809D01*
X261732Y98823D01*
X261845Y98837D01*
X262000D01*
Y92366D01*
D02*
G37*
G36*
X368404Y63670D02*
X367107D01*
Y67998D01*
X365444D01*
X365289Y67984D01*
X365176D01*
X365077Y67970D01*
X365007Y67955D01*
X364950D01*
X364922Y67941D01*
X364908D01*
X364682Y67871D01*
X364584Y67829D01*
X364499Y67786D01*
X364414Y67744D01*
X364358Y67716D01*
X364330Y67702D01*
X364316Y67688D01*
X364203Y67603D01*
X364090Y67504D01*
X363879Y67293D01*
X363780Y67194D01*
X363710Y67110D01*
X363667Y67053D01*
X363653Y67039D01*
X363512Y66842D01*
X363357Y66630D01*
X363202Y66405D01*
X363047Y66193D01*
X362920Y65996D01*
X362822Y65841D01*
X362779Y65785D01*
X362751Y65742D01*
X362723Y65714D01*
Y65700D01*
X361440Y63670D01*
X359833D01*
X361511Y66320D01*
X361708Y66602D01*
X361891Y66856D01*
X362074Y67067D01*
X362229Y67265D01*
X362370Y67406D01*
X362483Y67519D01*
X362554Y67589D01*
X362582Y67617D01*
X362695Y67702D01*
X362822Y67800D01*
X363075Y67955D01*
X363188Y68012D01*
X363273Y68068D01*
X363329Y68096D01*
X363357Y68111D01*
X363103Y68153D01*
X362864Y68195D01*
X362652Y68266D01*
X362441Y68322D01*
X362258Y68393D01*
X362089Y68477D01*
X361934Y68548D01*
X361792Y68618D01*
X361680Y68703D01*
X361567Y68773D01*
X361482Y68829D01*
X361412Y68886D01*
X361356Y68928D01*
X361313Y68970D01*
X361299Y68985D01*
X361285Y68999D01*
X361172Y69140D01*
X361059Y69281D01*
X360890Y69577D01*
X360778Y69873D01*
X360693Y70155D01*
X360636Y70394D01*
X360622Y70493D01*
Y70592D01*
X360608Y70662D01*
Y70718D01*
Y70747D01*
Y70761D01*
X360622Y71057D01*
X360665Y71325D01*
X360735Y71578D01*
X360806Y71790D01*
X360890Y71973D01*
X360947Y72114D01*
X361003Y72199D01*
X361017Y72213D01*
Y72227D01*
X361186Y72452D01*
X361356Y72650D01*
X361539Y72819D01*
X361708Y72946D01*
X361863Y73045D01*
X361990Y73101D01*
X362074Y73143D01*
X362089Y73157D01*
X362103D01*
X362229Y73200D01*
X362385Y73242D01*
X362695Y73312D01*
X363033Y73355D01*
X363343Y73397D01*
X363639Y73411D01*
X363766D01*
X363879Y73425D01*
X368404D01*
Y63670D01*
D02*
G37*
G36*
X356422Y73439D02*
X356802Y73369D01*
X357126Y73256D01*
X357408Y73143D01*
X357535Y73073D01*
X357634Y73016D01*
X357733Y72960D01*
X357803Y72903D01*
X357859Y72861D01*
X357902Y72833D01*
X357930Y72819D01*
X357944Y72805D01*
X358212Y72537D01*
X358423Y72241D01*
X358592Y71931D01*
X358733Y71621D01*
X358818Y71353D01*
X358860Y71240D01*
X358889Y71141D01*
X358903Y71057D01*
X358917Y71000D01*
X358931Y70958D01*
Y70944D01*
X357733Y70733D01*
X357676Y71043D01*
X357592Y71311D01*
X357493Y71536D01*
X357394Y71719D01*
X357296Y71860D01*
X357211Y71959D01*
X357155Y72030D01*
X357141Y72044D01*
X356957Y72185D01*
X356760Y72297D01*
X356577Y72368D01*
X356393Y72424D01*
X356224Y72452D01*
X356097Y72481D01*
X355984D01*
X355731Y72467D01*
X355505Y72410D01*
X355308Y72340D01*
X355139Y72269D01*
X355012Y72185D01*
X354913Y72114D01*
X354843Y72058D01*
X354829Y72044D01*
X354674Y71874D01*
X354561Y71691D01*
X354490Y71508D01*
X354434Y71339D01*
X354406Y71184D01*
X354378Y71071D01*
Y70986D01*
Y70972D01*
Y70958D01*
Y70803D01*
X354406Y70662D01*
X354476Y70423D01*
X354575Y70211D01*
X354688Y70028D01*
X354800Y69901D01*
X354899Y69802D01*
X354969Y69746D01*
X354984Y69732D01*
X354998D01*
X355237Y69605D01*
X355463Y69506D01*
X355703Y69436D01*
X355914Y69393D01*
X356097Y69365D01*
X356252Y69337D01*
X356436D01*
X356492Y69351D01*
X356562D01*
X356703Y68294D01*
X356520Y68336D01*
X356351Y68364D01*
X356210Y68393D01*
X356083Y68407D01*
X355984Y68421D01*
X355858D01*
X355562Y68393D01*
X355294Y68336D01*
X355054Y68252D01*
X354857Y68153D01*
X354702Y68054D01*
X354589Y67970D01*
X354518Y67913D01*
X354490Y67885D01*
X354307Y67674D01*
X354166Y67448D01*
X354067Y67222D01*
X354011Y66997D01*
X353969Y66814D01*
X353955Y66659D01*
X353941Y66602D01*
Y66560D01*
Y66532D01*
Y66518D01*
X353969Y66207D01*
X354039Y65925D01*
X354124Y65686D01*
X354236Y65474D01*
X354349Y65305D01*
X354434Y65178D01*
X354504Y65094D01*
X354533Y65066D01*
X354758Y64868D01*
X354998Y64727D01*
X355237Y64629D01*
X355463Y64558D01*
X355660Y64516D01*
X355815Y64502D01*
X355872Y64488D01*
X355956D01*
X356210Y64502D01*
X356450Y64558D01*
X356661Y64629D01*
X356830Y64713D01*
X356971Y64784D01*
X357084Y64854D01*
X357141Y64910D01*
X357169Y64925D01*
X357338Y65122D01*
X357479Y65347D01*
X357606Y65587D01*
X357704Y65841D01*
X357775Y66052D01*
X357803Y66151D01*
X357817Y66236D01*
X357831Y66306D01*
X357845Y66363D01*
X357859Y66391D01*
Y66405D01*
X359058Y66250D01*
X359030Y66024D01*
X358987Y65813D01*
X358860Y65418D01*
X358705Y65080D01*
X358621Y64939D01*
X358536Y64798D01*
X358451Y64671D01*
X358367Y64572D01*
X358296Y64474D01*
X358226Y64403D01*
X358184Y64347D01*
X358141Y64304D01*
X358113Y64276D01*
X358099Y64262D01*
X357930Y64135D01*
X357761Y64008D01*
X357592Y63910D01*
X357408Y63825D01*
X357056Y63684D01*
X356718Y63600D01*
X356562Y63571D01*
X356422Y63543D01*
X356295Y63529D01*
X356182Y63515D01*
X356097Y63501D01*
X355970D01*
X355703Y63515D01*
X355463Y63543D01*
X355223Y63585D01*
X354998Y63642D01*
X354786Y63712D01*
X354603Y63783D01*
X354420Y63867D01*
X354265Y63952D01*
X354110Y64022D01*
X353983Y64107D01*
X353870Y64177D01*
X353785Y64248D01*
X353715Y64304D01*
X353658Y64347D01*
X353630Y64375D01*
X353616Y64389D01*
X353447Y64558D01*
X353306Y64741D01*
X353179Y64925D01*
X353066Y65108D01*
X352982Y65277D01*
X352897Y65460D01*
X352785Y65799D01*
X352756Y65954D01*
X352728Y66095D01*
X352700Y66222D01*
X352686Y66334D01*
X352672Y66419D01*
Y66489D01*
Y66532D01*
Y66546D01*
X352686Y66884D01*
X352742Y67194D01*
X352827Y67462D01*
X352911Y67688D01*
X352996Y67871D01*
X353080Y68012D01*
X353137Y68096D01*
X353151Y68125D01*
X353348Y68336D01*
X353560Y68519D01*
X353785Y68660D01*
X354011Y68773D01*
X354208Y68858D01*
X354363Y68914D01*
X354420Y68928D01*
X354462Y68942D01*
X354490Y68956D01*
X354504D01*
X354265Y69083D01*
X354067Y69210D01*
X353898Y69351D01*
X353757Y69478D01*
X353644Y69591D01*
X353560Y69689D01*
X353518Y69746D01*
X353503Y69774D01*
X353391Y69971D01*
X353306Y70169D01*
X353236Y70366D01*
X353193Y70549D01*
X353165Y70704D01*
X353151Y70817D01*
Y70902D01*
Y70930D01*
X353165Y71170D01*
X353207Y71409D01*
X353264Y71621D01*
X353334Y71804D01*
X353405Y71959D01*
X353461Y72086D01*
X353503Y72156D01*
X353518Y72185D01*
X353658Y72396D01*
X353828Y72579D01*
X353997Y72734D01*
X354166Y72875D01*
X354307Y72974D01*
X354434Y73059D01*
X354518Y73101D01*
X354533Y73115D01*
X354547D01*
X354800Y73228D01*
X355054Y73312D01*
X355308Y73383D01*
X355533Y73425D01*
X355717Y73453D01*
X355872Y73467D01*
X356224D01*
X356422Y73439D01*
D02*
G37*
G36*
X290895Y76872D02*
X286116D01*
X286455Y76463D01*
X286779Y76027D01*
X287061Y75604D01*
X287329Y75195D01*
X287441Y75012D01*
X287540Y74842D01*
X287639Y74687D01*
X287709Y74560D01*
X287766Y74448D01*
X287808Y74377D01*
X287836Y74321D01*
X287850Y74307D01*
X288132Y73743D01*
X288386Y73179D01*
X288597Y72643D01*
X288682Y72404D01*
X288766Y72164D01*
X288851Y71953D01*
X288907Y71755D01*
X288964Y71586D01*
X289006Y71445D01*
X289048Y71318D01*
X289077Y71234D01*
X289091Y71177D01*
Y71163D01*
X289232Y70585D01*
X289288Y70303D01*
X289330Y70049D01*
X289373Y69810D01*
X289415Y69570D01*
X289443Y69373D01*
X289471Y69175D01*
X289485Y69006D01*
X289499Y68851D01*
X289514Y68710D01*
Y68597D01*
X289528Y68513D01*
Y68456D01*
Y68414D01*
Y68400D01*
X288301D01*
X288259Y68936D01*
X288188Y69429D01*
X288118Y69880D01*
X288076Y70092D01*
X288033Y70289D01*
X288005Y70458D01*
X287963Y70613D01*
X287935Y70754D01*
X287906Y70867D01*
X287878Y70952D01*
X287864Y71022D01*
X287850Y71064D01*
Y71078D01*
X287639Y71727D01*
X287413Y72333D01*
X287300Y72629D01*
X287188Y72911D01*
X287061Y73165D01*
X286948Y73418D01*
X286849Y73644D01*
X286751Y73842D01*
X286666Y74011D01*
X286595Y74166D01*
X286525Y74293D01*
X286483Y74377D01*
X286455Y74433D01*
X286440Y74448D01*
X286271Y74744D01*
X286102Y75040D01*
X285933Y75307D01*
X285764Y75561D01*
X285609Y75787D01*
X285454Y76012D01*
X285299Y76210D01*
X285172Y76379D01*
X285045Y76548D01*
X284932Y76689D01*
X284819Y76802D01*
X284735Y76901D01*
X284678Y76985D01*
X284622Y77042D01*
X284594Y77070D01*
X284580Y77084D01*
Y78028D01*
X290895D01*
Y76872D01*
D02*
G37*
G36*
X293898Y121831D02*
Y121535D01*
X293926Y121281D01*
X293940Y121070D01*
X293968Y120900D01*
X293996Y120774D01*
X294011Y120675D01*
X294039Y120618D01*
Y120604D01*
X294095Y120463D01*
X294166Y120351D01*
X294250Y120252D01*
X294321Y120153D01*
X294405Y120097D01*
X294462Y120041D01*
X294504Y120012D01*
X294518Y119998D01*
X294659Y119928D01*
X294800Y119871D01*
X294941Y119843D01*
X295068Y119815D01*
X295195Y119801D01*
X295279Y119787D01*
X295364D01*
X295589Y119801D01*
X295801Y119857D01*
X295970Y119914D01*
X296125Y119998D01*
X296238Y120069D01*
X296322Y120139D01*
X296379Y120182D01*
X296393Y120196D01*
X296463Y120280D01*
X296520Y120379D01*
X296604Y120604D01*
X296689Y120858D01*
X296731Y121112D01*
X296773Y121352D01*
Y121450D01*
X296788Y121535D01*
X296802Y121619D01*
Y121676D01*
Y121704D01*
Y121718D01*
X297972Y121549D01*
Y121281D01*
X297958Y121041D01*
X297915Y120802D01*
X297887Y120590D01*
X297831Y120393D01*
X297774Y120224D01*
X297718Y120055D01*
X297662Y119914D01*
X297591Y119787D01*
X297535Y119674D01*
X297478Y119575D01*
X297422Y119505D01*
X297380Y119448D01*
X297351Y119392D01*
X297337Y119378D01*
X297323Y119364D01*
X297182Y119237D01*
X297041Y119124D01*
X296886Y119026D01*
X296717Y118941D01*
X296393Y118814D01*
X296083Y118729D01*
X295787Y118673D01*
X295674Y118659D01*
X295561Y118645D01*
X295477Y118631D01*
X295350D01*
X295040Y118645D01*
X294758Y118687D01*
X294504Y118744D01*
X294278Y118814D01*
X294095Y118870D01*
X293968Y118927D01*
X293884Y118969D01*
X293855Y118983D01*
X293630Y119124D01*
X293433Y119293D01*
X293277Y119463D01*
X293137Y119618D01*
X293038Y119773D01*
X292967Y119886D01*
X292925Y119970D01*
X292911Y119984D01*
Y119998D01*
X292812Y120280D01*
X292728Y120576D01*
X292671Y120900D01*
X292643Y121211D01*
X292615Y121478D01*
Y121591D01*
X292601Y121704D01*
Y121789D01*
Y121845D01*
Y121887D01*
Y121901D01*
Y128555D01*
X293898D01*
Y121831D01*
D02*
G37*
G36*
X290768Y123410D02*
X289641Y123255D01*
X289542Y123410D01*
X289415Y123537D01*
X289302Y123664D01*
X289189Y123762D01*
X289077Y123833D01*
X288992Y123903D01*
X288936Y123931D01*
X288922Y123945D01*
X288738Y124030D01*
X288555Y124101D01*
X288386Y124143D01*
X288217Y124185D01*
X288076Y124199D01*
X287963Y124213D01*
X287695D01*
X287526Y124185D01*
X287230Y124115D01*
X286976Y124016D01*
X286751Y123917D01*
X286581Y123805D01*
X286455Y123706D01*
X286384Y123635D01*
X286356Y123621D01*
Y123607D01*
X286159Y123367D01*
X286017Y123114D01*
X285919Y122846D01*
X285848Y122578D01*
X285806Y122353D01*
X285792Y122254D01*
Y122169D01*
X285778Y122099D01*
Y122042D01*
Y122014D01*
Y122000D01*
Y121803D01*
X285806Y121619D01*
X285877Y121267D01*
X285975Y120971D01*
X286074Y120731D01*
X286187Y120534D01*
X286285Y120379D01*
X286328Y120337D01*
X286356Y120294D01*
X286370Y120280D01*
X286384Y120266D01*
X286497Y120153D01*
X286610Y120055D01*
X286863Y119886D01*
X287103Y119773D01*
X287343Y119702D01*
X287540Y119646D01*
X287709Y119632D01*
X287766Y119618D01*
X287850D01*
X288118Y119632D01*
X288358Y119688D01*
X288569Y119759D01*
X288738Y119843D01*
X288893Y119928D01*
X289006Y119998D01*
X289062Y120055D01*
X289091Y120069D01*
X289260Y120266D01*
X289401Y120478D01*
X289514Y120717D01*
X289598Y120929D01*
X289655Y121140D01*
X289697Y121295D01*
X289711Y121366D01*
X289725Y121408D01*
Y121436D01*
Y121450D01*
X290980Y121352D01*
X290951Y121126D01*
X290909Y120915D01*
X290782Y120520D01*
X290627Y120182D01*
X290543Y120027D01*
X290458Y119900D01*
X290388Y119773D01*
X290303Y119660D01*
X290233Y119575D01*
X290162Y119505D01*
X290106Y119448D01*
X290077Y119392D01*
X290049Y119378D01*
X290035Y119364D01*
X289866Y119237D01*
X289697Y119124D01*
X289514Y119026D01*
X289330Y118941D01*
X288978Y118814D01*
X288626Y118729D01*
X288470Y118687D01*
X288315Y118673D01*
X288188Y118659D01*
X288076Y118645D01*
X287977Y118631D01*
X287850D01*
X287554Y118645D01*
X287272Y118687D01*
X287004Y118744D01*
X286765Y118814D01*
X286539Y118913D01*
X286328Y119011D01*
X286130Y119110D01*
X285961Y119223D01*
X285806Y119336D01*
X285665Y119434D01*
X285552Y119547D01*
X285454Y119632D01*
X285383Y119702D01*
X285327Y119759D01*
X285299Y119801D01*
X285285Y119815D01*
X285144Y119998D01*
X285031Y120196D01*
X284918Y120379D01*
X284833Y120576D01*
X284692Y120957D01*
X284608Y121323D01*
X284580Y121478D01*
X284552Y121634D01*
X284537Y121760D01*
X284523Y121873D01*
X284509Y121972D01*
Y122042D01*
Y122085D01*
Y122099D01*
X284523Y122353D01*
X284552Y122592D01*
X284594Y122832D01*
X284650Y123043D01*
X284721Y123241D01*
X284791Y123438D01*
X284876Y123607D01*
X284946Y123762D01*
X285031Y123903D01*
X285115Y124030D01*
X285186Y124129D01*
X285256Y124227D01*
X285313Y124298D01*
X285355Y124340D01*
X285383Y124368D01*
X285397Y124382D01*
X285566Y124537D01*
X285736Y124678D01*
X285919Y124791D01*
X286102Y124890D01*
X286285Y124989D01*
X286469Y125059D01*
X286807Y125158D01*
X286962Y125200D01*
X287103Y125228D01*
X287230Y125242D01*
X287343Y125256D01*
X287427Y125271D01*
X287737D01*
X287906Y125242D01*
X288245Y125172D01*
X288555Y125073D01*
X288837Y124960D01*
X289062Y124848D01*
X289161Y124791D01*
X289246Y124749D01*
X289316Y124707D01*
X289359Y124678D01*
X289387Y124664D01*
X289401Y124650D01*
X288879Y127286D01*
X284974D01*
Y128428D01*
X289824D01*
X290768Y123410D01*
D02*
G37*
G36*
X149008Y260183D02*
X149276Y260155D01*
X149529Y260099D01*
X149769Y260028D01*
X149980Y259930D01*
X150192Y259845D01*
X150375Y259732D01*
X150544Y259634D01*
X150685Y259535D01*
X150826Y259422D01*
X150939Y259338D01*
X151024Y259253D01*
X151094Y259168D01*
X151151Y259112D01*
X151179Y259084D01*
X151193Y259070D01*
X151376Y258816D01*
X151531Y258520D01*
X151672Y258210D01*
X151799Y257885D01*
X151898Y257547D01*
X151982Y257209D01*
X152053Y256856D01*
X152109Y256532D01*
X152151Y256208D01*
X152180Y255912D01*
X152208Y255644D01*
X152222Y255418D01*
Y255221D01*
X152236Y255080D01*
Y255024D01*
Y254981D01*
Y254967D01*
Y254953D01*
X152222Y254502D01*
X152194Y254079D01*
X152151Y253685D01*
X152081Y253318D01*
X152010Y252994D01*
X151940Y252698D01*
X151855Y252430D01*
X151757Y252190D01*
X151672Y251993D01*
X151588Y251810D01*
X151517Y251669D01*
X151433Y251542D01*
X151376Y251443D01*
X151334Y251387D01*
X151306Y251345D01*
X151292Y251330D01*
X151108Y251133D01*
X150911Y250964D01*
X150714Y250823D01*
X150516Y250696D01*
X150305Y250583D01*
X150107Y250499D01*
X149910Y250428D01*
X149713Y250372D01*
X149544Y250329D01*
X149374Y250287D01*
X149233Y250259D01*
X149107Y250245D01*
X148994D01*
X148923Y250231D01*
X148853D01*
X148529Y250245D01*
X148232Y250301D01*
X147965Y250358D01*
X147725Y250442D01*
X147542Y250513D01*
X147401Y250583D01*
X147344Y250597D01*
X147302Y250626D01*
X147288Y250640D01*
X147274D01*
X147034Y250809D01*
X146809Y251006D01*
X146625Y251203D01*
X146470Y251401D01*
X146343Y251584D01*
X146259Y251725D01*
X146231Y251782D01*
X146203Y251824D01*
X146188Y251838D01*
Y251852D01*
X146047Y252148D01*
X145949Y252458D01*
X145878Y252740D01*
X145836Y253008D01*
X145794Y253234D01*
Y253318D01*
X145780Y253403D01*
Y253473D01*
Y253515D01*
Y253544D01*
Y253558D01*
X145794Y253811D01*
X145822Y254051D01*
X145864Y254291D01*
X145906Y254502D01*
X145977Y254700D01*
X146047Y254897D01*
X146118Y255066D01*
X146203Y255221D01*
X146287Y255362D01*
X146358Y255489D01*
X146428Y255588D01*
X146499Y255686D01*
X146541Y255757D01*
X146583Y255799D01*
X146611Y255827D01*
X146625Y255841D01*
X146781Y255996D01*
X146950Y256138D01*
X147133Y256250D01*
X147302Y256349D01*
X147471Y256448D01*
X147640Y256518D01*
X147965Y256617D01*
X148106Y256659D01*
X148247Y256687D01*
X148359Y256701D01*
X148472Y256716D01*
X148557Y256730D01*
X148670D01*
X148923Y256716D01*
X149163Y256673D01*
X149389Y256631D01*
X149586Y256574D01*
X149755Y256504D01*
X149882Y256462D01*
X149966Y256419D01*
X149980Y256405D01*
X149995D01*
X150220Y256264D01*
X150418Y256109D01*
X150601Y255954D01*
X150742Y255785D01*
X150869Y255644D01*
X150967Y255531D01*
X151024Y255447D01*
X151038Y255433D01*
Y255686D01*
X151024Y255940D01*
X151010Y256166D01*
X150981Y256391D01*
X150967Y256589D01*
X150939Y256772D01*
X150911Y256941D01*
X150869Y257096D01*
X150841Y257237D01*
X150812Y257350D01*
X150784Y257449D01*
X150770Y257533D01*
X150742Y257589D01*
X150728Y257632D01*
X150714Y257660D01*
Y257674D01*
X150573Y257956D01*
X150432Y258210D01*
X150277Y258407D01*
X150136Y258576D01*
X150009Y258717D01*
X149910Y258816D01*
X149840Y258872D01*
X149811Y258886D01*
X149642Y258999D01*
X149473Y259070D01*
X149304Y259126D01*
X149135Y259168D01*
X149008Y259196D01*
X148895Y259211D01*
X148796D01*
X148543Y259182D01*
X148303Y259126D01*
X148106Y259042D01*
X147922Y258957D01*
X147781Y258858D01*
X147683Y258774D01*
X147626Y258717D01*
X147598Y258689D01*
X147500Y258562D01*
X147401Y258407D01*
X147316Y258238D01*
X147260Y258069D01*
X147203Y257914D01*
X147161Y257787D01*
X147147Y257702D01*
X147133Y257688D01*
Y257674D01*
X145935Y257773D01*
X146019Y258167D01*
X146146Y258520D01*
X146287Y258830D01*
X146442Y259084D01*
X146597Y259281D01*
X146654Y259366D01*
X146724Y259436D01*
X146766Y259478D01*
X146809Y259521D01*
X146823Y259535D01*
X146837Y259549D01*
X146978Y259662D01*
X147133Y259760D01*
X147443Y259930D01*
X147753Y260042D01*
X148049Y260113D01*
X148317Y260169D01*
X148430Y260183D01*
X148529D01*
X148613Y260197D01*
X148726D01*
X149008Y260183D01*
D02*
G37*
G36*
X155098Y253431D02*
Y253135D01*
X155126Y252881D01*
X155140Y252670D01*
X155168Y252500D01*
X155196Y252374D01*
X155211Y252275D01*
X155239Y252218D01*
Y252204D01*
X155295Y252064D01*
X155366Y251951D01*
X155450Y251852D01*
X155521Y251753D01*
X155605Y251697D01*
X155662Y251640D01*
X155704Y251612D01*
X155718Y251598D01*
X155859Y251528D01*
X156000Y251471D01*
X156141Y251443D01*
X156268Y251415D01*
X156395Y251401D01*
X156479Y251387D01*
X156564D01*
X156789Y251401D01*
X157001Y251457D01*
X157170Y251514D01*
X157325Y251598D01*
X157438Y251669D01*
X157522Y251739D01*
X157579Y251782D01*
X157593Y251796D01*
X157663Y251880D01*
X157720Y251979D01*
X157804Y252204D01*
X157889Y252458D01*
X157931Y252712D01*
X157973Y252952D01*
Y253050D01*
X157988Y253135D01*
X158002Y253219D01*
Y253276D01*
Y253304D01*
Y253318D01*
X159172Y253149D01*
Y252881D01*
X159158Y252641D01*
X159115Y252402D01*
X159087Y252190D01*
X159031Y251993D01*
X158974Y251824D01*
X158918Y251655D01*
X158862Y251514D01*
X158791Y251387D01*
X158735Y251274D01*
X158678Y251175D01*
X158622Y251105D01*
X158580Y251049D01*
X158552Y250992D01*
X158537Y250978D01*
X158523Y250964D01*
X158382Y250837D01*
X158241Y250724D01*
X158086Y250626D01*
X157917Y250541D01*
X157593Y250414D01*
X157283Y250329D01*
X156987Y250273D01*
X156874Y250259D01*
X156761Y250245D01*
X156677Y250231D01*
X156550D01*
X156240Y250245D01*
X155958Y250287D01*
X155704Y250344D01*
X155478Y250414D01*
X155295Y250471D01*
X155168Y250527D01*
X155084Y250569D01*
X155056Y250583D01*
X154830Y250724D01*
X154633Y250893D01*
X154478Y251063D01*
X154337Y251218D01*
X154238Y251373D01*
X154167Y251486D01*
X154125Y251570D01*
X154111Y251584D01*
Y251598D01*
X154012Y251880D01*
X153928Y252176D01*
X153871Y252500D01*
X153843Y252811D01*
X153815Y253078D01*
Y253191D01*
X153801Y253304D01*
Y253389D01*
Y253445D01*
Y253487D01*
Y253501D01*
Y260155D01*
X155098D01*
Y253431D01*
D02*
G37*
G36*
X368514Y143610D02*
X367217D01*
Y147938D01*
X365554D01*
X365399Y147924D01*
X365286D01*
X365187Y147910D01*
X365117Y147895D01*
X365060D01*
X365032Y147881D01*
X365018D01*
X364792Y147811D01*
X364694Y147769D01*
X364609Y147726D01*
X364524Y147684D01*
X364468Y147656D01*
X364440Y147642D01*
X364426Y147628D01*
X364313Y147543D01*
X364200Y147444D01*
X363989Y147233D01*
X363890Y147134D01*
X363820Y147050D01*
X363777Y146993D01*
X363763Y146979D01*
X363622Y146782D01*
X363467Y146570D01*
X363312Y146345D01*
X363157Y146133D01*
X363030Y145936D01*
X362932Y145781D01*
X362889Y145724D01*
X362861Y145682D01*
X362833Y145654D01*
Y145640D01*
X361550Y143610D01*
X359943D01*
X361621Y146260D01*
X361818Y146542D01*
X362001Y146796D01*
X362184Y147007D01*
X362340Y147205D01*
X362481Y147346D01*
X362593Y147458D01*
X362664Y147529D01*
X362692Y147557D01*
X362805Y147642D01*
X362932Y147740D01*
X363185Y147895D01*
X363298Y147952D01*
X363383Y148008D01*
X363439Y148036D01*
X363467Y148051D01*
X363214Y148093D01*
X362974Y148135D01*
X362762Y148206D01*
X362551Y148262D01*
X362368Y148333D01*
X362198Y148417D01*
X362043Y148488D01*
X361903Y148558D01*
X361790Y148643D01*
X361677Y148713D01*
X361592Y148770D01*
X361522Y148826D01*
X361465Y148868D01*
X361423Y148911D01*
X361409Y148925D01*
X361395Y148939D01*
X361282Y149080D01*
X361170Y149221D01*
X361000Y149517D01*
X360887Y149813D01*
X360803Y150095D01*
X360746Y150334D01*
X360732Y150433D01*
Y150532D01*
X360718Y150602D01*
Y150659D01*
Y150687D01*
Y150701D01*
X360732Y150997D01*
X360775Y151265D01*
X360845Y151518D01*
X360916Y151730D01*
X361000Y151913D01*
X361057Y152054D01*
X361113Y152139D01*
X361127Y152153D01*
Y152167D01*
X361296Y152392D01*
X361465Y152590D01*
X361649Y152759D01*
X361818Y152886D01*
X361973Y152985D01*
X362100Y153041D01*
X362184Y153083D01*
X362198Y153097D01*
X362213D01*
X362340Y153140D01*
X362495Y153182D01*
X362805Y153252D01*
X363143Y153295D01*
X363453Y153337D01*
X363749Y153351D01*
X363876D01*
X363989Y153365D01*
X368514D01*
Y143610D01*
D02*
G37*
G36*
X475892Y205000D02*
X474188D01*
Y217813D01*
X475892D01*
Y205000D01*
D02*
G37*
G36*
X191073Y225558D02*
X191228Y225332D01*
X191411Y225107D01*
X191581Y224909D01*
X191750Y224740D01*
X191877Y224599D01*
X191933Y224557D01*
X191975Y224515D01*
X191989Y224501D01*
X192003Y224486D01*
X192299Y224247D01*
X192596Y224021D01*
X192878Y223824D01*
X193159Y223669D01*
X193399Y223528D01*
X193498Y223471D01*
X193582Y223429D01*
X193653Y223387D01*
X193709Y223373D01*
X193737Y223344D01*
X193752D01*
Y222189D01*
X193540Y222273D01*
X193329Y222372D01*
X193117Y222470D01*
X192920Y222569D01*
X192751Y222654D01*
X192610Y222724D01*
X192525Y222781D01*
X192511Y222795D01*
X192497D01*
X192243Y222950D01*
X192017Y223105D01*
X191820Y223246D01*
X191665Y223373D01*
X191524Y223471D01*
X191440Y223556D01*
X191369Y223612D01*
X191355Y223626D01*
Y216000D01*
X190157D01*
Y225797D01*
X190932D01*
X191073Y225558D01*
D02*
G37*
G36*
X449024Y214480D02*
X449357Y214443D01*
X449672Y214388D01*
X449968Y214295D01*
X450246Y214203D01*
X450505Y214092D01*
X450746Y213981D01*
X450950Y213851D01*
X451153Y213740D01*
X451320Y213610D01*
X451468Y213499D01*
X451579Y213407D01*
X451672Y213314D01*
X451746Y213258D01*
X451783Y213221D01*
X451801Y213203D01*
X452005Y212944D01*
X452190Y212666D01*
X452357Y212388D01*
X452505Y212092D01*
X452616Y211777D01*
X452709Y211481D01*
X452857Y210888D01*
X452912Y210629D01*
X452949Y210370D01*
X452968Y210148D01*
X452987Y209944D01*
X453005Y209777D01*
Y209666D01*
Y209574D01*
Y209555D01*
X452987Y209148D01*
X452949Y208759D01*
X452894Y208389D01*
X452820Y208055D01*
X452727Y207740D01*
X452635Y207444D01*
X452524Y207185D01*
X452413Y206944D01*
X452301Y206741D01*
X452190Y206555D01*
X452098Y206407D01*
X452005Y206278D01*
X451931Y206166D01*
X451876Y206092D01*
X451838Y206055D01*
X451820Y206037D01*
X451579Y205815D01*
X451339Y205630D01*
X451079Y205463D01*
X450802Y205315D01*
X450542Y205204D01*
X450265Y205093D01*
X449746Y204944D01*
X449506Y204907D01*
X449283Y204870D01*
X449080Y204833D01*
X448913Y204815D01*
X448783Y204796D01*
X448580D01*
X448006Y204833D01*
X447487Y204926D01*
X447024Y205037D01*
X446839Y205111D01*
X446654Y205185D01*
X446487Y205259D01*
X446339Y205333D01*
X446228Y205389D01*
X446117Y205444D01*
X446043Y205500D01*
X445987Y205537D01*
X445950Y205574D01*
X445932D01*
X445561Y205907D01*
X445265Y206259D01*
X445006Y206630D01*
X444821Y206981D01*
X444673Y207296D01*
X444617Y207444D01*
X444562Y207555D01*
X444524Y207666D01*
X444506Y207740D01*
X444487Y207778D01*
Y207796D01*
X446117Y208000D01*
X446265Y207648D01*
X446432Y207352D01*
X446598Y207092D01*
X446746Y206889D01*
X446876Y206741D01*
X446987Y206630D01*
X447080Y206555D01*
X447098Y206537D01*
X447339Y206389D01*
X447580Y206278D01*
X447839Y206204D01*
X448061Y206148D01*
X448265Y206111D01*
X448432Y206092D01*
X448580D01*
X448802Y206111D01*
X449006Y206129D01*
X449376Y206222D01*
X449709Y206352D01*
X450005Y206500D01*
X450228Y206630D01*
X450394Y206759D01*
X450505Y206852D01*
X450524Y206889D01*
X450542D01*
X450802Y207222D01*
X451005Y207592D01*
X451153Y208000D01*
X451264Y208370D01*
X451320Y208703D01*
X451357Y208851D01*
X451376Y208981D01*
Y209092D01*
X451394Y209166D01*
Y209222D01*
Y209240D01*
X444450D01*
X444432Y209426D01*
Y209555D01*
Y209629D01*
Y209648D01*
X444450Y210074D01*
X444487Y210462D01*
X444543Y210833D01*
X444617Y211185D01*
X444710Y211499D01*
X444802Y211796D01*
X444913Y212055D01*
X445024Y212295D01*
X445135Y212518D01*
X445247Y212703D01*
X445339Y212851D01*
X445432Y212981D01*
X445506Y213092D01*
X445561Y213166D01*
X445598Y213203D01*
X445617Y213221D01*
X445839Y213444D01*
X446080Y213647D01*
X446339Y213814D01*
X446598Y213962D01*
X446858Y214092D01*
X447098Y214184D01*
X447357Y214277D01*
X447580Y214332D01*
X447820Y214388D01*
X448024Y214425D01*
X448209Y214462D01*
X448357Y214480D01*
X448487Y214499D01*
X448672D01*
X449024Y214480D01*
D02*
G37*
G36*
X378328Y205000D02*
X376531D01*
Y206796D01*
X378328D01*
Y205000D01*
D02*
G37*
G36*
X410417Y214480D02*
X410602Y214443D01*
X410787Y214388D01*
X410935Y214332D01*
X411046Y214277D01*
X411158Y214221D01*
X411213Y214184D01*
X411232Y214166D01*
X411398Y214018D01*
X411565Y213832D01*
X411732Y213610D01*
X411880Y213407D01*
X412028Y213203D01*
X412120Y213036D01*
X412195Y212907D01*
X412213Y212888D01*
Y214295D01*
X413639D01*
Y205000D01*
X412065D01*
Y209851D01*
X412046Y210222D01*
X412028Y210555D01*
X411991Y210870D01*
X411935Y211147D01*
X411880Y211370D01*
X411843Y211536D01*
X411824Y211647D01*
X411806Y211684D01*
X411732Y211888D01*
X411639Y212055D01*
X411546Y212203D01*
X411454Y212333D01*
X411361Y212425D01*
X411306Y212499D01*
X411250Y212536D01*
X411232Y212555D01*
X411083Y212666D01*
X410917Y212740D01*
X410750Y212796D01*
X410621Y212833D01*
X410491Y212851D01*
X410398Y212870D01*
X410306D01*
X410102Y212851D01*
X409898Y212814D01*
X409695Y212759D01*
X409528Y212703D01*
X409380Y212647D01*
X409269Y212592D01*
X409195Y212555D01*
X409176Y212536D01*
X408602Y213981D01*
X408917Y214147D01*
X409213Y214277D01*
X409473Y214369D01*
X409713Y214443D01*
X409917Y214480D01*
X410084Y214499D01*
X410213D01*
X410417Y214480D01*
D02*
G37*
G36*
X438507D02*
X438840Y214425D01*
X439136Y214351D01*
X439432Y214258D01*
X439692Y214147D01*
X439932Y214018D01*
X440155Y213869D01*
X440340Y213740D01*
X440525Y213592D01*
X440673Y213444D01*
X440803Y213314D01*
X440914Y213203D01*
X440988Y213110D01*
X441043Y213036D01*
X441080Y212981D01*
X441099Y212962D01*
Y214295D01*
X442506D01*
Y205000D01*
X440932D01*
Y210055D01*
Y210370D01*
X440895Y210685D01*
X440858Y210944D01*
X440821Y211185D01*
X440766Y211407D01*
X440710Y211610D01*
X440636Y211796D01*
X440562Y211944D01*
X440506Y212073D01*
X440432Y212184D01*
X440377Y212277D01*
X440321Y212351D01*
X440247Y212444D01*
X440210Y212481D01*
X439932Y212703D01*
X439636Y212851D01*
X439340Y212962D01*
X439081Y213055D01*
X438840Y213092D01*
X438655Y213110D01*
X438581Y213129D01*
X438488D01*
X438266Y213110D01*
X438044Y213092D01*
X437859Y213036D01*
X437710Y212981D01*
X437581Y212925D01*
X437470Y212888D01*
X437414Y212851D01*
X437396Y212833D01*
X437229Y212721D01*
X437081Y212592D01*
X436970Y212462D01*
X436877Y212351D01*
X436822Y212240D01*
X436766Y212147D01*
X436729Y212092D01*
Y212073D01*
X436673Y211870D01*
X436618Y211647D01*
X436581Y211407D01*
X436562Y211166D01*
X436544Y210962D01*
Y210796D01*
Y210666D01*
Y210648D01*
Y210629D01*
Y205000D01*
X434970D01*
Y210703D01*
Y211092D01*
X434988Y211407D01*
X435007Y211666D01*
Y211888D01*
X435025Y212036D01*
X435044Y212147D01*
X435062Y212222D01*
Y212240D01*
X435118Y212481D01*
X435211Y212703D01*
X435285Y212888D01*
X435359Y213073D01*
X435451Y213203D01*
X435507Y213295D01*
X435544Y213370D01*
X435563Y213388D01*
X435711Y213573D01*
X435877Y213721D01*
X436044Y213869D01*
X436229Y213981D01*
X436377Y214073D01*
X436507Y214129D01*
X436581Y214166D01*
X436618Y214184D01*
X436877Y214295D01*
X437155Y214369D01*
X437414Y214425D01*
X437655Y214462D01*
X437859Y214480D01*
X438007Y214499D01*
X438155D01*
X438507Y214480D01*
D02*
G37*
G36*
X204000Y220116D02*
Y219834D01*
X203986Y219566D01*
X203972Y219313D01*
X203944Y219073D01*
X203915Y218862D01*
X203887Y218664D01*
X203845Y218481D01*
X203817Y218312D01*
X203789Y218157D01*
X203746Y218030D01*
X203718Y217917D01*
X203690Y217833D01*
X203662Y217762D01*
X203648Y217706D01*
X203633Y217677D01*
Y217663D01*
X203478Y217353D01*
X203281Y217071D01*
X203084Y216846D01*
X202872Y216649D01*
X202689Y216493D01*
X202534Y216381D01*
X202477Y216352D01*
X202435Y216324D01*
X202407Y216296D01*
X202393D01*
X202041Y216141D01*
X201674Y216028D01*
X201293Y215944D01*
X200941Y215887D01*
X200786Y215873D01*
X200631Y215859D01*
X200490Y215845D01*
X200377D01*
X200278Y215831D01*
X200152D01*
X199644Y215859D01*
X199419Y215887D01*
X199207Y215915D01*
X198996Y215958D01*
X198812Y216000D01*
X198643Y216042D01*
X198488Y216099D01*
X198347Y216155D01*
X198234Y216197D01*
X198121Y216240D01*
X198037Y216282D01*
X197966Y216324D01*
X197924Y216338D01*
X197896Y216367D01*
X197882D01*
X197572Y216578D01*
X197318Y216818D01*
X197121Y217043D01*
X196952Y217269D01*
X196825Y217466D01*
X196740Y217621D01*
X196712Y217677D01*
X196684Y217720D01*
X196670Y217748D01*
Y217762D01*
X196613Y217931D01*
X196557Y218114D01*
X196472Y218495D01*
X196416Y218890D01*
X196374Y219270D01*
X196359Y219440D01*
X196345Y219609D01*
Y219750D01*
X196331Y219877D01*
Y219975D01*
Y220046D01*
Y220102D01*
Y220116D01*
Y225755D01*
X197628D01*
Y220116D01*
Y219792D01*
X197656Y219482D01*
X197684Y219214D01*
X197727Y218960D01*
X197769Y218735D01*
X197826Y218523D01*
X197868Y218340D01*
X197924Y218185D01*
X197981Y218058D01*
X198037Y217931D01*
X198093Y217847D01*
X198136Y217762D01*
X198178Y217706D01*
X198206Y217663D01*
X198220Y217649D01*
X198234Y217635D01*
X198361Y217523D01*
X198502Y217424D01*
X198812Y217269D01*
X199137Y217156D01*
X199475Y217085D01*
X199785Y217029D01*
X199912Y217015D01*
X200039D01*
X200123Y217001D01*
X200264D01*
X200560Y217015D01*
X200828Y217057D01*
X201082Y217100D01*
X201279Y217170D01*
X201448Y217226D01*
X201575Y217269D01*
X201646Y217311D01*
X201674Y217325D01*
X201871Y217452D01*
X202041Y217607D01*
X202181Y217762D01*
X202280Y217903D01*
X202365Y218044D01*
X202435Y218143D01*
X202463Y218213D01*
X202477Y218241D01*
X202520Y218368D01*
X202548Y218495D01*
X202604Y218791D01*
X202647Y219101D01*
X202675Y219412D01*
X202689Y219679D01*
Y219806D01*
X202703Y219905D01*
Y219989D01*
Y220060D01*
Y220102D01*
Y220116D01*
Y225755D01*
X204000D01*
Y220116D01*
D02*
G37*
G36*
X369514Y217554D02*
X369717Y217258D01*
X369958Y216962D01*
X370180Y216702D01*
X370402Y216480D01*
X370569Y216295D01*
X370643Y216240D01*
X370699Y216184D01*
X370717Y216166D01*
X370736Y216147D01*
X371125Y215832D01*
X371513Y215536D01*
X371884Y215277D01*
X372254Y215073D01*
X372569Y214888D01*
X372699Y214814D01*
X372810Y214758D01*
X372902Y214703D01*
X372976Y214684D01*
X373013Y214647D01*
X373032D01*
Y213129D01*
X372754Y213240D01*
X372476Y213370D01*
X372199Y213499D01*
X371939Y213629D01*
X371717Y213740D01*
X371532Y213832D01*
X371421Y213906D01*
X371402Y213925D01*
X371384D01*
X371051Y214129D01*
X370754Y214332D01*
X370495Y214517D01*
X370291Y214684D01*
X370106Y214814D01*
X369995Y214925D01*
X369903Y214999D01*
X369884Y215018D01*
Y205000D01*
X368310D01*
Y217869D01*
X369329D01*
X369514Y217554D01*
D02*
G37*
G36*
X384457D02*
X384660Y217258D01*
X384901Y216962D01*
X385123Y216702D01*
X385345Y216480D01*
X385512Y216295D01*
X385586Y216240D01*
X385642Y216184D01*
X385660Y216166D01*
X385679Y216147D01*
X386068Y215832D01*
X386456Y215536D01*
X386827Y215277D01*
X387197Y215073D01*
X387512Y214888D01*
X387641Y214814D01*
X387753Y214758D01*
X387845Y214703D01*
X387919Y214684D01*
X387956Y214647D01*
X387975D01*
Y213129D01*
X387697Y213240D01*
X387419Y213370D01*
X387141Y213499D01*
X386882Y213629D01*
X386660Y213740D01*
X386475Y213832D01*
X386364Y213906D01*
X386345Y213925D01*
X386327D01*
X385993Y214129D01*
X385697Y214332D01*
X385438Y214517D01*
X385234Y214684D01*
X385049Y214814D01*
X384938Y214925D01*
X384846Y214999D01*
X384827Y215018D01*
Y205000D01*
X383253D01*
Y217869D01*
X384272D01*
X384457Y217554D01*
D02*
G37*
G36*
X502000Y210407D02*
Y210037D01*
X501982Y209685D01*
X501963Y209351D01*
X501926Y209037D01*
X501889Y208759D01*
X501852Y208500D01*
X501796Y208259D01*
X501759Y208037D01*
X501722Y207833D01*
X501667Y207666D01*
X501630Y207518D01*
X501593Y207407D01*
X501556Y207315D01*
X501537Y207241D01*
X501519Y207204D01*
Y207185D01*
X501315Y206778D01*
X501056Y206407D01*
X500796Y206111D01*
X500519Y205852D01*
X500278Y205648D01*
X500074Y205500D01*
X500000Y205463D01*
X499945Y205426D01*
X499908Y205389D01*
X499889D01*
X499426Y205185D01*
X498945Y205037D01*
X498445Y204926D01*
X497982Y204852D01*
X497778Y204833D01*
X497575Y204815D01*
X497389Y204796D01*
X497241D01*
X497112Y204778D01*
X496945D01*
X496278Y204815D01*
X495982Y204852D01*
X495704Y204889D01*
X495427Y204944D01*
X495186Y205000D01*
X494964Y205056D01*
X494760Y205130D01*
X494575Y205204D01*
X494427Y205259D01*
X494279Y205315D01*
X494168Y205370D01*
X494075Y205426D01*
X494019Y205444D01*
X493982Y205481D01*
X493964D01*
X493556Y205759D01*
X493223Y206074D01*
X492964Y206370D01*
X492742Y206667D01*
X492575Y206926D01*
X492464Y207129D01*
X492427Y207204D01*
X492390Y207259D01*
X492371Y207296D01*
Y207315D01*
X492297Y207537D01*
X492223Y207778D01*
X492112Y208277D01*
X492038Y208796D01*
X491982Y209296D01*
X491964Y209518D01*
X491945Y209740D01*
Y209925D01*
X491927Y210092D01*
Y210222D01*
Y210314D01*
Y210388D01*
Y210407D01*
Y217813D01*
X493630D01*
Y210407D01*
Y209981D01*
X493667Y209574D01*
X493705Y209222D01*
X493760Y208888D01*
X493816Y208592D01*
X493890Y208314D01*
X493945Y208074D01*
X494019Y207870D01*
X494093Y207703D01*
X494168Y207537D01*
X494242Y207426D01*
X494297Y207315D01*
X494353Y207241D01*
X494390Y207185D01*
X494408Y207166D01*
X494427Y207148D01*
X494593Y207000D01*
X494779Y206870D01*
X495186Y206667D01*
X495612Y206518D01*
X496056Y206426D01*
X496464Y206352D01*
X496630Y206333D01*
X496797D01*
X496908Y206315D01*
X497093D01*
X497482Y206333D01*
X497834Y206389D01*
X498167Y206444D01*
X498426Y206537D01*
X498648Y206611D01*
X498815Y206667D01*
X498908Y206722D01*
X498945Y206741D01*
X499204Y206907D01*
X499426Y207111D01*
X499611Y207315D01*
X499741Y207500D01*
X499852Y207685D01*
X499945Y207815D01*
X499982Y207907D01*
X500000Y207944D01*
X500056Y208111D01*
X500093Y208277D01*
X500167Y208666D01*
X500222Y209074D01*
X500260Y209481D01*
X500278Y209833D01*
Y210000D01*
X500297Y210129D01*
Y210240D01*
Y210333D01*
Y210388D01*
Y210407D01*
Y217813D01*
X502000D01*
Y210407D01*
D02*
G37*
G36*
X395178Y205000D02*
X393678D01*
X390141Y214295D01*
X391771D01*
X393826Y208611D01*
X393956Y208240D01*
X394085Y207907D01*
X394178Y207592D01*
X394270Y207352D01*
X394326Y207129D01*
X394381Y206981D01*
X394400Y206889D01*
X394419Y206852D01*
X394530Y207204D01*
X394622Y207555D01*
X394733Y207870D01*
X394826Y208148D01*
X394900Y208389D01*
X394955Y208574D01*
X394974Y208629D01*
X394993Y208685D01*
X395011Y208703D01*
Y208722D01*
X397011Y214295D01*
X398677D01*
X395178Y205000D01*
D02*
G37*
G36*
X489113D02*
X487483D01*
Y215054D01*
X480780Y205000D01*
X479021D01*
Y217813D01*
X480650D01*
Y207740D01*
X487372Y217813D01*
X489113D01*
Y205000D01*
D02*
G37*
G36*
X103430Y108599D02*
X100216D01*
Y100000D01*
X98919D01*
Y108599D01*
X95705D01*
Y109755D01*
X103430D01*
Y108599D01*
D02*
G37*
G36*
X109026Y100000D02*
X107673D01*
X103867Y109755D01*
X105178D01*
X107828Y102664D01*
X107941Y102368D01*
X108040Y102086D01*
X108124Y101819D01*
X108195Y101579D01*
X108265Y101367D01*
X108308Y101212D01*
X108322Y101156D01*
X108336Y101114D01*
X108350Y101086D01*
Y101071D01*
X108519Y101635D01*
X108603Y101903D01*
X108688Y102143D01*
X108759Y102354D01*
X108787Y102439D01*
X108801Y102523D01*
X108829Y102580D01*
X108843Y102622D01*
X108857Y102650D01*
Y102664D01*
X111395Y109755D01*
X112804D01*
X109026Y100000D01*
D02*
G37*
G36*
X89474Y206558D02*
X89629Y206332D01*
X89812Y206107D01*
X89981Y205909D01*
X90150Y205740D01*
X90277Y205599D01*
X90334Y205557D01*
X90376Y205515D01*
X90390Y205501D01*
X90404Y205486D01*
X90700Y205247D01*
X90996Y205021D01*
X91278Y204824D01*
X91560Y204669D01*
X91800Y204528D01*
X91899Y204471D01*
X91983Y204429D01*
X92054Y204387D01*
X92110Y204373D01*
X92138Y204345D01*
X92152D01*
Y203189D01*
X91941Y203273D01*
X91729Y203372D01*
X91518Y203470D01*
X91321Y203569D01*
X91151Y203654D01*
X91011Y203724D01*
X90926Y203781D01*
X90912Y203795D01*
X90898D01*
X90644Y203950D01*
X90418Y204105D01*
X90221Y204246D01*
X90066Y204373D01*
X89925Y204471D01*
X89840Y204556D01*
X89770Y204612D01*
X89756Y204627D01*
Y197000D01*
X88558D01*
Y206797D01*
X89333D01*
X89474Y206558D01*
D02*
G37*
G36*
X101640Y205599D02*
X98426D01*
Y197000D01*
X97129D01*
Y205599D01*
X93914D01*
Y206755D01*
X101640D01*
Y205599D01*
D02*
G37*
G36*
X107236Y197000D02*
X105883D01*
X102077Y206755D01*
X103388D01*
X106038Y199664D01*
X106151Y199368D01*
X106249Y199086D01*
X106334Y198818D01*
X106404Y198579D01*
X106475Y198367D01*
X106517Y198212D01*
X106531Y198156D01*
X106545Y198114D01*
X106559Y198085D01*
Y198071D01*
X106729Y198635D01*
X106813Y198903D01*
X106898Y199143D01*
X106968Y199354D01*
X106996Y199439D01*
X107011Y199523D01*
X107039Y199580D01*
X107053Y199622D01*
X107067Y199650D01*
Y199664D01*
X109604Y206755D01*
X111014D01*
X107236Y197000D01*
D02*
G37*
G36*
X91884Y109783D02*
X92124Y109769D01*
X92350Y109727D01*
X92561Y109685D01*
X92759Y109628D01*
X92942Y109572D01*
X93111Y109501D01*
X93266Y109431D01*
X93407Y109360D01*
X93520Y109290D01*
X93618Y109234D01*
X93703Y109177D01*
X93773Y109135D01*
X93816Y109093D01*
X93844Y109079D01*
X93858Y109064D01*
X93999Y108923D01*
X94126Y108768D01*
X94253Y108599D01*
X94351Y108430D01*
X94521Y108092D01*
X94633Y107753D01*
X94676Y107598D01*
X94718Y107443D01*
X94746Y107316D01*
X94774Y107204D01*
X94789Y107105D01*
Y107034D01*
X94803Y106992D01*
Y106978D01*
X93576Y106851D01*
X93548Y107175D01*
X93491Y107457D01*
X93407Y107711D01*
X93308Y107908D01*
X93224Y108078D01*
X93139Y108190D01*
X93083Y108261D01*
X93055Y108289D01*
X92843Y108458D01*
X92618Y108585D01*
X92378Y108684D01*
X92166Y108740D01*
X91969Y108782D01*
X91800Y108797D01*
X91743Y108811D01*
X91659D01*
X91363Y108797D01*
X91095Y108740D01*
X90870Y108656D01*
X90672Y108571D01*
X90517Y108472D01*
X90418Y108402D01*
X90348Y108345D01*
X90320Y108317D01*
X90150Y108120D01*
X90024Y107922D01*
X89925Y107725D01*
X89869Y107528D01*
X89826Y107373D01*
X89812Y107232D01*
X89798Y107147D01*
Y107133D01*
Y107119D01*
X89826Y106865D01*
X89883Y106597D01*
X89981Y106358D01*
X90080Y106132D01*
X90193Y105949D01*
X90292Y105794D01*
X90320Y105737D01*
X90348Y105695D01*
X90376Y105681D01*
Y105667D01*
X90489Y105512D01*
X90630Y105357D01*
X90785Y105188D01*
X90954Y105019D01*
X91306Y104680D01*
X91659Y104342D01*
X91842Y104187D01*
X91997Y104046D01*
X92152Y103919D01*
X92279Y103806D01*
X92378Y103722D01*
X92463Y103651D01*
X92519Y103609D01*
X92533Y103595D01*
X92885Y103299D01*
X93210Y103017D01*
X93477Y102763D01*
X93689Y102552D01*
X93872Y102368D01*
X93999Y102241D01*
X94069Y102157D01*
X94098Y102143D01*
Y102129D01*
X94295Y101889D01*
X94450Y101663D01*
X94591Y101438D01*
X94704Y101241D01*
X94789Y101071D01*
X94845Y100944D01*
X94873Y100860D01*
X94887Y100846D01*
Y100832D01*
X94944Y100677D01*
X94972Y100536D01*
X95000Y100395D01*
X95014Y100268D01*
X95028Y100155D01*
Y100070D01*
Y100014D01*
Y100000D01*
X88558D01*
Y101156D01*
X93365D01*
X93195Y101396D01*
X93111Y101494D01*
X93040Y101593D01*
X92970Y101678D01*
X92914Y101734D01*
X92871Y101776D01*
X92857Y101790D01*
X92787Y101861D01*
X92702Y101931D01*
X92505Y102115D01*
X92279Y102326D01*
X92039Y102537D01*
X91814Y102721D01*
X91715Y102805D01*
X91631Y102890D01*
X91560Y102946D01*
X91504Y102989D01*
X91476Y103017D01*
X91462Y103031D01*
X91236Y103228D01*
X91011Y103412D01*
X90813Y103595D01*
X90630Y103750D01*
X90461Y103905D01*
X90320Y104046D01*
X90179Y104173D01*
X90066Y104285D01*
X89953Y104398D01*
X89869Y104483D01*
X89798Y104553D01*
X89728Y104624D01*
X89657Y104708D01*
X89629Y104737D01*
X89432Y104976D01*
X89262Y105188D01*
X89122Y105399D01*
X89009Y105568D01*
X88924Y105723D01*
X88868Y105836D01*
X88840Y105907D01*
X88825Y105935D01*
X88741Y106146D01*
X88685Y106358D01*
X88628Y106555D01*
X88600Y106724D01*
X88586Y106879D01*
X88572Y106992D01*
Y107063D01*
Y107091D01*
X88586Y107302D01*
X88614Y107500D01*
X88642Y107697D01*
X88699Y107866D01*
X88840Y108204D01*
X88981Y108472D01*
X89065Y108599D01*
X89136Y108698D01*
X89206Y108797D01*
X89277Y108867D01*
X89333Y108923D01*
X89361Y108980D01*
X89389Y108994D01*
X89403Y109008D01*
X89558Y109149D01*
X89728Y109276D01*
X89911Y109375D01*
X90094Y109459D01*
X90461Y109600D01*
X90827Y109699D01*
X90982Y109727D01*
X91137Y109755D01*
X91278Y109769D01*
X91391Y109783D01*
X91490Y109797D01*
X91631D01*
X91884Y109783D01*
D02*
G37*
G36*
X420138Y214480D02*
X420434Y214462D01*
X421008Y214332D01*
X421508Y214166D01*
X421731Y214073D01*
X421934Y213981D01*
X422119Y213888D01*
X422267Y213795D01*
X422416Y213703D01*
X422527Y213629D01*
X422619Y213555D01*
X422693Y213499D01*
X422730Y213481D01*
X422749Y213462D01*
X423008Y213221D01*
X423212Y212944D01*
X423416Y212647D01*
X423564Y212351D01*
X423712Y212036D01*
X423823Y211703D01*
X423915Y211388D01*
X423990Y211092D01*
X424064Y210796D01*
X424101Y210536D01*
X424138Y210277D01*
X424156Y210074D01*
Y209888D01*
X424175Y209759D01*
Y209685D01*
Y209648D01*
X424156Y209222D01*
X424119Y208814D01*
X424064Y208444D01*
X423990Y208092D01*
X423897Y207778D01*
X423804Y207481D01*
X423693Y207204D01*
X423582Y206963D01*
X423471Y206741D01*
X423360Y206555D01*
X423267Y206407D01*
X423175Y206278D01*
X423101Y206166D01*
X423045Y206092D01*
X423008Y206055D01*
X422990Y206037D01*
X422749Y205815D01*
X422508Y205630D01*
X422249Y205463D01*
X421990Y205315D01*
X421731Y205204D01*
X421453Y205093D01*
X420953Y204944D01*
X420731Y204907D01*
X420508Y204870D01*
X420323Y204833D01*
X420157Y204815D01*
X420009Y204796D01*
X419823D01*
X419379Y204815D01*
X418972Y204889D01*
X418583Y204981D01*
X418268Y205074D01*
X417990Y205185D01*
X417879Y205222D01*
X417786Y205259D01*
X417694Y205296D01*
X417638Y205333D01*
X417620Y205352D01*
X417601D01*
X417231Y205592D01*
X416916Y205852D01*
X416638Y206111D01*
X416416Y206370D01*
X416250Y206592D01*
X416120Y206778D01*
X416083Y206852D01*
X416046Y206907D01*
X416027Y206926D01*
Y206944D01*
X415842Y207370D01*
X415713Y207833D01*
X415602Y208296D01*
X415546Y208759D01*
X415509Y208962D01*
Y209148D01*
X415490Y209333D01*
X415472Y209481D01*
Y209611D01*
Y209703D01*
Y209759D01*
Y209777D01*
X415490Y210185D01*
X415527Y210555D01*
X415583Y210907D01*
X415657Y211240D01*
X415750Y211555D01*
X415861Y211833D01*
X415972Y212110D01*
X416083Y212333D01*
X416194Y212536D01*
X416305Y212721D01*
X416416Y212888D01*
X416509Y213018D01*
X416583Y213110D01*
X416638Y213184D01*
X416675Y213221D01*
X416694Y213240D01*
X416935Y213462D01*
X417175Y213647D01*
X417435Y213832D01*
X417694Y213962D01*
X417953Y214092D01*
X418212Y214184D01*
X418712Y214351D01*
X418953Y214388D01*
X419157Y214425D01*
X419342Y214462D01*
X419509Y214480D01*
X419638Y214499D01*
X419823D01*
X420138Y214480D01*
D02*
G37*
G36*
X430026Y214462D02*
X430248Y214443D01*
X430452Y214406D01*
X430619Y214369D01*
X430748Y214332D01*
X430822Y214314D01*
X430859Y214295D01*
X431081Y214221D01*
X431285Y214147D01*
X431452Y214073D01*
X431600Y213999D01*
X431711Y213944D01*
X431785Y213888D01*
X431841Y213869D01*
X431859Y213851D01*
X432044Y213721D01*
X432192Y213573D01*
X432322Y213407D01*
X432433Y213277D01*
X432526Y213147D01*
X432581Y213055D01*
X432618Y212981D01*
X432637Y212962D01*
X432729Y212759D01*
X432803Y212573D01*
X432840Y212370D01*
X432878Y212203D01*
X432896Y212036D01*
X432915Y211925D01*
Y211851D01*
Y211814D01*
X432896Y211555D01*
X432859Y211333D01*
X432803Y211110D01*
X432748Y210925D01*
X432692Y210777D01*
X432637Y210648D01*
X432600Y210574D01*
X432581Y210555D01*
X432433Y210351D01*
X432267Y210185D01*
X432100Y210037D01*
X431933Y209907D01*
X431785Y209814D01*
X431674Y209740D01*
X431600Y209703D01*
X431563Y209685D01*
X431433Y209629D01*
X431267Y209555D01*
X430896Y209426D01*
X430507Y209314D01*
X430100Y209185D01*
X429748Y209092D01*
X429582Y209037D01*
X429434Y209000D01*
X429322Y208962D01*
X429230Y208944D01*
X429174Y208925D01*
X429156D01*
X428915Y208870D01*
X428711Y208814D01*
X428526Y208759D01*
X428359Y208703D01*
X428211Y208666D01*
X428082Y208611D01*
X427859Y208537D01*
X427711Y208481D01*
X427619Y208426D01*
X427563Y208407D01*
X427545Y208389D01*
X427378Y208277D01*
X427267Y208129D01*
X427174Y208000D01*
X427119Y207870D01*
X427082Y207740D01*
X427063Y207648D01*
Y207574D01*
Y207555D01*
X427082Y207333D01*
X427137Y207148D01*
X427230Y206963D01*
X427323Y206815D01*
X427434Y206685D01*
X427508Y206592D01*
X427582Y206537D01*
X427600Y206518D01*
X427822Y206370D01*
X428063Y206278D01*
X428341Y206204D01*
X428600Y206148D01*
X428841Y206111D01*
X429026Y206092D01*
X429211D01*
X429600Y206111D01*
X429933Y206166D01*
X430211Y206241D01*
X430452Y206333D01*
X430637Y206426D01*
X430785Y206500D01*
X430859Y206555D01*
X430896Y206574D01*
X431100Y206778D01*
X431267Y207018D01*
X431378Y207259D01*
X431470Y207481D01*
X431544Y207685D01*
X431581Y207870D01*
X431618Y207981D01*
Y208000D01*
Y208018D01*
X433174Y207778D01*
X433044Y207259D01*
X432878Y206796D01*
X432674Y206426D01*
X432470Y206111D01*
X432285Y205852D01*
X432118Y205685D01*
X432007Y205574D01*
X431989Y205555D01*
X431970Y205537D01*
X431785Y205407D01*
X431581Y205296D01*
X431137Y205111D01*
X430674Y204981D01*
X430230Y204889D01*
X430026Y204852D01*
X429841Y204833D01*
X429656Y204815D01*
X429507D01*
X429378Y204796D01*
X429211D01*
X428804Y204815D01*
X428452Y204852D01*
X428119Y204907D01*
X427822Y204981D01*
X427582Y205056D01*
X427397Y205111D01*
X427285Y205148D01*
X427267Y205167D01*
X427248D01*
X426934Y205333D01*
X426674Y205500D01*
X426452Y205685D01*
X426249Y205852D01*
X426101Y206000D01*
X426008Y206129D01*
X425934Y206204D01*
X425915Y206241D01*
X425767Y206500D01*
X425656Y206778D01*
X425564Y207018D01*
X425508Y207241D01*
X425471Y207444D01*
X425452Y207592D01*
Y207685D01*
Y207722D01*
X425471Y208018D01*
X425508Y208277D01*
X425582Y208500D01*
X425638Y208703D01*
X425712Y208870D01*
X425786Y208981D01*
X425823Y209055D01*
X425841Y209074D01*
X425989Y209259D01*
X426156Y209426D01*
X426323Y209574D01*
X426489Y209685D01*
X426656Y209777D01*
X426767Y209833D01*
X426841Y209870D01*
X426878Y209888D01*
X427008Y209944D01*
X427156Y210000D01*
X427508Y210129D01*
X427897Y210259D01*
X428285Y210370D01*
X428637Y210481D01*
X428804Y210518D01*
X428933Y210555D01*
X429045Y210592D01*
X429137Y210611D01*
X429193Y210629D01*
X429211D01*
X429415Y210685D01*
X429600Y210740D01*
X429767Y210777D01*
X429915Y210833D01*
X430156Y210888D01*
X430341Y210944D01*
X430470Y210999D01*
X430545Y211018D01*
X430582Y211036D01*
X430600D01*
X430748Y211110D01*
X430878Y211166D01*
X430989Y211240D01*
X431063Y211296D01*
X431137Y211351D01*
X431174Y211407D01*
X431193Y211425D01*
X431211Y211444D01*
X431322Y211629D01*
X431378Y211814D01*
Y211888D01*
X431396Y211944D01*
Y211981D01*
Y211999D01*
X431378Y212166D01*
X431322Y212333D01*
X431248Y212481D01*
X431156Y212592D01*
X431081Y212703D01*
X431007Y212777D01*
X430952Y212814D01*
X430933Y212833D01*
X430730Y212962D01*
X430489Y213055D01*
X430230Y213110D01*
X429989Y213166D01*
X429748Y213184D01*
X429563Y213203D01*
X429378D01*
X429063Y213184D01*
X428767Y213147D01*
X428526Y213073D01*
X428341Y212999D01*
X428174Y212925D01*
X428063Y212851D01*
X427989Y212814D01*
X427971Y212796D01*
X427785Y212629D01*
X427656Y212444D01*
X427545Y212258D01*
X427452Y212092D01*
X427397Y211925D01*
X427360Y211796D01*
X427341Y211721D01*
Y211684D01*
X425804Y211888D01*
X425878Y212203D01*
X425952Y212481D01*
X426045Y212721D01*
X426138Y212944D01*
X426230Y213092D01*
X426304Y213221D01*
X426341Y213295D01*
X426360Y213314D01*
X426526Y213499D01*
X426712Y213666D01*
X426915Y213814D01*
X427119Y213944D01*
X427304Y214036D01*
X427452Y214110D01*
X427545Y214147D01*
X427563Y214166D01*
X427582D01*
X427897Y214277D01*
X428230Y214351D01*
X428545Y214425D01*
X428841Y214462D01*
X429119Y214480D01*
X429322Y214499D01*
X429767D01*
X430026Y214462D01*
D02*
G37*
G36*
X458912D02*
X459134Y214443D01*
X459338Y214406D01*
X459504Y214369D01*
X459634Y214332D01*
X459708Y214314D01*
X459745Y214295D01*
X459967Y214221D01*
X460171Y214147D01*
X460338Y214073D01*
X460486Y213999D01*
X460597Y213944D01*
X460671Y213888D01*
X460727Y213869D01*
X460745Y213851D01*
X460930Y213721D01*
X461078Y213573D01*
X461208Y213407D01*
X461319Y213277D01*
X461412Y213147D01*
X461467Y213055D01*
X461504Y212981D01*
X461523Y212962D01*
X461615Y212759D01*
X461689Y212573D01*
X461726Y212370D01*
X461763Y212203D01*
X461782Y212036D01*
X461800Y211925D01*
Y211851D01*
Y211814D01*
X461782Y211555D01*
X461745Y211333D01*
X461689Y211110D01*
X461634Y210925D01*
X461578Y210777D01*
X461523Y210648D01*
X461486Y210574D01*
X461467Y210555D01*
X461319Y210351D01*
X461152Y210185D01*
X460986Y210037D01*
X460819Y209907D01*
X460671Y209814D01*
X460560Y209740D01*
X460486Y209703D01*
X460449Y209685D01*
X460319Y209629D01*
X460153Y209555D01*
X459782Y209426D01*
X459393Y209314D01*
X458986Y209185D01*
X458634Y209092D01*
X458467Y209037D01*
X458319Y209000D01*
X458208Y208962D01*
X458116Y208944D01*
X458060Y208925D01*
X458042D01*
X457801Y208870D01*
X457597Y208814D01*
X457412Y208759D01*
X457245Y208703D01*
X457097Y208666D01*
X456968Y208611D01*
X456745Y208537D01*
X456597Y208481D01*
X456505Y208426D01*
X456449Y208407D01*
X456431Y208389D01*
X456264Y208277D01*
X456153Y208129D01*
X456060Y208000D01*
X456005Y207870D01*
X455968Y207740D01*
X455949Y207648D01*
Y207574D01*
Y207555D01*
X455968Y207333D01*
X456023Y207148D01*
X456116Y206963D01*
X456208Y206815D01*
X456320Y206685D01*
X456394Y206592D01*
X456468Y206537D01*
X456486Y206518D01*
X456708Y206370D01*
X456949Y206278D01*
X457227Y206204D01*
X457486Y206148D01*
X457727Y206111D01*
X457912Y206092D01*
X458097D01*
X458486Y206111D01*
X458819Y206166D01*
X459097Y206241D01*
X459338Y206333D01*
X459523Y206426D01*
X459671Y206500D01*
X459745Y206555D01*
X459782Y206574D01*
X459986Y206778D01*
X460153Y207018D01*
X460264Y207259D01*
X460356Y207481D01*
X460430Y207685D01*
X460467Y207870D01*
X460504Y207981D01*
Y208000D01*
Y208018D01*
X462060Y207778D01*
X461930Y207259D01*
X461763Y206796D01*
X461560Y206426D01*
X461356Y206111D01*
X461171Y205852D01*
X461004Y205685D01*
X460893Y205574D01*
X460875Y205555D01*
X460856Y205537D01*
X460671Y205407D01*
X460467Y205296D01*
X460023Y205111D01*
X459560Y204981D01*
X459116Y204889D01*
X458912Y204852D01*
X458727Y204833D01*
X458542Y204815D01*
X458393D01*
X458264Y204796D01*
X458097D01*
X457690Y204815D01*
X457338Y204852D01*
X457005Y204907D01*
X456708Y204981D01*
X456468Y205056D01*
X456283Y205111D01*
X456171Y205148D01*
X456153Y205167D01*
X456134D01*
X455820Y205333D01*
X455560Y205500D01*
X455338Y205685D01*
X455135Y205852D01*
X454986Y206000D01*
X454894Y206129D01*
X454820Y206204D01*
X454801Y206241D01*
X454653Y206500D01*
X454542Y206778D01*
X454449Y207018D01*
X454394Y207241D01*
X454357Y207444D01*
X454338Y207592D01*
Y207685D01*
Y207722D01*
X454357Y208018D01*
X454394Y208277D01*
X454468Y208500D01*
X454523Y208703D01*
X454598Y208870D01*
X454672Y208981D01*
X454709Y209055D01*
X454727Y209074D01*
X454875Y209259D01*
X455042Y209426D01*
X455209Y209574D01*
X455375Y209685D01*
X455542Y209777D01*
X455653Y209833D01*
X455727Y209870D01*
X455764Y209888D01*
X455894Y209944D01*
X456042Y210000D01*
X456394Y210129D01*
X456782Y210259D01*
X457171Y210370D01*
X457523Y210481D01*
X457690Y210518D01*
X457819Y210555D01*
X457930Y210592D01*
X458023Y210611D01*
X458079Y210629D01*
X458097D01*
X458301Y210685D01*
X458486Y210740D01*
X458653Y210777D01*
X458801Y210833D01*
X459041Y210888D01*
X459227Y210944D01*
X459356Y210999D01*
X459430Y211018D01*
X459467Y211036D01*
X459486D01*
X459634Y211110D01*
X459764Y211166D01*
X459875Y211240D01*
X459949Y211296D01*
X460023Y211351D01*
X460060Y211407D01*
X460078Y211425D01*
X460097Y211444D01*
X460208Y211629D01*
X460264Y211814D01*
Y211888D01*
X460282Y211944D01*
Y211981D01*
Y211999D01*
X460264Y212166D01*
X460208Y212333D01*
X460134Y212481D01*
X460041Y212592D01*
X459967Y212703D01*
X459893Y212777D01*
X459838Y212814D01*
X459819Y212833D01*
X459616Y212962D01*
X459375Y213055D01*
X459116Y213110D01*
X458875Y213166D01*
X458634Y213184D01*
X458449Y213203D01*
X458264D01*
X457949Y213184D01*
X457653Y213147D01*
X457412Y213073D01*
X457227Y212999D01*
X457060Y212925D01*
X456949Y212851D01*
X456875Y212814D01*
X456856Y212796D01*
X456671Y212629D01*
X456542Y212444D01*
X456431Y212258D01*
X456338Y212092D01*
X456283Y211925D01*
X456245Y211796D01*
X456227Y211721D01*
Y211684D01*
X454690Y211888D01*
X454764Y212203D01*
X454838Y212481D01*
X454931Y212721D01*
X455023Y212944D01*
X455116Y213092D01*
X455190Y213221D01*
X455227Y213295D01*
X455246Y213314D01*
X455412Y213499D01*
X455597Y213666D01*
X455801Y213814D01*
X456005Y213944D01*
X456190Y214036D01*
X456338Y214110D01*
X456431Y214147D01*
X456449Y214166D01*
X456468D01*
X456782Y214277D01*
X457116Y214351D01*
X457431Y214425D01*
X457727Y214462D01*
X458005Y214480D01*
X458208Y214499D01*
X458653D01*
X458912Y214462D01*
D02*
G37*
G36*
X409121Y201445D02*
X398696D01*
Y202574D01*
X409121D01*
Y201445D01*
D02*
G37*
G36*
X472855D02*
X462430D01*
Y202574D01*
X472855D01*
Y201445D01*
D02*
G37*
%LPC*%
G36*
X367217Y152280D02*
X364144D01*
X363763Y152266D01*
X363439Y152209D01*
X363157Y152139D01*
X362946Y152054D01*
X362762Y151969D01*
X362650Y151899D01*
X362579Y151843D01*
X362551Y151829D01*
X362382Y151645D01*
X362255Y151462D01*
X362170Y151265D01*
X362100Y151096D01*
X362072Y150926D01*
X362058Y150800D01*
X362043Y150715D01*
Y150701D01*
Y150687D01*
X362058Y150518D01*
X362086Y150348D01*
X362128Y150207D01*
X362170Y150080D01*
X362227Y149968D01*
X362269Y149883D01*
X362297Y149827D01*
X362311Y149813D01*
X362410Y149672D01*
X362537Y149545D01*
X362664Y149446D01*
X362791Y149362D01*
X362903Y149305D01*
X362988Y149263D01*
X363044Y149235D01*
X363073Y149221D01*
X363270Y149164D01*
X363495Y149122D01*
X363721Y149094D01*
X363947Y149080D01*
X364144Y149066D01*
X364313Y149051D01*
X367217D01*
Y152280D01*
D02*
G37*
G36*
X355347Y151420D02*
Y147050D01*
X358420D01*
X355347Y151420D01*
D02*
G37*
G36*
X513109Y112578D02*
X510036D01*
X509655Y112564D01*
X509331Y112507D01*
X509049Y112437D01*
X508838Y112352D01*
X508654Y112268D01*
X508542Y112197D01*
X508471Y112141D01*
X508443Y112127D01*
X508274Y111943D01*
X508147Y111760D01*
X508062Y111563D01*
X507992Y111393D01*
X507964Y111224D01*
X507950Y111097D01*
X507935Y111013D01*
Y110999D01*
Y110985D01*
X507950Y110815D01*
X507978Y110646D01*
X508020Y110505D01*
X508062Y110379D01*
X508119Y110266D01*
X508161Y110181D01*
X508189Y110125D01*
X508203Y110111D01*
X508302Y109970D01*
X508429Y109843D01*
X508556Y109744D01*
X508683Y109660D01*
X508795Y109603D01*
X508880Y109561D01*
X508936Y109533D01*
X508965Y109519D01*
X509162Y109462D01*
X509388Y109420D01*
X509613Y109392D01*
X509839Y109378D01*
X510036Y109363D01*
X510205Y109349D01*
X513109D01*
Y112578D01*
D02*
G37*
G36*
X129703Y122670D02*
X126630D01*
X126249Y122656D01*
X125925Y122599D01*
X125643Y122529D01*
X125432Y122444D01*
X125248Y122360D01*
X125136Y122289D01*
X125065Y122233D01*
X125037Y122219D01*
X124868Y122035D01*
X124741Y121852D01*
X124656Y121655D01*
X124586Y121486D01*
X124558Y121316D01*
X124544Y121189D01*
X124529Y121105D01*
Y121091D01*
Y121077D01*
X124544Y120907D01*
X124572Y120738D01*
X124614Y120597D01*
X124656Y120471D01*
X124713Y120358D01*
X124755Y120273D01*
X124783Y120217D01*
X124797Y120203D01*
X124896Y120062D01*
X125023Y119935D01*
X125150Y119836D01*
X125277Y119752D01*
X125389Y119695D01*
X125474Y119653D01*
X125530Y119625D01*
X125559Y119611D01*
X125756Y119554D01*
X125982Y119512D01*
X126207Y119484D01*
X126433Y119470D01*
X126630Y119455D01*
X126799Y119441D01*
X129703D01*
Y122670D01*
D02*
G37*
G36*
X130703Y148670D02*
X127630D01*
X127249Y148656D01*
X126925Y148599D01*
X126643Y148529D01*
X126432Y148444D01*
X126248Y148359D01*
X126136Y148289D01*
X126065Y148233D01*
X126037Y148219D01*
X125868Y148035D01*
X125741Y147852D01*
X125656Y147655D01*
X125586Y147486D01*
X125558Y147316D01*
X125544Y147190D01*
X125529Y147105D01*
Y147091D01*
Y147077D01*
X125544Y146908D01*
X125572Y146738D01*
X125614Y146597D01*
X125656Y146470D01*
X125713Y146358D01*
X125755Y146273D01*
X125783Y146217D01*
X125797Y146203D01*
X125896Y146062D01*
X126023Y145935D01*
X126150Y145836D01*
X126277Y145752D01*
X126389Y145695D01*
X126474Y145653D01*
X126530Y145625D01*
X126559Y145611D01*
X126756Y145554D01*
X126981Y145512D01*
X127207Y145484D01*
X127433Y145470D01*
X127630Y145456D01*
X127799Y145441D01*
X130703D01*
Y148670D01*
D02*
G37*
G36*
X448765Y213203D02*
X448654D01*
X448432Y213184D01*
X448228Y213166D01*
X447839Y213055D01*
X447506Y212907D01*
X447228Y212740D01*
X447006Y212573D01*
X446839Y212425D01*
X446746Y212314D01*
X446709Y212295D01*
Y212277D01*
X446543Y212036D01*
X446395Y211759D01*
X446302Y211481D01*
X446209Y211185D01*
X446154Y210944D01*
X446117Y210722D01*
Y210648D01*
X446098Y210592D01*
Y210555D01*
Y210536D01*
X451302D01*
X451246Y210962D01*
X451135Y211351D01*
X451005Y211684D01*
X450857Y211944D01*
X450728Y212166D01*
X450598Y212333D01*
X450524Y212425D01*
X450487Y212462D01*
X450191Y212703D01*
X449894Y212888D01*
X449580Y213018D01*
X449283Y213110D01*
X449043Y213166D01*
X448839Y213184D01*
X448765Y213203D01*
D02*
G37*
G36*
X419934D02*
X419823D01*
X419601Y213184D01*
X419398Y213166D01*
X419027Y213073D01*
X418694Y212925D01*
X418416Y212759D01*
X418194Y212592D01*
X418027Y212462D01*
X417916Y212351D01*
X417879Y212333D01*
Y212314D01*
X417731Y212147D01*
X417620Y211944D01*
X417416Y211536D01*
X417268Y211092D01*
X417175Y210685D01*
X417120Y210296D01*
X417101Y210129D01*
Y209981D01*
X417083Y209870D01*
Y209777D01*
Y209722D01*
Y209703D01*
Y209370D01*
X417120Y209055D01*
X417157Y208777D01*
X417212Y208500D01*
X417268Y208259D01*
X417342Y208037D01*
X417398Y207833D01*
X417472Y207648D01*
X417546Y207500D01*
X417620Y207352D01*
X417694Y207241D01*
X417749Y207148D01*
X417805Y207074D01*
X417842Y207018D01*
X417861Y207000D01*
X417879Y206981D01*
X418027Y206833D01*
X418194Y206685D01*
X418509Y206463D01*
X418842Y206315D01*
X419138Y206204D01*
X419416Y206148D01*
X419620Y206111D01*
X419712Y206092D01*
X419823D01*
X420046Y206111D01*
X420249Y206129D01*
X420638Y206222D01*
X420971Y206370D01*
X421249Y206537D01*
X421471Y206685D01*
X421638Y206833D01*
X421749Y206926D01*
X421768Y206963D01*
X421786D01*
X421916Y207148D01*
X422045Y207333D01*
X422230Y207759D01*
X422379Y208203D01*
X422471Y208648D01*
X422527Y209037D01*
X422545Y209203D01*
Y209351D01*
X422564Y209481D01*
Y209574D01*
Y209629D01*
Y209648D01*
X422545Y209962D01*
X422527Y210277D01*
X422490Y210555D01*
X422434Y210814D01*
X422379Y211055D01*
X422323Y211277D01*
X422249Y211462D01*
X422175Y211647D01*
X422101Y211796D01*
X422027Y211944D01*
X421971Y212055D01*
X421916Y212147D01*
X421860Y212222D01*
X421823Y212277D01*
X421786Y212295D01*
Y212314D01*
X421638Y212462D01*
X421471Y212610D01*
X421157Y212833D01*
X420823Y212981D01*
X420508Y213092D01*
X420231Y213166D01*
X420027Y213184D01*
X419934Y213203D01*
D02*
G37*
G36*
X119482Y145272D02*
X119397D01*
X119101Y145244D01*
X118833Y145174D01*
X118608Y145089D01*
X118411Y144976D01*
X118255Y144864D01*
X118143Y144779D01*
X118072Y144708D01*
X118044Y144680D01*
X117861Y144441D01*
X117720Y144187D01*
X117621Y143919D01*
X117565Y143665D01*
X117522Y143440D01*
X117508Y143341D01*
Y143256D01*
X117494Y143186D01*
Y143130D01*
Y143101D01*
Y143087D01*
X117522Y142707D01*
X117579Y142382D01*
X117663Y142100D01*
X117762Y141861D01*
X117875Y141678D01*
X117959Y141537D01*
X118016Y141452D01*
X118044Y141438D01*
Y141424D01*
X118143Y141311D01*
X118255Y141226D01*
X118481Y141071D01*
X118707Y140973D01*
X118904Y140888D01*
X119087Y140846D01*
X119228Y140832D01*
X119284Y140818D01*
X119355D01*
X119552Y140832D01*
X119736Y140860D01*
X119905Y140916D01*
X120046Y140973D01*
X120173Y141015D01*
X120271Y141071D01*
X120328Y141100D01*
X120356Y141114D01*
X120525Y141241D01*
X120666Y141367D01*
X120793Y141523D01*
X120892Y141649D01*
X120976Y141776D01*
X121032Y141875D01*
X121075Y141945D01*
X121089Y141974D01*
X121173Y142185D01*
X121230Y142396D01*
X121286Y142594D01*
X121314Y142777D01*
X121329Y142932D01*
X121343Y143059D01*
Y143130D01*
Y143158D01*
X121314Y143496D01*
X121258Y143792D01*
X121159Y144060D01*
X121061Y144271D01*
X120962Y144455D01*
X120863Y144581D01*
X120807Y144652D01*
X120779Y144680D01*
X120553Y144878D01*
X120328Y145019D01*
X120088Y145131D01*
X119877Y145202D01*
X119679Y145244D01*
X119538Y145258D01*
X119482Y145272D01*
D02*
G37*
G36*
X256559Y106703D02*
X253330D01*
Y103630D01*
X253344Y103249D01*
X253401Y102925D01*
X253471Y102643D01*
X253556Y102432D01*
X253640Y102248D01*
X253711Y102136D01*
X253767Y102065D01*
X253782Y102037D01*
X253965Y101868D01*
X254148Y101741D01*
X254345Y101656D01*
X254515Y101586D01*
X254684Y101558D01*
X254811Y101544D01*
X254895Y101530D01*
X254923D01*
X255093Y101544D01*
X255262Y101572D01*
X255403Y101614D01*
X255529Y101656D01*
X255642Y101713D01*
X255727Y101755D01*
X255783Y101783D01*
X255797Y101797D01*
X255938Y101896D01*
X256065Y102023D01*
X256164Y102150D01*
X256248Y102277D01*
X256305Y102389D01*
X256347Y102474D01*
X256375Y102530D01*
X256389Y102559D01*
X256446Y102756D01*
X256488Y102982D01*
X256516Y103207D01*
X256530Y103433D01*
X256544Y103630D01*
X256559Y103799D01*
Y103855D01*
Y103898D01*
Y103926D01*
Y103940D01*
Y106703D01*
D02*
G37*
G36*
X367107Y72340D02*
X364034D01*
X363653Y72326D01*
X363329Y72269D01*
X363047Y72199D01*
X362836Y72114D01*
X362652Y72030D01*
X362540Y71959D01*
X362469Y71903D01*
X362441Y71889D01*
X362272Y71705D01*
X362145Y71522D01*
X362060Y71325D01*
X361990Y71156D01*
X361962Y70986D01*
X361948Y70859D01*
X361934Y70775D01*
Y70761D01*
Y70747D01*
X361948Y70578D01*
X361976Y70408D01*
X362018Y70267D01*
X362060Y70141D01*
X362117Y70028D01*
X362159Y69943D01*
X362187Y69887D01*
X362201Y69873D01*
X362300Y69732D01*
X362427Y69605D01*
X362554Y69506D01*
X362681Y69422D01*
X362793Y69365D01*
X362878Y69323D01*
X362934Y69295D01*
X362962Y69281D01*
X363160Y69224D01*
X363386Y69182D01*
X363611Y69154D01*
X363837Y69140D01*
X364034Y69125D01*
X364203Y69111D01*
X367107D01*
Y72340D01*
D02*
G37*
G36*
X256201Y234559D02*
X253297D01*
Y231330D01*
X256370D01*
X256751Y231344D01*
X257075Y231401D01*
X257357Y231471D01*
X257568Y231556D01*
X257752Y231640D01*
X257864Y231711D01*
X257935Y231767D01*
X257963Y231782D01*
X258132Y231965D01*
X258259Y232148D01*
X258344Y232345D01*
X258414Y232514D01*
X258442Y232684D01*
X258456Y232810D01*
X258470Y232895D01*
Y232909D01*
Y232923D01*
X258456Y233092D01*
X258428Y233262D01*
X258386Y233403D01*
X258344Y233529D01*
X258287Y233642D01*
X258245Y233727D01*
X258217Y233783D01*
X258203Y233797D01*
X258104Y233938D01*
X257977Y234065D01*
X257850Y234164D01*
X257723Y234248D01*
X257611Y234305D01*
X257526Y234347D01*
X257470Y234375D01*
X257441Y234389D01*
X257244Y234446D01*
X257019Y234488D01*
X256793Y234516D01*
X256567Y234530D01*
X256370Y234545D01*
X256201Y234559D01*
D02*
G37*
G36*
X148994Y255672D02*
X148909D01*
X148613Y255644D01*
X148345Y255574D01*
X148120Y255489D01*
X147922Y255376D01*
X147767Y255264D01*
X147654Y255179D01*
X147584Y255108D01*
X147556Y255080D01*
X147373Y254841D01*
X147232Y254587D01*
X147133Y254319D01*
X147077Y254065D01*
X147034Y253840D01*
X147020Y253741D01*
Y253656D01*
X147006Y253586D01*
Y253529D01*
Y253501D01*
Y253487D01*
X147034Y253107D01*
X147091Y252782D01*
X147175Y252500D01*
X147274Y252261D01*
X147387Y252078D01*
X147471Y251937D01*
X147528Y251852D01*
X147556Y251838D01*
Y251824D01*
X147654Y251711D01*
X147767Y251626D01*
X147993Y251471D01*
X148218Y251373D01*
X148416Y251288D01*
X148599Y251246D01*
X148740Y251232D01*
X148796Y251218D01*
X148867D01*
X149064Y251232D01*
X149248Y251260D01*
X149417Y251316D01*
X149558Y251373D01*
X149684Y251415D01*
X149783Y251471D01*
X149840Y251500D01*
X149868Y251514D01*
X150037Y251640D01*
X150178Y251767D01*
X150305Y251922D01*
X150403Y252049D01*
X150488Y252176D01*
X150544Y252275D01*
X150587Y252345D01*
X150601Y252374D01*
X150685Y252585D01*
X150742Y252796D01*
X150798Y252994D01*
X150826Y253177D01*
X150841Y253332D01*
X150855Y253459D01*
Y253529D01*
Y253558D01*
X150826Y253896D01*
X150770Y254192D01*
X150671Y254460D01*
X150573Y254671D01*
X150474Y254855D01*
X150375Y254981D01*
X150319Y255052D01*
X150291Y255080D01*
X150065Y255278D01*
X149840Y255418D01*
X149600Y255531D01*
X149389Y255602D01*
X149191Y255644D01*
X149050Y255658D01*
X148994Y255672D01*
D02*
G37*
%LPD*%
D10*
X90000Y187750D02*
X105000D01*
X90000Y162250D02*
X105000D01*
X90000Y183250D02*
Y187750D01*
Y162250D02*
Y166750D01*
Y87750D02*
X105000D01*
X90000Y62250D02*
X105000D01*
X90000Y83250D02*
Y87750D01*
Y62250D02*
Y66750D01*
D24*
X247000Y204000D02*
G03*
X247000Y204000I-1500J0D01*
G01*
X205300Y207200D02*
X249300D01*
X205300Y142200D02*
Y207200D01*
Y142200D02*
X249300D01*
Y207200D01*
X192700Y241300D02*
Y266700D01*
X167300D02*
X192700D01*
X167300Y241300D02*
Y266700D01*
Y241300D02*
X192700D01*
X141900D02*
Y266700D01*
X116500D02*
X141900D01*
X116500Y241300D02*
Y266700D01*
Y241300D02*
X141900D01*
X280700Y60500D02*
Y85900D01*
X255300D02*
X280700D01*
X255300Y60500D02*
Y85900D01*
Y60500D02*
X280700D01*
Y111300D02*
Y136700D01*
X255300D02*
X280700D01*
X255300Y111300D02*
Y136700D01*
Y111300D02*
X280700D01*
D38*
X115250Y194250D02*
G03*
X115250Y194250I-1250J0D01*
G01*
Y94250D02*
G03*
X115250Y94250I-1250J0D01*
G01*
D39*
X136000Y103000D02*
Y123000D01*
X178500D01*
Y103000D02*
Y123000D01*
X136000Y103000D02*
X178500D01*
X136000Y134000D02*
Y154000D01*
X178500D01*
Y134000D02*
Y154000D01*
X136000Y134000D02*
X178500D01*
X326000Y116000D02*
X368500D01*
Y136000D01*
X326000D02*
X368500D01*
X326000Y116000D02*
Y136000D01*
X472000Y76000D02*
X514500D01*
Y96000D01*
X472000D02*
X514500D01*
X472000Y76000D02*
Y96000D01*
X326000Y36000D02*
X368500D01*
Y56000D01*
X326000D02*
X368500D01*
X326000Y36000D02*
Y56000D01*
X228000Y91500D02*
Y134000D01*
Y91500D02*
X248000D01*
Y134000D01*
X228000D02*
X248000D01*
X225000Y244000D02*
X267500D01*
Y264000D01*
X225000D02*
X267500D01*
X225000Y244000D02*
Y264000D01*
D40*
X278012Y228475D02*
Y247525D01*
X318652D01*
Y228475D02*
Y247525D01*
X278012Y228475D02*
X318652D01*
X226012Y210475D02*
Y229525D01*
X266652D01*
Y210475D02*
Y229525D01*
X226012Y210475D02*
X266652D01*
M02*
