%FSLAX44Y44*%
%MOMM*%
G71*
G01*
G75*
G04 Layer_Physical_Order=1*
G04 Layer_Color=255*
%ADD10R,2.0320X2.0320*%
%ADD11R,1.0000X0.8000*%
%ADD12R,0.8000X1.0000*%
%ADD13R,1.2700X1.2700*%
%ADD14R,1.0000X0.7000*%
%ADD15R,1.8000X0.4000*%
%ADD16C,0.2000*%
%ADD17C,0.4000*%
%ADD18C,0.3000*%
%ADD19C,1.2000*%
%ADD20R,1.2000X1.2000*%
%ADD21C,3.0000*%
%ADD22R,1.6000X1.6000*%
%ADD23C,0.8000*%
G36*
X251000Y211000D02*
X255350D01*
X255935Y208058D01*
X255461Y207861D01*
X253581Y206419D01*
X252139Y204539D01*
X251232Y202349D01*
X250922Y200000D01*
X251232Y197651D01*
X252139Y195461D01*
X253581Y193581D01*
X255461Y192139D01*
X257003Y191500D01*
Y188500D01*
X255461Y187861D01*
X253581Y186419D01*
X252139Y184539D01*
X251232Y182349D01*
X250922Y180000D01*
X251232Y177651D01*
X252139Y175461D01*
X253581Y173581D01*
X255461Y172139D01*
X257003Y171500D01*
Y168500D01*
X255461Y167861D01*
X253581Y166419D01*
X252139Y164539D01*
X251232Y162349D01*
X250922Y160000D01*
X251232Y157650D01*
X252139Y155461D01*
X253581Y153581D01*
X255461Y152139D01*
X257003Y151500D01*
Y148500D01*
X255461Y147861D01*
X253581Y146419D01*
X252139Y144539D01*
X251232Y142350D01*
X250922Y140000D01*
X251232Y137650D01*
X252139Y135461D01*
X253581Y133581D01*
X255461Y132139D01*
X257003Y131500D01*
Y128500D01*
X255461Y127861D01*
X253581Y126419D01*
X252139Y124539D01*
X251232Y122350D01*
X250922Y120000D01*
X251232Y117650D01*
X252139Y115461D01*
X253581Y113581D01*
X255461Y112139D01*
X257003Y111500D01*
Y108500D01*
X255461Y107861D01*
X253581Y106419D01*
X252139Y104539D01*
X251232Y102350D01*
X250922Y100000D01*
X251232Y97650D01*
X252139Y95461D01*
X253581Y93581D01*
X255461Y92139D01*
X257003Y91500D01*
Y88500D01*
X255461Y87861D01*
X253581Y86419D01*
X252139Y84539D01*
X251232Y82350D01*
X250922Y80000D01*
X251232Y77650D01*
X251678Y76573D01*
X250454Y74740D01*
X247460Y74544D01*
X247060Y75000D01*
X246820Y76827D01*
X246115Y78530D01*
X244992Y79992D01*
X243530Y81115D01*
X241827Y81820D01*
X240000Y82060D01*
X238173Y81820D01*
X236470Y81115D01*
X235008Y79992D01*
X234000Y78679D01*
X232219Y78679D01*
X230098Y80801D01*
Y150145D01*
X231115Y151470D01*
X231820Y153173D01*
X232060Y155000D01*
X231820Y156827D01*
X231115Y158530D01*
X230098Y159855D01*
Y168650D01*
X231624Y168750D01*
Y171250D01*
X230098Y171350D01*
Y208888D01*
X236112Y214902D01*
X251000D01*
Y211000D01*
D02*
G37*
G36*
X279837Y292323D02*
X279174Y291331D01*
X278941Y290160D01*
Y178400D01*
X279174Y177229D01*
X279837Y176237D01*
X280830Y175574D01*
X282000Y175341D01*
X304341D01*
Y102200D01*
X304574Y101030D01*
X305237Y100037D01*
X306229Y99374D01*
X307400Y99141D01*
X411088D01*
X411674Y96199D01*
X411470Y96115D01*
X410008Y94992D01*
X408885Y93530D01*
X408180Y91827D01*
X407940Y90000D01*
X408180Y88173D01*
X408885Y86470D01*
X410008Y85008D01*
X411470Y83885D01*
X413173Y83180D01*
X415000Y82940D01*
X416827Y83180D01*
X418530Y83885D01*
X419855Y84902D01*
X435000D01*
X436951Y85290D01*
X438605Y86395D01*
X438605Y86395D01*
X438605Y86395D01*
X443868Y91659D01*
X446640Y90511D01*
Y89040D01*
Y63640D01*
Y55478D01*
X406289D01*
X402910Y58858D01*
X403060Y60000D01*
X402820Y61827D01*
X402114Y63530D01*
X400992Y64992D01*
X399530Y66115D01*
X397827Y66820D01*
X396000Y67060D01*
X394173Y66820D01*
X392470Y66115D01*
X391007Y64992D01*
X389885Y63530D01*
X389180Y61827D01*
X388940Y60000D01*
X389180Y58173D01*
X389885Y56470D01*
X391007Y55008D01*
X392470Y53885D01*
X394173Y53180D01*
X396000Y52940D01*
X397142Y53090D01*
X401716Y48516D01*
X401716Y48516D01*
X403039Y47632D01*
X403298Y47581D01*
X404600Y47322D01*
X404600Y47322D01*
X446640D01*
Y38240D01*
Y30078D01*
X327000D01*
X325439Y29768D01*
X324116Y28884D01*
X324116Y28884D01*
X308311Y13078D01*
X295160D01*
Y38240D01*
Y63640D01*
Y70922D01*
X299306D01*
X300008Y70008D01*
X301470Y68885D01*
X303173Y68180D01*
X305000Y67940D01*
X306827Y68180D01*
X308530Y68885D01*
X309992Y70008D01*
X311115Y71470D01*
X311820Y73173D01*
X312060Y75000D01*
X311820Y76827D01*
X311115Y78530D01*
X309992Y79992D01*
X308530Y81115D01*
X306827Y81820D01*
X305000Y82060D01*
X303173Y81820D01*
X301470Y81115D01*
X300008Y79992D01*
X299306Y79078D01*
X295160D01*
Y89040D01*
Y114440D01*
Y139840D01*
Y151500D01*
X282000D01*
Y153000D01*
X280500D01*
Y166160D01*
X268840D01*
Y166160D01*
X266617Y166160D01*
X266419Y166419D01*
X264539Y167861D01*
X262997Y168500D01*
Y171500D01*
X264539Y172139D01*
X266419Y173581D01*
X267861Y175461D01*
X268768Y177651D01*
X269078Y180000D01*
X268768Y182349D01*
X267861Y184539D01*
X266419Y186419D01*
X264539Y187861D01*
X262997Y188500D01*
Y191500D01*
X264539Y192139D01*
X266419Y193581D01*
X267861Y195461D01*
X268768Y197651D01*
X269078Y200000D01*
X268768Y202349D01*
X267861Y204539D01*
X266419Y206419D01*
X264539Y207861D01*
X264065Y208058D01*
X264650Y211000D01*
X269000D01*
Y229000D01*
X251000D01*
Y225098D01*
X234000D01*
X232373Y224774D01*
X232049Y224710D01*
X230395Y223605D01*
X221395Y214605D01*
X220290Y212951D01*
X219902Y211000D01*
Y159855D01*
X218885Y158530D01*
X218180Y156827D01*
X217940Y155000D01*
X218180Y153173D01*
X218885Y151470D01*
X219902Y150145D01*
Y79855D01*
X218885Y78530D01*
X218180Y76827D01*
X217940Y75000D01*
X218180Y73173D01*
X218885Y71470D01*
X220008Y70008D01*
X221470Y68885D01*
X223173Y68180D01*
X225000Y67940D01*
X226827Y68180D01*
X228530Y68885D01*
X229993Y70008D01*
X231000Y71321D01*
X234000D01*
X235008Y70008D01*
X236470Y68885D01*
X238173Y68180D01*
X240000Y67940D01*
X240000Y67940D01*
X240000Y67940D01*
X242116Y67116D01*
D01*
X242116Y67116D01*
Y67116D01*
X243439Y66232D01*
X243698Y66181D01*
X245000Y65922D01*
X245000Y65922D01*
X250011D01*
X251678Y63427D01*
X251232Y62350D01*
X250922Y60000D01*
X251232Y57650D01*
X252139Y55461D01*
X253581Y53581D01*
X255461Y52139D01*
X257003Y51500D01*
Y48500D01*
X255461Y47861D01*
X253581Y46419D01*
X252139Y44539D01*
X251232Y42350D01*
X251120Y41500D01*
X260000D01*
Y40000D01*
X261500D01*
Y31120D01*
X262349Y31232D01*
X264539Y32139D01*
X266149Y33374D01*
X267658Y32631D01*
X268840Y31723D01*
Y13078D01*
X163689D01*
X149772Y26995D01*
X149968Y29989D01*
X149992Y30008D01*
X151115Y31470D01*
X151820Y33173D01*
X152060Y35000D01*
X151820Y36827D01*
X151115Y38530D01*
X149992Y39992D01*
X149078Y40694D01*
Y45769D01*
X151294Y48657D01*
X151573Y48843D01*
X153173Y48180D01*
X155000Y47940D01*
X156827Y48180D01*
X158530Y48885D01*
X159992Y50008D01*
X161115Y51470D01*
X161820Y53173D01*
X162060Y55000D01*
X161820Y56827D01*
X161115Y58530D01*
X159992Y59992D01*
X159078Y60694D01*
Y169306D01*
X159992Y170008D01*
X161115Y171470D01*
X161820Y173173D01*
X161981Y174399D01*
X164879Y175175D01*
X165007Y175007D01*
X166470Y173885D01*
X168173Y173180D01*
X170000Y172940D01*
X170000Y172940D01*
X169922Y172000D01*
X169922Y172000D01*
X169922D01*
X169922Y172000D01*
Y155000D01*
X169922Y155000D01*
X170181Y153698D01*
X170232Y153439D01*
X171116Y152116D01*
X171116Y152116D01*
X171116Y152116D01*
D01*
X171116D01*
Y152116D01*
D01*
X175922Y147311D01*
Y40694D01*
X175007Y39992D01*
X173885Y38530D01*
X173180Y36827D01*
X172940Y35000D01*
X173180Y33173D01*
X173885Y31470D01*
X175007Y30008D01*
X176470Y28886D01*
X178173Y28180D01*
X180000Y27940D01*
X181827Y28180D01*
X183530Y28886D01*
X184992Y30008D01*
X184992Y30008D01*
Y30008D01*
X186470Y28886D01*
D01*
X186470Y28886D01*
Y28886D01*
X188173Y28180D01*
X190000Y27940D01*
X191827Y28180D01*
X193530Y28886D01*
X194992Y30008D01*
X196115Y31470D01*
X196820Y33173D01*
X197060Y35000D01*
X196820Y36827D01*
X196115Y38530D01*
X194992Y39992D01*
X194078Y40694D01*
Y111234D01*
X195563Y111849D01*
X197943Y110023D01*
X197940Y110000D01*
X198180Y108173D01*
X198885Y106470D01*
X200008Y105008D01*
X201470Y103885D01*
X203173Y103180D01*
X205000Y102940D01*
X206827Y103180D01*
X208530Y103885D01*
X209992Y105008D01*
X211115Y106470D01*
X211820Y108173D01*
X212060Y110000D01*
X211820Y111827D01*
X211115Y113530D01*
X209992Y114993D01*
X208530Y116115D01*
X206827Y116820D01*
X205000Y117060D01*
X203858Y116910D01*
X199078Y121689D01*
Y220000D01*
X199078Y220000D01*
X198819Y221302D01*
X198768Y221561D01*
X197884Y222884D01*
X181384Y239384D01*
X180061Y240268D01*
X179802Y240319D01*
X178500Y240578D01*
X178500Y240578D01*
X140000D01*
Y241500D01*
X116000D01*
Y231500D01*
Y225000D01*
Y218500D01*
Y214578D01*
X111189D01*
X109078Y216689D01*
Y252511D01*
X125568Y269000D01*
X141800D01*
Y291000D01*
X119800D01*
Y276579D01*
X117306Y274912D01*
X116400Y275287D01*
Y278500D01*
X106900D01*
Y269000D01*
X110113D01*
X111261Y266228D01*
X102116Y257084D01*
X101232Y255761D01*
X101181Y255502D01*
X100922Y254200D01*
X100922Y254200D01*
Y246766D01*
X98150Y245618D01*
X84078Y259689D01*
Y269000D01*
X91000D01*
Y291000D01*
X69000D01*
Y269000D01*
X75922D01*
Y258000D01*
X75922Y258000D01*
X76181Y256698D01*
X76232Y256439D01*
X77116Y255116D01*
X77116Y255116D01*
X77116Y255116D01*
D01*
X77116D01*
Y255116D01*
D01*
X93922Y238311D01*
Y233876D01*
X91933Y229075D01*
X91666Y228841D01*
X90000Y229060D01*
X88173Y228820D01*
X86470Y228114D01*
X85008Y226992D01*
X83885Y225530D01*
X83666Y225000D01*
X82042D01*
X80600Y225287D01*
Y231500D01*
Y241500D01*
X56600D01*
Y231500D01*
Y225000D01*
Y218500D01*
Y212000D01*
Y208078D01*
X52689D01*
X52060Y210000D01*
Y210000D01*
X52060D01*
X52060Y210000D01*
X51820Y211827D01*
X51583Y212398D01*
X51583Y212398D01*
X51115Y213530D01*
Y213530D01*
X49992Y214993D01*
X48530Y216115D01*
X46827Y216820D01*
X45000Y217060D01*
X43173Y216820D01*
X41470Y216115D01*
X40008Y214993D01*
X39306Y214078D01*
X31000D01*
Y221000D01*
X10078D01*
Y224400D01*
X18500D01*
Y235400D01*
Y246400D01*
X15287D01*
X14912Y247306D01*
X16579Y249800D01*
X31000D01*
Y271800D01*
X9000D01*
Y256530D01*
X6506Y254864D01*
X5000Y255487D01*
Y295000D01*
X278048D01*
X279837Y292323D01*
D02*
G37*
G36*
X122912Y82050D02*
X104486D01*
D01*
D01*
X104486Y82050D01*
X101850D01*
Y82050D01*
X95598D01*
Y85700D01*
X97500Y85700D01*
D01*
D01*
X99500D01*
Y85700D01*
X105000D01*
Y93700D01*
X106500D01*
Y95200D01*
X113500D01*
Y101700D01*
X113500D01*
Y102079D01*
X115621Y104200D01*
X122912D01*
Y82050D01*
D02*
G37*
G36*
X56600Y179500D02*
Y179499D01*
X68600D01*
Y176500D01*
X56600D01*
Y173000D01*
X65385D01*
X65679Y170014D01*
X64439Y169768D01*
X63116Y168884D01*
X63116Y168884D01*
X43116Y148884D01*
X42232Y147561D01*
X42181Y147302D01*
X41922Y146000D01*
X41922Y146000D01*
Y100000D01*
X39000D01*
Y84000D01*
X42654D01*
D01*
X42463Y82895D01*
X41196Y81000D01*
X39000D01*
Y69725D01*
X36114Y68530D01*
X34992Y69992D01*
X34078Y70694D01*
Y155769D01*
X36294Y158657D01*
X36573Y158843D01*
X38173Y158180D01*
X38500Y158137D01*
Y165000D01*
X40000D01*
Y166500D01*
X46863D01*
X46820Y166827D01*
X46115Y168530D01*
X44992Y169992D01*
X43530Y171115D01*
X41827Y171820D01*
X41443Y171870D01*
X40479Y174711D01*
X46189Y180422D01*
X56600D01*
Y179500D01*
D02*
G37*
G36*
X116000Y173000D02*
X138252D01*
X138885Y171470D01*
X140007Y170008D01*
X140922Y169306D01*
Y40694D01*
X140007Y39992D01*
X138885Y38530D01*
X138180Y36827D01*
X137940Y35000D01*
X138180Y33173D01*
X138885Y31470D01*
X140007Y30008D01*
X140922Y29306D01*
Y26000D01*
X140922Y26000D01*
X141181Y24698D01*
X141232Y24439D01*
X142116Y23116D01*
X142116Y23116D01*
X142116Y23116D01*
D01*
X142116D01*
Y23116D01*
D01*
X157461Y7772D01*
X156313Y5000D01*
X5000D01*
Y149394D01*
X7994Y149590D01*
X8180Y148173D01*
X8885Y146470D01*
X10007Y145008D01*
X11470Y143885D01*
X13173Y143180D01*
X15000Y142940D01*
X16827Y143180D01*
X18530Y143885D01*
X19992Y145008D01*
X21114Y146470D01*
X21820Y148173D01*
X22060Y150000D01*
X21820Y151827D01*
X21114Y153530D01*
X19992Y154993D01*
X18530Y156115D01*
X16827Y156820D01*
X15000Y157060D01*
X13858Y156910D01*
X10078Y160689D01*
Y173600D01*
X14627D01*
X26155Y171307D01*
X26176Y171281D01*
X25922Y170000D01*
X25922Y170000D01*
Y70694D01*
X25008Y69992D01*
X23886Y68530D01*
X23180Y66827D01*
X22940Y65000D01*
X23180Y63173D01*
X23886Y61470D01*
X25008Y60008D01*
X26470Y58885D01*
X28173Y58180D01*
X30000Y57940D01*
X31827Y58180D01*
X33530Y58885D01*
X34992Y60008D01*
X36114Y61470D01*
X36820Y63173D01*
X37060Y65000D01*
X39000Y65000D01*
X39000Y65000D01*
X39000Y65000D01*
X53000D01*
Y65000D01*
X53000D01*
X53000Y65000D01*
X55000D01*
Y65000D01*
X69000D01*
Y65473D01*
X71691Y66800D01*
X71970Y66585D01*
X73673Y65880D01*
X75500Y65640D01*
X77327Y65880D01*
X79030Y66585D01*
X80355Y67602D01*
X83150D01*
Y63350D01*
X87402D01*
Y59612D01*
X76395Y48605D01*
X75290Y46951D01*
X74902Y45000D01*
Y41000D01*
X69000D01*
Y19000D01*
X91000D01*
Y41000D01*
X87129D01*
X85981Y43772D01*
X96105Y53895D01*
X97210Y55549D01*
X97598Y57500D01*
Y63350D01*
X101850D01*
Y63350D01*
X101850D01*
X101850Y63350D01*
X104486D01*
Y63350D01*
X123186D01*
Y68112D01*
X123500D01*
X125256Y68461D01*
X126744Y69456D01*
X130744Y73456D01*
X131739Y74944D01*
X132088Y76700D01*
Y108700D01*
D01*
Y108700D01*
X132088D01*
D01*
Y108700D01*
X132088D01*
Y108700D01*
X132088Y108700D01*
X132088Y108700D01*
D01*
D01*
D01*
D01*
X131739Y110456D01*
X131403Y110958D01*
X131403Y110958D01*
X130744Y111944D01*
Y111944D01*
X130744Y111944D01*
X128744Y113944D01*
X127256Y114939D01*
X126500Y115089D01*
Y117200D01*
Y117635D01*
X128618Y122749D01*
X128756Y122869D01*
X130500Y122640D01*
X132327Y122880D01*
X134030Y123586D01*
X135492Y124707D01*
X136615Y126170D01*
X137320Y127873D01*
X137561Y129700D01*
X137320Y131527D01*
X136615Y133230D01*
X135492Y134692D01*
X134030Y135814D01*
X132327Y136520D01*
X130500Y136760D01*
X129672Y137396D01*
X129500Y138700D01*
X129500Y138700D01*
X129500Y138700D01*
Y145200D01*
X122500D01*
Y146700D01*
X121000D01*
Y154700D01*
X115621D01*
X115621Y154700D01*
Y154700D01*
X115500Y154700D01*
X114500D01*
X113500D01*
X113379Y154700D01*
X113379Y154700D01*
Y154700D01*
X110578D01*
Y171811D01*
X112689Y173922D01*
X116000D01*
Y173000D01*
D02*
G37*
G36*
X495000Y5000D02*
X315687D01*
X314539Y7772D01*
X328689Y21922D01*
X446640D01*
Y12840D01*
X472960D01*
Y28879D01*
X475461Y32139D01*
X477650Y31232D01*
X480000Y30922D01*
X482350Y31232D01*
X484539Y32139D01*
X486419Y33581D01*
X487861Y35461D01*
X488768Y37650D01*
X489078Y40000D01*
X488768Y42350D01*
X487861Y44539D01*
X486419Y46419D01*
X484539Y47861D01*
X482997Y48500D01*
Y51500D01*
X484539Y52139D01*
X486419Y53581D01*
X487861Y55461D01*
X488768Y57650D01*
X489078Y60000D01*
X488768Y62350D01*
X487861Y64539D01*
X486419Y66419D01*
X484539Y67861D01*
X482997Y68500D01*
Y71500D01*
X484539Y72139D01*
X486419Y73581D01*
X487861Y75461D01*
X488768Y77650D01*
X489078Y80000D01*
X488768Y82350D01*
X487861Y84539D01*
X486419Y86419D01*
X484539Y87861D01*
X482997Y88500D01*
Y91500D01*
X484539Y92139D01*
X486419Y93581D01*
X487861Y95461D01*
X488768Y97650D01*
X489078Y100000D01*
X488768Y102350D01*
X487861Y104539D01*
X486419Y106419D01*
X484539Y107861D01*
X482997Y108500D01*
Y111500D01*
X484539Y112139D01*
X486419Y113581D01*
X487861Y115461D01*
X488768Y117650D01*
X489078Y120000D01*
X488768Y122350D01*
X487861Y124539D01*
X486419Y126419D01*
X484539Y127861D01*
X482997Y128500D01*
Y131500D01*
X484539Y132139D01*
X486419Y133581D01*
X487861Y135461D01*
X488768Y137650D01*
X489078Y140000D01*
X488768Y142350D01*
X487861Y144539D01*
X486419Y146419D01*
X484539Y147861D01*
X482997Y148500D01*
Y151500D01*
X484539Y152139D01*
X486419Y153581D01*
X487861Y155461D01*
X488768Y157650D01*
X489078Y160000D01*
X488768Y162349D01*
X487861Y164539D01*
X486419Y166419D01*
X484539Y167861D01*
X482997Y168500D01*
Y171500D01*
X484539Y172139D01*
X486419Y173581D01*
X487861Y175461D01*
X488768Y177651D01*
X489078Y180000D01*
X488768Y182349D01*
X487861Y184539D01*
X486419Y186419D01*
X484539Y187861D01*
X482997Y188500D01*
Y191500D01*
X484539Y192139D01*
X486419Y193581D01*
X487861Y195461D01*
X488768Y197651D01*
X489078Y200000D01*
X488768Y202349D01*
X487861Y204539D01*
X486419Y206419D01*
X484539Y207861D01*
X482997Y208500D01*
Y211500D01*
X484539Y212139D01*
X486419Y213581D01*
X487861Y215461D01*
X488768Y217651D01*
X489078Y220000D01*
X488768Y222349D01*
X487861Y224539D01*
X486419Y226419D01*
X484539Y227861D01*
X482350Y228768D01*
X480000Y229078D01*
X477650Y228768D01*
X475461Y227861D01*
X473581Y226419D01*
X472138Y224539D01*
X471232Y222349D01*
X470922Y220000D01*
X471232Y217651D01*
X472138Y215461D01*
X473581Y213581D01*
X475461Y212139D01*
X477003Y211500D01*
Y208500D01*
X475461Y207861D01*
X473581Y206419D01*
X472138Y204539D01*
X471232Y202349D01*
X470922Y200000D01*
X471232Y197651D01*
X472138Y195461D01*
X473581Y193581D01*
X475461Y192139D01*
X477003Y191500D01*
Y188500D01*
X475461Y187861D01*
X473581Y186419D01*
X472138Y184539D01*
X471232Y182349D01*
X470922Y180000D01*
X471232Y177651D01*
X472138Y175461D01*
X473581Y173581D01*
X475461Y172139D01*
X477003Y171500D01*
Y168500D01*
X475461Y167861D01*
X473581Y166419D01*
X473295Y166046D01*
X472960Y166160D01*
Y166160D01*
X472960Y166160D01*
X461300D01*
Y153000D01*
X458300D01*
Y166160D01*
X446640D01*
Y158755D01*
X444146Y157088D01*
X443827Y157220D01*
X443500Y157263D01*
Y150400D01*
X440500D01*
Y157263D01*
X440173Y157220D01*
X439953Y157129D01*
X437459Y158796D01*
Y175341D01*
X459800D01*
X460970Y175574D01*
X461963Y176237D01*
X462626Y177229D01*
X462859Y178400D01*
Y290160D01*
X462626Y291331D01*
X461963Y292323D01*
X463752Y295000D01*
X495000D01*
Y5000D01*
D02*
G37*
%LPC*%
G36*
X103900Y28500D02*
X94400D01*
Y19000D01*
X103900D01*
Y28500D01*
D02*
G37*
G36*
X129500Y154700D02*
X124000D01*
Y148200D01*
X129500D01*
Y154700D01*
D02*
G37*
G36*
X30000Y49092D02*
X26275Y48725D01*
X22694Y47639D01*
X19393Y45874D01*
X16500Y43500D01*
X14126Y40607D01*
X12361Y37306D01*
X11275Y33725D01*
X10908Y30000D01*
X11275Y26275D01*
X12361Y22694D01*
X14126Y19393D01*
X16500Y16500D01*
X19393Y14126D01*
X22694Y12361D01*
X26275Y11275D01*
X30000Y10908D01*
X33725Y11275D01*
X37306Y12361D01*
X40607Y14126D01*
X43500Y16500D01*
X45874Y19393D01*
X47639Y22694D01*
X48725Y26275D01*
X49092Y30000D01*
X48725Y33725D01*
X47639Y37306D01*
X45874Y40607D01*
X43500Y43500D01*
X40607Y45874D01*
X37306Y47639D01*
X33725Y48725D01*
X30000Y49092D01*
D02*
G37*
G36*
X295160Y166160D02*
X283500D01*
Y154500D01*
X295160D01*
Y166160D01*
D02*
G37*
G36*
X113500Y92200D02*
X108000D01*
Y85700D01*
X113500D01*
Y92200D01*
D02*
G37*
G36*
X116400Y41000D02*
X106900D01*
Y31500D01*
X116400D01*
Y41000D01*
D02*
G37*
G36*
X103900D02*
X94400D01*
Y31500D01*
X103900D01*
Y41000D01*
D02*
G37*
G36*
X116400Y28500D02*
X106900D01*
Y19000D01*
X116400D01*
Y28500D01*
D02*
G37*
G36*
X258500Y38500D02*
X251120D01*
X251232Y37650D01*
X252139Y35461D01*
X253581Y33581D01*
X255461Y32139D01*
X257651Y31232D01*
X258500Y31120D01*
Y38500D01*
D02*
G37*
G36*
X167200Y278500D02*
X157700D01*
Y269000D01*
X167200D01*
Y278500D01*
D02*
G37*
G36*
X154700D02*
X145200D01*
Y269000D01*
X154700D01*
Y278500D01*
D02*
G37*
G36*
X103900D02*
X94400D01*
Y269000D01*
X103900D01*
Y278500D01*
D02*
G37*
G36*
Y291000D02*
X94400D01*
Y281500D01*
X103900D01*
Y291000D01*
D02*
G37*
G36*
X167200D02*
X157700D01*
Y281500D01*
X167200D01*
Y291000D01*
D02*
G37*
G36*
X154700D02*
X145200D01*
Y281500D01*
X154700D01*
Y291000D01*
D02*
G37*
G36*
X116400D02*
X106900D01*
Y281500D01*
X116400D01*
Y291000D01*
D02*
G37*
G36*
X240000Y289092D02*
X236275Y288725D01*
X232694Y287639D01*
X229393Y285874D01*
X226500Y283500D01*
X224126Y280607D01*
X222361Y277306D01*
X221275Y273725D01*
X220908Y270000D01*
X221275Y266275D01*
X222361Y262694D01*
X224126Y259393D01*
X226500Y256500D01*
X229393Y254126D01*
X232694Y252361D01*
X236275Y251275D01*
X240000Y250908D01*
X243725Y251275D01*
X247306Y252361D01*
X250607Y254126D01*
X253500Y256500D01*
X255874Y259393D01*
X257639Y262694D01*
X258725Y266275D01*
X259092Y270000D01*
X258725Y273725D01*
X257639Y277306D01*
X255874Y280607D01*
X253500Y283500D01*
X250607Y285874D01*
X247306Y287639D01*
X243725Y288725D01*
X240000Y289092D01*
D02*
G37*
G36*
X246863Y168500D02*
X241500D01*
Y163137D01*
X241827Y163180D01*
X243530Y163885D01*
X244992Y165007D01*
X246115Y166470D01*
X246820Y168173D01*
X246863Y168500D01*
D02*
G37*
G36*
X238500D02*
X233137D01*
X233180Y168173D01*
X233885Y166470D01*
X235008Y165007D01*
X236470Y163885D01*
X238173Y163180D01*
X238500Y163137D01*
Y168500D01*
D02*
G37*
G36*
X46863Y163500D02*
X41500D01*
Y158137D01*
X41827Y158180D01*
X43530Y158885D01*
X44992Y160008D01*
X46115Y161470D01*
X46820Y163173D01*
X46863Y163500D01*
D02*
G37*
G36*
X238500Y176863D02*
X238173Y176820D01*
X236470Y176115D01*
X235008Y174992D01*
X233885Y173530D01*
X233180Y171827D01*
X233137Y171500D01*
X238500D01*
Y176863D01*
D02*
G37*
G36*
X31000Y246400D02*
X21500D01*
Y236900D01*
X31000D01*
Y246400D01*
D02*
G37*
G36*
Y233900D02*
X21500D01*
Y224400D01*
X31000D01*
Y233900D01*
D02*
G37*
G36*
X241500Y176863D02*
Y171500D01*
X246863D01*
X246820Y171827D01*
X246115Y173530D01*
X244992Y174992D01*
X243530Y176115D01*
X241827Y176820D01*
X241500Y176863D01*
D02*
G37*
%LPD*%
D10*
X459800Y153000D02*
D03*
Y127600D02*
D03*
Y102200D02*
D03*
Y76800D02*
D03*
Y51400D02*
D03*
Y26000D02*
D03*
X282000D02*
D03*
Y51400D02*
D03*
Y76800D02*
D03*
Y102200D02*
D03*
Y127600D02*
D03*
Y153000D02*
D03*
D11*
X75500Y113700D02*
D03*
Y129700D02*
D03*
D12*
X90500Y146700D02*
D03*
X74500D02*
D03*
X90500Y93700D02*
D03*
X106500D02*
D03*
Y146700D02*
D03*
X122500D02*
D03*
X62000Y92000D02*
D03*
X46000D02*
D03*
X62000Y73000D02*
D03*
X46000D02*
D03*
D13*
X113836Y72700D02*
D03*
X92500D02*
D03*
D14*
X118500Y110700D02*
D03*
Y120200D02*
D03*
Y129800D02*
D03*
X92600D02*
D03*
Y110700D02*
D03*
Y120200D02*
D03*
D15*
X68600Y178000D02*
D03*
Y184500D02*
D03*
Y191000D02*
D03*
Y197500D02*
D03*
Y204000D02*
D03*
Y210500D02*
D03*
Y217000D02*
D03*
Y223500D02*
D03*
Y230000D02*
D03*
Y236500D02*
D03*
X128000D02*
D03*
Y230000D02*
D03*
Y223500D02*
D03*
Y217000D02*
D03*
Y210500D02*
D03*
Y204000D02*
D03*
Y197500D02*
D03*
Y191000D02*
D03*
Y184500D02*
D03*
Y178000D02*
D03*
D16*
X0Y0D02*
Y300000D01*
X500000D01*
Y0D02*
Y300000D01*
X0Y0D02*
X500000D01*
X66000Y166000D02*
X82000D01*
X85000Y160000D02*
X109500Y184500D01*
X70000Y160000D02*
X85000D01*
X62000Y152000D02*
X70000Y160000D01*
X46000Y146000D02*
X66000Y166000D01*
X46000Y92000D02*
Y146000D01*
X62000Y92000D02*
Y152000D01*
X109500Y184500D02*
X128000D01*
X62000Y92000D02*
X62000Y92000D01*
X62000Y84000D02*
Y92000D01*
X60000Y82000D02*
X62000Y84000D01*
X48000Y82000D02*
X60000D01*
X46000Y80000D02*
X48000Y82000D01*
X46000Y73000D02*
Y80000D01*
X89500Y210500D02*
X90000Y210000D01*
X68600Y210500D02*
X89500D01*
X85000Y217000D02*
X90000Y222000D01*
X68600Y217000D02*
X85000D01*
X90500Y146700D02*
X106500D01*
X75500Y129700D02*
Y137700D01*
X74500Y138700D02*
X75500Y137700D01*
X74500Y138700D02*
Y146700D01*
X75500Y93700D02*
Y113700D01*
X75600Y129800D02*
X92600D01*
X75500Y129700D02*
X75600Y129800D01*
X20000Y210000D02*
X45000D01*
X51000Y204000D02*
X68600D01*
X45000Y210000D02*
X51000Y204000D01*
X32900Y197500D02*
X68600D01*
X20000Y184600D02*
X32900Y197500D01*
X62300Y72700D02*
X75500D01*
X62000Y73000D02*
X62300Y72700D01*
X53000Y178000D02*
X68600D01*
X404600Y51400D02*
X459800D01*
X396000Y60000D02*
X404600Y51400D01*
X260000Y137000D02*
Y140000D01*
Y137000D02*
X269400Y127600D01*
X282000D01*
X327000Y26000D02*
X459800D01*
X145000Y26000D02*
Y35000D01*
X283800Y75000D02*
X305000D01*
X282000Y76800D02*
X283800Y75000D01*
X260000Y200000D02*
X260000Y200000D01*
X145000Y26000D02*
X162000Y9000D01*
X310000D01*
X327000Y26000D01*
X282000Y153000D02*
Y165000D01*
X277000Y170000D02*
X282000Y165000D01*
X240000Y170000D02*
X277000D01*
X40000Y165000D02*
X53000Y178000D01*
X44500Y184500D02*
X68600D01*
X30000Y170000D02*
X44500Y184500D01*
X30000Y65000D02*
Y170000D01*
X145000Y35000D02*
Y175000D01*
X82000Y166000D02*
X89000Y173000D01*
Y186000D01*
X84000Y191000D02*
X89000Y186000D01*
X68600Y191000D02*
X84000D01*
X108000Y204000D02*
X128000D01*
X98000Y214000D02*
X108000Y204000D01*
X98000Y214000D02*
Y240000D01*
X80000Y258000D02*
X98000Y240000D01*
X80000Y258000D02*
Y280000D01*
X109500Y210500D02*
X128000D01*
X105000Y215000D02*
X109500Y210500D01*
X105000Y215000D02*
Y254200D01*
X130800Y280000D01*
X155000Y55000D02*
Y175000D01*
X128000Y191000D02*
X159000D01*
X160000Y190000D01*
X128000Y197500D02*
X167500D01*
X170000Y195000D01*
Y180000D02*
Y195000D01*
X106500Y146700D02*
Y173500D01*
X111000Y178000D01*
X128000D01*
X6000Y159000D02*
X15000Y150000D01*
X6000Y159000D02*
Y246800D01*
X20000Y260800D01*
X275200Y70000D02*
X282000Y76800D01*
X245000Y70000D02*
X275200D01*
X240000Y75000D02*
X245000Y70000D01*
X174000Y172000D02*
X177000Y175000D01*
X174000Y155000D02*
Y172000D01*
Y155000D02*
X180000Y149000D01*
Y35000D02*
Y149000D01*
X128000Y217000D02*
X170000D01*
X177000Y210000D01*
Y175000D02*
Y210000D01*
X128000Y223500D02*
X171500D01*
X182000Y213000D01*
Y165000D02*
Y213000D01*
X128000Y230000D02*
X173000D01*
X190000Y213000D01*
Y35000D02*
Y213000D01*
X128000Y236500D02*
X178500D01*
X195000Y220000D01*
Y120000D02*
Y220000D01*
Y120000D02*
X205000Y110000D01*
D17*
X106500Y93700D02*
Y101700D01*
X105500Y102700D02*
X106500Y101700D01*
X105500Y102700D02*
Y107700D01*
Y113700D01*
X112000Y120200D01*
X118500D01*
Y129800D02*
X130400D01*
X92600Y120200D02*
X102000D01*
X106500Y124700D01*
Y146700D01*
X90500Y93700D02*
Y108600D01*
Y74700D02*
Y93700D01*
X75500Y72700D02*
X92500D01*
X447200Y102200D02*
X459800D01*
X435000Y90000D02*
X447200Y102200D01*
X415000Y90000D02*
X435000D01*
X459800Y127600D02*
Y153000D01*
X444600Y127600D02*
X459800D01*
X442000Y125000D02*
X444600Y127600D01*
X442000Y150400D02*
X444600Y153000D01*
X459800D01*
X80000Y30000D02*
Y45000D01*
X92500Y57500D01*
Y72700D01*
X225000Y211000D02*
X234000Y220000D01*
X260000D01*
X225000Y155000D02*
Y211000D01*
Y75000D02*
Y155000D01*
D18*
X130400Y129800D02*
X130500Y129700D01*
X90500Y108600D02*
X92600Y110700D01*
X90500Y74700D02*
X92500Y72700D01*
X125500Y110700D02*
X127500Y108700D01*
X118500Y110700D02*
X125500D01*
X113836Y72700D02*
X123500D01*
X127500Y76700D01*
Y108700D01*
D19*
X480000Y220000D02*
D03*
Y200000D02*
D03*
Y180000D02*
D03*
Y160000D02*
D03*
Y140000D02*
D03*
Y120000D02*
D03*
Y100000D02*
D03*
Y80000D02*
D03*
Y60000D02*
D03*
Y40000D02*
D03*
X260000D02*
D03*
Y60000D02*
D03*
Y80000D02*
D03*
Y100000D02*
D03*
Y120000D02*
D03*
Y140000D02*
D03*
Y160000D02*
D03*
Y180000D02*
D03*
Y200000D02*
D03*
D20*
Y220000D02*
D03*
D21*
X240000Y270000D02*
D03*
X30000Y30000D02*
D03*
D22*
X80000D02*
D03*
X105400D02*
D03*
X80000Y280000D02*
D03*
X105400D02*
D03*
X156200D02*
D03*
X130800D02*
D03*
X20000Y260800D02*
D03*
Y235400D02*
D03*
Y210000D02*
D03*
Y184600D02*
D03*
D23*
X90000Y210000D02*
D03*
Y222000D02*
D03*
X105500Y107700D02*
D03*
X130500Y129700D02*
D03*
X75500Y72700D02*
D03*
Y93700D02*
D03*
X415000Y90000D02*
D03*
X45000Y210000D02*
D03*
X396000Y60000D02*
D03*
X442000Y125000D02*
D03*
Y150400D02*
D03*
X145000Y35000D02*
D03*
X305000Y75000D02*
D03*
X282000Y102200D02*
D03*
X240000Y170000D02*
D03*
X40000Y165000D02*
D03*
X30000Y65000D02*
D03*
X145000Y175000D02*
D03*
X155000D02*
D03*
X282000Y51400D02*
D03*
X155000Y55000D02*
D03*
X160000Y190000D02*
D03*
X170000Y180000D02*
D03*
X282000Y26000D02*
D03*
X180000Y35000D02*
D03*
X106500Y146700D02*
D03*
X15000Y150000D02*
D03*
X225000Y155000D02*
D03*
Y75000D02*
D03*
X240000D02*
D03*
X182000Y165000D02*
D03*
X190000Y35000D02*
D03*
X205000Y110000D02*
D03*
M02*
