M48
;Layer_Color=9474304
;FILE_FORMAT=4:4
METRIC,LZ
;TYPE=PLATED
T1F00S00C0.3000
T2F00S00C0.7000
T3F00S00C1.0000
T4F00S00C1.2000
;TYPE=NON_PLATED
T5F00S00C3.5000
%
T01
X00197Y00229
T02
X00309Y00026
Y00046
Y00066
Y00086
X00529
Y00066
Y00046
Y00026
Y00106
Y00126
Y00146
Y00166
Y00186
Y00206
X00309
Y00186
Y00166
Y00146
Y00126
Y00106
T03
X00268Y000732
Y00124
X00155Y00178
Y002034
X0018Y00254
X001292
X00038Y002758
Y00225
T04
X00038Y00025
Y00075
Y00125
Y00175
T05
X0015Y0003
X0052Y0027
M30
