G04*
G04 #@! TF.GenerationSoftware,Altium Limited,Altium Designer,19.1.9 (167)*
G04*
G04 Layer_Physical_Order=2*
G04 Layer_Color=16711680*
%FSLAX44Y44*%
%MOMM*%
G71*
G01*
G75*
%ADD11C,0.2000*%
%ADD44C,0.5000*%
%ADD45C,0.3000*%
%ADD46C,1.5000*%
%ADD47R,1.5000X1.5000*%
%ADD48C,6.0000*%
%ADD49C,0.8000*%
G36*
X495000Y5000D02*
X5000D01*
Y295000D01*
X495000D01*
Y5000D01*
D02*
G37*
%LPC*%
G36*
X209500Y289500D02*
X190500D01*
Y270500D01*
X209500D01*
Y289500D01*
D02*
G37*
G36*
X29500D02*
X10500D01*
Y270500D01*
X29500D01*
Y289500D01*
D02*
G37*
G36*
X21250Y264017D02*
Y255850D01*
X29417D01*
X29255Y257080D01*
X28298Y259391D01*
X26776Y261375D01*
X24791Y262898D01*
X22480Y263855D01*
X21250Y264017D01*
D02*
G37*
G36*
X18750D02*
X17520Y263855D01*
X15209Y262898D01*
X13225Y261375D01*
X11702Y259391D01*
X10745Y257080D01*
X10583Y255850D01*
X18750D01*
Y264017D01*
D02*
G37*
G36*
X29417Y253350D02*
X21250D01*
Y245183D01*
X22480Y245345D01*
X24791Y246302D01*
X26776Y247824D01*
X28298Y249809D01*
X29255Y252120D01*
X29417Y253350D01*
D02*
G37*
G36*
X18750D02*
X10583D01*
X10745Y252120D01*
X11702Y249809D01*
X13225Y247824D01*
X15209Y246302D01*
X17520Y245345D01*
X18750Y245183D01*
Y253350D01*
D02*
G37*
G36*
X200000Y264182D02*
X197520Y263855D01*
X195209Y262898D01*
X193225Y261375D01*
X191702Y259391D01*
X190745Y257080D01*
X190418Y254600D01*
X190745Y252120D01*
X191702Y249809D01*
X193225Y247824D01*
X195209Y246302D01*
X197520Y245345D01*
X200000Y245018D01*
X202480Y245345D01*
X204791Y246302D01*
X206775Y247824D01*
X208298Y249809D01*
X209256Y252120D01*
X209582Y254600D01*
X209256Y257080D01*
X208298Y259391D01*
X206775Y261375D01*
X204791Y262898D01*
X202480Y263855D01*
X200000Y264182D01*
D02*
G37*
G36*
X201250Y238617D02*
Y230450D01*
X209417D01*
X209256Y231680D01*
X208298Y233991D01*
X206775Y235975D01*
X204791Y237498D01*
X202480Y238456D01*
X201250Y238617D01*
D02*
G37*
G36*
X198750D02*
X197520Y238456D01*
X195209Y237498D01*
X193225Y235975D01*
X191702Y233991D01*
X190745Y231680D01*
X190583Y230450D01*
X198750D01*
Y238617D01*
D02*
G37*
G36*
X209417Y227950D02*
X201250D01*
Y219783D01*
X202480Y219944D01*
X204791Y220902D01*
X206775Y222425D01*
X208298Y224409D01*
X209256Y226720D01*
X209417Y227950D01*
D02*
G37*
G36*
X198750D02*
X190583D01*
X190745Y226720D01*
X191702Y224409D01*
X193225Y222425D01*
X195209Y220902D01*
X197520Y219944D01*
X198750Y219783D01*
Y227950D01*
D02*
G37*
G36*
X29500Y189500D02*
X10500D01*
Y170500D01*
X29500D01*
Y189500D01*
D02*
G37*
G36*
X97450Y150118D02*
X95109Y149652D01*
X93124Y148326D01*
X92618Y147569D01*
X88000D01*
X86634Y147297D01*
X85544Y146569D01*
X79732D01*
X79226Y147326D01*
X77241Y148652D01*
X74900Y149117D01*
X72559Y148652D01*
X70574Y147326D01*
X69248Y145341D01*
X68783Y143000D01*
X69248Y140659D01*
X70574Y138674D01*
X72559Y137348D01*
X74900Y136882D01*
X77241Y137348D01*
X79226Y138674D01*
X79732Y139431D01*
X87000D01*
X88366Y139703D01*
X89456Y140431D01*
X92618D01*
X92862Y140067D01*
Y85000D01*
Y59650D01*
X93211Y57894D01*
X94206Y56406D01*
X106075Y44537D01*
X106448Y42659D01*
X107774Y40674D01*
X109759Y39348D01*
X112100Y38883D01*
X114441Y39348D01*
X116426Y40674D01*
X117752Y42659D01*
X118217Y45000D01*
X117752Y47341D01*
X116426Y49326D01*
X114441Y50652D01*
X112563Y51025D01*
X102038Y61550D01*
Y80412D01*
X153099D01*
X160412Y73099D01*
Y48933D01*
X159348Y47341D01*
X158883Y45000D01*
X159348Y42659D01*
X160674Y40674D01*
X162659Y39348D01*
X165000Y38883D01*
X167341Y39348D01*
X169326Y40674D01*
X170652Y42659D01*
X171117Y45000D01*
X170652Y47341D01*
X169588Y48933D01*
Y75000D01*
X169239Y76756D01*
X168244Y78244D01*
X158244Y88244D01*
X156756Y89239D01*
X155000Y89588D01*
X102038D01*
Y140067D01*
X103102Y141659D01*
X103567Y144000D01*
X103102Y146341D01*
X101776Y148326D01*
X99791Y149652D01*
X97450Y150118D01*
D02*
G37*
G36*
X20000Y164182D02*
X17520Y163855D01*
X15209Y162898D01*
X13225Y161375D01*
X11702Y159391D01*
X10745Y157080D01*
X10418Y154600D01*
X10745Y152120D01*
X11702Y149809D01*
X13225Y147824D01*
X15209Y146302D01*
X17520Y145344D01*
X20000Y145018D01*
X22480Y145344D01*
X24791Y146302D01*
X26776Y147824D01*
X28298Y149809D01*
X29255Y152120D01*
X29582Y154600D01*
X29255Y157080D01*
X28298Y159391D01*
X26776Y161375D01*
X24791Y162898D01*
X22480Y163855D01*
X20000Y164182D01*
D02*
G37*
G36*
X21250Y138617D02*
Y130450D01*
X29417D01*
X29255Y131680D01*
X28298Y133991D01*
X26776Y135975D01*
X24791Y137498D01*
X22480Y138455D01*
X21250Y138617D01*
D02*
G37*
G36*
X18750D02*
X17520Y138455D01*
X15209Y137498D01*
X13225Y135975D01*
X11702Y133991D01*
X10745Y131680D01*
X10583Y130450D01*
X18750D01*
Y138617D01*
D02*
G37*
G36*
X29417Y127950D02*
X21250D01*
Y119783D01*
X22480Y119944D01*
X24791Y120902D01*
X26776Y122424D01*
X28298Y124409D01*
X29255Y126720D01*
X29417Y127950D01*
D02*
G37*
G36*
X18750D02*
X10583D01*
X10745Y126720D01*
X11702Y124409D01*
X13225Y122424D01*
X15209Y120902D01*
X17520Y119944D01*
X18750Y119783D01*
Y127950D01*
D02*
G37*
G36*
X21250Y113217D02*
Y105050D01*
X29417D01*
X29255Y106280D01*
X28298Y108591D01*
X26776Y110575D01*
X24791Y112098D01*
X22480Y113055D01*
X21250Y113217D01*
D02*
G37*
G36*
X18750D02*
X17520Y113055D01*
X15209Y112098D01*
X13225Y110575D01*
X11702Y108591D01*
X10745Y106280D01*
X10583Y105050D01*
X18750D01*
Y113217D01*
D02*
G37*
G36*
X29417Y102550D02*
X21250D01*
Y94383D01*
X22480Y94544D01*
X24791Y95502D01*
X26776Y97024D01*
X28298Y99009D01*
X29255Y101320D01*
X29417Y102550D01*
D02*
G37*
G36*
X18750D02*
X10583D01*
X10745Y101320D01*
X11702Y99009D01*
X13225Y97024D01*
X15209Y95502D01*
X17520Y94544D01*
X18750Y94383D01*
Y102550D01*
D02*
G37*
G36*
X209417Y73350D02*
X201250D01*
Y65183D01*
X202480Y65345D01*
X204791Y66302D01*
X206775Y67825D01*
X208298Y69809D01*
X209256Y72120D01*
X209417Y73350D01*
D02*
G37*
G36*
X198750D02*
X190583D01*
X190745Y72120D01*
X191702Y69809D01*
X193225Y67825D01*
X195209Y66302D01*
X197520Y65345D01*
X198750Y65183D01*
Y73350D01*
D02*
G37*
G36*
X259500Y209500D02*
X240500D01*
Y190500D01*
X245298D01*
X245696Y188500D01*
X245209Y188298D01*
X243225Y186775D01*
X241702Y184791D01*
X240744Y182480D01*
X240418Y180000D01*
X240744Y177520D01*
X241462Y175788D01*
X225837Y160163D01*
X225174Y159171D01*
X224941Y158000D01*
X224941Y158000D01*
Y129267D01*
X211448Y115773D01*
X209500Y116654D01*
X209500Y117059D01*
Y134900D01*
X190500D01*
Y117059D01*
X190500Y115900D01*
X188848Y115059D01*
X181267D01*
X174163Y122163D01*
X173171Y122826D01*
X172000Y123059D01*
X172000Y123059D01*
X125172D01*
X124326Y124326D01*
X122341Y125652D01*
X120000Y126117D01*
X117659Y125652D01*
X115674Y124326D01*
X114348Y122341D01*
X113882Y120000D01*
X114348Y117659D01*
X115674Y115674D01*
X116380Y115203D01*
Y112797D01*
X115674Y112326D01*
X114348Y110341D01*
X113882Y108000D01*
X114348Y105659D01*
X115674Y103674D01*
X117659Y102348D01*
X120000Y101882D01*
X122341Y102348D01*
X124326Y103674D01*
X125172Y104941D01*
X162733D01*
X181837Y85837D01*
X181837Y85837D01*
X182829Y85174D01*
X184000Y84941D01*
X184000Y84941D01*
X194915D01*
X195313Y82941D01*
X195209Y82898D01*
X193225Y81376D01*
X191702Y79391D01*
X190745Y77080D01*
X190583Y75850D01*
X200000D01*
X209417D01*
X209256Y77080D01*
X208298Y79391D01*
X206775Y81376D01*
X204791Y82898D01*
X204687Y82941D01*
X205085Y84941D01*
X208000D01*
X208000Y84941D01*
X209170Y85174D01*
X210163Y85837D01*
X235163Y110837D01*
X235163Y110837D01*
X235826Y111830D01*
X236059Y113000D01*
X236059Y113000D01*
Y143733D01*
X244541Y152215D01*
X245209Y151702D01*
X246704Y151082D01*
Y148918D01*
X245209Y148298D01*
X243225Y146776D01*
X241702Y144791D01*
X240744Y142480D01*
X240418Y140000D01*
X240744Y137520D01*
X241702Y135209D01*
X243225Y133225D01*
X245209Y131702D01*
X246704Y131082D01*
Y128918D01*
X245209Y128298D01*
X243225Y126776D01*
X241702Y124791D01*
X240744Y122480D01*
X240418Y120000D01*
X240744Y117520D01*
X241702Y115209D01*
X243225Y113225D01*
X245209Y111702D01*
X246704Y111082D01*
Y108918D01*
X245209Y108298D01*
X243225Y106776D01*
X241702Y104791D01*
X240744Y102480D01*
X240418Y100000D01*
X240744Y97520D01*
X241702Y95209D01*
X243225Y93225D01*
X245209Y91702D01*
X246704Y91082D01*
Y88918D01*
X245209Y88298D01*
X243225Y86775D01*
X241702Y84791D01*
X240744Y82480D01*
X240418Y80000D01*
X240744Y77520D01*
X241702Y75209D01*
X243225Y73225D01*
X245209Y71702D01*
X246704Y71082D01*
Y68918D01*
X245209Y68298D01*
X243225Y66775D01*
X241702Y64791D01*
X240744Y62480D01*
X240418Y60000D01*
X240744Y57520D01*
X241702Y55209D01*
X243225Y53225D01*
X245209Y51702D01*
X246704Y51082D01*
Y48918D01*
X245209Y48298D01*
X243225Y46775D01*
X241702Y44791D01*
X240744Y42480D01*
X240418Y40000D01*
X240744Y37520D01*
X241702Y35209D01*
X243225Y33224D01*
X245209Y31702D01*
X246704Y31082D01*
Y28918D01*
X245209Y28298D01*
X243225Y26775D01*
X241702Y24791D01*
X240744Y22480D01*
X240583Y21250D01*
X259417D01*
X259255Y22480D01*
X258298Y24791D01*
X256775Y26775D01*
X254791Y28298D01*
X253296Y28918D01*
Y31082D01*
X254791Y31702D01*
X256775Y33224D01*
X258298Y35209D01*
X259255Y37520D01*
X259582Y40000D01*
X259255Y42480D01*
X258298Y44791D01*
X256775Y46775D01*
X254791Y48298D01*
X253296Y48918D01*
Y51082D01*
X254791Y51702D01*
X256775Y53225D01*
X258298Y55209D01*
X259255Y57520D01*
X259582Y60000D01*
X259255Y62480D01*
X258298Y64791D01*
X256775Y66775D01*
X254791Y68298D01*
X253296Y68918D01*
Y71082D01*
X254791Y71702D01*
X256775Y73225D01*
X258298Y75209D01*
X259255Y77520D01*
X259582Y80000D01*
X259255Y82480D01*
X258298Y84791D01*
X256775Y86775D01*
X254791Y88298D01*
X253296Y88918D01*
Y91082D01*
X254791Y91702D01*
X256775Y93225D01*
X258298Y95209D01*
X259255Y97520D01*
X259582Y100000D01*
X259255Y102480D01*
X258298Y104791D01*
X256775Y106776D01*
X254791Y108298D01*
X253296Y108918D01*
Y111082D01*
X254791Y111702D01*
X256775Y113225D01*
X258298Y115209D01*
X259255Y117520D01*
X259582Y120000D01*
X259255Y122480D01*
X258298Y124791D01*
X256775Y126776D01*
X254791Y128298D01*
X253296Y128918D01*
Y131082D01*
X254791Y131702D01*
X256775Y133225D01*
X258298Y135209D01*
X259255Y137520D01*
X259582Y140000D01*
X259255Y142480D01*
X258298Y144791D01*
X256775Y146776D01*
X254791Y148298D01*
X253296Y148918D01*
Y151082D01*
X254791Y151702D01*
X256775Y153225D01*
X258298Y155209D01*
X259255Y157520D01*
X259582Y160000D01*
X259255Y162480D01*
X258298Y164791D01*
X256775Y166775D01*
X254791Y168298D01*
X253296Y168918D01*
Y171082D01*
X254791Y171702D01*
X256775Y173225D01*
X258298Y175209D01*
X259255Y177520D01*
X259582Y180000D01*
X259255Y182480D01*
X258298Y184791D01*
X256775Y186775D01*
X254791Y188298D01*
X254304Y188500D01*
X254701Y190500D01*
X259500D01*
Y209500D01*
D02*
G37*
G36*
X140000Y66118D02*
X137659Y65652D01*
X135674Y64326D01*
X134348Y62341D01*
X133883Y60000D01*
X134348Y57659D01*
X135674Y55674D01*
X136941Y54828D01*
Y27000D01*
X136941Y27000D01*
X137174Y25830D01*
X137837Y24837D01*
X141837Y20837D01*
X141837Y20837D01*
X142829Y20174D01*
X144000Y19941D01*
X189733D01*
X193837Y15837D01*
X193837Y15837D01*
X194830Y15174D01*
X196000Y14941D01*
X215828D01*
X216674Y13674D01*
X218659Y12348D01*
X221000Y11882D01*
X223341Y12348D01*
X225326Y13674D01*
X226652Y15659D01*
X227118Y18000D01*
X226652Y20341D01*
X225326Y22326D01*
X223341Y23652D01*
X221000Y24118D01*
X218659Y23652D01*
X216674Y22326D01*
X215828Y21059D01*
X197267D01*
X193163Y25163D01*
X192171Y25826D01*
X191000Y26059D01*
X191000Y26059D01*
X145267D01*
X143059Y28267D01*
Y54828D01*
X144326Y55674D01*
X145652Y57659D01*
X146117Y60000D01*
X145652Y62341D01*
X144326Y64326D01*
X142341Y65652D01*
X140000Y66118D01*
D02*
G37*
G36*
X259417Y18750D02*
X251250D01*
Y10583D01*
X252480Y10745D01*
X254791Y11702D01*
X256775Y13225D01*
X258298Y15209D01*
X259255Y17520D01*
X259417Y18750D01*
D02*
G37*
G36*
X248750D02*
X240583D01*
X240744Y17520D01*
X241702Y15209D01*
X243225Y13225D01*
X245209Y11702D01*
X247520Y10745D01*
X248750Y10583D01*
Y18750D01*
D02*
G37*
G36*
X470000Y209582D02*
X467520Y209256D01*
X465209Y208298D01*
X463224Y206775D01*
X461702Y204791D01*
X460745Y202480D01*
X460418Y200000D01*
X460745Y197520D01*
X461702Y195209D01*
X463224Y193225D01*
X465209Y191702D01*
X466704Y191082D01*
Y188918D01*
X465209Y188298D01*
X463224Y186775D01*
X461702Y184791D01*
X460745Y182480D01*
X460418Y180000D01*
X460745Y177520D01*
X461702Y175209D01*
X463224Y173225D01*
X465209Y171702D01*
X466704Y171082D01*
Y168918D01*
X465209Y168298D01*
X463224Y166775D01*
X461702Y164791D01*
X460745Y162480D01*
X460418Y160000D01*
X460745Y157520D01*
X461702Y155209D01*
X463224Y153225D01*
X465209Y151702D01*
X466704Y151082D01*
Y148918D01*
X465209Y148298D01*
X463224Y146776D01*
X461702Y144791D01*
X460745Y142480D01*
X460418Y140000D01*
X460745Y137520D01*
X461702Y135209D01*
X463224Y133225D01*
X465209Y131702D01*
X466704Y131082D01*
Y128918D01*
X465209Y128298D01*
X463224Y126776D01*
X461702Y124791D01*
X460745Y122480D01*
X460418Y120000D01*
X460745Y117520D01*
X461702Y115209D01*
X463224Y113225D01*
X465209Y111702D01*
X466704Y111082D01*
Y108918D01*
X465209Y108298D01*
X463224Y106776D01*
X461702Y104791D01*
X460745Y102480D01*
X460418Y100000D01*
X460745Y97520D01*
X461702Y95209D01*
X463224Y93225D01*
X465209Y91702D01*
X466704Y91082D01*
Y88918D01*
X465209Y88298D01*
X463224Y86775D01*
X461702Y84791D01*
X460745Y82480D01*
X460418Y80000D01*
X460745Y77520D01*
X461702Y75209D01*
X463224Y73225D01*
X465209Y71702D01*
X466704Y71082D01*
Y68918D01*
X465209Y68298D01*
X463224Y66775D01*
X461702Y64791D01*
X460745Y62480D01*
X460418Y60000D01*
X460745Y57520D01*
X461702Y55209D01*
X463224Y53225D01*
X465209Y51702D01*
X466704Y51082D01*
Y48918D01*
X465209Y48298D01*
X463224Y46775D01*
X461702Y44791D01*
X460745Y42480D01*
X460418Y40000D01*
X460745Y37520D01*
X461702Y35209D01*
X463224Y33224D01*
X465209Y31702D01*
X466704Y31082D01*
Y28918D01*
X465209Y28298D01*
X463224Y26775D01*
X461702Y24791D01*
X460745Y22480D01*
X460418Y20000D01*
X460745Y17520D01*
X461702Y15209D01*
X463224Y13225D01*
X465209Y11702D01*
X467520Y10745D01*
X470000Y10418D01*
X472480Y10745D01*
X474791Y11702D01*
X476775Y13225D01*
X478298Y15209D01*
X479255Y17520D01*
X479582Y20000D01*
X479255Y22480D01*
X478298Y24791D01*
X476775Y26775D01*
X474791Y28298D01*
X473296Y28918D01*
Y31082D01*
X474791Y31702D01*
X476775Y33224D01*
X478298Y35209D01*
X479255Y37520D01*
X479582Y40000D01*
X479255Y42480D01*
X478298Y44791D01*
X476775Y46775D01*
X474791Y48298D01*
X473296Y48918D01*
Y51082D01*
X474791Y51702D01*
X476775Y53225D01*
X478298Y55209D01*
X479255Y57520D01*
X479582Y60000D01*
X479255Y62480D01*
X478298Y64791D01*
X476775Y66775D01*
X474791Y68298D01*
X473296Y68918D01*
Y71082D01*
X474791Y71702D01*
X476775Y73225D01*
X478298Y75209D01*
X479255Y77520D01*
X479582Y80000D01*
X479255Y82480D01*
X478298Y84791D01*
X476775Y86775D01*
X474791Y88298D01*
X473296Y88918D01*
Y91082D01*
X474791Y91702D01*
X476775Y93225D01*
X478298Y95209D01*
X479255Y97520D01*
X479582Y100000D01*
X479255Y102480D01*
X478298Y104791D01*
X476775Y106776D01*
X474791Y108298D01*
X473296Y108918D01*
Y111082D01*
X474791Y111702D01*
X476775Y113225D01*
X478298Y115209D01*
X479255Y117520D01*
X479582Y120000D01*
X479255Y122480D01*
X478298Y124791D01*
X476775Y126776D01*
X474791Y128298D01*
X473296Y128918D01*
Y131082D01*
X474791Y131702D01*
X476775Y133225D01*
X478298Y135209D01*
X479255Y137520D01*
X479582Y140000D01*
X479255Y142480D01*
X478298Y144791D01*
X476775Y146776D01*
X474791Y148298D01*
X473296Y148918D01*
Y151082D01*
X474791Y151702D01*
X476775Y153225D01*
X478298Y155209D01*
X479255Y157520D01*
X479582Y160000D01*
X479255Y162480D01*
X478298Y164791D01*
X476775Y166775D01*
X474791Y168298D01*
X473296Y168918D01*
Y171082D01*
X474791Y171702D01*
X476775Y173225D01*
X478298Y175209D01*
X479255Y177520D01*
X479582Y180000D01*
X479255Y182480D01*
X478298Y184791D01*
X476775Y186775D01*
X474791Y188298D01*
X473296Y188918D01*
Y191082D01*
X474791Y191702D01*
X476775Y193225D01*
X478298Y195209D01*
X479255Y197520D01*
X479582Y200000D01*
X479255Y202480D01*
X478298Y204791D01*
X476775Y206775D01*
X474791Y208298D01*
X472480Y209256D01*
X470000Y209582D01*
D02*
G37*
%LPD*%
D11*
X164000Y108000D02*
X184000Y88000D01*
X120000Y108000D02*
X164000D01*
X219000Y18000D02*
X221000Y20000D01*
X196000Y18000D02*
X219000D01*
X191000Y23000D02*
X196000Y18000D01*
X144000Y23000D02*
X191000D01*
X140000Y27000D02*
X144000Y23000D01*
X219000Y18000D02*
X221000D01*
X140000Y27000D02*
Y60000D01*
X228000Y158000D02*
X250000Y180000D01*
X228000Y128000D02*
Y158000D01*
X212000Y112000D02*
X228000Y128000D01*
X233000Y145000D02*
X248000Y160000D01*
X250000D01*
X233000Y113000D02*
Y145000D01*
X208000Y88000D02*
X233000Y113000D01*
X184000Y88000D02*
X208000D01*
X180000Y112000D02*
X212000D01*
X172000Y120000D02*
X180000Y112000D01*
X120000Y120000D02*
X172000D01*
D44*
X97450Y85000D02*
Y144000D01*
Y59650D02*
Y85000D01*
X165000Y45000D02*
Y75000D01*
X155000Y85000D02*
X165000Y75000D01*
X97450Y85000D02*
X155000D01*
X97450Y59650D02*
X112100Y45000D01*
D45*
X74900Y143000D02*
X87000D01*
X88000Y144000D01*
X97450D01*
D46*
X200000Y100000D02*
D03*
Y74600D02*
D03*
Y254600D02*
D03*
Y229200D02*
D03*
X20000Y129200D02*
D03*
Y103800D02*
D03*
Y154600D02*
D03*
Y254600D02*
D03*
X470000Y20000D02*
D03*
Y40000D02*
D03*
Y80000D02*
D03*
Y60000D02*
D03*
Y200000D02*
D03*
Y160000D02*
D03*
Y180000D02*
D03*
Y140000D02*
D03*
Y120000D02*
D03*
Y100000D02*
D03*
X250000D02*
D03*
Y120000D02*
D03*
Y140000D02*
D03*
Y180000D02*
D03*
Y160000D02*
D03*
Y60000D02*
D03*
Y80000D02*
D03*
Y40000D02*
D03*
Y20000D02*
D03*
D47*
X200000Y125400D02*
D03*
Y280000D02*
D03*
X20000Y180000D02*
D03*
Y280000D02*
D03*
X250000Y200000D02*
D03*
D48*
X465000Y265000D02*
D03*
X35000Y35000D02*
D03*
D49*
X91000Y290000D02*
D03*
X100000Y240000D02*
D03*
X80000D02*
D03*
X174000Y129000D02*
D03*
X180000Y12450D02*
D03*
X163000D02*
D03*
X146000D02*
D03*
X112100Y45000D02*
D03*
X165000D02*
D03*
X221000Y30000D02*
D03*
X97450Y144000D02*
D03*
X74900Y143000D02*
D03*
X113000Y144000D02*
D03*
X149000Y155000D02*
D03*
X165000Y252000D02*
D03*
X138000Y236000D02*
D03*
X168000D02*
D03*
X91000Y267000D02*
D03*
Y255000D02*
D03*
X53000Y287550D02*
D03*
X221000Y18000D02*
D03*
X110000Y12000D02*
D03*
Y28000D02*
D03*
X140000Y60000D02*
D03*
X120000Y108000D02*
D03*
Y120000D02*
D03*
M02*
