M48
;Layer_Color=9474304
;FILE_FORMAT=4:4
METRIC,LZ
;TYPE=PLATED
T1F00S00C0.3000
T2F00S00C0.8000
T3F00S00C1.0000
T4F00S00C3.5000
%
T01
X0011Y00012
Y00028
X001121Y00045
X0014Y0006
X00165Y00045
X00163Y0001245
X00146
X0018
X00221Y00018
Y0003
X00174Y00129
X00149Y00155
X00113Y00144
X0009745Y00144
X0012Y0012
Y00108
X00138Y00236
X00168
X00165Y00252
X001Y0024
X00091Y00255
Y00267
Y0029
X00053Y0028755
X0008Y0024
X000749Y00143
T02
X0025Y0002
Y0004
Y0006
Y0008
X0047
Y0006
Y0004
Y0002
Y001
Y0012
Y0014
Y0016
Y0018
Y002
X0025
Y0018
Y0016
Y0014
Y0012
Y001
T03
X002Y000746
Y001
Y001254
Y002292
Y002546
Y0028
X0002
Y002546
Y0018
Y001546
Y001292
Y001038
T04
X00035Y00035
X00465Y00265
M30
