G04*
G04 #@! TF.GenerationSoftware,Altium Limited,Altium Designer,19.1.9 (167)*
G04*
G04 Layer_Color=32896*
%FSLAX44Y44*%
%MOMM*%
G71*
G01*
G75*
G36*
X330612Y265000D02*
X328983D01*
Y275054D01*
X322280Y265000D01*
X320521D01*
Y277813D01*
X322150D01*
Y267740D01*
X328872Y277813D01*
X330612D01*
Y265000D01*
D02*
G37*
G36*
X343500Y270407D02*
Y270037D01*
X343481Y269685D01*
X343463Y269351D01*
X343426Y269037D01*
X343389Y268759D01*
X343352Y268500D01*
X343296Y268259D01*
X343259Y268037D01*
X343222Y267833D01*
X343167Y267666D01*
X343130Y267518D01*
X343093Y267407D01*
X343056Y267315D01*
X343037Y267241D01*
X343019Y267204D01*
Y267185D01*
X342815Y266778D01*
X342556Y266407D01*
X342296Y266111D01*
X342019Y265852D01*
X341778Y265648D01*
X341574Y265500D01*
X341500Y265463D01*
X341445Y265426D01*
X341408Y265389D01*
X341389D01*
X340926Y265185D01*
X340445Y265037D01*
X339945Y264926D01*
X339482Y264852D01*
X339278Y264833D01*
X339075Y264815D01*
X338889Y264796D01*
X338741D01*
X338612Y264778D01*
X338445D01*
X337778Y264815D01*
X337482Y264852D01*
X337204Y264889D01*
X336927Y264944D01*
X336686Y265000D01*
X336464Y265056D01*
X336260Y265130D01*
X336075Y265204D01*
X335927Y265259D01*
X335779Y265315D01*
X335667Y265370D01*
X335575Y265426D01*
X335519Y265444D01*
X335482Y265481D01*
X335464D01*
X335056Y265759D01*
X334723Y266074D01*
X334464Y266370D01*
X334242Y266667D01*
X334075Y266926D01*
X333964Y267129D01*
X333927Y267204D01*
X333890Y267259D01*
X333871Y267296D01*
Y267315D01*
X333797Y267537D01*
X333723Y267778D01*
X333612Y268277D01*
X333538Y268796D01*
X333483Y269296D01*
X333464Y269518D01*
X333446Y269740D01*
Y269925D01*
X333427Y270092D01*
Y270222D01*
Y270314D01*
Y270388D01*
Y270407D01*
Y277813D01*
X335131D01*
Y270407D01*
Y269981D01*
X335168Y269574D01*
X335205Y269222D01*
X335260Y268888D01*
X335316Y268592D01*
X335390Y268314D01*
X335445Y268074D01*
X335519Y267870D01*
X335593Y267703D01*
X335667Y267537D01*
X335742Y267426D01*
X335797Y267315D01*
X335853Y267241D01*
X335890Y267185D01*
X335908Y267166D01*
X335927Y267148D01*
X336093Y267000D01*
X336278Y266870D01*
X336686Y266667D01*
X337112Y266518D01*
X337556Y266426D01*
X337963Y266352D01*
X338130Y266333D01*
X338297D01*
X338408Y266315D01*
X338593D01*
X338982Y266333D01*
X339334Y266389D01*
X339667Y266444D01*
X339926Y266537D01*
X340149Y266611D01*
X340315Y266667D01*
X340408Y266722D01*
X340445Y266740D01*
X340704Y266907D01*
X340926Y267111D01*
X341111Y267315D01*
X341241Y267500D01*
X341352Y267685D01*
X341445Y267815D01*
X341482Y267907D01*
X341500Y267944D01*
X341556Y268111D01*
X341593Y268277D01*
X341667Y268666D01*
X341722Y269074D01*
X341759Y269481D01*
X341778Y269833D01*
Y270000D01*
X341796Y270129D01*
Y270240D01*
Y270333D01*
Y270388D01*
Y270407D01*
Y277813D01*
X343500D01*
Y270407D01*
D02*
G37*
G36*
X290524Y274480D02*
X290857Y274443D01*
X291172Y274388D01*
X291468Y274295D01*
X291746Y274203D01*
X292005Y274092D01*
X292246Y273981D01*
X292450Y273851D01*
X292653Y273740D01*
X292820Y273610D01*
X292968Y273499D01*
X293079Y273407D01*
X293172Y273314D01*
X293246Y273258D01*
X293283Y273221D01*
X293302Y273203D01*
X293505Y272944D01*
X293690Y272666D01*
X293857Y272388D01*
X294005Y272092D01*
X294116Y271777D01*
X294209Y271481D01*
X294357Y270888D01*
X294412Y270629D01*
X294450Y270370D01*
X294468Y270148D01*
X294487Y269944D01*
X294505Y269777D01*
Y269666D01*
Y269574D01*
Y269555D01*
X294487Y269148D01*
X294450Y268759D01*
X294394Y268389D01*
X294320Y268055D01*
X294227Y267740D01*
X294135Y267444D01*
X294024Y267185D01*
X293913Y266944D01*
X293801Y266740D01*
X293690Y266555D01*
X293598Y266407D01*
X293505Y266278D01*
X293431Y266166D01*
X293376Y266092D01*
X293339Y266055D01*
X293320Y266037D01*
X293079Y265815D01*
X292839Y265630D01*
X292579Y265463D01*
X292302Y265315D01*
X292042Y265204D01*
X291765Y265093D01*
X291246Y264944D01*
X291005Y264907D01*
X290783Y264870D01*
X290580Y264833D01*
X290413Y264815D01*
X290283Y264796D01*
X290080D01*
X289506Y264833D01*
X288987Y264926D01*
X288524Y265037D01*
X288339Y265111D01*
X288154Y265185D01*
X287987Y265259D01*
X287839Y265333D01*
X287728Y265389D01*
X287617Y265444D01*
X287543Y265500D01*
X287487Y265537D01*
X287450Y265574D01*
X287432D01*
X287061Y265907D01*
X286765Y266259D01*
X286506Y266629D01*
X286321Y266981D01*
X286173Y267296D01*
X286117Y267444D01*
X286061Y267555D01*
X286024Y267666D01*
X286006Y267740D01*
X285987Y267778D01*
Y267796D01*
X287617Y268000D01*
X287765Y267648D01*
X287932Y267352D01*
X288098Y267092D01*
X288246Y266889D01*
X288376Y266740D01*
X288487Y266629D01*
X288580Y266555D01*
X288598Y266537D01*
X288839Y266389D01*
X289080Y266278D01*
X289339Y266204D01*
X289561Y266148D01*
X289765Y266111D01*
X289932Y266092D01*
X290080D01*
X290302Y266111D01*
X290506Y266129D01*
X290876Y266222D01*
X291209Y266352D01*
X291505Y266500D01*
X291728Y266629D01*
X291894Y266759D01*
X292005Y266852D01*
X292024Y266889D01*
X292042D01*
X292302Y267222D01*
X292505Y267592D01*
X292653Y268000D01*
X292764Y268370D01*
X292820Y268703D01*
X292857Y268851D01*
X292876Y268981D01*
Y269092D01*
X292894Y269166D01*
Y269222D01*
Y269240D01*
X285950D01*
X285932Y269425D01*
Y269555D01*
Y269629D01*
Y269648D01*
X285950Y270074D01*
X285987Y270462D01*
X286043Y270833D01*
X286117Y271185D01*
X286210Y271499D01*
X286302Y271796D01*
X286413Y272055D01*
X286524Y272295D01*
X286635Y272518D01*
X286747Y272703D01*
X286839Y272851D01*
X286932Y272981D01*
X287006Y273092D01*
X287061Y273166D01*
X287098Y273203D01*
X287117Y273221D01*
X287339Y273444D01*
X287580Y273647D01*
X287839Y273814D01*
X288098Y273962D01*
X288358Y274092D01*
X288598Y274184D01*
X288857Y274277D01*
X289080Y274332D01*
X289320Y274388D01*
X289524Y274425D01*
X289709Y274462D01*
X289857Y274480D01*
X289987Y274499D01*
X290172D01*
X290524Y274480D01*
D02*
G37*
G36*
X317392Y265000D02*
X315688D01*
Y277813D01*
X317392D01*
Y265000D01*
D02*
G37*
G36*
X280007Y274480D02*
X280340Y274425D01*
X280636Y274351D01*
X280932Y274258D01*
X281192Y274147D01*
X281432Y274018D01*
X281655Y273869D01*
X281840Y273740D01*
X282025Y273592D01*
X282173Y273444D01*
X282303Y273314D01*
X282414Y273203D01*
X282488Y273110D01*
X282543Y273036D01*
X282580Y272981D01*
X282599Y272962D01*
Y274295D01*
X284006D01*
Y265000D01*
X282432D01*
Y270055D01*
Y270370D01*
X282395Y270685D01*
X282358Y270944D01*
X282321Y271185D01*
X282266Y271407D01*
X282210Y271610D01*
X282136Y271796D01*
X282062Y271944D01*
X282006Y272073D01*
X281932Y272184D01*
X281877Y272277D01*
X281821Y272351D01*
X281747Y272444D01*
X281710Y272481D01*
X281432Y272703D01*
X281136Y272851D01*
X280840Y272962D01*
X280581Y273055D01*
X280340Y273092D01*
X280155Y273110D01*
X280081Y273129D01*
X279988D01*
X279766Y273110D01*
X279544Y273092D01*
X279359Y273036D01*
X279210Y272981D01*
X279081Y272925D01*
X278970Y272888D01*
X278914Y272851D01*
X278896Y272833D01*
X278729Y272721D01*
X278581Y272592D01*
X278470Y272462D01*
X278377Y272351D01*
X278322Y272240D01*
X278266Y272147D01*
X278229Y272092D01*
Y272073D01*
X278173Y271870D01*
X278118Y271647D01*
X278081Y271407D01*
X278062Y271166D01*
X278044Y270962D01*
Y270796D01*
Y270666D01*
Y270648D01*
Y270629D01*
Y265000D01*
X276470D01*
Y270703D01*
Y271092D01*
X276488Y271407D01*
X276507Y271666D01*
Y271888D01*
X276525Y272036D01*
X276544Y272147D01*
X276562Y272222D01*
Y272240D01*
X276618Y272481D01*
X276711Y272703D01*
X276785Y272888D01*
X276859Y273073D01*
X276951Y273203D01*
X277007Y273295D01*
X277044Y273370D01*
X277062Y273388D01*
X277211Y273573D01*
X277377Y273721D01*
X277544Y273869D01*
X277729Y273981D01*
X277877Y274073D01*
X278007Y274129D01*
X278081Y274166D01*
X278118Y274184D01*
X278377Y274295D01*
X278655Y274369D01*
X278914Y274425D01*
X279155Y274462D01*
X279359Y274480D01*
X279507Y274499D01*
X279655D01*
X280007Y274480D01*
D02*
G37*
G36*
X251917Y274480D02*
X252102Y274443D01*
X252287Y274388D01*
X252435Y274332D01*
X252547Y274277D01*
X252658Y274221D01*
X252713Y274184D01*
X252732Y274166D01*
X252898Y274018D01*
X253065Y273832D01*
X253232Y273610D01*
X253380Y273407D01*
X253528Y273203D01*
X253620Y273036D01*
X253694Y272906D01*
X253713Y272888D01*
Y274295D01*
X255139D01*
Y265000D01*
X253565D01*
Y269851D01*
X253546Y270222D01*
X253528Y270555D01*
X253491Y270870D01*
X253435Y271147D01*
X253380Y271370D01*
X253343Y271536D01*
X253324Y271647D01*
X253306Y271684D01*
X253232Y271888D01*
X253139Y272055D01*
X253046Y272203D01*
X252954Y272332D01*
X252861Y272425D01*
X252806Y272499D01*
X252750Y272536D01*
X252732Y272555D01*
X252584Y272666D01*
X252417Y272740D01*
X252250Y272795D01*
X252121Y272833D01*
X251991Y272851D01*
X251898Y272869D01*
X251806D01*
X251602Y272851D01*
X251398Y272814D01*
X251195Y272758D01*
X251028Y272703D01*
X250880Y272647D01*
X250769Y272592D01*
X250695Y272555D01*
X250676Y272536D01*
X250102Y273981D01*
X250417Y274147D01*
X250713Y274277D01*
X250972Y274369D01*
X251213Y274443D01*
X251417Y274480D01*
X251584Y274499D01*
X251713D01*
X251917Y274480D01*
D02*
G37*
G36*
X300412Y274462D02*
X300634Y274443D01*
X300838Y274406D01*
X301004Y274369D01*
X301134Y274332D01*
X301208Y274314D01*
X301245Y274295D01*
X301467Y274221D01*
X301671Y274147D01*
X301838Y274073D01*
X301986Y273999D01*
X302097Y273944D01*
X302171Y273888D01*
X302227Y273869D01*
X302245Y273851D01*
X302430Y273721D01*
X302578Y273573D01*
X302708Y273407D01*
X302819Y273277D01*
X302912Y273147D01*
X302967Y273055D01*
X303004Y272981D01*
X303023Y272962D01*
X303115Y272758D01*
X303189Y272573D01*
X303226Y272370D01*
X303263Y272203D01*
X303282Y272036D01*
X303300Y271925D01*
Y271851D01*
Y271814D01*
X303282Y271555D01*
X303245Y271333D01*
X303189Y271110D01*
X303134Y270925D01*
X303078Y270777D01*
X303023Y270648D01*
X302986Y270574D01*
X302967Y270555D01*
X302819Y270351D01*
X302652Y270185D01*
X302486Y270037D01*
X302319Y269907D01*
X302171Y269814D01*
X302060Y269740D01*
X301986Y269703D01*
X301949Y269685D01*
X301819Y269629D01*
X301653Y269555D01*
X301282Y269425D01*
X300893Y269314D01*
X300486Y269185D01*
X300134Y269092D01*
X299967Y269037D01*
X299819Y269000D01*
X299708Y268962D01*
X299616Y268944D01*
X299560Y268925D01*
X299542D01*
X299301Y268870D01*
X299097Y268814D01*
X298912Y268759D01*
X298745Y268703D01*
X298597Y268666D01*
X298468Y268611D01*
X298245Y268537D01*
X298097Y268481D01*
X298005Y268426D01*
X297949Y268407D01*
X297931Y268389D01*
X297764Y268277D01*
X297653Y268129D01*
X297560Y268000D01*
X297505Y267870D01*
X297468Y267740D01*
X297449Y267648D01*
Y267574D01*
Y267555D01*
X297468Y267333D01*
X297523Y267148D01*
X297616Y266963D01*
X297708Y266815D01*
X297819Y266685D01*
X297894Y266592D01*
X297968Y266537D01*
X297986Y266518D01*
X298208Y266370D01*
X298449Y266278D01*
X298727Y266204D01*
X298986Y266148D01*
X299227Y266111D01*
X299412Y266092D01*
X299597D01*
X299986Y266111D01*
X300319Y266166D01*
X300597Y266241D01*
X300838Y266333D01*
X301023Y266426D01*
X301171Y266500D01*
X301245Y266555D01*
X301282Y266574D01*
X301486Y266778D01*
X301653Y267018D01*
X301764Y267259D01*
X301856Y267481D01*
X301930Y267685D01*
X301967Y267870D01*
X302004Y267981D01*
Y268000D01*
Y268018D01*
X303560Y267778D01*
X303430Y267259D01*
X303263Y266796D01*
X303060Y266426D01*
X302856Y266111D01*
X302671Y265852D01*
X302504Y265685D01*
X302393Y265574D01*
X302375Y265555D01*
X302356Y265537D01*
X302171Y265407D01*
X301967Y265296D01*
X301523Y265111D01*
X301060Y264981D01*
X300616Y264889D01*
X300412Y264852D01*
X300227Y264833D01*
X300042Y264815D01*
X299893D01*
X299764Y264796D01*
X299597D01*
X299190Y264815D01*
X298838Y264852D01*
X298505Y264907D01*
X298208Y264981D01*
X297968Y265056D01*
X297782Y265111D01*
X297671Y265148D01*
X297653Y265167D01*
X297634D01*
X297320Y265333D01*
X297060Y265500D01*
X296838Y265685D01*
X296635Y265852D01*
X296486Y266000D01*
X296394Y266129D01*
X296320Y266204D01*
X296301Y266241D01*
X296153Y266500D01*
X296042Y266778D01*
X295949Y267018D01*
X295894Y267241D01*
X295857Y267444D01*
X295838Y267592D01*
Y267685D01*
Y267722D01*
X295857Y268018D01*
X295894Y268277D01*
X295968Y268500D01*
X296023Y268703D01*
X296098Y268870D01*
X296172Y268981D01*
X296209Y269055D01*
X296227Y269074D01*
X296375Y269259D01*
X296542Y269425D01*
X296709Y269574D01*
X296875Y269685D01*
X297042Y269777D01*
X297153Y269833D01*
X297227Y269870D01*
X297264Y269888D01*
X297394Y269944D01*
X297542Y270000D01*
X297894Y270129D01*
X298283Y270259D01*
X298671Y270370D01*
X299023Y270481D01*
X299190Y270518D01*
X299319Y270555D01*
X299431Y270592D01*
X299523Y270611D01*
X299579Y270629D01*
X299597D01*
X299801Y270685D01*
X299986Y270740D01*
X300153Y270777D01*
X300301Y270833D01*
X300541Y270888D01*
X300727Y270944D01*
X300856Y270999D01*
X300930Y271018D01*
X300967Y271036D01*
X300986D01*
X301134Y271110D01*
X301264Y271166D01*
X301375Y271240D01*
X301449Y271296D01*
X301523Y271351D01*
X301560Y271407D01*
X301578Y271425D01*
X301597Y271444D01*
X301708Y271629D01*
X301764Y271814D01*
Y271888D01*
X301782Y271944D01*
Y271981D01*
Y271999D01*
X301764Y272166D01*
X301708Y272333D01*
X301634Y272481D01*
X301541Y272592D01*
X301467Y272703D01*
X301393Y272777D01*
X301338Y272814D01*
X301319Y272833D01*
X301115Y272962D01*
X300875Y273055D01*
X300616Y273110D01*
X300375Y273166D01*
X300134Y273184D01*
X299949Y273203D01*
X299764D01*
X299449Y273184D01*
X299153Y273147D01*
X298912Y273073D01*
X298727Y272999D01*
X298560Y272925D01*
X298449Y272851D01*
X298375Y272814D01*
X298356Y272796D01*
X298171Y272629D01*
X298042Y272444D01*
X297931Y272258D01*
X297838Y272092D01*
X297782Y271925D01*
X297745Y271796D01*
X297727Y271721D01*
Y271684D01*
X296190Y271888D01*
X296264Y272203D01*
X296338Y272481D01*
X296431Y272721D01*
X296523Y272944D01*
X296616Y273092D01*
X296690Y273221D01*
X296727Y273295D01*
X296746Y273314D01*
X296912Y273499D01*
X297097Y273666D01*
X297301Y273814D01*
X297505Y273944D01*
X297690Y274036D01*
X297838Y274110D01*
X297931Y274147D01*
X297949Y274166D01*
X297968D01*
X298283Y274277D01*
X298616Y274351D01*
X298930Y274425D01*
X299227Y274462D01*
X299505Y274480D01*
X299708Y274499D01*
X300153D01*
X300412Y274462D01*
D02*
G37*
G36*
X271526D02*
X271748Y274443D01*
X271952Y274406D01*
X272118Y274369D01*
X272248Y274332D01*
X272322Y274314D01*
X272359Y274295D01*
X272581Y274221D01*
X272785Y274147D01*
X272952Y274073D01*
X273100Y273999D01*
X273211Y273944D01*
X273285Y273888D01*
X273341Y273869D01*
X273359Y273851D01*
X273544Y273721D01*
X273692Y273573D01*
X273822Y273407D01*
X273933Y273277D01*
X274026Y273147D01*
X274081Y273055D01*
X274118Y272981D01*
X274137Y272962D01*
X274229Y272758D01*
X274303Y272573D01*
X274340Y272370D01*
X274377Y272203D01*
X274396Y272036D01*
X274415Y271925D01*
Y271851D01*
Y271814D01*
X274396Y271555D01*
X274359Y271333D01*
X274303Y271110D01*
X274248Y270925D01*
X274192Y270777D01*
X274137Y270648D01*
X274100Y270574D01*
X274081Y270555D01*
X273933Y270351D01*
X273766Y270185D01*
X273600Y270037D01*
X273433Y269907D01*
X273285Y269814D01*
X273174Y269740D01*
X273100Y269703D01*
X273063Y269685D01*
X272933Y269629D01*
X272767Y269555D01*
X272396Y269425D01*
X272007Y269314D01*
X271600Y269185D01*
X271248Y269092D01*
X271082Y269037D01*
X270933Y269000D01*
X270822Y268962D01*
X270730Y268944D01*
X270674Y268925D01*
X270656D01*
X270415Y268870D01*
X270211Y268814D01*
X270026Y268759D01*
X269860Y268703D01*
X269711Y268666D01*
X269582Y268611D01*
X269359Y268537D01*
X269211Y268481D01*
X269119Y268426D01*
X269063Y268407D01*
X269045Y268389D01*
X268878Y268277D01*
X268767Y268129D01*
X268674Y268000D01*
X268619Y267870D01*
X268582Y267740D01*
X268563Y267648D01*
Y267574D01*
Y267555D01*
X268582Y267333D01*
X268637Y267148D01*
X268730Y266963D01*
X268823Y266815D01*
X268934Y266685D01*
X269008Y266592D01*
X269082Y266537D01*
X269100Y266518D01*
X269322Y266370D01*
X269563Y266278D01*
X269841Y266203D01*
X270100Y266148D01*
X270341Y266111D01*
X270526Y266092D01*
X270711D01*
X271100Y266111D01*
X271433Y266166D01*
X271711Y266241D01*
X271952Y266333D01*
X272137Y266426D01*
X272285Y266500D01*
X272359Y266555D01*
X272396Y266574D01*
X272600Y266778D01*
X272767Y267018D01*
X272878Y267259D01*
X272970Y267481D01*
X273044Y267685D01*
X273081Y267870D01*
X273118Y267981D01*
Y268000D01*
Y268018D01*
X274674Y267778D01*
X274544Y267259D01*
X274377Y266796D01*
X274174Y266426D01*
X273970Y266111D01*
X273785Y265852D01*
X273618Y265685D01*
X273507Y265574D01*
X273489Y265555D01*
X273470Y265537D01*
X273285Y265407D01*
X273081Y265296D01*
X272637Y265111D01*
X272174Y264981D01*
X271730Y264889D01*
X271526Y264852D01*
X271341Y264833D01*
X271156Y264815D01*
X271007D01*
X270878Y264796D01*
X270711Y264796D01*
X270304Y264815D01*
X269952Y264852D01*
X269619Y264907D01*
X269322Y264981D01*
X269082Y265056D01*
X268897Y265111D01*
X268785Y265148D01*
X268767Y265167D01*
X268748D01*
X268434Y265333D01*
X268174Y265500D01*
X267952Y265685D01*
X267749Y265852D01*
X267600Y266000D01*
X267508Y266129D01*
X267434Y266203D01*
X267415Y266241D01*
X267267Y266500D01*
X267156Y266777D01*
X267064Y267018D01*
X267008Y267241D01*
X266971Y267444D01*
X266952Y267592D01*
Y267685D01*
Y267722D01*
X266971Y268018D01*
X267008Y268277D01*
X267082Y268500D01*
X267138Y268703D01*
X267212Y268870D01*
X267286Y268981D01*
X267323Y269055D01*
X267341Y269074D01*
X267489Y269259D01*
X267656Y269425D01*
X267823Y269574D01*
X267989Y269685D01*
X268156Y269777D01*
X268267Y269833D01*
X268341Y269870D01*
X268378Y269888D01*
X268508Y269944D01*
X268656Y269999D01*
X269008Y270129D01*
X269397Y270259D01*
X269785Y270370D01*
X270137Y270481D01*
X270304Y270518D01*
X270434Y270555D01*
X270545Y270592D01*
X270637Y270611D01*
X270693Y270629D01*
X270711D01*
X270915Y270685D01*
X271100Y270740D01*
X271267Y270777D01*
X271415Y270833D01*
X271656Y270888D01*
X271841Y270944D01*
X271970Y270999D01*
X272044Y271018D01*
X272082Y271036D01*
X272100D01*
X272248Y271110D01*
X272378Y271166D01*
X272489Y271240D01*
X272563Y271296D01*
X272637Y271351D01*
X272674Y271407D01*
X272693Y271425D01*
X272711Y271444D01*
X272822Y271629D01*
X272878Y271814D01*
Y271888D01*
X272896Y271944D01*
Y271981D01*
Y271999D01*
X272878Y272166D01*
X272822Y272333D01*
X272748Y272481D01*
X272656Y272592D01*
X272581Y272703D01*
X272507Y272777D01*
X272452Y272814D01*
X272433Y272833D01*
X272230Y272962D01*
X271989Y273055D01*
X271730Y273110D01*
X271489Y273166D01*
X271248Y273184D01*
X271063Y273203D01*
X270878D01*
X270563Y273184D01*
X270267Y273147D01*
X270026Y273073D01*
X269841Y272999D01*
X269674Y272925D01*
X269563Y272851D01*
X269489Y272814D01*
X269471Y272795D01*
X269286Y272629D01*
X269156Y272444D01*
X269045Y272258D01*
X268952Y272092D01*
X268897Y271925D01*
X268860Y271796D01*
X268841Y271721D01*
Y271684D01*
X267304Y271888D01*
X267378Y272203D01*
X267452Y272481D01*
X267545Y272721D01*
X267638Y272944D01*
X267730Y273092D01*
X267804Y273221D01*
X267841Y273295D01*
X267860Y273314D01*
X268026Y273499D01*
X268211Y273666D01*
X268415Y273814D01*
X268619Y273944D01*
X268804Y274036D01*
X268952Y274110D01*
X269045Y274147D01*
X269063Y274166D01*
X269082D01*
X269397Y274277D01*
X269730Y274351D01*
X270045Y274425D01*
X270341Y274462D01*
X270619Y274480D01*
X270822Y274499D01*
X271267Y274499D01*
X271526Y274462D01*
D02*
G37*
G36*
X261638Y274480D02*
X261934Y274462D01*
X262508Y274332D01*
X263008Y274166D01*
X263230Y274073D01*
X263434Y273981D01*
X263619Y273888D01*
X263768Y273795D01*
X263916Y273703D01*
X264027Y273629D01*
X264119Y273555D01*
X264193Y273499D01*
X264230Y273481D01*
X264249Y273462D01*
X264508Y273221D01*
X264712Y272944D01*
X264916Y272647D01*
X265064Y272351D01*
X265212Y272036D01*
X265323Y271703D01*
X265415Y271388D01*
X265490Y271092D01*
X265564Y270796D01*
X265601Y270536D01*
X265638Y270277D01*
X265656Y270074D01*
Y269888D01*
X265675Y269759D01*
Y269685D01*
Y269648D01*
X265656Y269222D01*
X265619Y268814D01*
X265564Y268444D01*
X265490Y268092D01*
X265397Y267777D01*
X265304Y267481D01*
X265193Y267203D01*
X265082Y266963D01*
X264971Y266740D01*
X264860Y266555D01*
X264767Y266407D01*
X264675Y266278D01*
X264601Y266166D01*
X264545Y266092D01*
X264508Y266055D01*
X264490Y266037D01*
X264249Y265815D01*
X264008Y265630D01*
X263749Y265463D01*
X263490Y265315D01*
X263230Y265204D01*
X262953Y265093D01*
X262453Y264944D01*
X262231Y264907D01*
X262008Y264870D01*
X261823Y264833D01*
X261657Y264815D01*
X261509Y264796D01*
X261323D01*
X260879Y264815D01*
X260472Y264889D01*
X260083Y264981D01*
X259768Y265074D01*
X259490Y265185D01*
X259379Y265222D01*
X259286Y265259D01*
X259194Y265296D01*
X259138Y265333D01*
X259120Y265352D01*
X259101D01*
X258731Y265592D01*
X258416Y265852D01*
X258139Y266111D01*
X257916Y266370D01*
X257750Y266592D01*
X257620Y266777D01*
X257583Y266852D01*
X257546Y266907D01*
X257527Y266926D01*
Y266944D01*
X257342Y267370D01*
X257213Y267833D01*
X257101Y268296D01*
X257046Y268759D01*
X257009Y268962D01*
Y269148D01*
X256990Y269333D01*
X256972Y269481D01*
Y269611D01*
Y269703D01*
Y269759D01*
Y269777D01*
X256990Y270185D01*
X257027Y270555D01*
X257083Y270907D01*
X257157Y271240D01*
X257250Y271555D01*
X257361Y271833D01*
X257472Y272110D01*
X257583Y272332D01*
X257694Y272536D01*
X257805Y272721D01*
X257916Y272888D01*
X258009Y273018D01*
X258083Y273110D01*
X258139Y273184D01*
X258176Y273221D01*
X258194Y273240D01*
X258435Y273462D01*
X258675Y273647D01*
X258935Y273832D01*
X259194Y273962D01*
X259453Y274092D01*
X259712Y274184D01*
X260212Y274351D01*
X260453Y274388D01*
X260657Y274425D01*
X260842Y274462D01*
X261008Y274480D01*
X261138Y274499D01*
X261323D01*
X261638Y274480D01*
D02*
G37*
G36*
X314355Y261445D02*
X303930D01*
Y262574D01*
X314355D01*
Y261445D01*
D02*
G37*
G36*
X391874Y256017D02*
X390300D01*
Y257813D01*
X391874D01*
Y256017D01*
D02*
G37*
G36*
X378931D02*
X377357D01*
Y257813D01*
X378931D01*
Y256017D01*
D02*
G37*
G36*
X398317Y245000D02*
X396818D01*
X393281Y254295D01*
X394910D01*
X396966Y248611D01*
X397095Y248240D01*
X397225Y247907D01*
X397318Y247592D01*
X397410Y247352D01*
X397466Y247129D01*
X397521Y246981D01*
X397540Y246889D01*
X397558Y246852D01*
X397669Y247203D01*
X397762Y247555D01*
X397873Y247870D01*
X397966Y248148D01*
X398040Y248389D01*
X398095Y248574D01*
X398114Y248629D01*
X398132Y248685D01*
X398151Y248703D01*
Y248722D01*
X400151Y254295D01*
X401817D01*
X398317Y245000D01*
D02*
G37*
G36*
X407354Y254480D02*
X407687Y254443D01*
X408002Y254388D01*
X408298Y254295D01*
X408576Y254203D01*
X408835Y254092D01*
X409076Y253981D01*
X409279Y253851D01*
X409483Y253740D01*
X409650Y253610D01*
X409798Y253499D01*
X409909Y253407D01*
X410001Y253314D01*
X410075Y253258D01*
X410112Y253221D01*
X410131Y253203D01*
X410335Y252944D01*
X410520Y252666D01*
X410686Y252388D01*
X410835Y252092D01*
X410946Y251777D01*
X411038Y251481D01*
X411186Y250888D01*
X411242Y250629D01*
X411279Y250370D01*
X411298Y250148D01*
X411316Y249944D01*
X411335Y249777D01*
Y249666D01*
Y249574D01*
Y249555D01*
X411316Y249148D01*
X411279Y248759D01*
X411223Y248389D01*
X411149Y248055D01*
X411057Y247740D01*
X410964Y247444D01*
X410853Y247185D01*
X410742Y246944D01*
X410631Y246740D01*
X410520Y246555D01*
X410427Y246407D01*
X410335Y246278D01*
X410261Y246166D01*
X410205Y246092D01*
X410168Y246055D01*
X410149Y246037D01*
X409909Y245815D01*
X409668Y245630D01*
X409409Y245463D01*
X409131Y245315D01*
X408872Y245204D01*
X408594Y245093D01*
X408076Y244944D01*
X407835Y244907D01*
X407613Y244870D01*
X407409Y244833D01*
X407242Y244815D01*
X407113Y244796D01*
X406909D01*
X406335Y244833D01*
X405817Y244926D01*
X405354Y245037D01*
X405169Y245111D01*
X404983Y245185D01*
X404817Y245259D01*
X404669Y245333D01*
X404557Y245389D01*
X404446Y245444D01*
X404372Y245500D01*
X404317Y245537D01*
X404280Y245574D01*
X404261D01*
X403891Y245907D01*
X403595Y246259D01*
X403335Y246629D01*
X403150Y246981D01*
X403002Y247296D01*
X402947Y247444D01*
X402891Y247555D01*
X402854Y247666D01*
X402836Y247740D01*
X402817Y247778D01*
Y247796D01*
X404446Y248000D01*
X404594Y247648D01*
X404761Y247352D01*
X404928Y247092D01*
X405076Y246889D01*
X405206Y246740D01*
X405317Y246629D01*
X405409Y246555D01*
X405428Y246537D01*
X405668Y246389D01*
X405909Y246278D01*
X406169Y246203D01*
X406391Y246148D01*
X406594Y246111D01*
X406761Y246092D01*
X406909D01*
X407131Y246111D01*
X407335Y246129D01*
X407705Y246222D01*
X408039Y246352D01*
X408335Y246500D01*
X408557Y246629D01*
X408724Y246759D01*
X408835Y246852D01*
X408853Y246889D01*
X408872D01*
X409131Y247222D01*
X409335Y247592D01*
X409483Y248000D01*
X409594Y248370D01*
X409650Y248703D01*
X409687Y248851D01*
X409705Y248981D01*
Y249092D01*
X409724Y249166D01*
Y249222D01*
Y249240D01*
X402780D01*
X402761Y249425D01*
Y249555D01*
Y249629D01*
Y249648D01*
X402780Y250074D01*
X402817Y250462D01*
X402873Y250833D01*
X402947Y251185D01*
X403039Y251499D01*
X403132Y251796D01*
X403243Y252055D01*
X403354Y252295D01*
X403465Y252518D01*
X403576Y252703D01*
X403669Y252851D01*
X403761Y252981D01*
X403835Y253092D01*
X403891Y253166D01*
X403928Y253203D01*
X403946Y253221D01*
X404169Y253444D01*
X404409Y253647D01*
X404669Y253814D01*
X404928Y253962D01*
X405187Y254092D01*
X405428Y254184D01*
X405687Y254277D01*
X405909Y254332D01*
X406150Y254388D01*
X406354Y254425D01*
X406539Y254462D01*
X406687Y254480D01*
X406816Y254499D01*
X407002D01*
X407354Y254480D01*
D02*
G37*
G36*
X423500Y245000D02*
X421796D01*
Y250685D01*
X419612D01*
X419408Y250666D01*
X419260D01*
X419130Y250648D01*
X419038Y250629D01*
X418963D01*
X418926Y250611D01*
X418908D01*
X418612Y250518D01*
X418482Y250462D01*
X418371Y250407D01*
X418260Y250351D01*
X418186Y250314D01*
X418149Y250296D01*
X418130Y250277D01*
X417982Y250166D01*
X417834Y250037D01*
X417556Y249759D01*
X417426Y249629D01*
X417334Y249518D01*
X417278Y249444D01*
X417260Y249425D01*
X417075Y249166D01*
X416871Y248888D01*
X416667Y248592D01*
X416464Y248314D01*
X416297Y248055D01*
X416167Y247852D01*
X416112Y247778D01*
X416075Y247722D01*
X416038Y247685D01*
Y247666D01*
X414353Y245000D01*
X412242D01*
X414445Y248481D01*
X414705Y248851D01*
X414945Y249185D01*
X415186Y249463D01*
X415390Y249722D01*
X415575Y249907D01*
X415723Y250055D01*
X415816Y250148D01*
X415853Y250185D01*
X416001Y250296D01*
X416167Y250425D01*
X416501Y250629D01*
X416649Y250703D01*
X416760Y250777D01*
X416834Y250814D01*
X416871Y250833D01*
X416538Y250888D01*
X416223Y250944D01*
X415945Y251036D01*
X415667Y251110D01*
X415427Y251203D01*
X415205Y251314D01*
X415001Y251407D01*
X414816Y251499D01*
X414668Y251610D01*
X414519Y251703D01*
X414408Y251777D01*
X414316Y251851D01*
X414242Y251907D01*
X414186Y251962D01*
X414168Y251981D01*
X414149Y251999D01*
X414001Y252184D01*
X413853Y252370D01*
X413631Y252758D01*
X413483Y253147D01*
X413371Y253518D01*
X413297Y253832D01*
X413279Y253962D01*
Y254092D01*
X413260Y254184D01*
Y254258D01*
Y254295D01*
Y254314D01*
X413279Y254703D01*
X413334Y255054D01*
X413427Y255388D01*
X413520Y255665D01*
X413631Y255906D01*
X413705Y256091D01*
X413779Y256203D01*
X413797Y256221D01*
Y256239D01*
X414020Y256536D01*
X414242Y256795D01*
X414482Y257017D01*
X414705Y257184D01*
X414908Y257313D01*
X415075Y257388D01*
X415186Y257443D01*
X415205Y257462D01*
X415223D01*
X415390Y257517D01*
X415593Y257573D01*
X416001Y257665D01*
X416445Y257721D01*
X416852Y257776D01*
X417241Y257795D01*
X417408D01*
X417556Y257813D01*
X423500D01*
Y245000D01*
D02*
G37*
G36*
X391874D02*
X390300D01*
Y254295D01*
X391874D01*
Y245000D01*
D02*
G37*
G36*
X378931D02*
X377357D01*
Y254295D01*
X378931D01*
Y245000D01*
D02*
G37*
G36*
X360988Y254480D02*
X361321Y254425D01*
X361618Y254351D01*
X361914Y254258D01*
X362173Y254147D01*
X362414Y254018D01*
X362636Y253869D01*
X362821Y253740D01*
X363006Y253592D01*
X363154Y253444D01*
X363284Y253314D01*
X363395Y253203D01*
X363469Y253110D01*
X363525Y253036D01*
X363562Y252981D01*
X363580Y252962D01*
Y254295D01*
X364987D01*
Y245000D01*
X363414D01*
Y250055D01*
Y250370D01*
X363377Y250685D01*
X363340Y250944D01*
X363302Y251185D01*
X363247Y251407D01*
X363191Y251610D01*
X363117Y251796D01*
X363043Y251944D01*
X362988Y252073D01*
X362914Y252184D01*
X362858Y252277D01*
X362803Y252351D01*
X362729Y252444D01*
X362691Y252481D01*
X362414Y252703D01*
X362118Y252851D01*
X361821Y252962D01*
X361562Y253055D01*
X361321Y253092D01*
X361136Y253110D01*
X361062Y253129D01*
X360969D01*
X360747Y253110D01*
X360525Y253092D01*
X360340Y253036D01*
X360192Y252981D01*
X360062Y252925D01*
X359951Y252888D01*
X359896Y252851D01*
X359877Y252833D01*
X359710Y252721D01*
X359562Y252592D01*
X359451Y252462D01*
X359358Y252351D01*
X359303Y252240D01*
X359247Y252147D01*
X359210Y252092D01*
Y252073D01*
X359155Y251870D01*
X359099Y251647D01*
X359062Y251407D01*
X359044Y251166D01*
X359025Y250962D01*
Y250796D01*
Y250666D01*
Y250648D01*
Y250629D01*
Y245000D01*
X357451D01*
Y250703D01*
Y251092D01*
X357470Y251407D01*
X357488Y251666D01*
Y251888D01*
X357507Y252036D01*
X357525Y252147D01*
X357544Y252221D01*
Y252240D01*
X357599Y252481D01*
X357692Y252703D01*
X357766Y252888D01*
X357840Y253073D01*
X357933Y253203D01*
X357988Y253295D01*
X358025Y253370D01*
X358044Y253388D01*
X358192Y253573D01*
X358359Y253721D01*
X358525Y253869D01*
X358710Y253981D01*
X358858Y254073D01*
X358988Y254129D01*
X359062Y254166D01*
X359099Y254184D01*
X359358Y254295D01*
X359636Y254369D01*
X359896Y254425D01*
X360136Y254462D01*
X360340Y254480D01*
X360488Y254499D01*
X360636D01*
X360988Y254480D01*
D02*
G37*
G36*
X385374Y254462D02*
X385597Y254443D01*
X385800Y254406D01*
X385967Y254369D01*
X386096Y254332D01*
X386171Y254314D01*
X386208Y254295D01*
X386430Y254221D01*
X386633Y254147D01*
X386800Y254073D01*
X386948Y253999D01*
X387059Y253944D01*
X387133Y253888D01*
X387189Y253869D01*
X387207Y253851D01*
X387393Y253721D01*
X387541Y253573D01*
X387670Y253407D01*
X387781Y253277D01*
X387874Y253147D01*
X387930Y253055D01*
X387967Y252981D01*
X387985Y252962D01*
X388078Y252758D01*
X388152Y252573D01*
X388189Y252370D01*
X388226Y252203D01*
X388244Y252036D01*
X388263Y251925D01*
Y251851D01*
Y251814D01*
X388244Y251555D01*
X388207Y251333D01*
X388152Y251110D01*
X388096Y250925D01*
X388041Y250777D01*
X387985Y250648D01*
X387948Y250574D01*
X387930Y250555D01*
X387781Y250351D01*
X387615Y250185D01*
X387448Y250037D01*
X387281Y249907D01*
X387133Y249814D01*
X387022Y249740D01*
X386948Y249703D01*
X386911Y249685D01*
X386782Y249629D01*
X386615Y249555D01*
X386245Y249425D01*
X385856Y249314D01*
X385448Y249185D01*
X385097Y249092D01*
X384930Y249037D01*
X384782Y249000D01*
X384671Y248962D01*
X384578Y248944D01*
X384523Y248925D01*
X384504D01*
X384263Y248870D01*
X384060Y248814D01*
X383875Y248759D01*
X383708Y248703D01*
X383560Y248666D01*
X383430Y248611D01*
X383208Y248537D01*
X383060Y248481D01*
X382967Y248426D01*
X382912Y248407D01*
X382893Y248389D01*
X382726Y248277D01*
X382615Y248129D01*
X382523Y248000D01*
X382467Y247870D01*
X382430Y247740D01*
X382412Y247648D01*
Y247574D01*
Y247555D01*
X382430Y247333D01*
X382486Y247148D01*
X382578Y246963D01*
X382671Y246815D01*
X382782Y246685D01*
X382856Y246592D01*
X382930Y246537D01*
X382949Y246518D01*
X383171Y246370D01*
X383412Y246278D01*
X383689Y246203D01*
X383949Y246148D01*
X384189Y246111D01*
X384374Y246092D01*
X384560D01*
X384948Y246111D01*
X385282Y246166D01*
X385560Y246241D01*
X385800Y246333D01*
X385985Y246426D01*
X386133Y246500D01*
X386208Y246555D01*
X386245Y246574D01*
X386448Y246778D01*
X386615Y247018D01*
X386726Y247259D01*
X386819Y247481D01*
X386893Y247685D01*
X386930Y247870D01*
X386967Y247981D01*
Y248000D01*
Y248018D01*
X388522Y247778D01*
X388392Y247259D01*
X388226Y246796D01*
X388022Y246426D01*
X387818Y246111D01*
X387633Y245852D01*
X387467Y245685D01*
X387356Y245574D01*
X387337Y245555D01*
X387319Y245537D01*
X387133Y245407D01*
X386930Y245296D01*
X386485Y245111D01*
X386022Y244981D01*
X385578Y244889D01*
X385374Y244852D01*
X385189Y244833D01*
X385004Y244815D01*
X384856D01*
X384726Y244796D01*
X384560D01*
X384152Y244815D01*
X383800Y244852D01*
X383467Y244907D01*
X383171Y244981D01*
X382930Y245056D01*
X382745Y245111D01*
X382634Y245148D01*
X382615Y245167D01*
X382597D01*
X382282Y245333D01*
X382023Y245500D01*
X381801Y245685D01*
X381597Y245852D01*
X381449Y246000D01*
X381356Y246129D01*
X381282Y246203D01*
X381264Y246241D01*
X381115Y246500D01*
X381004Y246778D01*
X380912Y247018D01*
X380856Y247241D01*
X380819Y247444D01*
X380801Y247592D01*
Y247685D01*
Y247722D01*
X380819Y248018D01*
X380856Y248277D01*
X380930Y248500D01*
X380986Y248703D01*
X381060Y248870D01*
X381134Y248981D01*
X381171Y249055D01*
X381190Y249074D01*
X381338Y249259D01*
X381504Y249425D01*
X381671Y249574D01*
X381838Y249685D01*
X382004Y249777D01*
X382115Y249833D01*
X382189Y249870D01*
X382226Y249888D01*
X382356Y249944D01*
X382504Y249999D01*
X382856Y250129D01*
X383245Y250259D01*
X383634Y250370D01*
X383986Y250481D01*
X384152Y250518D01*
X384282Y250555D01*
X384393Y250592D01*
X384486Y250611D01*
X384541Y250629D01*
X384560D01*
X384763Y250685D01*
X384948Y250740D01*
X385115Y250777D01*
X385263Y250833D01*
X385504Y250888D01*
X385689Y250944D01*
X385819Y250999D01*
X385893Y251018D01*
X385930Y251036D01*
X385948D01*
X386096Y251110D01*
X386226Y251166D01*
X386337Y251240D01*
X386411Y251296D01*
X386485Y251351D01*
X386522Y251407D01*
X386541Y251425D01*
X386559Y251444D01*
X386670Y251629D01*
X386726Y251814D01*
Y251888D01*
X386744Y251944D01*
Y251981D01*
Y251999D01*
X386726Y252166D01*
X386670Y252332D01*
X386596Y252481D01*
X386504Y252592D01*
X386430Y252703D01*
X386356Y252777D01*
X386300Y252814D01*
X386282Y252833D01*
X386078Y252962D01*
X385837Y253055D01*
X385578Y253110D01*
X385337Y253166D01*
X385097Y253184D01*
X384911Y253203D01*
X384726D01*
X384411Y253184D01*
X384115Y253147D01*
X383875Y253073D01*
X383689Y252999D01*
X383523Y252925D01*
X383412Y252851D01*
X383338Y252814D01*
X383319Y252796D01*
X383134Y252629D01*
X383004Y252444D01*
X382893Y252258D01*
X382800Y252092D01*
X382745Y251925D01*
X382708Y251796D01*
X382689Y251721D01*
Y251684D01*
X381152Y251888D01*
X381227Y252203D01*
X381301Y252481D01*
X381393Y252721D01*
X381486Y252944D01*
X381578Y253092D01*
X381652Y253221D01*
X381689Y253295D01*
X381708Y253314D01*
X381875Y253499D01*
X382060Y253666D01*
X382263Y253814D01*
X382467Y253944D01*
X382652Y254036D01*
X382800Y254110D01*
X382893Y254147D01*
X382912Y254166D01*
X382930D01*
X383245Y254277D01*
X383578Y254351D01*
X383893Y254425D01*
X384189Y254462D01*
X384467Y254480D01*
X384671Y254499D01*
X385115D01*
X385374Y254462D01*
D02*
G37*
G36*
X371505Y254480D02*
X371802Y254462D01*
X372376Y254332D01*
X372876Y254166D01*
X373098Y254073D01*
X373302Y253981D01*
X373487Y253888D01*
X373635Y253795D01*
X373783Y253703D01*
X373894Y253629D01*
X373987Y253555D01*
X374061Y253499D01*
X374098Y253481D01*
X374116Y253462D01*
X374375Y253221D01*
X374579Y252944D01*
X374783Y252647D01*
X374931Y252351D01*
X375079Y252036D01*
X375190Y251703D01*
X375283Y251388D01*
X375357Y251092D01*
X375431Y250796D01*
X375468Y250536D01*
X375505Y250277D01*
X375523Y250074D01*
Y249888D01*
X375542Y249759D01*
Y249685D01*
Y249648D01*
X375523Y249222D01*
X375486Y248814D01*
X375431Y248444D01*
X375357Y248092D01*
X375264Y247778D01*
X375172Y247481D01*
X375061Y247203D01*
X374949Y246963D01*
X374838Y246740D01*
X374727Y246555D01*
X374635Y246407D01*
X374542Y246278D01*
X374468Y246166D01*
X374412Y246092D01*
X374375Y246055D01*
X374357Y246037D01*
X374116Y245815D01*
X373876Y245630D01*
X373616Y245463D01*
X373357Y245315D01*
X373098Y245204D01*
X372820Y245093D01*
X372320Y244944D01*
X372098Y244907D01*
X371876Y244870D01*
X371690Y244833D01*
X371524Y244815D01*
X371376Y244796D01*
X371191D01*
X370746Y244815D01*
X370339Y244889D01*
X369950Y244981D01*
X369635Y245074D01*
X369357Y245185D01*
X369246Y245222D01*
X369154Y245259D01*
X369061Y245296D01*
X369006Y245333D01*
X368987Y245352D01*
X368969D01*
X368598Y245592D01*
X368284Y245852D01*
X368006Y246111D01*
X367784Y246370D01*
X367617Y246592D01*
X367487Y246778D01*
X367450Y246852D01*
X367413Y246907D01*
X367395Y246926D01*
Y246944D01*
X367210Y247370D01*
X367080Y247833D01*
X366969Y248296D01*
X366913Y248759D01*
X366876Y248962D01*
Y249148D01*
X366858Y249333D01*
X366839Y249481D01*
Y249611D01*
Y249703D01*
Y249759D01*
Y249777D01*
X366858Y250185D01*
X366895Y250555D01*
X366950Y250907D01*
X367024Y251240D01*
X367117Y251555D01*
X367228Y251833D01*
X367339Y252110D01*
X367450Y252332D01*
X367561Y252536D01*
X367672Y252721D01*
X367784Y252888D01*
X367876Y253018D01*
X367950Y253110D01*
X368006Y253184D01*
X368043Y253221D01*
X368061Y253240D01*
X368302Y253462D01*
X368543Y253647D01*
X368802Y253832D01*
X369061Y253962D01*
X369320Y254092D01*
X369580Y254184D01*
X370080Y254351D01*
X370320Y254388D01*
X370524Y254425D01*
X370709Y254462D01*
X370876Y254480D01*
X371005Y254499D01*
X371191D01*
X371505Y254480D01*
D02*
G37*
G36*
X395855Y275980D02*
X394281D01*
Y277813D01*
X395855D01*
Y275980D01*
D02*
G37*
G36*
X372672Y276591D02*
Y274295D01*
X373839D01*
Y273073D01*
X372672D01*
Y267703D01*
Y267444D01*
Y267222D01*
X372653Y267018D01*
X372635Y266815D01*
Y266648D01*
X372616Y266500D01*
X372579Y266259D01*
X372542Y266074D01*
X372524Y265944D01*
X372487Y265870D01*
Y265852D01*
X372413Y265685D01*
X372302Y265555D01*
X372191Y265426D01*
X372098Y265333D01*
X371987Y265241D01*
X371913Y265185D01*
X371857Y265148D01*
X371839Y265130D01*
X371635Y265037D01*
X371431Y264981D01*
X371209Y264926D01*
X370987Y264907D01*
X370802Y264889D01*
X370654Y264870D01*
X370505D01*
X370098Y264889D01*
X369894Y264907D01*
X369709Y264944D01*
X369543Y264963D01*
X369413Y264981D01*
X369339Y265000D01*
X369302D01*
X369506Y266389D01*
X369654Y266370D01*
X369802Y266352D01*
X369931D01*
X370024Y266333D01*
X370209D01*
X370450Y266352D01*
X370617Y266389D01*
X370709Y266426D01*
X370746Y266444D01*
X370876Y266537D01*
X370950Y266629D01*
X371005Y266703D01*
X371024Y266740D01*
X371043Y266833D01*
X371061Y266963D01*
X371079Y267259D01*
X371098Y267389D01*
Y267500D01*
Y267574D01*
Y267611D01*
Y273073D01*
X369506D01*
Y274295D01*
X371098D01*
Y277536D01*
X372672Y276591D01*
D02*
G37*
G36*
X388411Y274480D02*
X388744Y274443D01*
X389059Y274388D01*
X389355Y274295D01*
X389633Y274203D01*
X389892Y274092D01*
X390133Y273981D01*
X390337Y273851D01*
X390540Y273740D01*
X390707Y273610D01*
X390855Y273499D01*
X390966Y273407D01*
X391059Y273314D01*
X391133Y273258D01*
X391170Y273221D01*
X391189Y273203D01*
X391392Y272944D01*
X391577Y272666D01*
X391744Y272388D01*
X391892Y272092D01*
X392003Y271777D01*
X392096Y271481D01*
X392244Y270888D01*
X392299Y270629D01*
X392337Y270370D01*
X392355Y270148D01*
X392374Y269944D01*
X392392Y269777D01*
Y269666D01*
Y269574D01*
Y269555D01*
X392374Y269148D01*
X392337Y268759D01*
X392281Y268389D01*
X392207Y268055D01*
X392114Y267740D01*
X392022Y267444D01*
X391911Y267185D01*
X391800Y266944D01*
X391688Y266740D01*
X391577Y266555D01*
X391485Y266407D01*
X391392Y266278D01*
X391318Y266166D01*
X391263Y266092D01*
X391226Y266055D01*
X391207Y266037D01*
X390966Y265815D01*
X390726Y265630D01*
X390466Y265463D01*
X390189Y265315D01*
X389929Y265204D01*
X389652Y265093D01*
X389133Y264944D01*
X388893Y264907D01*
X388670Y264870D01*
X388467Y264833D01*
X388300Y264815D01*
X388170Y264796D01*
X387967D01*
X387393Y264833D01*
X386874Y264926D01*
X386411Y265037D01*
X386226Y265111D01*
X386041Y265185D01*
X385874Y265259D01*
X385726Y265333D01*
X385615Y265389D01*
X385504Y265444D01*
X385430Y265500D01*
X385374Y265537D01*
X385337Y265574D01*
X385319D01*
X384948Y265907D01*
X384652Y266259D01*
X384393Y266629D01*
X384208Y266981D01*
X384060Y267296D01*
X384004Y267444D01*
X383949Y267555D01*
X383912Y267666D01*
X383893Y267740D01*
X383875Y267778D01*
Y267796D01*
X385504Y268000D01*
X385652Y267648D01*
X385819Y267352D01*
X385985Y267092D01*
X386133Y266889D01*
X386263Y266740D01*
X386374Y266629D01*
X386467Y266555D01*
X386485Y266537D01*
X386726Y266389D01*
X386967Y266278D01*
X387226Y266204D01*
X387448Y266148D01*
X387652Y266111D01*
X387818Y266092D01*
X387967D01*
X388189Y266111D01*
X388392Y266129D01*
X388763Y266222D01*
X389096Y266352D01*
X389392Y266500D01*
X389615Y266629D01*
X389781Y266759D01*
X389892Y266852D01*
X389911Y266889D01*
X389929D01*
X390189Y267222D01*
X390392Y267592D01*
X390540Y268000D01*
X390652Y268370D01*
X390707Y268703D01*
X390744Y268851D01*
X390763Y268981D01*
Y269092D01*
X390781Y269166D01*
Y269222D01*
Y269240D01*
X383837D01*
X383819Y269425D01*
Y269555D01*
Y269629D01*
Y269648D01*
X383837Y270074D01*
X383875Y270462D01*
X383930Y270833D01*
X384004Y271185D01*
X384097Y271499D01*
X384189Y271796D01*
X384300Y272055D01*
X384411Y272295D01*
X384523Y272518D01*
X384634Y272703D01*
X384726Y272851D01*
X384819Y272981D01*
X384893Y273092D01*
X384948Y273166D01*
X384986Y273203D01*
X385004Y273221D01*
X385226Y273444D01*
X385467Y273647D01*
X385726Y273814D01*
X385985Y273962D01*
X386245Y274092D01*
X386485Y274184D01*
X386744Y274277D01*
X386967Y274332D01*
X387207Y274388D01*
X387411Y274425D01*
X387596Y274462D01*
X387744Y274480D01*
X387874Y274499D01*
X388059D01*
X388411Y274480D01*
D02*
G37*
G36*
X378579D02*
X378986Y274406D01*
X379375Y274314D01*
X379690Y274221D01*
X379967Y274110D01*
X380079Y274055D01*
X380171Y274018D01*
X380245Y273981D01*
X380301Y273944D01*
X380338Y273925D01*
X380356D01*
X380708Y273703D01*
X381023Y273425D01*
X381282Y273147D01*
X381504Y272869D01*
X381671Y272629D01*
X381782Y272425D01*
X381819Y272351D01*
X381856Y272295D01*
X381875Y272258D01*
Y272240D01*
X382041Y271796D01*
X382152Y271351D01*
X382245Y270907D01*
X382301Y270499D01*
X382319Y270314D01*
X382338Y270148D01*
Y270000D01*
X382356Y269870D01*
Y269759D01*
Y269685D01*
Y269629D01*
Y269611D01*
X382338Y269185D01*
X382301Y268796D01*
X382245Y268407D01*
X382171Y268074D01*
X382097Y267740D01*
X381986Y267463D01*
X381893Y267185D01*
X381782Y266944D01*
X381671Y266740D01*
X381578Y266555D01*
X381467Y266389D01*
X381393Y266259D01*
X381319Y266166D01*
X381264Y266092D01*
X381227Y266055D01*
X381208Y266037D01*
X380986Y265815D01*
X380745Y265630D01*
X380504Y265463D01*
X380245Y265315D01*
X379986Y265204D01*
X379745Y265093D01*
X379245Y264944D01*
X379023Y264907D01*
X378819Y264870D01*
X378634Y264833D01*
X378468Y264815D01*
X378338Y264796D01*
X378153D01*
X377875Y264815D01*
X377597Y264833D01*
X377116Y264944D01*
X376671Y265074D01*
X376301Y265241D01*
X376153Y265333D01*
X376005Y265407D01*
X375875Y265481D01*
X375783Y265555D01*
X375709Y265611D01*
X375653Y265648D01*
X375616Y265667D01*
X375597Y265685D01*
X375412Y265870D01*
X375246Y266055D01*
X374949Y266463D01*
X374709Y266889D01*
X374542Y267278D01*
X374412Y267648D01*
X374375Y267796D01*
X374338Y267944D01*
X374320Y268055D01*
X374301Y268129D01*
X374283Y268185D01*
Y268203D01*
X375838Y268407D01*
X375912Y268000D01*
X376023Y267629D01*
X376172Y267333D01*
X376301Y267092D01*
X376431Y266889D01*
X376542Y266759D01*
X376597Y266667D01*
X376634Y266648D01*
X376875Y266463D01*
X377134Y266333D01*
X377394Y266222D01*
X377634Y266166D01*
X377838Y266129D01*
X378023Y266111D01*
X378134Y266092D01*
X378171D01*
X378375Y266111D01*
X378579Y266129D01*
X378949Y266222D01*
X379264Y266352D01*
X379542Y266518D01*
X379745Y266667D01*
X379912Y266796D01*
X380005Y266889D01*
X380042Y266926D01*
X380171Y267092D01*
X380282Y267296D01*
X380449Y267703D01*
X380578Y268166D01*
X380653Y268611D01*
X380708Y269018D01*
X380727Y269185D01*
Y269351D01*
X380745Y269463D01*
Y269574D01*
Y269629D01*
Y269648D01*
Y269981D01*
X380708Y270296D01*
X380671Y270592D01*
X380634Y270851D01*
X380578Y271092D01*
X380504Y271314D01*
X380449Y271518D01*
X380375Y271703D01*
X380301Y271851D01*
X380245Y271981D01*
X380171Y272092D01*
X380116Y272184D01*
X380079Y272258D01*
X380042Y272314D01*
X380005Y272333D01*
Y272351D01*
X379856Y272499D01*
X379708Y272629D01*
X379394Y272851D01*
X379060Y272999D01*
X378764Y273092D01*
X378486Y273166D01*
X378283Y273184D01*
X378190Y273203D01*
X378079D01*
X377801Y273184D01*
X377542Y273129D01*
X377320Y273055D01*
X377116Y272962D01*
X376968Y272869D01*
X376838Y272796D01*
X376764Y272740D01*
X376746Y272721D01*
X376560Y272536D01*
X376394Y272314D01*
X376246Y272073D01*
X376153Y271851D01*
X376060Y271647D01*
X376005Y271481D01*
X375986Y271370D01*
X375968Y271351D01*
Y271333D01*
X374431Y271573D01*
X374561Y272073D01*
X374746Y272499D01*
X374949Y272869D01*
X375153Y273166D01*
X375357Y273407D01*
X375523Y273573D01*
X375635Y273684D01*
X375653Y273721D01*
X375672D01*
X376060Y273981D01*
X376468Y274166D01*
X376875Y274314D01*
X377264Y274406D01*
X377616Y274462D01*
X377764Y274480D01*
X377875D01*
X377986Y274499D01*
X378134D01*
X378579Y274480D01*
D02*
G37*
G36*
X423500Y265000D02*
X421796D01*
Y270203D01*
X418519D01*
X418038Y270222D01*
X417575Y270259D01*
X417167Y270314D01*
X416797Y270388D01*
X416445Y270462D01*
X416149Y270555D01*
X415871Y270666D01*
X415630Y270777D01*
X415427Y270870D01*
X415242Y270981D01*
X415093Y271073D01*
X414982Y271166D01*
X414890Y271222D01*
X414834Y271277D01*
X414797Y271314D01*
X414779Y271333D01*
X414594Y271555D01*
X414427Y271777D01*
X414297Y271999D01*
X414168Y272240D01*
X414057Y272481D01*
X413983Y272703D01*
X413853Y273129D01*
X413816Y273332D01*
X413779Y273518D01*
X413760Y273684D01*
X413742Y273814D01*
X413723Y273944D01*
Y274018D01*
Y274073D01*
Y274092D01*
X413742Y274443D01*
X413779Y274777D01*
X413853Y275073D01*
X413908Y275332D01*
X413983Y275554D01*
X414057Y275721D01*
X414094Y275814D01*
X414112Y275851D01*
X414260Y276129D01*
X414445Y276369D01*
X414612Y276591D01*
X414779Y276758D01*
X414927Y276888D01*
X415038Y276999D01*
X415112Y277054D01*
X415149Y277073D01*
X415390Y277221D01*
X415667Y277351D01*
X415927Y277462D01*
X416167Y277554D01*
X416390Y277610D01*
X416556Y277647D01*
X416686Y277684D01*
X416723D01*
X417001Y277721D01*
X417315Y277758D01*
X417649Y277776D01*
X417963Y277795D01*
X418241Y277813D01*
X423500D01*
Y265000D01*
D02*
G37*
G36*
X408557Y274480D02*
X408742Y274443D01*
X408927Y274388D01*
X409076Y274332D01*
X409187Y274277D01*
X409298Y274221D01*
X409353Y274184D01*
X409372Y274166D01*
X409538Y274018D01*
X409705Y273832D01*
X409872Y273610D01*
X410020Y273407D01*
X410168Y273203D01*
X410261Y273036D01*
X410335Y272907D01*
X410353Y272888D01*
Y274295D01*
X411779D01*
Y265000D01*
X410205D01*
Y269851D01*
X410187Y270222D01*
X410168Y270555D01*
X410131Y270870D01*
X410075Y271147D01*
X410020Y271370D01*
X409983Y271536D01*
X409964Y271647D01*
X409946Y271684D01*
X409872Y271888D01*
X409779Y272055D01*
X409687Y272203D01*
X409594Y272333D01*
X409501Y272425D01*
X409446Y272499D01*
X409390Y272536D01*
X409372Y272555D01*
X409224Y272666D01*
X409057Y272740D01*
X408890Y272796D01*
X408761Y272833D01*
X408631Y272851D01*
X408539Y272869D01*
X408446D01*
X408242Y272851D01*
X408039Y272814D01*
X407835Y272758D01*
X407668Y272703D01*
X407520Y272647D01*
X407409Y272592D01*
X407335Y272555D01*
X407317Y272536D01*
X406743Y273981D01*
X407057Y274147D01*
X407354Y274277D01*
X407613Y274369D01*
X407854Y274443D01*
X408057Y274480D01*
X408224Y274499D01*
X408353D01*
X408557Y274480D01*
D02*
G37*
G36*
X402354D02*
X402650Y274462D01*
X403224Y274332D01*
X403724Y274166D01*
X403946Y274073D01*
X404150Y273981D01*
X404335Y273888D01*
X404483Y273795D01*
X404632Y273703D01*
X404743Y273629D01*
X404835Y273555D01*
X404909Y273499D01*
X404946Y273481D01*
X404965Y273462D01*
X405224Y273221D01*
X405428Y272944D01*
X405631Y272647D01*
X405780Y272351D01*
X405928Y272036D01*
X406039Y271703D01*
X406131Y271388D01*
X406205Y271092D01*
X406280Y270796D01*
X406317Y270536D01*
X406354Y270277D01*
X406372Y270074D01*
Y269888D01*
X406391Y269759D01*
Y269685D01*
Y269648D01*
X406372Y269222D01*
X406335Y268814D01*
X406280Y268444D01*
X406205Y268092D01*
X406113Y267778D01*
X406020Y267481D01*
X405909Y267204D01*
X405798Y266963D01*
X405687Y266740D01*
X405576Y266555D01*
X405483Y266407D01*
X405391Y266278D01*
X405317Y266166D01*
X405261Y266092D01*
X405224Y266055D01*
X405206Y266037D01*
X404965Y265815D01*
X404724Y265630D01*
X404465Y265463D01*
X404206Y265315D01*
X403946Y265204D01*
X403669Y265093D01*
X403169Y264944D01*
X402947Y264907D01*
X402724Y264870D01*
X402539Y264833D01*
X402373Y264815D01*
X402224Y264796D01*
X402039D01*
X401595Y264815D01*
X401188Y264889D01*
X400799Y264981D01*
X400484Y265074D01*
X400206Y265185D01*
X400095Y265222D01*
X400002Y265259D01*
X399910Y265296D01*
X399854Y265333D01*
X399836Y265352D01*
X399817D01*
X399447Y265592D01*
X399132Y265852D01*
X398854Y266111D01*
X398632Y266370D01*
X398465Y266592D01*
X398336Y266778D01*
X398299Y266852D01*
X398262Y266907D01*
X398243Y266926D01*
Y266944D01*
X398058Y267370D01*
X397929Y267833D01*
X397817Y268296D01*
X397762Y268759D01*
X397725Y268962D01*
Y269148D01*
X397706Y269333D01*
X397688Y269481D01*
Y269611D01*
Y269703D01*
Y269759D01*
Y269777D01*
X397706Y270185D01*
X397743Y270555D01*
X397799Y270907D01*
X397873Y271240D01*
X397966Y271555D01*
X398077Y271833D01*
X398188Y272110D01*
X398299Y272333D01*
X398410Y272536D01*
X398521Y272721D01*
X398632Y272888D01*
X398725Y273018D01*
X398799Y273110D01*
X398854Y273184D01*
X398891Y273221D01*
X398910Y273240D01*
X399151Y273462D01*
X399391Y273647D01*
X399651Y273832D01*
X399910Y273962D01*
X400169Y274092D01*
X400428Y274184D01*
X400928Y274351D01*
X401169Y274388D01*
X401373Y274425D01*
X401558Y274462D01*
X401725Y274480D01*
X401854Y274499D01*
X402039D01*
X402354Y274480D01*
D02*
G37*
G36*
X395855Y264556D02*
Y264333D01*
X395873Y264130D01*
Y263926D01*
X395892Y263759D01*
X395910Y263630D01*
X395929Y263482D01*
X395966Y263278D01*
X396021Y263130D01*
X396058Y263037D01*
X396077Y262982D01*
X396095Y262963D01*
X396188Y262852D01*
X396318Y262778D01*
X396429Y262704D01*
X396540Y262667D01*
X396651Y262648D01*
X396744Y262630D01*
X396929D01*
X397040Y262648D01*
X397281Y262704D01*
X397373Y262722D01*
X397466Y262741D01*
X397521Y262759D01*
X397540D01*
X397836Y261426D01*
X397392Y261315D01*
X397188Y261278D01*
X397003Y261260D01*
X396836D01*
X396725Y261241D01*
X396614D01*
X396373Y261260D01*
X396151Y261278D01*
X395762Y261389D01*
X395429Y261519D01*
X395170Y261686D01*
X394984Y261852D01*
X394836Y262000D01*
X394744Y262093D01*
X394725Y262111D01*
Y262130D01*
X394651Y262260D01*
X394577Y262426D01*
X394466Y262778D01*
X394392Y263185D01*
X394336Y263574D01*
X394299Y263944D01*
Y264093D01*
X394281Y264241D01*
Y264352D01*
Y264445D01*
Y264500D01*
Y264519D01*
Y274295D01*
X395855D01*
Y264556D01*
D02*
G37*
G36*
X340037Y257832D02*
X340537Y257739D01*
X340963Y257591D01*
X341334Y257443D01*
X341500Y257351D01*
X341630Y257276D01*
X341759Y257202D01*
X341852Y257128D01*
X341926Y257073D01*
X341982Y257036D01*
X342019Y257017D01*
X342037Y256999D01*
X342389Y256647D01*
X342667Y256258D01*
X342889Y255851D01*
X343074Y255443D01*
X343185Y255091D01*
X343241Y254943D01*
X343278Y254814D01*
X343296Y254703D01*
X343315Y254629D01*
X343333Y254573D01*
Y254555D01*
X341759Y254277D01*
X341685Y254684D01*
X341574Y255036D01*
X341445Y255332D01*
X341315Y255573D01*
X341185Y255758D01*
X341074Y255888D01*
X341000Y255980D01*
X340982Y255999D01*
X340741Y256184D01*
X340482Y256332D01*
X340241Y256425D01*
X340000Y256499D01*
X339778Y256536D01*
X339612Y256573D01*
X339463D01*
X339130Y256554D01*
X338834Y256480D01*
X338575Y256388D01*
X338352Y256295D01*
X338186Y256184D01*
X338056Y256091D01*
X337963Y256017D01*
X337945Y255999D01*
X337741Y255777D01*
X337593Y255536D01*
X337501Y255295D01*
X337427Y255073D01*
X337389Y254869D01*
X337352Y254721D01*
Y254610D01*
Y254592D01*
Y254573D01*
Y254369D01*
X337389Y254184D01*
X337482Y253869D01*
X337612Y253592D01*
X337760Y253351D01*
X337908Y253184D01*
X338038Y253055D01*
X338130Y252981D01*
X338149Y252962D01*
X338167D01*
X338482Y252796D01*
X338778Y252666D01*
X339093Y252573D01*
X339371Y252518D01*
X339612Y252481D01*
X339815Y252444D01*
X340056D01*
X340130Y252462D01*
X340223D01*
X340408Y251073D01*
X340167Y251129D01*
X339945Y251166D01*
X339760Y251203D01*
X339593Y251222D01*
X339463Y251240D01*
X339297D01*
X338908Y251203D01*
X338556Y251129D01*
X338241Y251018D01*
X337982Y250888D01*
X337778Y250759D01*
X337630Y250648D01*
X337538Y250574D01*
X337501Y250536D01*
X337260Y250259D01*
X337075Y249962D01*
X336945Y249666D01*
X336871Y249370D01*
X336815Y249129D01*
X336797Y248925D01*
X336778Y248851D01*
Y248796D01*
Y248759D01*
Y248740D01*
X336815Y248333D01*
X336908Y247963D01*
X337019Y247648D01*
X337167Y247370D01*
X337315Y247148D01*
X337427Y246981D01*
X337519Y246870D01*
X337556Y246833D01*
X337852Y246574D01*
X338167Y246389D01*
X338482Y246259D01*
X338778Y246166D01*
X339038Y246111D01*
X339241Y246092D01*
X339315Y246074D01*
X339426D01*
X339760Y246092D01*
X340074Y246166D01*
X340352Y246259D01*
X340574Y246370D01*
X340760Y246463D01*
X340908Y246555D01*
X340982Y246629D01*
X341019Y246648D01*
X341241Y246907D01*
X341426Y247203D01*
X341593Y247518D01*
X341722Y247852D01*
X341815Y248129D01*
X341852Y248259D01*
X341870Y248370D01*
X341889Y248463D01*
X341908Y248537D01*
X341926Y248574D01*
Y248592D01*
X343500Y248389D01*
X343463Y248092D01*
X343407Y247815D01*
X343241Y247296D01*
X343037Y246852D01*
X342926Y246667D01*
X342815Y246481D01*
X342704Y246315D01*
X342593Y246185D01*
X342500Y246055D01*
X342407Y245963D01*
X342352Y245889D01*
X342296Y245833D01*
X342259Y245796D01*
X342241Y245778D01*
X342019Y245611D01*
X341796Y245444D01*
X341574Y245315D01*
X341334Y245204D01*
X340871Y245019D01*
X340426Y244907D01*
X340223Y244870D01*
X340037Y244833D01*
X339871Y244815D01*
X339723Y244796D01*
X339612Y244778D01*
X339445D01*
X339093Y244796D01*
X338778Y244833D01*
X338464Y244889D01*
X338167Y244963D01*
X337890Y245056D01*
X337649Y245148D01*
X337408Y245259D01*
X337204Y245370D01*
X337001Y245463D01*
X336834Y245574D01*
X336686Y245667D01*
X336575Y245759D01*
X336482Y245833D01*
X336408Y245889D01*
X336371Y245926D01*
X336353Y245944D01*
X336130Y246166D01*
X335945Y246407D01*
X335779Y246648D01*
X335630Y246889D01*
X335519Y247111D01*
X335408Y247352D01*
X335260Y247796D01*
X335223Y248000D01*
X335186Y248185D01*
X335149Y248351D01*
X335131Y248500D01*
X335112Y248611D01*
Y248703D01*
Y248759D01*
Y248777D01*
X335131Y249222D01*
X335205Y249629D01*
X335316Y249981D01*
X335427Y250277D01*
X335538Y250518D01*
X335649Y250703D01*
X335723Y250814D01*
X335742Y250851D01*
X336001Y251129D01*
X336278Y251370D01*
X336575Y251555D01*
X336871Y251703D01*
X337130Y251814D01*
X337334Y251888D01*
X337408Y251907D01*
X337464Y251925D01*
X337501Y251944D01*
X337519D01*
X337204Y252110D01*
X336945Y252277D01*
X336723Y252462D01*
X336538Y252629D01*
X336390Y252777D01*
X336278Y252907D01*
X336223Y252981D01*
X336204Y253018D01*
X336056Y253277D01*
X335945Y253536D01*
X335853Y253795D01*
X335797Y254036D01*
X335760Y254240D01*
X335742Y254388D01*
Y254499D01*
Y254536D01*
X335760Y254851D01*
X335816Y255166D01*
X335890Y255443D01*
X335982Y255684D01*
X336075Y255888D01*
X336149Y256054D01*
X336204Y256147D01*
X336223Y256184D01*
X336408Y256462D01*
X336630Y256702D01*
X336852Y256906D01*
X337075Y257091D01*
X337260Y257221D01*
X337427Y257332D01*
X337538Y257388D01*
X337556Y257406D01*
X337575D01*
X337908Y257554D01*
X338241Y257665D01*
X338575Y257758D01*
X338871Y257813D01*
X339112Y257850D01*
X339315Y257869D01*
X339778D01*
X340037Y257832D01*
D02*
G37*
G36*
X332668Y245000D02*
X330872D01*
Y246796D01*
X332668D01*
Y245000D01*
D02*
G37*
G36*
X324891Y257832D02*
X325354Y257758D01*
X325743Y257628D01*
X326076Y257499D01*
X326354Y257351D01*
X326465Y257295D01*
X326557Y257221D01*
X326631Y257184D01*
X326687Y257147D01*
X326705Y257110D01*
X326724D01*
X327057Y256814D01*
X327335Y256462D01*
X327576Y256110D01*
X327761Y255777D01*
X327909Y255462D01*
X327983Y255332D01*
X328020Y255203D01*
X328057Y255110D01*
X328094Y255036D01*
X328113Y254999D01*
Y254980D01*
X328187Y254703D01*
X328261Y254425D01*
X328372Y253814D01*
X328465Y253203D01*
X328520Y252629D01*
X328539Y252351D01*
X328557Y252110D01*
Y251888D01*
X328576Y251684D01*
Y251536D01*
Y251407D01*
Y251333D01*
Y251314D01*
X328557Y250666D01*
X328520Y250055D01*
X328465Y249499D01*
X328372Y248981D01*
X328279Y248500D01*
X328168Y248074D01*
X328057Y247685D01*
X327946Y247352D01*
X327835Y247055D01*
X327705Y246796D01*
X327613Y246574D01*
X327520Y246407D01*
X327428Y246259D01*
X327372Y246166D01*
X327335Y246111D01*
X327317Y246092D01*
X327113Y245870D01*
X326891Y245667D01*
X326650Y245481D01*
X326409Y245333D01*
X326169Y245204D01*
X325928Y245093D01*
X325687Y245019D01*
X325465Y244944D01*
X325243Y244889D01*
X325039Y244852D01*
X324854Y244815D01*
X324706Y244796D01*
X324576Y244778D01*
X324391D01*
X323891Y244815D01*
X323428Y244889D01*
X323039Y245019D01*
X322706Y245148D01*
X322428Y245278D01*
X322336Y245352D01*
X322243Y245407D01*
X322169Y245444D01*
X322113Y245481D01*
X322095Y245518D01*
X322076D01*
X321743Y245833D01*
X321465Y246166D01*
X321225Y246537D01*
X321039Y246870D01*
X320891Y247185D01*
X320817Y247314D01*
X320780Y247444D01*
X320743Y247537D01*
X320706Y247611D01*
X320687Y247648D01*
Y247666D01*
X320595Y247944D01*
X320521Y248222D01*
X320410Y248814D01*
X320317Y249425D01*
X320262Y250018D01*
X320243Y250277D01*
X320225Y250518D01*
Y250740D01*
X320206Y250944D01*
Y251092D01*
Y251222D01*
Y251296D01*
Y251314D01*
Y251666D01*
X320225Y251999D01*
Y252295D01*
X320243Y252592D01*
X320280Y252851D01*
X320299Y253110D01*
X320317Y253332D01*
X320354Y253536D01*
X320373Y253721D01*
X320410Y253888D01*
X320428Y254018D01*
X320447Y254129D01*
X320465Y254221D01*
X320484Y254277D01*
X320502Y254314D01*
Y254332D01*
X320614Y254740D01*
X320743Y255110D01*
X320891Y255425D01*
X321002Y255703D01*
X321132Y255943D01*
X321206Y256110D01*
X321280Y256203D01*
X321299Y256239D01*
X321502Y256517D01*
X321706Y256758D01*
X321928Y256962D01*
X322132Y257147D01*
X322317Y257276D01*
X322465Y257369D01*
X322558Y257425D01*
X322576Y257443D01*
X322595D01*
X322891Y257591D01*
X323206Y257684D01*
X323502Y257758D01*
X323780Y257813D01*
X324021Y257850D01*
X324224Y257869D01*
X324391D01*
X324891Y257832D01*
D02*
G37*
%LPC*%
G36*
X290265Y273203D02*
X290154D01*
X289932Y273184D01*
X289728Y273166D01*
X289339Y273055D01*
X289006Y272907D01*
X288728Y272740D01*
X288506Y272573D01*
X288339Y272425D01*
X288246Y272314D01*
X288209Y272295D01*
Y272277D01*
X288043Y272036D01*
X287895Y271758D01*
X287802Y271481D01*
X287710Y271185D01*
X287654Y270944D01*
X287617Y270722D01*
Y270648D01*
X287598Y270592D01*
Y270555D01*
Y270536D01*
X292801D01*
X292746Y270962D01*
X292635Y271351D01*
X292505Y271684D01*
X292357Y271944D01*
X292227Y272166D01*
X292098Y272333D01*
X292024Y272425D01*
X291987Y272462D01*
X291691Y272703D01*
X291394Y272888D01*
X291080Y273018D01*
X290783Y273110D01*
X290543Y273166D01*
X290339Y273184D01*
X290265Y273203D01*
D02*
G37*
G36*
X261434Y273203D02*
X261323D01*
X261101Y273184D01*
X260897Y273166D01*
X260527Y273073D01*
X260194Y272925D01*
X259916Y272758D01*
X259694Y272592D01*
X259527Y272462D01*
X259416Y272351D01*
X259379Y272332D01*
Y272314D01*
X259231Y272147D01*
X259120Y271944D01*
X258916Y271536D01*
X258768Y271092D01*
X258675Y270685D01*
X258620Y270296D01*
X258601Y270129D01*
Y269981D01*
X258583Y269870D01*
Y269777D01*
Y269722D01*
Y269703D01*
Y269370D01*
X258620Y269055D01*
X258657Y268777D01*
X258713Y268500D01*
X258768Y268259D01*
X258842Y268037D01*
X258898Y267833D01*
X258972Y267648D01*
X259046Y267500D01*
X259120Y267352D01*
X259194Y267241D01*
X259249Y267148D01*
X259305Y267074D01*
X259342Y267018D01*
X259361Y267000D01*
X259379Y266981D01*
X259527Y266833D01*
X259694Y266685D01*
X260009Y266463D01*
X260342Y266315D01*
X260638Y266203D01*
X260916Y266148D01*
X261120Y266111D01*
X261212Y266092D01*
X261323D01*
X261546Y266111D01*
X261749Y266129D01*
X262138Y266222D01*
X262471Y266370D01*
X262749Y266537D01*
X262971Y266685D01*
X263138Y266833D01*
X263249Y266926D01*
X263268Y266963D01*
X263286D01*
X263416Y267148D01*
X263545Y267333D01*
X263731Y267759D01*
X263879Y268203D01*
X263971Y268648D01*
X264027Y269037D01*
X264045Y269203D01*
Y269351D01*
X264064Y269481D01*
Y269574D01*
Y269629D01*
Y269648D01*
X264045Y269962D01*
X264027Y270277D01*
X263990Y270555D01*
X263934Y270814D01*
X263879Y271055D01*
X263823Y271277D01*
X263749Y271462D01*
X263675Y271647D01*
X263601Y271796D01*
X263527Y271944D01*
X263471Y272055D01*
X263416Y272147D01*
X263360Y272221D01*
X263323Y272277D01*
X263286Y272295D01*
Y272314D01*
X263138Y272462D01*
X262971Y272610D01*
X262656Y272833D01*
X262323Y272981D01*
X262008Y273092D01*
X261731Y273166D01*
X261527Y273184D01*
X261434Y273203D01*
D02*
G37*
G36*
X407094Y253203D02*
X406983D01*
X406761Y253184D01*
X406557Y253166D01*
X406169Y253055D01*
X405835Y252907D01*
X405557Y252740D01*
X405335Y252573D01*
X405169Y252425D01*
X405076Y252314D01*
X405039Y252295D01*
Y252277D01*
X404872Y252036D01*
X404724Y251758D01*
X404632Y251481D01*
X404539Y251185D01*
X404483Y250944D01*
X404446Y250722D01*
Y250648D01*
X404428Y250592D01*
Y250555D01*
Y250536D01*
X409631D01*
X409576Y250962D01*
X409464Y251351D01*
X409335Y251684D01*
X409187Y251944D01*
X409057Y252166D01*
X408927Y252332D01*
X408853Y252425D01*
X408816Y252462D01*
X408520Y252703D01*
X408224Y252888D01*
X407909Y253018D01*
X407613Y253110D01*
X407372Y253166D01*
X407168Y253184D01*
X407094Y253203D01*
D02*
G37*
G36*
X421796Y256388D02*
X417760D01*
X417260Y256369D01*
X416834Y256295D01*
X416464Y256203D01*
X416186Y256091D01*
X415945Y255980D01*
X415797Y255888D01*
X415704Y255814D01*
X415667Y255795D01*
X415445Y255554D01*
X415279Y255314D01*
X415168Y255054D01*
X415075Y254832D01*
X415038Y254610D01*
X415019Y254443D01*
X415001Y254332D01*
Y254314D01*
Y254295D01*
X415019Y254073D01*
X415056Y253851D01*
X415112Y253666D01*
X415168Y253499D01*
X415242Y253351D01*
X415297Y253240D01*
X415334Y253166D01*
X415353Y253147D01*
X415482Y252962D01*
X415649Y252796D01*
X415816Y252666D01*
X415982Y252555D01*
X416130Y252481D01*
X416241Y252425D01*
X416316Y252388D01*
X416353Y252370D01*
X416612Y252295D01*
X416908Y252240D01*
X417204Y252203D01*
X417501Y252184D01*
X417760Y252166D01*
X417982Y252147D01*
X421796D01*
Y256388D01*
D02*
G37*
G36*
X371302Y253203D02*
X371191D01*
X370968Y253184D01*
X370765Y253166D01*
X370394Y253073D01*
X370061Y252925D01*
X369783Y252758D01*
X369561Y252592D01*
X369394Y252462D01*
X369283Y252351D01*
X369246Y252332D01*
Y252314D01*
X369098Y252147D01*
X368987Y251944D01*
X368783Y251536D01*
X368635Y251092D01*
X368543Y250685D01*
X368487Y250296D01*
X368469Y250129D01*
Y249981D01*
X368450Y249870D01*
Y249777D01*
Y249722D01*
Y249703D01*
Y249370D01*
X368487Y249055D01*
X368524Y248777D01*
X368580Y248500D01*
X368635Y248259D01*
X368709Y248037D01*
X368765Y247833D01*
X368839Y247648D01*
X368913Y247500D01*
X368987Y247352D01*
X369061Y247241D01*
X369117Y247148D01*
X369172Y247074D01*
X369209Y247018D01*
X369228Y247000D01*
X369246Y246981D01*
X369394Y246833D01*
X369561Y246685D01*
X369876Y246463D01*
X370209Y246315D01*
X370505Y246203D01*
X370783Y246148D01*
X370987Y246111D01*
X371079Y246092D01*
X371191D01*
X371413Y246111D01*
X371617Y246129D01*
X372005Y246222D01*
X372339Y246370D01*
X372616Y246537D01*
X372839Y246685D01*
X373005Y246833D01*
X373116Y246926D01*
X373135Y246963D01*
X373153D01*
X373283Y247148D01*
X373413Y247333D01*
X373598Y247759D01*
X373746Y248203D01*
X373839Y248648D01*
X373894Y249037D01*
X373913Y249203D01*
Y249351D01*
X373931Y249481D01*
Y249574D01*
Y249629D01*
Y249648D01*
X373913Y249962D01*
X373894Y250277D01*
X373857Y250555D01*
X373801Y250814D01*
X373746Y251055D01*
X373690Y251277D01*
X373616Y251462D01*
X373542Y251647D01*
X373468Y251796D01*
X373394Y251944D01*
X373339Y252055D01*
X373283Y252147D01*
X373227Y252221D01*
X373190Y252277D01*
X373153Y252295D01*
Y252314D01*
X373005Y252462D01*
X372839Y252610D01*
X372524Y252833D01*
X372191Y252981D01*
X371876Y253092D01*
X371598Y253166D01*
X371394Y253184D01*
X371302Y253203D01*
D02*
G37*
G36*
X388152Y273203D02*
X388041D01*
X387818Y273184D01*
X387615Y273166D01*
X387226Y273055D01*
X386893Y272907D01*
X386615Y272740D01*
X386393Y272573D01*
X386226Y272425D01*
X386133Y272314D01*
X386096Y272295D01*
Y272277D01*
X385930Y272036D01*
X385782Y271758D01*
X385689Y271481D01*
X385597Y271185D01*
X385541Y270944D01*
X385504Y270722D01*
Y270648D01*
X385485Y270592D01*
Y270555D01*
Y270536D01*
X390689D01*
X390633Y270962D01*
X390522Y271351D01*
X390392Y271684D01*
X390244Y271944D01*
X390115Y272166D01*
X389985Y272333D01*
X389911Y272425D01*
X389874Y272462D01*
X389578Y272703D01*
X389281Y272888D01*
X388966Y273018D01*
X388670Y273110D01*
X388430Y273166D01*
X388226Y273184D01*
X388152Y273203D01*
D02*
G37*
G36*
X421796Y276295D02*
X418130D01*
X417797Y276277D01*
X417519Y276258D01*
X417297Y276240D01*
X417149Y276203D01*
X417038Y276184D01*
X416964Y276166D01*
X416945D01*
X416704Y276073D01*
X416501Y275962D01*
X416316Y275851D01*
X416149Y275721D01*
X416038Y275592D01*
X415945Y275499D01*
X415890Y275425D01*
X415871Y275406D01*
X415742Y275184D01*
X415630Y274962D01*
X415556Y274721D01*
X415519Y274517D01*
X415482Y274332D01*
X415464Y274166D01*
Y274073D01*
Y274055D01*
Y274036D01*
X415501Y273647D01*
X415575Y273314D01*
X415686Y273018D01*
X415816Y272777D01*
X415945Y272592D01*
X416056Y272444D01*
X416130Y272370D01*
X416167Y272333D01*
X416297Y272222D01*
X416464Y272129D01*
X416815Y271981D01*
X417204Y271870D01*
X417593Y271796D01*
X417945Y271758D01*
X418093Y271740D01*
X418223D01*
X418352Y271721D01*
X421796D01*
Y276295D01*
D02*
G37*
G36*
X402150Y273203D02*
X402039D01*
X401817Y273184D01*
X401613Y273166D01*
X401243Y273073D01*
X400910Y272925D01*
X400632Y272758D01*
X400410Y272592D01*
X400243Y272462D01*
X400132Y272351D01*
X400095Y272333D01*
Y272314D01*
X399947Y272147D01*
X399836Y271944D01*
X399632Y271536D01*
X399484Y271092D01*
X399391Y270685D01*
X399336Y270296D01*
X399317Y270129D01*
Y269981D01*
X399299Y269870D01*
Y269777D01*
Y269722D01*
Y269703D01*
Y269370D01*
X399336Y269055D01*
X399373Y268777D01*
X399428Y268500D01*
X399484Y268259D01*
X399558Y268037D01*
X399614Y267833D01*
X399688Y267648D01*
X399762Y267500D01*
X399836Y267352D01*
X399910Y267241D01*
X399965Y267148D01*
X400021Y267074D01*
X400058Y267018D01*
X400076Y267000D01*
X400095Y266981D01*
X400243Y266833D01*
X400410Y266685D01*
X400725Y266463D01*
X401058Y266315D01*
X401354Y266204D01*
X401632Y266148D01*
X401836Y266111D01*
X401928Y266092D01*
X402039D01*
X402262Y266111D01*
X402465Y266129D01*
X402854Y266222D01*
X403187Y266370D01*
X403465Y266537D01*
X403687Y266685D01*
X403854Y266833D01*
X403965Y266926D01*
X403983Y266963D01*
X404002D01*
X404132Y267148D01*
X404261Y267333D01*
X404446Y267759D01*
X404594Y268203D01*
X404687Y268648D01*
X404743Y269037D01*
X404761Y269203D01*
Y269351D01*
X404780Y269481D01*
Y269574D01*
Y269629D01*
Y269648D01*
X404761Y269962D01*
X404743Y270277D01*
X404706Y270555D01*
X404650Y270814D01*
X404594Y271055D01*
X404539Y271277D01*
X404465Y271462D01*
X404391Y271647D01*
X404317Y271796D01*
X404243Y271944D01*
X404187Y272055D01*
X404132Y272147D01*
X404076Y272222D01*
X404039Y272277D01*
X404002Y272295D01*
Y272314D01*
X403854Y272462D01*
X403687Y272610D01*
X403372Y272833D01*
X403039Y272981D01*
X402724Y273092D01*
X402447Y273166D01*
X402243Y273184D01*
X402150Y273203D01*
D02*
G37*
G36*
X324520Y256573D02*
X324409D01*
X324206Y256554D01*
X324002Y256536D01*
X323817Y256480D01*
X323650Y256406D01*
X323335Y256239D01*
X323058Y256054D01*
X322854Y255851D01*
X322687Y255684D01*
X322632Y255610D01*
X322595Y255554D01*
X322558Y255536D01*
Y255517D01*
X322428Y255295D01*
X322317Y255036D01*
X322206Y254740D01*
X322132Y254425D01*
X322058Y254092D01*
X322002Y253740D01*
X321910Y253036D01*
X321873Y252684D01*
X321854Y252370D01*
X321836Y252073D01*
Y251833D01*
X321817Y251610D01*
Y251444D01*
Y251351D01*
Y251333D01*
Y251314D01*
Y250740D01*
X321854Y250222D01*
X321891Y249759D01*
X321928Y249314D01*
X321984Y248944D01*
X322058Y248592D01*
X322132Y248296D01*
X322187Y248018D01*
X322262Y247796D01*
X322336Y247611D01*
X322391Y247444D01*
X322465Y247314D01*
X322502Y247222D01*
X322539Y247166D01*
X322576Y247129D01*
Y247111D01*
X322724Y246926D01*
X322873Y246778D01*
X323021Y246629D01*
X323169Y246518D01*
X323484Y246333D01*
X323761Y246203D01*
X324021Y246129D01*
X324206Y246092D01*
X324280Y246074D01*
X324391D01*
X324595Y246092D01*
X324780Y246111D01*
X325131Y246241D01*
X325446Y246407D01*
X325724Y246592D01*
X325928Y246778D01*
X326094Y246944D01*
X326187Y247074D01*
X326224Y247092D01*
Y247111D01*
X326354Y247333D01*
X326465Y247592D01*
X326576Y247889D01*
X326650Y248203D01*
X326724Y248537D01*
X326780Y248888D01*
X326872Y249611D01*
X326909Y249944D01*
X326928Y250259D01*
X326946Y250555D01*
Y250796D01*
X326965Y251018D01*
Y251185D01*
Y251277D01*
Y251314D01*
X326946Y251888D01*
X326928Y252407D01*
X326891Y252888D01*
X326835Y253332D01*
X326780Y253721D01*
X326705Y254073D01*
X326631Y254388D01*
X326557Y254666D01*
X326483Y254906D01*
X326428Y255110D01*
X326354Y255277D01*
X326298Y255425D01*
X326242Y255517D01*
X326205Y255592D01*
X326169Y255629D01*
Y255647D01*
X326039Y255814D01*
X325909Y255962D01*
X325761Y256073D01*
X325613Y256184D01*
X325317Y256351D01*
X325039Y256462D01*
X324798Y256517D01*
X324595Y256554D01*
X324520Y256573D01*
D02*
G37*
%LPD*%
M02*
