M48
;Layer_Color=9474304
;FILE_FORMAT=4:3
METRIC,TZ
;TYPE=PLATED
T1F00S00C0.300
T2F00S00C0.800
T3F00S00C1.000
T4F00S00C3.500
%
T01
X11000Y1200
Y2800
X11210Y4500
X14000Y6000
X16500Y4500
X16300Y1245
X14600
X18000
X22100Y1800
Y3000
X17400Y12900
X14900Y15500
X11300Y14400
X9745Y14400
X12000Y12000
Y10800
X13800Y23600
X16800
X16500Y25200
X10000Y24000
X9100Y25500
Y26700
Y29000
X5300Y28755
X8000Y24000
X7490Y14300
T02
X25000Y2000
Y4000
Y6000
Y8000
X47000
Y6000
Y4000
Y2000
Y10000
Y12000
Y14000
Y16000
Y18000
Y20000
X25000
Y18000
Y16000
Y14000
Y12000
Y10000
T03
X20000Y7460
Y10000
Y12540
Y22920
Y25460
Y28000
X2000
Y25460
Y18000
Y15460
Y12920
Y10380
T04
X3500Y3500
X46500Y26500
M30
