G04*
G04 #@! TF.GenerationSoftware,Altium Limited,Altium Designer,19.1.9 (167)*
G04*
G04 Layer_Physical_Order=1*
G04 Layer_Color=255*
%FSLAX44Y44*%
%MOMM*%
G71*
G01*
G75*
%ADD11C,0.2000*%
G04:AMPARAMS|DCode=30|XSize=0.84mm|YSize=0.93mm|CornerRadius=0.21mm|HoleSize=0mm|Usage=FLASHONLY|Rotation=0.000|XOffset=0mm|YOffset=0mm|HoleType=Round|Shape=RoundedRectangle|*
%AMROUNDEDRECTD30*
21,1,0.8400,0.5100,0,0,0.0*
21,1,0.4200,0.9300,0,0,0.0*
1,1,0.4200,0.2100,-0.2550*
1,1,0.4200,-0.2100,-0.2550*
1,1,0.4200,-0.2100,0.2550*
1,1,0.4200,0.2100,0.2550*
%
%ADD30ROUNDEDRECTD30*%
G04:AMPARAMS|DCode=31|XSize=0.84mm|YSize=0.93mm|CornerRadius=0.21mm|HoleSize=0mm|Usage=FLASHONLY|Rotation=90.000|XOffset=0mm|YOffset=0mm|HoleType=Round|Shape=RoundedRectangle|*
%AMROUNDEDRECTD31*
21,1,0.8400,0.5100,0,0,90.0*
21,1,0.4200,0.9300,0,0,90.0*
1,1,0.4200,0.2550,0.2100*
1,1,0.4200,0.2550,-0.2100*
1,1,0.4200,-0.2550,-0.2100*
1,1,0.4200,-0.2550,0.2100*
%
%ADD31ROUNDEDRECTD31*%
G04:AMPARAMS|DCode=32|XSize=0.91mm|YSize=1.02mm|CornerRadius=0.2321mm|HoleSize=0mm|Usage=FLASHONLY|Rotation=0.000|XOffset=0mm|YOffset=0mm|HoleType=Round|Shape=RoundedRectangle|*
%AMROUNDEDRECTD32*
21,1,0.9100,0.5559,0,0,0.0*
21,1,0.4459,1.0200,0,0,0.0*
1,1,0.4641,0.2230,-0.2779*
1,1,0.4641,-0.2230,-0.2779*
1,1,0.4641,-0.2230,0.2779*
1,1,0.4641,0.2230,0.2779*
%
%ADD32ROUNDEDRECTD32*%
%ADD33R,0.6000X1.2000*%
G04:AMPARAMS|DCode=34|XSize=0.6mm|YSize=1.2mm|CornerRadius=0.15mm|HoleSize=0mm|Usage=FLASHONLY|Rotation=180.000|XOffset=0mm|YOffset=0mm|HoleType=Round|Shape=RoundedRectangle|*
%AMROUNDEDRECTD34*
21,1,0.6000,0.9000,0,0,180.0*
21,1,0.3000,1.2000,0,0,180.0*
1,1,0.3000,-0.1500,0.4500*
1,1,0.3000,0.1500,0.4500*
1,1,0.3000,0.1500,-0.4500*
1,1,0.3000,-0.1500,-0.4500*
%
%ADD34ROUNDEDRECTD34*%
G04:AMPARAMS|DCode=35|XSize=0.91mm|YSize=1.02mm|CornerRadius=0.2321mm|HoleSize=0mm|Usage=FLASHONLY|Rotation=90.000|XOffset=0mm|YOffset=0mm|HoleType=Round|Shape=RoundedRectangle|*
%AMROUNDEDRECTD35*
21,1,0.9100,0.5559,0,0,90.0*
21,1,0.4459,1.0200,0,0,90.0*
1,1,0.4641,0.2779,0.2230*
1,1,0.4641,0.2779,-0.2230*
1,1,0.4641,-0.2779,-0.2230*
1,1,0.4641,-0.2779,0.2230*
%
%ADD35ROUNDEDRECTD35*%
%ADD36O,1.0000X0.3000*%
%ADD37R,1.4000X1.2000*%
G04:AMPARAMS|DCode=38|XSize=0.85mm|YSize=0.45mm|CornerRadius=0.1125mm|HoleSize=0mm|Usage=FLASHONLY|Rotation=0.000|XOffset=0mm|YOffset=0mm|HoleType=Round|Shape=RoundedRectangle|*
%AMROUNDEDRECTD38*
21,1,0.8500,0.2250,0,0,0.0*
21,1,0.6250,0.4500,0,0,0.0*
1,1,0.2250,0.3125,-0.1125*
1,1,0.2250,-0.3125,-0.1125*
1,1,0.2250,-0.3125,0.1125*
1,1,0.2250,0.3125,0.1125*
%
%ADD38ROUNDEDRECTD38*%
%ADD39R,1.6000X2.5000*%
G04:AMPARAMS|DCode=40|XSize=0.5mm|YSize=0.35mm|CornerRadius=0.0875mm|HoleSize=0mm|Usage=FLASHONLY|Rotation=0.000|XOffset=0mm|YOffset=0mm|HoleType=Round|Shape=RoundedRectangle|*
%AMROUNDEDRECTD40*
21,1,0.5000,0.1750,0,0,0.0*
21,1,0.3250,0.3500,0,0,0.0*
1,1,0.1750,0.1625,-0.0875*
1,1,0.1750,-0.1625,-0.0875*
1,1,0.1750,-0.1625,0.0875*
1,1,0.1750,0.1625,0.0875*
%
%ADD40ROUNDEDRECTD40*%
%ADD41O,0.7000X0.2500*%
%ADD42R,1.4000X2.2000*%
G04:AMPARAMS|DCode=43|XSize=0.857mm|YSize=0.907mm|CornerRadius=0.2185mm|HoleSize=0mm|Usage=FLASHONLY|Rotation=90.000|XOffset=0mm|YOffset=0mm|HoleType=Round|Shape=RoundedRectangle|*
%AMROUNDEDRECTD43*
21,1,0.8570,0.4699,0,0,90.0*
21,1,0.4199,0.9070,0,0,90.0*
1,1,0.4371,0.2350,0.2100*
1,1,0.4371,0.2350,-0.2100*
1,1,0.4371,-0.2350,-0.2100*
1,1,0.4371,-0.2350,0.2100*
%
%ADD43ROUNDEDRECTD43*%
%ADD44C,0.5000*%
%ADD45C,0.3000*%
%ADD46C,1.5000*%
%ADD47R,1.5000X1.5000*%
%ADD48C,6.0000*%
%ADD49C,0.8000*%
G36*
X85000Y290591D02*
X84882Y290000D01*
X85000Y289409D01*
Y274000D01*
X82000D01*
X82000Y274000D01*
X80063Y274152D01*
X79250Y274314D01*
X78250D01*
Y271000D01*
X77000D01*
Y269750D01*
X71685D01*
X71689Y269732D01*
X72326Y268500D01*
X71689Y267268D01*
X71685Y267250D01*
X77000D01*
Y264750D01*
X70457D01*
X69916Y264059D01*
X69000D01*
X69000Y264059D01*
X67829Y263826D01*
X66837Y263163D01*
X66837Y263163D01*
X65440Y261765D01*
X63506Y261956D01*
X62150Y262862D01*
X60550Y263180D01*
X59250D01*
Y256900D01*
X56750D01*
Y263180D01*
X55450D01*
X53850Y262862D01*
X52494Y261956D01*
X52134Y261416D01*
X49866D01*
X49506Y261956D01*
X48150Y262862D01*
X46550Y263180D01*
X45250D01*
Y256900D01*
X44000D01*
Y255650D01*
X37270D01*
Y254800D01*
X37588Y253200D01*
X38494Y251844D01*
X39757Y251000D01*
X39785Y250851D01*
X39085Y249000D01*
X35000D01*
Y265000D01*
X5000D01*
Y295000D01*
X46657D01*
X47264Y293000D01*
X47106Y292894D01*
X46151Y291465D01*
X45815Y289779D01*
Y285320D01*
X46151Y283635D01*
X47106Y282206D01*
X48535Y281251D01*
X49696Y281020D01*
Y278980D01*
X48535Y278749D01*
X47106Y277794D01*
X46151Y276365D01*
X45815Y274680D01*
Y273700D01*
X53000D01*
X60185D01*
Y274680D01*
X59849Y276365D01*
X58894Y277794D01*
X57465Y278749D01*
X56304Y278980D01*
Y281020D01*
X57465Y281251D01*
X58894Y282206D01*
X59849Y283635D01*
X60185Y285320D01*
Y289779D01*
X59849Y291465D01*
X58894Y292894D01*
X58736Y293000D01*
X59343Y295000D01*
X85000D01*
Y290591D01*
D02*
G37*
G36*
X130000Y275000D02*
X133853D01*
X134308Y273500D01*
X133494Y272956D01*
X132588Y271600D01*
X132270Y270000D01*
Y269150D01*
X139000D01*
Y266650D01*
X132270D01*
Y265800D01*
X132588Y264200D01*
X133254Y263203D01*
X132397Y261910D01*
X131650Y262059D01*
X131650Y262059D01*
X130131D01*
X129033Y263559D01*
X129185Y264321D01*
Y265300D01*
X122000D01*
X114815D01*
Y264531D01*
X114307Y264081D01*
X113417Y263661D01*
X113170Y263826D01*
X112000Y264059D01*
X112000Y264059D01*
X111528D01*
X111043Y264750D01*
X105000D01*
Y267250D01*
X110315D01*
X110311Y267268D01*
X110281Y267313D01*
X109674Y268500D01*
X110281Y269687D01*
X110311Y269732D01*
X110315Y269750D01*
X105000D01*
Y271000D01*
X103750D01*
Y274314D01*
X102750D01*
X101482Y274061D01*
X101476Y274058D01*
X100000Y274000D01*
X100000Y274000D01*
X100000Y274000D01*
X97000D01*
Y289409D01*
X97118Y290000D01*
X97000Y290591D01*
Y295000D01*
X130000D01*
Y275000D01*
D02*
G37*
G36*
X215000Y265000D02*
X190000D01*
Y225000D01*
X170000Y205000D01*
X163138D01*
Y209600D01*
X163894Y210106D01*
X164849Y211535D01*
X165185Y213221D01*
Y214750D01*
X158550D01*
Y216000D01*
X157300D01*
Y223185D01*
X156320D01*
X154635Y222849D01*
X153206Y221894D01*
X152581Y220959D01*
X150794Y220458D01*
X150210Y220455D01*
X150000Y220655D01*
Y225000D01*
X146644Y228356D01*
X147919Y229910D01*
X148400Y229588D01*
X150000Y229270D01*
X154200D01*
X155800Y229588D01*
X157156Y230494D01*
X158062Y231850D01*
X158380Y233450D01*
Y238550D01*
X158062Y240150D01*
X157156Y241506D01*
X155800Y242412D01*
X155109Y242550D01*
Y245931D01*
X156150Y246138D01*
X157506Y247044D01*
X159494D01*
X160850Y246138D01*
X162450Y245820D01*
X167550D01*
X169150Y246138D01*
X170506Y247044D01*
X171412Y248400D01*
X171730Y250000D01*
Y254200D01*
X171412Y255800D01*
X170506Y257156D01*
X169150Y258062D01*
X167550Y258380D01*
X162450D01*
X160850Y258062D01*
X159494Y257156D01*
X157506D01*
X156150Y258062D01*
X155446Y258202D01*
X154558Y259939D01*
X155324Y261774D01*
X156150Y261938D01*
X157506Y262844D01*
X159494D01*
X160850Y261938D01*
X162450Y261620D01*
X167550D01*
X169150Y261938D01*
X170506Y262844D01*
X171412Y264200D01*
X171730Y265800D01*
Y270000D01*
X171412Y271600D01*
X170506Y272956D01*
X169150Y273862D01*
X167550Y274180D01*
X162450D01*
X160850Y273862D01*
X159494Y272956D01*
X157506D01*
X156150Y273862D01*
X154550Y274180D01*
X149450D01*
X147850Y273862D01*
X146494Y272956D01*
X144506D01*
X143150Y273862D01*
X141550Y274180D01*
X138602D01*
X138556Y274270D01*
X139777Y276270D01*
X140000D01*
X141600Y276588D01*
X142956Y277494D01*
X143862Y278850D01*
X144180Y280450D01*
Y281750D01*
X137900D01*
Y283000D01*
X136650D01*
Y289730D01*
X135800D01*
X134200Y289412D01*
X134039Y289305D01*
X132039Y290373D01*
Y295000D01*
X215000D01*
Y265000D01*
D02*
G37*
G36*
X495000Y5000D02*
X278154D01*
X277326Y7000D01*
X301063Y30737D01*
X301063Y30737D01*
X301726Y31730D01*
X301959Y32900D01*
X301959Y32900D01*
Y53460D01*
X302600Y53588D01*
X303956Y54494D01*
X304862Y55850D01*
X305079Y56941D01*
X460984D01*
X461702Y55209D01*
X463224Y53225D01*
X465209Y51702D01*
X466704Y51082D01*
Y48918D01*
X465209Y48298D01*
X463224Y46775D01*
X461702Y44791D01*
X460745Y42480D01*
X460418Y40000D01*
X460745Y37520D01*
X461702Y35209D01*
X463224Y33224D01*
X465209Y31702D01*
X466704Y31082D01*
Y28918D01*
X465209Y28298D01*
X463224Y26775D01*
X461702Y24791D01*
X460745Y22480D01*
X460418Y20000D01*
X460745Y17520D01*
X461702Y15209D01*
X463224Y13225D01*
X465209Y11702D01*
X467520Y10745D01*
X470000Y10418D01*
X472480Y10745D01*
X474791Y11702D01*
X476775Y13225D01*
X478298Y15209D01*
X479255Y17520D01*
X479582Y20000D01*
X479255Y22480D01*
X478298Y24791D01*
X476775Y26775D01*
X474791Y28298D01*
X473296Y28918D01*
Y31082D01*
X474791Y31702D01*
X476775Y33224D01*
X478298Y35209D01*
X479255Y37520D01*
X479582Y40000D01*
X479255Y42480D01*
X478298Y44791D01*
X476775Y46775D01*
X474791Y48298D01*
X473296Y48918D01*
Y51082D01*
X474791Y51702D01*
X476775Y53225D01*
X478298Y55209D01*
X479255Y57520D01*
X479582Y60000D01*
X479255Y62480D01*
X478298Y64791D01*
X476775Y66775D01*
X474791Y68298D01*
X473296Y68918D01*
Y71082D01*
X474791Y71702D01*
X476775Y73225D01*
X478298Y75209D01*
X479255Y77520D01*
X479582Y80000D01*
X479255Y82480D01*
X478298Y84791D01*
X476775Y86775D01*
X474791Y88298D01*
X473296Y88918D01*
Y91082D01*
X474791Y91702D01*
X476775Y93225D01*
X478298Y95209D01*
X479255Y97520D01*
X479582Y100000D01*
X479255Y102480D01*
X478298Y104791D01*
X476775Y106776D01*
X474791Y108298D01*
X473296Y108918D01*
Y111082D01*
X474791Y111702D01*
X476775Y113225D01*
X478298Y115209D01*
X479255Y117520D01*
X479582Y120000D01*
X479255Y122480D01*
X478298Y124791D01*
X476775Y126776D01*
X474791Y128298D01*
X473296Y128918D01*
Y131082D01*
X474791Y131702D01*
X476775Y133225D01*
X478298Y135209D01*
X479255Y137520D01*
X479582Y140000D01*
X479255Y142480D01*
X478298Y144791D01*
X476775Y146776D01*
X474791Y148298D01*
X473296Y148918D01*
Y151082D01*
X474791Y151702D01*
X476775Y153225D01*
X478298Y155209D01*
X479255Y157520D01*
X479582Y160000D01*
X479255Y162480D01*
X478298Y164791D01*
X476775Y166775D01*
X474791Y168298D01*
X473296Y168918D01*
Y171082D01*
X474791Y171702D01*
X476775Y173225D01*
X478298Y175209D01*
X479255Y177520D01*
X479582Y180000D01*
X479255Y182480D01*
X478298Y184791D01*
X476775Y186775D01*
X474791Y188298D01*
X473296Y188918D01*
Y191082D01*
X474791Y191702D01*
X476775Y193225D01*
X478298Y195209D01*
X479255Y197520D01*
X479582Y200000D01*
X479255Y202480D01*
X478298Y204791D01*
X476775Y206775D01*
X474791Y208298D01*
X472480Y209256D01*
X470000Y209582D01*
X467520Y209256D01*
X465209Y208298D01*
X463224Y206775D01*
X461702Y204791D01*
X460745Y202480D01*
X460418Y200000D01*
X460745Y197520D01*
X461702Y195209D01*
X463224Y193225D01*
X465209Y191702D01*
X466704Y191082D01*
Y188918D01*
X465209Y188298D01*
X463224Y186775D01*
X461702Y184791D01*
X460745Y182480D01*
X460418Y180000D01*
X460745Y177520D01*
X461702Y175209D01*
X463224Y173225D01*
X465209Y171702D01*
X466704Y171082D01*
Y168918D01*
X465209Y168298D01*
X463224Y166775D01*
X461702Y164791D01*
X460745Y162480D01*
X460418Y160000D01*
X460745Y157520D01*
X461702Y155209D01*
X463224Y153225D01*
X465209Y151702D01*
X466704Y151082D01*
Y148918D01*
X465209Y148298D01*
X463224Y146776D01*
X461702Y144791D01*
X460745Y142480D01*
X460418Y140000D01*
X460745Y137520D01*
X461702Y135209D01*
X463224Y133225D01*
X465209Y131702D01*
X466704Y131082D01*
Y128918D01*
X465209Y128298D01*
X463224Y126776D01*
X461702Y124791D01*
X460745Y122480D01*
X460418Y120000D01*
X460745Y117520D01*
X461702Y115209D01*
X463224Y113225D01*
X465209Y111702D01*
X466704Y111082D01*
Y108918D01*
X465209Y108298D01*
X463224Y106776D01*
X461702Y104791D01*
X460745Y102480D01*
X460418Y100000D01*
X460745Y97520D01*
X461702Y95209D01*
X463224Y93225D01*
X465209Y91702D01*
X466704Y91082D01*
Y88918D01*
X465209Y88298D01*
X463224Y86775D01*
X461702Y84791D01*
X460984Y83059D01*
X305079D01*
X304862Y84150D01*
X303956Y85506D01*
X302600Y86412D01*
X301000Y86730D01*
X296800D01*
X295200Y86412D01*
X293844Y85506D01*
X292938Y84150D01*
X292620Y82550D01*
Y77450D01*
X292938Y75850D01*
X293844Y74494D01*
X295200Y73588D01*
X296800Y73270D01*
X301000D01*
X302600Y73588D01*
X303956Y74494D01*
X304862Y75850D01*
X305079Y76941D01*
X460984D01*
X461702Y75209D01*
X463224Y73225D01*
X465209Y71702D01*
X466704Y71082D01*
Y68918D01*
X465209Y68298D01*
X463224Y66775D01*
X461702Y64791D01*
X460984Y63059D01*
X305079D01*
X304862Y64150D01*
X303956Y65506D01*
X302600Y66412D01*
X301000Y66730D01*
X296800D01*
X295200Y66412D01*
X293844Y65506D01*
X292938Y64150D01*
X292620Y62550D01*
Y57450D01*
X292938Y55850D01*
X293844Y54494D01*
X295200Y53588D01*
X295841Y53460D01*
Y34167D01*
X272733Y11059D01*
X257238D01*
X256560Y13059D01*
X256775Y13225D01*
X258298Y15209D01*
X259255Y17520D01*
X259417Y18750D01*
X240583D01*
X240744Y17520D01*
X241702Y15209D01*
X243225Y13225D01*
X243440Y13059D01*
X242762Y11059D01*
X238267D01*
X235059Y14267D01*
Y47787D01*
X235556Y48189D01*
X236955Y48719D01*
X241462Y44212D01*
X240744Y42480D01*
X240418Y40000D01*
X240744Y37520D01*
X241702Y35209D01*
X243225Y33224D01*
X245209Y31702D01*
X246704Y31082D01*
Y28918D01*
X245209Y28298D01*
X243225Y26775D01*
X241702Y24791D01*
X240744Y22480D01*
X240583Y21250D01*
X259417D01*
X259255Y22480D01*
X258298Y24791D01*
X256775Y26775D01*
X254791Y28298D01*
X253296Y28918D01*
Y31082D01*
X254791Y31702D01*
X256775Y33224D01*
X258298Y35209D01*
X259016Y36941D01*
X260921D01*
X261138Y35850D01*
X262044Y34494D01*
X263400Y33588D01*
X265000Y33270D01*
X269200D01*
X270800Y33588D01*
X272156Y34494D01*
X273062Y35850D01*
X273380Y37450D01*
Y42550D01*
X273062Y44150D01*
X272156Y45506D01*
X270800Y46412D01*
X269200Y46730D01*
X265000D01*
X263400Y46412D01*
X262044Y45506D01*
X261138Y44150D01*
X260921Y43059D01*
X259016D01*
X258298Y44791D01*
X256775Y46775D01*
X254791Y48298D01*
X253296Y48918D01*
Y51082D01*
X254791Y51702D01*
X256775Y53225D01*
X258298Y55209D01*
X259255Y57520D01*
X259582Y60000D01*
X259255Y62480D01*
X258298Y64791D01*
X256775Y66775D01*
X254791Y68298D01*
X253296Y68918D01*
Y71082D01*
X254791Y71702D01*
X256775Y73225D01*
X258298Y75209D01*
X259255Y77520D01*
X259582Y80000D01*
X259255Y82480D01*
X258298Y84791D01*
X256775Y86775D01*
X254791Y88298D01*
X253296Y88918D01*
Y91082D01*
X254791Y91702D01*
X256775Y93225D01*
X258298Y95209D01*
X259255Y97520D01*
X259582Y100000D01*
X259255Y102480D01*
X258298Y104791D01*
X256775Y106776D01*
X254791Y108298D01*
X253296Y108918D01*
Y111082D01*
X254791Y111702D01*
X256775Y113225D01*
X258298Y115209D01*
X259016Y116941D01*
X260921D01*
X261138Y115850D01*
X262044Y114494D01*
X263400Y113588D01*
X265000Y113270D01*
X269200D01*
X270800Y113588D01*
X272156Y114494D01*
X273062Y115850D01*
X273380Y117450D01*
Y122550D01*
X273062Y124150D01*
X272156Y125506D01*
X270800Y126412D01*
X269200Y126730D01*
X265000D01*
X263400Y126412D01*
X262044Y125506D01*
X261138Y124150D01*
X260921Y123059D01*
X259016D01*
X258298Y124791D01*
X256775Y126776D01*
X254791Y128298D01*
X253296Y128918D01*
Y131082D01*
X254791Y131702D01*
X256775Y133225D01*
X258298Y135209D01*
X259255Y137520D01*
X259582Y140000D01*
X259255Y142480D01*
X258298Y144791D01*
X256775Y146776D01*
X254791Y148298D01*
X253296Y148918D01*
Y151082D01*
X254791Y151702D01*
X256775Y153225D01*
X258298Y155209D01*
X259255Y157520D01*
X259582Y160000D01*
X259255Y162480D01*
X258298Y164791D01*
X256775Y166775D01*
X254791Y168298D01*
X253296Y168918D01*
Y171082D01*
X254791Y171702D01*
X256775Y173225D01*
X258298Y175209D01*
X259255Y177520D01*
X259582Y180000D01*
X259255Y182480D01*
X258298Y184791D01*
X256775Y186775D01*
X254791Y188298D01*
X254304Y188500D01*
X254701Y190500D01*
X259500D01*
Y196941D01*
X273733D01*
X279841Y190833D01*
Y126540D01*
X279200Y126412D01*
X277844Y125506D01*
X276938Y124150D01*
X276620Y122550D01*
Y117450D01*
X276938Y115850D01*
X277844Y114494D01*
X279200Y113588D01*
X279941Y113441D01*
Y86520D01*
X279400Y86412D01*
X278044Y85506D01*
X277138Y84150D01*
X276820Y82550D01*
Y77450D01*
X277138Y75850D01*
X278044Y74494D01*
X279400Y73588D01*
X280041Y73460D01*
Y66540D01*
X279400Y66412D01*
X278044Y65506D01*
X277138Y64150D01*
X276820Y62550D01*
Y57450D01*
X277138Y55850D01*
X278044Y54494D01*
X279400Y53588D01*
X279941Y53480D01*
Y46560D01*
X279200Y46412D01*
X277844Y45506D01*
X276938Y44150D01*
X276620Y42550D01*
Y37450D01*
X276938Y35850D01*
X277844Y34494D01*
X279200Y33588D01*
X280800Y33270D01*
X285000D01*
X286600Y33588D01*
X287956Y34494D01*
X288862Y35850D01*
X289180Y37450D01*
Y42550D01*
X288862Y44150D01*
X287956Y45506D01*
X286600Y46412D01*
X286059Y46520D01*
Y53440D01*
X286800Y53588D01*
X288156Y54494D01*
X289062Y55850D01*
X289380Y57450D01*
Y62550D01*
X289062Y64150D01*
X288156Y65506D01*
X286800Y66412D01*
X286159Y66540D01*
Y73460D01*
X286800Y73588D01*
X288156Y74494D01*
X289062Y75850D01*
X289380Y77450D01*
Y82550D01*
X289062Y84150D01*
X288156Y85506D01*
X286800Y86412D01*
X286059Y86559D01*
Y113480D01*
X286600Y113588D01*
X287956Y114494D01*
X288862Y115850D01*
X289180Y117450D01*
Y122550D01*
X288862Y124150D01*
X287956Y125506D01*
X286600Y126412D01*
X285959Y126540D01*
Y192100D01*
X285959Y192100D01*
X285726Y193270D01*
X285063Y194263D01*
X285063Y194263D01*
X277163Y202163D01*
X276171Y202826D01*
X275000Y203059D01*
X275000Y203059D01*
X267039D01*
Y215000D01*
X266884Y215780D01*
X266442Y216442D01*
X265780Y216884D01*
X265000Y217039D01*
X235000D01*
X234220Y216884D01*
X233558Y216442D01*
X233116Y215780D01*
X232961Y215000D01*
Y200845D01*
X229893Y197777D01*
X228505Y197695D01*
X227525Y197932D01*
X226930Y199039D01*
X227185Y200320D01*
Y201300D01*
X220000D01*
X212815D01*
Y200320D01*
X213070Y199039D01*
X212321Y197646D01*
X212040Y197312D01*
X209960D01*
X209679Y197646D01*
X208930Y199039D01*
X209185Y200320D01*
Y201300D01*
X202000D01*
X194815D01*
Y200897D01*
X193355Y200090D01*
X192870Y200014D01*
X191442Y201442D01*
X190780Y201884D01*
X190000Y202039D01*
X172649D01*
X172569Y202140D01*
X171923Y204039D01*
X190532Y222648D01*
X193061Y222638D01*
X193225Y222425D01*
X195209Y220902D01*
X197520Y219944D01*
X198750Y219783D01*
Y229200D01*
Y238617D01*
X197520Y238456D01*
X195209Y237498D01*
X194039Y236600D01*
X192039Y237587D01*
Y241750D01*
X218000D01*
Y295000D01*
X495000D01*
Y5000D01*
D02*
G37*
G36*
X94961Y290591D02*
X95000Y290394D01*
Y290193D01*
X95038Y290000D01*
X95000Y289807D01*
Y289606D01*
X94961Y289409D01*
Y274000D01*
X95116Y273220D01*
X95558Y272558D01*
X96220Y272116D01*
X97000Y271961D01*
X98648D01*
X99436Y271000D01*
X99689Y269732D01*
X100326Y268500D01*
X99689Y267268D01*
X99436Y266000D01*
X99689Y264732D01*
X100407Y263657D01*
Y263343D01*
X99689Y262268D01*
X99436Y261000D01*
X99689Y259732D01*
X100407Y258657D01*
Y258343D01*
X99689Y257268D01*
X99436Y256000D01*
X99689Y254732D01*
X100326Y253500D01*
X99689Y252268D01*
X99436Y251000D01*
X99689Y249732D01*
X100407Y248657D01*
X101482Y247939D01*
X102750Y247686D01*
X107250D01*
X109000Y246038D01*
Y241750D01*
X114802D01*
X115315Y241136D01*
X116058Y239750D01*
X115820Y238550D01*
Y233450D01*
X116138Y231850D01*
X117044Y230494D01*
X118400Y229588D01*
X120000Y229270D01*
X124200D01*
X125800Y229588D01*
X127156Y230494D01*
X128062Y231850D01*
X128380Y233450D01*
Y238550D01*
X128196Y239474D01*
X129438Y241136D01*
X130562D01*
X131804Y239474D01*
X131620Y238550D01*
Y237250D01*
X137900D01*
Y236000D01*
X139150D01*
Y229270D01*
X140000D01*
X141600Y229588D01*
X142956Y230494D01*
X143265Y230957D01*
X145542Y230823D01*
X145720Y230445D01*
X145068Y229650D01*
X144926Y229386D01*
X144760Y229137D01*
X144740Y229037D01*
X144692Y228948D01*
X144663Y228650D01*
X144605Y228356D01*
X144624Y228257D01*
X144614Y228156D01*
X144701Y227869D01*
X144760Y227576D01*
X144816Y227492D01*
X144846Y227395D01*
X145036Y227163D01*
X145202Y226914D01*
X146894Y225222D01*
X146289Y223297D01*
X145961Y223129D01*
X145680Y223185D01*
X144700D01*
Y216000D01*
X143450D01*
D01*
X144700D01*
Y208815D01*
X145680D01*
X147365Y209151D01*
X148794Y210106D01*
X149749Y211535D01*
X149980Y212696D01*
X152020D01*
X152251Y211535D01*
X153206Y210106D01*
X153962Y209600D01*
Y203000D01*
X153500D01*
Y187000D01*
X153500D01*
X153722Y185000D01*
X153002Y184059D01*
X144564D01*
X144479Y184141D01*
X143656Y186302D01*
X144122Y187000D01*
X144500D01*
Y203000D01*
X134500D01*
Y187000D01*
X134500D01*
X133759Y185307D01*
X133526Y184959D01*
X128540D01*
X128412Y185600D01*
X128115Y186045D01*
X127672Y187500D01*
X128115Y188955D01*
X128412Y189400D01*
X128730Y191000D01*
Y195200D01*
X128412Y196800D01*
X127506Y198156D01*
X126150Y199062D01*
X124550Y199380D01*
X119450D01*
X117850Y199062D01*
X116494Y198156D01*
X115588Y196800D01*
X115270Y195200D01*
Y191000D01*
X115588Y189400D01*
X115886Y188955D01*
X116057Y188392D01*
X115524Y187536D01*
X114904Y187358D01*
X113090Y187234D01*
X112150Y187862D01*
X110550Y188180D01*
X105450D01*
X103850Y187862D01*
X102494Y186956D01*
X102134Y186416D01*
X99866D01*
X99506Y186956D01*
X98150Y187862D01*
X96550Y188180D01*
X91450D01*
X89850Y187862D01*
X88494Y186956D01*
X87588Y185600D01*
X87270Y184000D01*
Y179945D01*
X81837Y174513D01*
X81174Y173521D01*
X80941Y172350D01*
X80941Y172350D01*
Y150253D01*
X78941Y149184D01*
X78600Y149412D01*
X77000Y149730D01*
X72800D01*
X71200Y149412D01*
X69844Y148506D01*
X68938Y147150D01*
X68620Y145550D01*
Y140450D01*
X68686Y140119D01*
X66842Y139133D01*
X65380Y140596D01*
Y145550D01*
X65062Y147150D01*
X64156Y148506D01*
X62800Y149412D01*
X62159Y149540D01*
Y158900D01*
X62159Y158900D01*
X61926Y160070D01*
X61263Y161063D01*
X61263Y161063D01*
X40163Y182163D01*
X39170Y182826D01*
X38000Y183059D01*
X38000Y183059D01*
X29500D01*
Y189500D01*
X10500D01*
Y170500D01*
X29500D01*
Y176941D01*
X36733D01*
X56041Y157633D01*
Y149540D01*
X55400Y149412D01*
X54044Y148506D01*
X53138Y147150D01*
X52820Y145550D01*
Y140450D01*
X53138Y138850D01*
X54044Y137494D01*
X54606Y137118D01*
X54661Y134851D01*
X54144Y134506D01*
X53238Y133150D01*
X53021Y132059D01*
X46867D01*
X28538Y150388D01*
X29255Y152120D01*
X29582Y154600D01*
X29255Y157080D01*
X28298Y159391D01*
X26776Y161375D01*
X24791Y162898D01*
X22480Y163855D01*
X20000Y164182D01*
X17520Y163855D01*
X15209Y162898D01*
X13225Y161375D01*
X11702Y159391D01*
X10745Y157080D01*
X10418Y154600D01*
X10745Y152120D01*
X11702Y149809D01*
X13225Y147824D01*
X15209Y146302D01*
X17520Y145344D01*
X20000Y145018D01*
X22480Y145344D01*
X24212Y146062D01*
X43437Y126837D01*
X44429Y126174D01*
X45600Y125941D01*
X53021D01*
X53238Y124850D01*
X54144Y123494D01*
X55500Y122588D01*
X56141Y122460D01*
Y115800D01*
X56141Y115800D01*
X56374Y114629D01*
X57037Y113637D01*
X82587Y88087D01*
X82587Y88087D01*
X83580Y87424D01*
X84750Y87191D01*
X89185D01*
X90254Y85191D01*
X90203Y85116D01*
X89931Y83750D01*
X90203Y82384D01*
X90977Y81227D01*
Y79773D01*
X90203Y78616D01*
X89931Y77250D01*
X90203Y75884D01*
X90977Y74727D01*
Y73273D01*
X90203Y72116D01*
X89931Y70750D01*
X90203Y69384D01*
X90977Y68227D01*
X92134Y67453D01*
X93500Y67182D01*
X100500D01*
X101866Y67453D01*
X103023Y68227D01*
X103797Y69384D01*
X104068Y70750D01*
X103797Y72116D01*
X103023Y73273D01*
Y74727D01*
X103797Y75884D01*
X104068Y77250D01*
X103797Y78616D01*
X103023Y79773D01*
Y81227D01*
X103797Y82384D01*
X104068Y83750D01*
X103797Y85116D01*
X103023Y86273D01*
Y87727D01*
X103797Y88884D01*
X104068Y90250D01*
X103797Y91616D01*
X103023Y92773D01*
Y94227D01*
X103797Y95384D01*
X104068Y96750D01*
X103797Y98116D01*
X103023Y99273D01*
Y100727D01*
X103797Y101884D01*
X104068Y103250D01*
X103797Y104616D01*
X103746Y104691D01*
X104815Y106691D01*
X114143D01*
X114348Y105659D01*
X115674Y103674D01*
X117659Y102348D01*
X120000Y101882D01*
X122341Y102348D01*
X124326Y103674D01*
X125652Y105659D01*
X126117Y108000D01*
X125652Y110341D01*
X124326Y112326D01*
X123620Y112797D01*
Y115203D01*
X124326Y115674D01*
X125652Y117659D01*
X126117Y120000D01*
X125652Y122341D01*
X125238Y122961D01*
X126307Y124961D01*
X150000D01*
X150000Y124961D01*
X150780Y125116D01*
X151442Y125558D01*
X151442Y125558D01*
X152129Y126245D01*
X154194Y125755D01*
X154609Y124723D01*
X154203Y124116D01*
X153931Y122750D01*
X154203Y121384D01*
X154977Y120227D01*
Y118773D01*
X154203Y117616D01*
X153931Y116250D01*
X154203Y114884D01*
X154977Y113727D01*
Y112273D01*
X154203Y111116D01*
X153931Y109750D01*
X154203Y108384D01*
X154977Y107227D01*
Y105773D01*
X154203Y104616D01*
X153931Y103250D01*
X154203Y101884D01*
X154254Y101809D01*
X153185Y99809D01*
X146750D01*
X145579Y99576D01*
X144587Y98913D01*
X144587Y98913D01*
X137837Y92163D01*
X137174Y91171D01*
X136941Y90000D01*
X136941Y90000D01*
Y65172D01*
X135674Y64326D01*
X134910Y63182D01*
X133287Y62620D01*
X132458Y62839D01*
X131600Y63412D01*
X130000Y63730D01*
X125800D01*
X124200Y63412D01*
X122844Y62506D01*
X121938Y61150D01*
X121657Y59738D01*
X120154Y58773D01*
X119060Y59252D01*
X118372Y59590D01*
X118062Y61150D01*
X117156Y62506D01*
X115800Y63412D01*
X114200Y63730D01*
X110000D01*
X108400Y63412D01*
X107044Y62506D01*
X106138Y61150D01*
X105820Y59550D01*
Y54450D01*
X106138Y52850D01*
X106389Y52474D01*
X106880Y51000D01*
X106389Y49526D01*
X106138Y49150D01*
X105820Y47550D01*
Y42450D01*
X105898Y42059D01*
X104444Y40059D01*
X90000D01*
X88829Y39826D01*
X87837Y39163D01*
X85837Y37163D01*
X85174Y36170D01*
X84941Y35000D01*
X84941Y35000D01*
Y32000D01*
X84941Y32000D01*
X85174Y30830D01*
X85837Y29837D01*
X87837Y27837D01*
X88829Y27174D01*
X89895Y26962D01*
X90122Y26622D01*
X90952Y26067D01*
X91061Y25000D01*
X90952Y23933D01*
X90122Y23378D01*
X89431Y22344D01*
X89214Y21250D01*
X95500D01*
Y18750D01*
X89214D01*
X89431Y17656D01*
X90122Y16622D01*
X90952Y16067D01*
X91061Y15000D01*
X90952Y13933D01*
X90122Y13378D01*
X89431Y12344D01*
X89189Y11125D01*
Y8875D01*
X89431Y7656D01*
X89869Y7000D01*
X89428Y5634D01*
X88983Y5000D01*
X5000D01*
X5000Y260961D01*
X5000Y262961D01*
X12006D01*
X12462Y262367D01*
X12906Y260961D01*
X11702Y259391D01*
X10745Y257080D01*
X10583Y255850D01*
X20000D01*
X29417D01*
X29255Y257080D01*
X28298Y259391D01*
X27094Y260961D01*
X27538Y262367D01*
X27994Y262961D01*
X32961D01*
Y249000D01*
X33116Y248220D01*
X33558Y247558D01*
X34220Y247116D01*
X35000Y246961D01*
X36627D01*
X37696Y244961D01*
X37588Y244800D01*
X37270Y243200D01*
Y239000D01*
X37588Y237400D01*
X38494Y236044D01*
X38517Y236029D01*
X38713Y234039D01*
X37837Y233163D01*
X37174Y232171D01*
X37143Y232016D01*
X36017Y231792D01*
X34633Y230867D01*
X33708Y229483D01*
X33383Y227850D01*
Y223650D01*
X33708Y222017D01*
X34633Y220633D01*
X36017Y219708D01*
X37650Y219383D01*
X42350D01*
X43983Y219708D01*
X45367Y220633D01*
X46292Y222017D01*
X46617Y223650D01*
Y227850D01*
X46292Y229483D01*
X45367Y230867D01*
X45262Y231936D01*
X46163Y232837D01*
X46163Y232837D01*
X46826Y233829D01*
X47042Y234918D01*
X48150Y235138D01*
X49506Y236044D01*
X49866Y236584D01*
X52134D01*
X52494Y236044D01*
X53850Y235138D01*
X54941Y234921D01*
Y231976D01*
X54017Y231792D01*
X52633Y230867D01*
X51708Y229483D01*
X51383Y227850D01*
Y223650D01*
X51708Y222017D01*
X52633Y220633D01*
X54017Y219708D01*
X55650Y219383D01*
X59009D01*
X60012Y217383D01*
X59440Y216617D01*
X55650D01*
X54017Y216292D01*
X52633Y215367D01*
X51708Y213983D01*
X51383Y212350D01*
Y208150D01*
X51708Y206517D01*
X50691Y204439D01*
X50447Y204378D01*
X46617Y208209D01*
Y212350D01*
X46292Y213983D01*
X45367Y215367D01*
X43983Y216292D01*
X42350Y216617D01*
X37650D01*
X36017Y216292D01*
X34633Y215367D01*
X33708Y213983D01*
X33383Y212350D01*
Y208150D01*
X33708Y206517D01*
X34633Y205133D01*
X36017Y204208D01*
X37650Y203883D01*
X42291D01*
X48337Y197837D01*
X48337Y197837D01*
X49329Y197174D01*
X50500Y196941D01*
X50500Y196941D01*
X65000D01*
X65000Y196941D01*
X66171Y197174D01*
X67163Y197837D01*
X72163Y202837D01*
X72826Y203829D01*
X73059Y205000D01*
X73059Y205000D01*
Y245999D01*
X74750Y247686D01*
X75750D01*
Y251000D01*
X77000D01*
Y252250D01*
X82315D01*
X82311Y252268D01*
X81674Y253500D01*
X82311Y254732D01*
X82564Y256000D01*
X82311Y257268D01*
X81674Y258500D01*
X82311Y259732D01*
X82564Y261000D01*
X82311Y262268D01*
X81593Y263343D01*
Y263657D01*
X82311Y264732D01*
X82564Y266000D01*
X82311Y267268D01*
X81674Y268500D01*
X82311Y269732D01*
X82564Y271000D01*
X84365Y271961D01*
X85000D01*
X85780Y272116D01*
X86442Y272558D01*
X86884Y273220D01*
X87039Y274000D01*
Y289409D01*
X87000Y289606D01*
Y289807D01*
X86962Y290000D01*
X87000Y290193D01*
Y290394D01*
X87039Y290591D01*
Y295000D01*
X94961D01*
Y290591D01*
D02*
G37*
G36*
X265000Y203059D02*
X259500D01*
Y209500D01*
X251250D01*
Y200000D01*
X250000D01*
Y198750D01*
X240500D01*
Y190500D01*
X245298D01*
X245696Y188500D01*
X245209Y188298D01*
X243225Y186775D01*
X241862Y185000D01*
X240000D01*
X230000Y175000D01*
Y160031D01*
X228221Y158907D01*
X228000Y158892D01*
X226550Y159180D01*
X225250D01*
Y152900D01*
Y146620D01*
X226550D01*
X227937Y146896D01*
X229580Y145742D01*
Y144258D01*
X227937Y143104D01*
X226550Y143380D01*
X221450D01*
X219850Y143062D01*
X218494Y142156D01*
X217588Y140800D01*
X217429Y140000D01*
X163000D01*
X150000Y127000D01*
X105428D01*
X104724Y128000D01*
X97000D01*
Y129250D01*
X95750D01*
Y132819D01*
X93500D01*
X93059Y132731D01*
X91059Y134051D01*
Y136400D01*
X93059Y137469D01*
X93535Y137151D01*
X95220Y136815D01*
X96200D01*
Y144000D01*
Y151185D01*
X95220D01*
X94773Y151096D01*
X92636Y152369D01*
X92538Y152535D01*
X92450Y153124D01*
X96063Y156737D01*
X96063Y156737D01*
X96726Y157730D01*
X96959Y158900D01*
X98150Y160138D01*
X99506Y161044D01*
X99866Y161584D01*
X102134D01*
X102494Y161044D01*
X103850Y160138D01*
X105450Y159820D01*
X110550D01*
X112150Y160138D01*
X113506Y161044D01*
X113866Y161583D01*
X116134D01*
X116494Y161044D01*
X117850Y160138D01*
X119450Y159820D01*
X120750D01*
Y166100D01*
X123250D01*
Y159820D01*
X124550D01*
X125941Y160096D01*
X126253Y160081D01*
X128129Y159055D01*
X128174Y158829D01*
X128837Y157837D01*
X130837Y155837D01*
X130837Y155837D01*
X131830Y155174D01*
X133000Y154941D01*
X133000Y154941D01*
X137328D01*
X137328Y154941D01*
X138499Y155174D01*
X139491Y155837D01*
X141389Y157735D01*
X142479Y157411D01*
X143250Y156847D01*
X142882Y155000D01*
X143348Y152659D01*
X144674Y150674D01*
X146659Y149348D01*
X149000Y148883D01*
X151341Y149348D01*
X153326Y150674D01*
X154652Y152659D01*
X155045Y154637D01*
X156130Y155230D01*
X157069Y155443D01*
X158756Y153756D01*
X160244Y152761D01*
X162000Y152412D01*
X178000D01*
X179756Y152761D01*
X181244Y153756D01*
X184244Y156756D01*
X185239Y158244D01*
X185588Y160000D01*
Y161000D01*
X190000D01*
Y177000D01*
X172000D01*
Y161588D01*
X163901D01*
X163588Y161901D01*
Y168500D01*
X164682Y170500D01*
X166000D01*
Y200000D01*
X190000D01*
X195000Y195000D01*
X195807D01*
X196413Y193000D01*
X196106Y192794D01*
X195151Y191365D01*
X194815Y189680D01*
Y188700D01*
X202000D01*
X209185D01*
Y189680D01*
X208849Y191365D01*
X207894Y192794D01*
X207587Y193000D01*
X208193Y195000D01*
X213807D01*
X214413Y193000D01*
X214106Y192794D01*
X213151Y191365D01*
X212815Y189680D01*
Y188700D01*
X220000D01*
X227185D01*
Y189680D01*
X226849Y191365D01*
X225894Y192794D01*
X225587Y193000D01*
X226193Y195000D01*
X230000D01*
X235000Y200000D01*
Y215000D01*
X265000D01*
Y203059D01*
D02*
G37*
G36*
X217270Y135000D02*
X217588Y133400D01*
X218494Y132044D01*
X219850Y131138D01*
X220941Y130921D01*
Y113267D01*
X210863Y103189D01*
X208874Y103400D01*
X208298Y104791D01*
X206775Y106776D01*
X204791Y108298D01*
X202480Y109256D01*
X200000Y109582D01*
X197520Y109256D01*
X195209Y108298D01*
X193225Y106776D01*
X191702Y104791D01*
X191399Y104059D01*
X184537D01*
X184103Y104691D01*
X184171Y105239D01*
X185060Y106832D01*
X185520Y106924D01*
X186513Y107587D01*
X194826Y115900D01*
X209500D01*
Y134900D01*
X190500D01*
Y120226D01*
X183083Y112809D01*
X168815D01*
X167746Y114809D01*
X167797Y114884D01*
X168069Y116250D01*
X167797Y117616D01*
X167023Y118773D01*
Y120227D01*
X167797Y121384D01*
X168069Y122750D01*
X167797Y124116D01*
X167023Y125273D01*
Y126727D01*
X167797Y127884D01*
X167820Y128000D01*
X161000D01*
Y130500D01*
X167820D01*
X167797Y130616D01*
X167023Y131773D01*
X165866Y132547D01*
X164500Y132819D01*
X161316D01*
X160550Y134666D01*
X163845Y137961D01*
X217270D01*
Y135000D01*
D02*
G37*
G36*
X241530Y104375D02*
X240744Y102480D01*
X240418Y100000D01*
X240744Y97520D01*
X241702Y95209D01*
X243225Y93225D01*
X245209Y91702D01*
X246704Y91082D01*
Y88918D01*
X245209Y88298D01*
X243225Y86775D01*
X241702Y84791D01*
X240744Y82480D01*
X240418Y80000D01*
X240744Y77520D01*
X241702Y75209D01*
X243225Y73225D01*
X245209Y71702D01*
X246704Y71082D01*
Y68918D01*
X245209Y68298D01*
X243225Y66775D01*
X241702Y64791D01*
X240744Y62480D01*
X240418Y60000D01*
X240744Y57520D01*
X241530Y55624D01*
X239834Y54492D01*
X232163Y62163D01*
X231171Y62826D01*
X230000Y63059D01*
X230000Y63059D01*
X200440D01*
X200309Y65059D01*
X202480Y65345D01*
X204791Y66302D01*
X206775Y67825D01*
X208298Y69809D01*
X209256Y72120D01*
X209417Y73350D01*
X200000D01*
X190583D01*
X190745Y72120D01*
X191702Y69809D01*
X192878Y68276D01*
X191371Y66955D01*
X179520Y78805D01*
X179894Y80784D01*
X180062Y81019D01*
X180913Y81587D01*
X184267Y84941D01*
X194915D01*
X195313Y82941D01*
X195209Y82898D01*
X193225Y81376D01*
X191702Y79391D01*
X190745Y77080D01*
X190583Y75850D01*
X200000D01*
X209417D01*
X209256Y77080D01*
X208298Y79391D01*
X206775Y81376D01*
X204791Y82898D01*
X204687Y82941D01*
X205085Y84941D01*
X218000D01*
X218000Y84941D01*
X219170Y85174D01*
X220163Y85837D01*
X239834Y105508D01*
X241530Y104375D01*
D02*
G37*
G36*
X184837Y47837D02*
X185830Y47174D01*
X187000Y46941D01*
X187000Y46941D01*
X220733D01*
X224941Y42733D01*
Y36805D01*
X222941Y35731D01*
X221000Y36117D01*
X218659Y35652D01*
X216674Y34326D01*
X215661Y32809D01*
X215532D01*
X214747Y33333D01*
X213625Y33556D01*
X210375D01*
X209253Y33333D01*
X208302Y32698D01*
X207667Y31747D01*
X207444Y30625D01*
Y29711D01*
X205444Y28882D01*
X202663Y31663D01*
X201670Y32326D01*
X200500Y32559D01*
X200500Y32559D01*
X199791D01*
X199698Y32698D01*
X198747Y33333D01*
X197625Y33556D01*
X197250D01*
Y29750D01*
X196000D01*
Y28500D01*
X191518D01*
X191667Y27753D01*
X192179Y26500D01*
X191667Y25247D01*
X191444Y24125D01*
Y22375D01*
X191667Y21253D01*
X192302Y20302D01*
Y19698D01*
X191667Y18747D01*
X191518Y18000D01*
X196000D01*
Y15500D01*
X191136D01*
X190726Y15000D01*
X188296D01*
X188000Y15059D01*
X186849Y16365D01*
X185894Y17794D01*
X184465Y18749D01*
X183304Y18980D01*
Y21020D01*
X184465Y21251D01*
X185894Y22206D01*
X186849Y23635D01*
X187185Y25320D01*
Y26300D01*
X180000D01*
X172815D01*
Y25320D01*
X173151Y23635D01*
X174106Y22206D01*
X175535Y21251D01*
X176696Y21020D01*
Y18980D01*
X175535Y18749D01*
X174106Y17794D01*
X173151Y16365D01*
X172879Y15000D01*
X170121D01*
X169849Y16365D01*
X168894Y17794D01*
X167465Y18749D01*
X166304Y18980D01*
Y21020D01*
X167465Y21251D01*
X168894Y22206D01*
X169849Y23635D01*
X170185Y25320D01*
Y26300D01*
X163000D01*
X155815D01*
Y25320D01*
X156151Y23635D01*
X157106Y22206D01*
X158535Y21251D01*
X159697Y21020D01*
Y18980D01*
X158535Y18749D01*
X157106Y17794D01*
X156151Y16365D01*
X155879Y15000D01*
X153121D01*
X152849Y16365D01*
X151894Y17794D01*
X150465Y18749D01*
X149304Y18980D01*
Y21020D01*
X150465Y21251D01*
X151894Y22206D01*
X152849Y23635D01*
X153185Y25320D01*
Y26300D01*
X146000D01*
X138815D01*
Y25320D01*
X139151Y23635D01*
X140106Y22206D01*
X141535Y21251D01*
X142697Y21020D01*
Y18980D01*
X141535Y18749D01*
X140106Y17794D01*
X139151Y16365D01*
X138879Y15000D01*
X131017D01*
X130572Y15634D01*
X130131Y17000D01*
X130569Y17656D01*
X130786Y18750D01*
X124500D01*
Y21250D01*
X130786D01*
X130569Y22344D01*
X129878Y23378D01*
X129048Y23933D01*
X128939Y25000D01*
X129048Y26067D01*
X129878Y26622D01*
X130105Y26962D01*
X131171Y27174D01*
X132163Y27837D01*
X134163Y29837D01*
X134826Y30830D01*
X135059Y32000D01*
Y35000D01*
X134826Y36170D01*
X134163Y37163D01*
X132855Y38471D01*
X132956Y39494D01*
X133862Y40850D01*
X134079Y41941D01*
X140000D01*
X140000Y41941D01*
X141171Y42174D01*
X142163Y42837D01*
X151267Y51941D01*
X180733D01*
X184837Y47837D01*
D02*
G37*
G36*
X204337Y21337D02*
X205329Y20674D01*
X206500Y20441D01*
X207108Y19558D01*
X207606Y18441D01*
X207444Y17625D01*
Y15875D01*
X207667Y14753D01*
X208179Y13500D01*
X207667Y12247D01*
X207444Y11125D01*
Y9375D01*
X207667Y8253D01*
X208302Y7302D01*
X208755Y7000D01*
X208162Y5000D01*
X199838D01*
X199245Y7000D01*
X199698Y7302D01*
X200333Y8253D01*
X200482Y9000D01*
X196000D01*
Y11500D01*
X200482D01*
X200333Y12247D01*
X199821Y13500D01*
X200333Y14753D01*
X200556Y15875D01*
Y17625D01*
X200333Y18747D01*
X199698Y19698D01*
Y20302D01*
X200333Y21253D01*
X200542Y22304D01*
X200757Y22450D01*
X202556Y23118D01*
X204337Y21337D01*
D02*
G37*
%LPC*%
G36*
X29500Y289500D02*
X21250D01*
Y281250D01*
X29500D01*
Y289500D01*
D02*
G37*
G36*
X18750D02*
X10500D01*
Y281250D01*
X18750D01*
Y289500D01*
D02*
G37*
G36*
X75750Y274314D02*
X74750D01*
X73482Y274062D01*
X72407Y273343D01*
X71689Y272268D01*
X71685Y272250D01*
X75750D01*
Y274314D01*
D02*
G37*
G36*
X29500Y278750D02*
X21250D01*
Y270500D01*
X29500D01*
Y278750D01*
D02*
G37*
G36*
X18750D02*
X10500D01*
Y270500D01*
X18750D01*
Y278750D01*
D02*
G37*
G36*
X60185Y271200D02*
X54250D01*
Y265815D01*
X55780D01*
X57465Y266151D01*
X58894Y267106D01*
X59849Y268535D01*
X60185Y270221D01*
Y271200D01*
D02*
G37*
G36*
X51750D02*
X45815D01*
Y270221D01*
X46151Y268535D01*
X47106Y267106D01*
X48535Y266151D01*
X50220Y265815D01*
X51750D01*
Y271200D01*
D02*
G37*
G36*
X42750Y263180D02*
X41450D01*
X39850Y262862D01*
X38494Y261956D01*
X37588Y260600D01*
X37270Y259000D01*
Y258150D01*
X42750D01*
Y263180D01*
D02*
G37*
G36*
X124200Y289730D02*
X123350D01*
Y284250D01*
X128380D01*
Y285550D01*
X128062Y287150D01*
X127156Y288506D01*
X125800Y289412D01*
X124200Y289730D01*
D02*
G37*
G36*
X120850D02*
X120000D01*
X118400Y289412D01*
X117044Y288506D01*
X116138Y287150D01*
X115820Y285550D01*
Y284250D01*
X120850D01*
Y289730D01*
D02*
G37*
G36*
X128380Y281750D02*
X123350D01*
Y276270D01*
X124200D01*
X125800Y276588D01*
X127156Y277494D01*
X128062Y278850D01*
X128380Y280450D01*
Y281750D01*
D02*
G37*
G36*
X120850D02*
X115820D01*
Y280450D01*
X116138Y278850D01*
X117044Y277494D01*
X118400Y276588D01*
X120000Y276270D01*
X120850D01*
Y281750D01*
D02*
G37*
G36*
X107250Y274314D02*
X106250D01*
Y272250D01*
X110315D01*
X110311Y272268D01*
X109593Y273343D01*
X108518Y274061D01*
X107250Y274314D01*
D02*
G37*
G36*
X124780Y273185D02*
X123250D01*
Y267800D01*
X129185D01*
Y268780D01*
X128849Y270465D01*
X127894Y271894D01*
X126465Y272849D01*
X124780Y273185D01*
D02*
G37*
G36*
X120750D02*
X119221D01*
X117535Y272849D01*
X116106Y271894D01*
X115151Y270465D01*
X114815Y268780D01*
Y267800D01*
X120750D01*
Y273185D01*
D02*
G37*
G36*
X140000Y289730D02*
X139150D01*
Y284250D01*
X144180D01*
Y285550D01*
X143862Y287150D01*
X142956Y288506D01*
X141600Y289412D01*
X140000Y289730D01*
D02*
G37*
G36*
X209500Y289500D02*
X201250D01*
Y281250D01*
X209500D01*
Y289500D01*
D02*
G37*
G36*
X198750D02*
X190500D01*
Y281250D01*
X198750D01*
Y289500D01*
D02*
G37*
G36*
X209500Y278750D02*
X201250D01*
Y270500D01*
X209500D01*
Y278750D01*
D02*
G37*
G36*
X198750D02*
X190500D01*
Y270500D01*
X198750D01*
Y278750D01*
D02*
G37*
G36*
X170000Y242730D02*
X165800D01*
X164200Y242412D01*
X162844Y241506D01*
X161938Y240150D01*
X161620Y238550D01*
Y233450D01*
X161938Y231850D01*
X162844Y230494D01*
X164200Y229588D01*
X165800Y229270D01*
X170000D01*
X171600Y229588D01*
X172956Y230494D01*
X173862Y231850D01*
X174180Y233450D01*
Y238550D01*
X173862Y240150D01*
X172956Y241506D01*
X171600Y242412D01*
X170000Y242730D01*
D02*
G37*
G36*
X160779Y223185D02*
X159800D01*
Y217250D01*
X165185D01*
Y218780D01*
X164849Y220465D01*
X163894Y221894D01*
X162465Y222849D01*
X160779Y223185D01*
D02*
G37*
G36*
X201250Y238617D02*
Y230450D01*
X209417D01*
X209256Y231680D01*
X208298Y233991D01*
X206775Y235975D01*
X204791Y237498D01*
X202480Y238456D01*
X201250Y238617D01*
D02*
G37*
G36*
X209417Y227950D02*
X201250D01*
Y219783D01*
X202480Y219944D01*
X204791Y220902D01*
X206775Y222425D01*
X208298Y224409D01*
X209256Y226720D01*
X209417Y227950D01*
D02*
G37*
G36*
X204779Y209185D02*
X203250D01*
Y203800D01*
X209185D01*
Y204779D01*
X208849Y206465D01*
X207894Y207894D01*
X206465Y208849D01*
X204779Y209185D01*
D02*
G37*
G36*
X200750D02*
X199221D01*
X197535Y208849D01*
X196106Y207894D01*
X195151Y206465D01*
X194815Y204779D01*
Y203800D01*
X200750D01*
Y209185D01*
D02*
G37*
G36*
X222780D02*
X221250D01*
Y203800D01*
X227185D01*
Y204779D01*
X226849Y206465D01*
X225894Y207894D01*
X224465Y208849D01*
X222780Y209185D01*
D02*
G37*
G36*
X218750D02*
X217220D01*
X215535Y208849D01*
X214106Y207894D01*
X213151Y206465D01*
X212815Y204779D01*
Y203800D01*
X218750D01*
Y209185D01*
D02*
G37*
G36*
X82315Y249750D02*
X78250D01*
Y247686D01*
X79250D01*
X80518Y247939D01*
X81593Y248657D01*
X82311Y249732D01*
X82315Y249750D01*
D02*
G37*
G36*
X29417Y253350D02*
X21250D01*
Y245183D01*
X22480Y245345D01*
X24791Y246302D01*
X26776Y247824D01*
X28298Y249809D01*
X29255Y252120D01*
X29417Y253350D01*
D02*
G37*
G36*
X18750D02*
X10583D01*
X10745Y252120D01*
X11702Y249809D01*
X13225Y247824D01*
X15209Y246302D01*
X17520Y245345D01*
X18750Y245183D01*
Y253350D01*
D02*
G37*
G36*
X136650Y234750D02*
X131620D01*
Y233450D01*
X131938Y231850D01*
X132844Y230494D01*
X134200Y229588D01*
X135800Y229270D01*
X136650D01*
Y234750D01*
D02*
G37*
G36*
X142200Y223185D02*
X141221D01*
X139535Y222849D01*
X138106Y221894D01*
X137151Y220465D01*
X136815Y218780D01*
Y217250D01*
X142200D01*
Y223185D01*
D02*
G37*
G36*
X124550Y215180D02*
X123250D01*
Y210150D01*
X128730D01*
Y211000D01*
X128412Y212600D01*
X127506Y213956D01*
X126150Y214862D01*
X124550Y215180D01*
D02*
G37*
G36*
X120750D02*
X119450D01*
X117850Y214862D01*
X116494Y213956D01*
X115588Y212600D01*
X115270Y211000D01*
Y210150D01*
X120750D01*
Y215180D01*
D02*
G37*
G36*
X142200Y214750D02*
X136815D01*
Y213221D01*
X137151Y211535D01*
X138106Y210106D01*
X139535Y209151D01*
X141221Y208815D01*
X142200D01*
Y214750D01*
D02*
G37*
G36*
X128730Y207650D02*
X123250D01*
Y202620D01*
X124550D01*
X126150Y202938D01*
X127506Y203844D01*
X128412Y205200D01*
X128730Y206800D01*
Y207650D01*
D02*
G37*
G36*
X120750D02*
X115270D01*
Y206800D01*
X115588Y205200D01*
X116494Y203844D01*
X117850Y202938D01*
X119450Y202620D01*
X120750D01*
Y207650D01*
D02*
G37*
G36*
X21250Y138617D02*
Y130450D01*
X29417D01*
X29255Y131680D01*
X28298Y133991D01*
X26776Y135975D01*
X24791Y137498D01*
X22480Y138455D01*
X21250Y138617D01*
D02*
G37*
G36*
X18750D02*
X17520Y138455D01*
X15209Y137498D01*
X13225Y135975D01*
X11702Y133991D01*
X10745Y131680D01*
X10583Y130450D01*
X18750D01*
Y138617D01*
D02*
G37*
G36*
X29417Y127950D02*
X21250D01*
Y119783D01*
X22480Y119944D01*
X24791Y120902D01*
X26776Y122424D01*
X28298Y124409D01*
X29255Y126720D01*
X29417Y127950D01*
D02*
G37*
G36*
X18750D02*
X10583D01*
X10745Y126720D01*
X11702Y124409D01*
X13225Y122424D01*
X15209Y120902D01*
X17520Y119944D01*
X18750Y119783D01*
Y127950D01*
D02*
G37*
G36*
X21250Y113217D02*
Y105050D01*
X29417D01*
X29255Y106280D01*
X28298Y108591D01*
X26776Y110575D01*
X24791Y112098D01*
X22480Y113055D01*
X21250Y113217D01*
D02*
G37*
G36*
X18750D02*
X17520Y113055D01*
X15209Y112098D01*
X13225Y110575D01*
X11702Y108591D01*
X10745Y106280D01*
X10583Y105050D01*
X18750D01*
Y113217D01*
D02*
G37*
G36*
X29417Y102550D02*
X21250D01*
Y94383D01*
X22480Y94544D01*
X24791Y95502D01*
X26776Y97024D01*
X28298Y99009D01*
X29255Y101320D01*
X29417Y102550D01*
D02*
G37*
G36*
X18750D02*
X10583D01*
X10745Y101320D01*
X11702Y99009D01*
X13225Y97024D01*
X15209Y95502D01*
X17520Y94544D01*
X18750Y94383D01*
Y102550D01*
D02*
G37*
G36*
X248750Y209500D02*
X240500D01*
Y201250D01*
X248750D01*
Y209500D01*
D02*
G37*
G36*
X190000Y195000D02*
X182250D01*
Y188250D01*
X190000D01*
Y195000D01*
D02*
G37*
G36*
X179750D02*
X172000D01*
Y188250D01*
X179750D01*
Y195000D01*
D02*
G37*
G36*
X227185Y186200D02*
X221250D01*
Y180815D01*
X222780D01*
X224465Y181151D01*
X225894Y182106D01*
X226849Y183535D01*
X227185Y185221D01*
Y186200D01*
D02*
G37*
G36*
X218750D02*
X212815D01*
Y185221D01*
X213151Y183535D01*
X214106Y182106D01*
X215535Y181151D01*
X217220Y180815D01*
X218750D01*
Y186200D01*
D02*
G37*
G36*
X209185Y186200D02*
X203250D01*
Y180815D01*
X204779D01*
X206465Y181151D01*
X207894Y182106D01*
X208849Y183535D01*
X209185Y185221D01*
Y186200D01*
D02*
G37*
G36*
X200750D02*
X194815D01*
Y185221D01*
X195151Y183535D01*
X196106Y182106D01*
X197535Y181151D01*
X199221Y180815D01*
X200750D01*
Y186200D01*
D02*
G37*
G36*
X190000Y185750D02*
X182250D01*
Y179000D01*
X190000D01*
Y185750D01*
D02*
G37*
G36*
X179750D02*
X172000D01*
Y179000D01*
X179750D01*
Y185750D01*
D02*
G37*
G36*
X222750Y159180D02*
X221450D01*
X219850Y158862D01*
X218494Y157956D01*
X217588Y156600D01*
X217270Y155000D01*
Y154150D01*
X222750D01*
Y159180D01*
D02*
G37*
G36*
X114780Y151185D02*
X110321D01*
X108635Y150849D01*
X107206Y149894D01*
X106251Y148465D01*
X106020Y147303D01*
X103980D01*
X103749Y148465D01*
X102794Y149894D01*
X101365Y150849D01*
X99679Y151185D01*
X98700D01*
Y144000D01*
Y136815D01*
X99679D01*
X101365Y137151D01*
X102794Y138106D01*
X103749Y139535D01*
X103980Y140696D01*
X106020D01*
X106251Y139535D01*
X107206Y138106D01*
X108635Y137151D01*
X110321Y136815D01*
X114780D01*
X116465Y137151D01*
X117894Y138106D01*
X118849Y139535D01*
X119185Y141221D01*
Y146779D01*
X118849Y148465D01*
X117894Y149894D01*
X116465Y150849D01*
X114780Y151185D01*
D02*
G37*
G36*
X222750Y151650D02*
X217270D01*
Y150800D01*
X217588Y149200D01*
X218494Y147844D01*
X219850Y146938D01*
X221450Y146620D01*
X222750D01*
Y151650D01*
D02*
G37*
G36*
X100500Y132819D02*
X98250D01*
Y130500D01*
X103820D01*
X103797Y130616D01*
X103023Y131773D01*
X101866Y132547D01*
X100500Y132819D01*
D02*
G37*
G36*
X194750Y33556D02*
X194375D01*
X193253Y33333D01*
X192302Y32698D01*
X191667Y31747D01*
X191518Y31000D01*
X194750D01*
Y33556D01*
D02*
G37*
G36*
X165779Y34185D02*
X164250D01*
Y28800D01*
X170185D01*
Y29780D01*
X169849Y31465D01*
X168894Y32894D01*
X167465Y33849D01*
X165779Y34185D01*
D02*
G37*
G36*
X148779D02*
X147250D01*
Y28800D01*
X153185D01*
Y29780D01*
X152849Y31465D01*
X151894Y32894D01*
X150465Y33849D01*
X148779Y34185D01*
D02*
G37*
G36*
X161750D02*
X160221D01*
X158535Y33849D01*
X157106Y32894D01*
X156151Y31465D01*
X155815Y29780D01*
Y28800D01*
X161750D01*
Y34185D01*
D02*
G37*
G36*
X144750D02*
X143221D01*
X141535Y33849D01*
X140106Y32894D01*
X139151Y31465D01*
X138815Y29780D01*
Y28800D01*
X144750D01*
Y34185D01*
D02*
G37*
G36*
X182780D02*
X181250D01*
Y28800D01*
X187185D01*
Y29780D01*
X186849Y31465D01*
X185894Y32894D01*
X184465Y33849D01*
X182780Y34185D01*
D02*
G37*
G36*
X178750D02*
X177220D01*
X175535Y33849D01*
X174106Y32894D01*
X173151Y31465D01*
X172815Y29780D01*
Y28800D01*
X178750D01*
Y34185D01*
D02*
G37*
%LPD*%
D11*
X58000Y210250D02*
X58250D01*
X66000Y218000D01*
X118376Y108000D02*
X120000D01*
X116626Y109750D02*
X118376Y108000D01*
X97000Y109750D02*
X116626D01*
X173750Y129250D02*
X174000Y129000D01*
X161000Y129250D02*
X173750D01*
X180000Y10000D02*
Y12450D01*
X163000Y11000D02*
X163000Y11000D01*
Y12450D01*
X112100Y45000D02*
Y57000D01*
X220750Y29750D02*
X221000Y30000D01*
X212000Y29750D02*
X220750D01*
X144350Y25900D02*
X146000Y27550D01*
X180000Y12450D02*
X180450Y12000D01*
X188000D01*
X189750Y10250D01*
X196000D01*
X196250Y10000D02*
X201000D01*
X196000Y10250D02*
X196250Y10000D01*
X201000D02*
X202000Y11000D01*
Y21000D01*
X200000Y23000D02*
X202000Y21000D01*
X196250Y23000D02*
X200000D01*
X196000Y23250D02*
X196250Y23000D01*
X112550Y144000D02*
X113000D01*
X158500Y195000D02*
X158550Y195050D01*
X165000Y252000D02*
Y252100D01*
X137900Y236000D02*
X138000D01*
X167900D02*
X168000D01*
X121646Y251096D02*
X122000Y251450D01*
X105096Y251096D02*
X121646D01*
X105000Y251000D02*
X105096Y251096D01*
X122050Y236050D02*
X122100Y236000D01*
X122050Y236050D02*
Y251400D01*
X122000Y251450D02*
X122050Y251400D01*
X152050Y236050D02*
X152100Y236000D01*
X152050Y236050D02*
Y252050D01*
X152000Y252100D02*
X152050Y252050D01*
X152000Y262000D02*
Y267900D01*
X150000Y260000D02*
X152000Y262000D01*
X147350Y260000D02*
X150000D01*
X139450Y252100D02*
X147350Y260000D01*
X139000Y252100D02*
X139450D01*
X131650Y259000D02*
X138550Y252100D01*
X139000D01*
X122000Y266550D02*
X122050Y266600D01*
Y282950D02*
X122100Y283000D01*
X122000Y266550D02*
X122550Y266000D01*
X152000Y267900D02*
X165000D01*
X114000Y259000D02*
X131650D01*
X112000Y261000D02*
X114000Y259000D01*
X105000Y261000D02*
X112000D01*
X44000Y235000D02*
Y241100D01*
X40000Y231000D02*
X44000Y235000D01*
X40000Y225750D02*
Y231000D01*
X58000Y225750D02*
Y241100D01*
X91000Y257000D02*
Y261000D01*
X53000Y287550D02*
Y288000D01*
X228000Y13000D02*
Y44000D01*
X222000Y50000D02*
X228000Y44000D01*
X187000Y50000D02*
X222000D01*
X219000Y18000D02*
X221000D01*
X217750Y16750D02*
X219000Y18000D01*
X212000Y16750D02*
X217750D01*
X225000Y10000D02*
X228000Y13000D01*
X212250Y10000D02*
X225000D01*
Y55000D02*
X232000Y48000D01*
Y13000D02*
Y48000D01*
Y13000D02*
X237000Y8000D01*
X88000Y35000D02*
X90000Y37000D01*
X88000Y32000D02*
Y35000D01*
Y32000D02*
X90000Y30000D01*
X95500D01*
X95500Y30000D01*
X90000Y37000D02*
X118000D01*
X120000Y39000D01*
Y54000D01*
X123000Y57000D01*
X127900D01*
X95500Y20000D02*
X110000D01*
X212000Y10250D02*
X212250Y10000D01*
X182000Y55000D02*
X187000Y50000D01*
X150000Y55000D02*
X182000D01*
X127900Y39100D02*
Y45000D01*
Y39100D02*
X132000Y35000D01*
Y32000D02*
Y35000D01*
X124500Y30000D02*
X124500Y30000D01*
X130000D02*
X132000Y32000D01*
X124500Y30000D02*
X130000D01*
X137000Y57000D02*
X140000Y60000D01*
X127900Y57000D02*
X137000D01*
X127900Y45000D02*
X140000D01*
X150000Y55000D01*
Y62000D01*
X145000Y67000D02*
X150000Y62000D01*
X145000Y67000D02*
Y86000D01*
X200500Y29500D02*
X206500Y23500D01*
X196250Y29500D02*
X200500D01*
X206500Y23500D02*
X211750D01*
X149250Y90250D02*
X161000D01*
X145000Y86000D02*
X149250Y90250D01*
X146750Y96750D02*
X161000D01*
X140000Y90000D02*
X146750Y96750D01*
X140000Y60000D02*
Y90000D01*
X116250Y116250D02*
X120000Y120000D01*
X97000Y116250D02*
X116250D01*
X84750Y90250D02*
X97000D01*
X59200Y115800D02*
X84750Y90250D01*
X59200Y115800D02*
Y129000D01*
X59100Y142550D02*
X67000Y134650D01*
Y118000D02*
Y134650D01*
Y118000D02*
X88250Y96750D01*
X59100Y142550D02*
Y143000D01*
X88250Y96750D02*
X97000D01*
X129128Y174000D02*
X131000Y172128D01*
X116350Y174000D02*
X129128D01*
X108450Y181900D02*
X116350Y174000D01*
X133000Y158000D02*
X137328D01*
X131000Y160000D02*
X133000Y158000D01*
X131000Y160000D02*
Y172128D01*
X137328Y158000D02*
X139500Y160172D01*
X108000Y181900D02*
X108450D01*
X139500Y160172D02*
Y169000D01*
X158500Y184500D02*
Y195000D01*
X155000Y181000D02*
X158500Y184500D01*
X143000Y181000D02*
X155000D01*
X139500Y177500D02*
X143000Y181000D01*
X139500Y169000D02*
Y177500D01*
X122000Y181900D02*
X136900D01*
X139500Y184500D01*
Y195000D01*
X122000Y181900D02*
Y193100D01*
X94000Y166100D02*
X108000D01*
X84000Y107000D02*
Y172350D01*
X93550Y181900D01*
X94000D01*
X84000Y107000D02*
X87750Y103250D01*
X97000D01*
X88000Y153000D02*
X93900Y158900D01*
Y166000D01*
X94000Y166100D01*
X88000Y125000D02*
Y153000D01*
Y125000D02*
X90059Y122941D01*
X96809D01*
X97000Y122750D01*
X85000Y251000D02*
X91000Y257000D01*
X77000Y251000D02*
X85000D01*
X75000D02*
X77000D01*
X50500Y200000D02*
X65000D01*
X40250Y210250D02*
X50500Y200000D01*
X65000D02*
X70000Y205000D01*
X73000Y256000D02*
X77000D01*
X70000Y253000D02*
X73000Y256000D01*
X70000Y205000D02*
Y253000D01*
X77000Y256000D02*
X77000Y256000D01*
X69000Y261000D02*
X77000D01*
X66000Y258000D02*
X69000Y261000D01*
X66000Y218000D02*
Y258000D01*
X42000Y225750D02*
X43000Y226750D01*
X274000Y8000D02*
X298900Y32900D01*
X237000Y8000D02*
X274000D01*
X192000Y55000D02*
X225000D01*
X298900Y60000D02*
X470000D01*
X176250Y70750D02*
X192000Y55000D01*
X161000Y70750D02*
X176250D01*
X230000Y60000D02*
X250000Y40000D01*
X194000Y60000D02*
X230000D01*
X176750Y77250D02*
X194000Y60000D01*
X161000Y77250D02*
X176750D01*
X298900Y32900D02*
Y60000D01*
X183000Y88000D02*
X218000D01*
X250000Y120000D01*
X178750Y83750D02*
X183000Y88000D01*
X161000Y83750D02*
X178750D01*
X20000Y154600D02*
X45600Y129000D01*
X59200D01*
X20000Y180000D02*
X38000D01*
X59100Y158900D01*
Y143000D02*
Y158900D01*
X200000Y100000D02*
X212000D01*
X199000Y101000D02*
X200000Y100000D01*
X212000D02*
X224000Y112000D01*
Y137100D01*
X182000Y101000D02*
X199000D01*
X179750Y103250D02*
X182000Y101000D01*
X161000Y103250D02*
X179750D01*
X161000Y109750D02*
X184350D01*
X200000Y125400D01*
X470000Y60000D02*
X470000Y60000D01*
X298900Y80000D02*
X470000D01*
X250000Y40000D02*
X250000Y40000D01*
X267100D01*
X250000Y120000D02*
X267100D01*
X267100Y120000D01*
X250000Y200000D02*
X275000D01*
X282900Y192100D01*
Y120000D02*
Y192100D01*
Y120000D02*
X283000Y119900D01*
Y80100D02*
Y119900D01*
Y80100D02*
X283100Y80000D01*
Y60000D02*
Y80000D01*
X283000Y59900D02*
X283100Y60000D01*
X283000Y40100D02*
Y59900D01*
X282900Y40000D02*
X283000Y40100D01*
D30*
X137900Y283000D02*
D03*
X122100D02*
D03*
X167900Y236000D02*
D03*
X152100D02*
D03*
X137900D02*
D03*
X122100D02*
D03*
X74900Y143000D02*
D03*
X59100D02*
D03*
X75000Y129000D02*
D03*
X59200D02*
D03*
X282900Y40000D02*
D03*
X267100D02*
D03*
X298900Y60000D02*
D03*
X283100D02*
D03*
X298900Y80000D02*
D03*
X283100D02*
D03*
X282900Y120000D02*
D03*
X267100D02*
D03*
X127900Y45000D02*
D03*
X112100D02*
D03*
X127900Y57000D02*
D03*
X112100D02*
D03*
D31*
X139000Y267900D02*
D03*
Y252100D02*
D03*
X152000Y267900D02*
D03*
Y252100D02*
D03*
X165000Y267900D02*
D03*
Y252100D02*
D03*
X122000Y181900D02*
D03*
Y166100D02*
D03*
X108000Y181900D02*
D03*
Y166100D02*
D03*
X94000Y181900D02*
D03*
Y166100D02*
D03*
X122000Y208900D02*
D03*
Y193100D02*
D03*
X224000Y152900D02*
D03*
Y137100D02*
D03*
X58000Y256900D02*
D03*
Y241100D02*
D03*
X44000Y256900D02*
D03*
Y241100D02*
D03*
D32*
X158550Y216000D02*
D03*
X143450D02*
D03*
X112550Y144000D02*
D03*
X97450D02*
D03*
D33*
X158500Y195000D02*
D03*
Y169000D02*
D03*
X149000D02*
D03*
X139500Y195000D02*
D03*
D34*
Y169000D02*
D03*
D35*
X122000Y266550D02*
D03*
Y251450D02*
D03*
X220000Y202550D02*
D03*
Y187450D02*
D03*
X202000Y202550D02*
D03*
Y187450D02*
D03*
X180000Y27550D02*
D03*
Y12450D02*
D03*
X163000Y27550D02*
D03*
Y12450D02*
D03*
X146000Y27550D02*
D03*
Y12450D02*
D03*
X53000Y287550D02*
D03*
Y272450D02*
D03*
D36*
X161000Y129250D02*
D03*
Y116250D02*
D03*
Y122750D02*
D03*
Y103250D02*
D03*
Y109750D02*
D03*
Y96750D02*
D03*
Y83750D02*
D03*
X161000Y70750D02*
D03*
X161000Y90250D02*
D03*
Y77250D02*
D03*
X97000Y109750D02*
D03*
Y116250D02*
D03*
Y96750D02*
D03*
Y103250D02*
D03*
Y129250D02*
D03*
Y122750D02*
D03*
Y83750D02*
D03*
Y90250D02*
D03*
Y77250D02*
D03*
Y70750D02*
D03*
D37*
X181000Y187000D02*
D03*
Y169000D02*
D03*
D38*
X124500Y30000D02*
D03*
Y20000D02*
D03*
Y10000D02*
D03*
X95500Y30000D02*
D03*
Y20000D02*
D03*
Y10000D02*
D03*
D39*
X110000Y20000D02*
D03*
D40*
X212000Y29750D02*
D03*
Y23250D02*
D03*
Y16750D02*
D03*
Y10250D02*
D03*
X196000Y29750D02*
D03*
Y23250D02*
D03*
Y10250D02*
D03*
Y16750D02*
D03*
D41*
X105000Y271000D02*
D03*
Y266000D02*
D03*
Y261000D02*
D03*
Y251000D02*
D03*
Y256000D02*
D03*
X77000Y271000D02*
D03*
Y266000D02*
D03*
Y256000D02*
D03*
Y261000D02*
D03*
X77000Y251000D02*
D03*
D42*
X91000Y261000D02*
D03*
D43*
X58000Y225750D02*
D03*
Y210250D02*
D03*
X40000Y225750D02*
D03*
Y210250D02*
D03*
D44*
X122000Y166100D02*
X122000Y166100D01*
X149000Y155000D02*
Y169000D01*
X158550Y195050D02*
Y216000D01*
X181000Y160000D02*
Y169000D01*
X178000Y157000D02*
X181000Y160000D01*
X162000Y157000D02*
X178000D01*
X159000Y160000D02*
X162000Y157000D01*
X159000Y160000D02*
Y168500D01*
X158500Y169000D02*
X159000Y168500D01*
D45*
X96450Y144000D02*
X96450Y144000D01*
X97450D01*
X74900Y143000D02*
X74950Y142950D01*
Y129050D02*
Y142950D01*
Y129050D02*
X75000Y129000D01*
X44000Y256900D02*
X58000D01*
X196000Y29750D02*
X196250Y29500D01*
X211750Y23500D02*
X212000Y23250D01*
D46*
X200000Y100000D02*
D03*
Y74600D02*
D03*
Y254600D02*
D03*
Y229200D02*
D03*
X20000Y129200D02*
D03*
Y103800D02*
D03*
Y154600D02*
D03*
Y254600D02*
D03*
X470000Y20000D02*
D03*
Y40000D02*
D03*
Y80000D02*
D03*
Y60000D02*
D03*
Y200000D02*
D03*
Y160000D02*
D03*
Y180000D02*
D03*
Y140000D02*
D03*
Y120000D02*
D03*
Y100000D02*
D03*
X250000D02*
D03*
Y120000D02*
D03*
Y140000D02*
D03*
Y180000D02*
D03*
Y160000D02*
D03*
Y60000D02*
D03*
Y80000D02*
D03*
Y40000D02*
D03*
Y20000D02*
D03*
D47*
X200000Y125400D02*
D03*
Y280000D02*
D03*
X20000Y180000D02*
D03*
Y280000D02*
D03*
X250000Y200000D02*
D03*
D48*
X465000Y265000D02*
D03*
X35000Y35000D02*
D03*
D49*
X91000Y290000D02*
D03*
X100000Y240000D02*
D03*
X80000D02*
D03*
X174000Y129000D02*
D03*
X180000Y12450D02*
D03*
X163000D02*
D03*
X146000D02*
D03*
X112100Y45000D02*
D03*
X165000D02*
D03*
X221000Y30000D02*
D03*
X97450Y144000D02*
D03*
X74900Y143000D02*
D03*
X113000Y144000D02*
D03*
X149000Y155000D02*
D03*
X165000Y252000D02*
D03*
X138000Y236000D02*
D03*
X168000D02*
D03*
X91000Y267000D02*
D03*
Y255000D02*
D03*
X53000Y287550D02*
D03*
X221000Y18000D02*
D03*
X110000Y12000D02*
D03*
Y28000D02*
D03*
X140000Y60000D02*
D03*
X120000Y108000D02*
D03*
Y120000D02*
D03*
M02*
